<svg width="114" height="38" viewBox="0 0 114 38" fill="none" xmlns="http://www.w3.org/2000/svg">
<path d="M16.608 27.552C18 26.64 18.816 25.584 18.816 24.432C18.816 22.944 17.568 21.84 14.64 21.84C11.184 21.84 9.312 23.232 9.312 25.536C9.312 28.416 12.528 30.144 19.872 32.592L17.04 37.824C7.296 35.04 2.64 31.104 2.64 25.632C2.64 22.944 3.6 20.928 5.28 19.488C3.456 17.904 2.592 16.176 2.592 14.304C2.592 10.416 5.568 8.304 10.944 8.304H16.848V5.52H0V0.143998H27.888V5.52H23.472V13.44H11.952C10.032 13.44 9.168 14.112 9.168 15.312C9.168 15.984 9.504 16.608 10.176 17.184C11.616 16.848 13.248 16.656 14.976 16.656C22.368 16.656 25.44 20.16 25.44 24.192C25.44 26.688 24.432 28.752 22.08 30.72L16.608 27.552ZM27.1875 5.52V0.143998H63.2835V5.52H58.8675V30H52.1955V14.88H52.1475C49.5075 14.88 47.8275 16.896 47.2035 21.6L40.8195 20.112C41.0115 18.48 41.3955 17.04 41.9235 15.792C41.1555 15.312 40.2435 14.976 39.1875 14.976C36.8835 14.976 35.5875 16.416 35.5875 18.576C35.5875 21.36 37.6515 23.424 43.2195 26.208L39.6675 31.104C32.9475 27.936 28.8675 23.808 28.8675 18.144C28.8675 12.384 32.6595 9.552 38.0355 9.552C40.8195 9.552 42.9795 10.416 44.8035 11.904C46.5795 10.416 48.9315 9.648 51.7635 9.648C51.9075 9.648 52.0515 9.648 52.1955 9.648V5.52H27.1875ZM92.289 5.52H87.873V30H81.201V24.192C79.473 25.152 77.313 25.728 74.769 25.728C68.433 25.728 64.305 22.608 64.305 16.944C64.305 11.424 68.241 8.448 74.673 8.448C76.641 8.448 78.321 8.64 79.713 8.976L79.185 14.208C78.129 13.968 76.977 13.824 75.633 13.824C72.753 13.824 71.025 15.024 71.025 17.136C71.025 19.104 72.561 20.304 75.153 20.304C77.553 20.304 79.857 19.152 81.201 17.328V5.52H62.625V0.143998H92.289V5.52ZM111.322 26.784L106.714 31.056C101.53 26.64 97.6898 22.848 95.3378 19.536C93.8018 17.472 93.1777 15.936 93.1777 14.304C93.1777 12.288 94.5698 10.992 96.7298 10.992C98.3618 10.992 99.7058 11.664 101.146 12.912C102.682 11.856 103.354 10.464 103.354 8.592C103.354 7.488 103.162 6.432 102.826 5.52H91.5938V0.143998H113.482V5.52H109.45C109.786 6.624 110.026 7.92 110.026 9.552C110.026 14.256 107.098 17.232 102.394 19.056C105.034 21.648 108.01 24.192 111.322 26.784Z" fill="#020202"/>
</svg>
