<svg width="162" height="38" viewBox="0 0 162 38" fill="none" xmlns="http://www.w3.org/2000/svg">
<path d="M13.624 10.72C16.568 10.72 18.904 11.168 20.632 12.064C22.392 12.928 23.656 14.032 24.424 15.376C25.192 16.72 25.576 18.096 25.576 19.504C25.576 22.128 24.744 24.144 23.08 25.552C21.448 26.928 19.128 27.856 16.12 28.336L15.016 26.368C16.616 26.784 18.2 27.296 19.768 27.904C21.336 28.512 22.888 29.232 24.424 30.064C25.992 30.896 27.528 31.84 29.032 32.896L25.672 37.36C24.168 36.272 22.568 35.264 20.872 34.336C19.208 33.408 17.432 32.576 15.544 31.84C13.688 31.072 11.736 30.4 9.688 29.824C7.64 29.248 5.48 28.784 3.208 28.432L4.264 23.392C5.384 23.68 6.472 23.904 7.528 24.064C8.616 24.224 9.704 24.304 10.792 24.304C12.84 24.304 14.472 24.112 15.688 23.728C16.904 23.312 17.784 22.752 18.328 22.048C18.904 21.344 19.192 20.512 19.192 19.552C19.192 18.4 18.744 17.472 17.848 16.768C16.984 16.064 15.752 15.712 14.152 15.712C13.224 15.712 12.472 15.792 11.896 15.952C11.352 16.112 10.952 16.368 10.696 16.72C10.472 17.04 10.36 17.44 10.36 17.92C10.36 18.08 10.392 18.272 10.456 18.496C10.52 18.72 10.584 18.912 10.648 19.072L4.696 19.936C4.504 19.456 4.344 18.912 4.216 18.304C4.088 17.664 4.024 17.072 4.024 16.528C4.024 15.376 4.408 14.368 5.176 13.504C5.944 12.608 7.048 11.92 8.488 11.44C9.928 10.96 11.64 10.72 13.624 10.72ZM7.96 13.456C7.8 12.4 7.32 11.488 6.52 10.72C5.72 9.952 4.568 9.392 3.064 9.04L6.712 6.928L8.92 7.456C10.712 8.192 12.008 9.008 12.808 9.904C13.608 10.8 14.072 11.936 14.2 13.312L7.96 13.456ZM28.984 4.144V9.424H0.52V4.144H28.984ZM43.5876 4.144V9.424H38.9796V34H32.6436V12.688C32.2596 11.696 31.7156 10.912 31.0116 10.336C30.3076 9.728 29.3956 9.424 28.2756 9.424H28.0356V4.144H28.9956C29.7316 4.144 30.4196 4.336 31.0596 4.72C31.6996 5.104 32.2916 5.92 32.8356 7.168C32.8036 7.008 32.7556 6.64 32.6916 6.064C32.6596 5.488 32.6436 4.992 32.6436 4.576V0.975999H37.8276L38.9316 4.144H43.5876ZM80.8218 4.144V9.424H76.2138V34H69.8778V18.88L71.1738 21.616C70.6618 20.688 70.0538 19.888 69.3498 19.216C68.6458 18.544 67.8458 18.208 66.9498 18.208C66.6298 18.208 66.2618 18.288 65.8458 18.448C65.4618 18.608 65.1258 18.912 64.8378 19.36C64.5818 19.808 64.4538 20.464 64.4538 21.328C64.4538 21.616 64.4698 21.888 64.5018 22.144C64.5338 22.368 64.5658 22.608 64.5978 22.864L59.1738 23.2C59.0138 22.144 58.6938 21.232 58.2138 20.464C57.7658 19.664 57.1898 19.056 56.4858 18.64C55.7818 18.224 54.9338 18.016 53.9418 18.016C53.3658 18.016 52.8538 18.128 52.4058 18.352C51.9578 18.544 51.6058 18.832 51.3498 19.216C51.1258 19.6 51.0138 20.048 51.0138 20.56C51.0138 21.712 51.4618 22.608 52.3578 23.248C53.2858 23.888 54.4058 24.416 55.7178 24.832L53.8938 30.208C51.9738 29.664 50.3098 28.944 48.9018 28.048C47.4938 27.12 46.4058 26.016 45.6378 24.736C44.8698 23.456 44.4858 21.984 44.4858 20.32C44.4858 18.72 44.8698 17.344 45.6378 16.192C46.4378 15.04 47.4938 14.16 48.8058 13.552C50.1178 12.912 51.5578 12.592 53.1258 12.592C55.0138 12.592 56.5978 12.912 57.8778 13.552C59.1578 14.16 60.4858 15.168 61.8618 16.576L60.9978 16.24C61.3498 15.12 61.9738 14.272 62.8698 13.696C63.7658 13.12 64.7098 12.832 65.7018 12.832C66.8218 12.832 67.8138 13.056 68.6778 13.504C69.5738 13.952 70.4058 14.56 71.1738 15.328L70.1178 16.096C70.0538 15.392 69.9898 14.688 69.9258 13.984C69.8938 13.28 69.8778 12.576 69.8778 11.872V9.424H42.6137V4.144H80.8218ZM101.575 32.608C99.3354 32.608 97.1914 32.304 95.1434 31.696C93.1274 31.088 91.2394 30.064 89.4794 28.624C87.7514 27.184 86.1834 25.232 84.7754 22.768C83.3674 20.304 82.1514 17.2 81.1274 13.456L87.1274 11.776C88.2474 15.648 89.4634 18.704 90.7754 20.944C92.1194 23.152 93.6394 24.736 95.3354 25.696C97.0314 26.624 98.9514 27.088 101.095 27.088C102.631 27.088 103.927 26.864 104.983 26.416C106.071 25.968 106.903 25.312 107.479 24.448C108.055 23.584 108.343 22.544 108.343 21.328C108.343 20.496 108.247 19.76 108.055 19.12C107.863 18.48 107.591 17.904 107.239 17.392C106.919 16.88 106.551 16.448 106.135 16.096L111.127 12.064C112.343 13.696 113.223 15.328 113.767 16.96C114.343 18.592 114.631 20.32 114.631 22.144C114.631 24.128 114.135 25.92 113.143 27.52C112.183 29.088 110.727 30.336 108.775 31.264C106.855 32.16 104.455 32.608 101.575 32.608ZM99.8954 21.712C97.7194 21.712 95.9914 21.2 94.7114 20.176C93.4634 19.12 92.8394 17.696 92.8394 15.904C92.8394 15.136 92.9354 14.4 93.1274 13.696C93.3194 12.992 93.5594 12.352 93.8474 11.776L99.5114 13.168C99.3834 13.456 99.2714 13.728 99.1754 13.984C99.1114 14.208 99.0794 14.464 99.0794 14.752C99.0794 15.36 99.2554 15.792 99.6074 16.048C99.9594 16.304 100.407 16.432 100.951 16.432C101.559 16.432 102.103 16.336 102.583 16.144C103.095 15.92 103.607 15.568 104.119 15.088C104.631 14.576 105.191 13.872 105.799 12.976L111.127 12.064L111.367 15.088C110.311 16.496 109.207 17.696 108.055 18.688C106.903 19.68 105.655 20.432 104.311 20.944C102.999 21.456 101.527 21.712 99.8954 21.712ZM116.839 4.144V9.424H79.8794V4.144H116.839ZM131.431 4.144V9.424H126.823V34H120.487V12.688C120.103 11.696 119.559 10.912 118.855 10.336C118.151 9.728 117.239 9.424 116.119 9.424H115.879V4.144H116.839C117.575 4.144 118.263 4.336 118.903 4.72C119.543 5.104 120.135 5.92 120.679 7.168C120.647 7.008 120.599 6.64 120.535 6.064C120.503 5.488 120.487 4.992 120.487 4.576V0.975999H125.671L126.775 4.144H131.431ZM161.946 4.144V9.424H157.338V34H151.002C149.818 32.272 148.362 30.752 146.634 29.44C144.906 28.128 142.986 27.04 140.874 26.176C138.762 25.28 136.506 24.64 134.105 24.256L131.706 18.592C134.65 16.96 137.866 15.392 141.354 13.888C144.874 12.352 148.33 11.136 151.722 10.24L151.146 11.824V9.424H130.457V4.144H161.946ZM151.002 14.848L151.674 15.76C150.266 16.176 148.89 16.656 147.546 17.2C146.202 17.712 144.858 18.256 143.514 18.832C142.202 19.408 140.858 20.032 139.482 20.704C140.474 20.896 141.514 21.2 142.602 21.616C143.722 22.032 144.842 22.544 145.962 23.152C147.114 23.76 148.202 24.48 149.226 25.312C150.25 26.112 151.178 27.008 152.01 28L151.146 28.384C151.114 27.648 151.082 26.912 151.05 26.176C151.018 25.44 151.002 24.72 151.002 24.016V14.848ZM155.177 29.056C154.186 27.072 152.762 25.312 150.906 23.776C149.082 22.208 146.986 20.928 144.618 19.936C142.282 18.912 139.834 18.224 137.273 17.872L139.962 15.856C141.914 16.208 143.802 16.704 145.626 17.344C147.482 17.952 149.21 18.816 150.81 19.936C152.41 21.024 153.786 22.48 154.938 24.304L155.177 29.056Z" fill="#020202"/>
</svg>
