<svg width="334" height="52" viewBox="0 0 334 52" fill="none" xmlns="http://www.w3.org/2000/svg">
<path d="M25.688 40.24C23.416 40.24 21.448 39.952 19.784 39.376C18.152 38.768 16.888 37.808 15.992 36.496C15.096 35.152 14.584 33.36 14.456 31.12L13.592 11.776H20.36L21.176 28.768C21.24 30.08 21.448 31.088 21.8 31.792C22.184 32.464 22.728 32.928 23.432 33.184C24.136 33.408 25.048 33.52 26.168 33.52C27.384 33.52 28.248 33.84 28.76 34.48C29.272 35.088 29.528 35.856 29.528 36.784C29.528 37.776 29.192 38.608 28.52 39.28C27.88 39.92 26.936 40.24 25.688 40.24ZM16.904 35.776C14.76 36.256 12.696 36.48 10.712 36.448C8.728 36.384 6.952 36.032 5.384 35.392C3.816 34.72 2.568 33.76 1.64 32.512C0.744 31.264 0.296 29.68 0.296 27.76C0.296 26.064 0.664 24.528 1.4 23.152C2.168 21.744 3.224 20.512 4.568 19.456C5.944 18.4 7.544 17.504 9.368 16.768C11.192 16.032 13.176 15.472 15.32 15.088L15.992 21.904C14.616 21.968 13.368 22.16 12.248 22.48C11.16 22.768 10.216 23.152 9.416 23.632C8.648 24.112 8.056 24.656 7.64 25.264C7.224 25.84 7.016 26.464 7.016 27.136C7.016 27.68 7.208 28.128 7.592 28.48C7.976 28.832 8.488 29.12 9.128 29.344C9.768 29.536 10.504 29.648 11.336 29.68C12.168 29.712 13.016 29.664 13.88 29.536C14.776 29.408 15.656 29.2 16.52 28.912L16.904 35.776ZM17.048 6.832C16.12 6.832 15.32 6.512 14.648 5.872C14.008 5.2 13.688 4.416 13.688 3.52C13.688 2.592 14.008 1.792 14.648 1.12C15.32 0.447998 16.12 0.111999 17.048 0.111999C17.944 0.111999 18.712 0.447998 19.352 1.12C19.992 1.792 20.312 2.592 20.312 3.52C20.312 4.416 19.992 5.2 19.352 5.872C18.712 6.512 17.944 6.832 17.048 6.832ZM8.744 6.784C7.816 6.784 7.016 6.464 6.344 5.824C5.704 5.152 5.384 4.368 5.384 3.472C5.384 2.544 5.704 1.744 6.344 1.072C7.016 0.399999 7.816 0.0639992 8.744 0.0639992C9.64 0.0639992 10.408 0.399999 11.048 1.072C11.688 1.744 12.008 2.544 12.008 3.472C12.008 4.368 11.688 5.152 11.048 5.824C10.408 6.464 9.64 6.784 8.744 6.784ZM25.6719 40.24L26.1519 33.52C27.3039 33.52 28.2959 33.408 29.1279 33.184C29.9599 32.96 30.6639 32.512 31.2399 31.84C31.8159 31.136 32.2959 30.112 32.6799 28.768C33.0959 27.424 33.4639 25.632 33.7839 23.392L40.0719 24.448C40.0079 24.928 39.9119 25.488 39.7839 26.128C39.6879 26.768 39.5919 27.424 39.4959 28.096C39.4319 28.736 39.3999 29.344 39.3999 29.92C39.3999 30.496 39.5119 31.008 39.7359 31.456C39.9599 31.904 40.3119 32.288 40.7919 32.608C41.3039 32.896 41.9599 33.12 42.7599 33.28C43.5919 33.44 44.5999 33.52 45.7839 33.52C46.9999 33.52 47.8639 33.84 48.3759 34.48C48.8879 35.088 49.1439 35.856 49.1439 36.784C49.1439 37.776 48.8079 38.608 48.1359 39.28C47.4959 39.92 46.5519 40.24 45.3039 40.24C43.8639 40.24 42.5519 40.128 41.3679 39.904C40.2159 39.68 39.2079 39.312 38.3439 38.8C37.5119 38.256 36.8239 37.552 36.2799 36.688C35.7679 35.792 35.4479 34.704 35.3199 33.424H37.6239C37.0479 34.96 36.3119 36.192 35.4159 37.12C34.5519 38.016 33.5759 38.688 32.4879 39.136C31.3999 39.584 30.2639 39.872 29.0799 40C27.9279 40.16 26.7919 40.24 25.6719 40.24ZM39.0639 51.376C38.1359 51.376 37.3359 51.04 36.6639 50.368C36.0239 49.728 35.7039 48.96 35.7039 48.064C35.7039 47.136 36.0239 46.336 36.6639 45.664C37.3359 44.992 38.1359 44.656 39.0639 44.656C39.9599 44.656 40.7279 44.992 41.3679 45.664C42.0079 46.336 42.3279 47.136 42.3279 48.064C42.3279 48.96 42.0079 49.728 41.3679 50.368C40.7279 51.04 39.9599 51.376 39.0639 51.376ZM30.7599 51.376C29.8319 51.376 29.0319 51.04 28.3599 50.368C27.7199 49.728 27.3999 48.96 27.3999 48.064C27.3999 47.136 27.7199 46.336 28.3599 45.664C29.0319 44.992 29.8319 44.656 30.7599 44.656C31.6559 44.656 32.4239 44.992 33.0639 45.664C33.7039 46.336 34.0239 47.136 34.0239 48.064C34.0239 48.96 33.7039 49.728 33.0639 50.368C32.4239 51.04 31.6559 51.376 30.7599 51.376ZM45.3125 40.24L45.7925 33.52C47.0085 33.52 47.9685 33.408 48.6725 33.184C49.4085 32.96 49.9845 32.512 50.4005 31.84C50.8485 31.136 51.2165 30.112 51.5045 28.768C51.8245 27.424 52.1445 25.632 52.4645 23.392L58.7525 24.448C58.6885 24.928 58.5925 25.488 58.4645 26.128C58.3685 26.768 58.2725 27.424 58.1765 28.096C58.1125 28.736 58.0805 29.344 58.0805 29.92C58.0805 30.688 58.2405 31.344 58.5605 31.888C58.9125 32.4 59.5205 32.8 60.3845 33.088C61.2805 33.376 62.5605 33.52 64.2245 33.52C65.4405 33.52 66.3045 33.84 66.8165 34.48C67.3285 35.088 67.5845 35.856 67.5845 36.784C67.5845 37.776 67.2485 38.608 66.5765 39.28C65.9365 39.92 64.9925 40.24 63.7445 40.24C61.5365 40.24 59.7445 40.032 58.3685 39.616C56.9925 39.2 55.9685 38.496 55.2965 37.504C54.6245 36.512 54.1925 35.152 54.0005 33.424H56.3045C55.7285 34.96 55.0565 36.192 54.2885 37.12C53.5205 38.016 52.6565 38.688 51.6965 39.136C50.7365 39.584 49.7125 39.872 48.6245 40C47.5685 40.16 46.4645 40.24 45.3125 40.24ZM55.1045 18.496C54.1125 18.496 53.2645 18.16 52.5605 17.488C51.8885 16.816 51.5525 15.984 51.5525 14.992C51.5525 14 51.8885 13.152 52.5605 12.448C53.2645 11.744 54.1125 11.392 55.1045 11.392C56.0645 11.392 56.8805 11.744 57.5525 12.448C58.2565 13.152 58.6085 14 58.6085 14.992C58.6085 15.984 58.2565 16.816 57.5525 17.488C56.8805 18.16 56.0645 18.496 55.1045 18.496ZM63.7344 40.24L64.2144 33.52C65.3664 33.52 66.3584 33.408 67.1904 33.184C68.0224 32.96 68.7264 32.512 69.3024 31.84C69.8784 31.136 70.3584 30.112 70.7424 28.768C71.1584 27.424 71.5264 25.632 71.8464 23.392L78.1344 24.448C78.0704 24.928 77.9744 25.488 77.8464 26.128C77.7504 26.768 77.6544 27.424 77.5584 28.096C77.4944 28.736 77.4624 29.344 77.4624 29.92C77.4624 30.496 77.5744 31.008 77.7984 31.456C78.0224 31.904 78.3744 32.288 78.8544 32.608C79.3664 32.896 80.0224 33.12 80.8224 33.28C81.6544 33.44 82.6624 33.52 83.8464 33.52C85.0624 33.52 85.9264 33.84 86.4384 34.48C86.9504 35.088 87.2064 35.856 87.2064 36.784C87.2064 37.776 86.8704 38.608 86.1984 39.28C85.5584 39.92 84.6144 40.24 83.3664 40.24C81.9264 40.24 80.6144 40.128 79.4304 39.904C78.2784 39.68 77.2704 39.312 76.4064 38.8C75.5744 38.256 74.8864 37.552 74.3424 36.688C73.8304 35.792 73.5104 34.704 73.3824 33.424H75.6864C75.1104 34.96 74.3744 36.192 73.4784 37.12C72.6144 38.016 71.6384 38.688 70.5504 39.136C69.4624 39.584 68.3264 39.872 67.1424 40C65.9904 40.16 64.8544 40.24 63.7344 40.24ZM77.1264 51.376C76.1984 51.376 75.3984 51.04 74.7264 50.368C74.0864 49.728 73.7664 48.96 73.7664 48.064C73.7664 47.136 74.0864 46.336 74.7264 45.664C75.3984 44.992 76.1984 44.656 77.1264 44.656C78.0224 44.656 78.7904 44.992 79.4304 45.664C80.0704 46.336 80.3904 47.136 80.3904 48.064C80.3904 48.96 80.0704 49.728 79.4304 50.368C78.7904 51.04 78.0224 51.376 77.1264 51.376ZM68.8224 51.376C67.8944 51.376 67.0944 51.04 66.4224 50.368C65.7824 49.728 65.4624 48.96 65.4624 48.064C65.4624 47.136 65.7824 46.336 66.4224 45.664C67.0944 44.992 67.8944 44.656 68.8224 44.656C69.7184 44.656 70.4864 44.992 71.1264 45.664C71.7664 46.336 72.0864 47.136 72.0864 48.064C72.0864 48.96 71.7664 49.728 71.1264 50.368C70.4864 51.04 69.7184 51.376 68.8224 51.376ZM114.767 40.24C113.295 40.24 111.919 40.128 110.639 39.904C109.391 39.68 108.239 39.296 107.183 38.752C106.127 38.176 105.183 37.392 104.351 36.4C103.551 35.408 102.879 34.16 102.335 32.656L106.127 29.632C106.703 30.656 107.407 31.456 108.239 32.032C109.071 32.576 110.063 32.96 111.215 33.184C112.367 33.408 113.711 33.52 115.247 33.52C116.463 33.52 117.327 33.84 117.839 34.48C118.351 35.088 118.607 35.856 118.607 36.784C118.607 37.776 118.271 38.608 117.599 39.28C116.959 39.92 116.015 40.24 114.767 40.24ZM83.375 40.24L83.855 33.52C85.583 33.52 87.295 33.424 88.991 33.232C90.687 33.04 92.335 32.752 93.935 32.368C95.535 31.984 97.055 31.488 98.495 30.88C99.967 30.272 101.343 29.536 102.623 28.672C101.663 28.096 100.623 27.6 99.503 27.184C98.383 26.768 97.183 26.464 95.903 26.272C94.655 26.048 93.327 25.936 91.919 25.936C91.407 25.936 90.863 25.952 90.287 25.984C89.743 26.016 89.183 26.08 88.607 26.176C88.031 26.24 87.455 26.336 86.879 26.464L85.919 19.888C86.847 19.632 87.823 19.456 88.847 19.36C89.903 19.232 90.831 19.168 91.631 19.168C93.359 19.168 94.943 19.36 96.383 19.744C97.855 20.128 99.199 20.608 100.415 21.184C101.663 21.76 102.815 22.336 103.871 22.912C104.959 23.488 105.983 23.968 106.943 24.352C107.935 24.736 108.895 24.928 109.823 24.928H111.599L112.367 31.312C110.991 31.376 109.695 31.648 108.479 32.128C107.295 32.576 106.111 33.152 104.927 33.856C103.775 34.528 102.527 35.232 101.183 35.968C99.871 36.704 98.383 37.392 96.719 38.032C95.055 38.672 93.135 39.2 90.959 39.616C88.783 40.032 86.255 40.24 83.375 40.24ZM151.309 40.24C149.677 40.24 148.109 40.096 146.605 39.808C145.101 39.488 143.741 39.072 142.525 38.56C141.341 38.048 140.365 37.472 139.597 36.832L143.917 32.176C145.069 32.656 146.253 33.008 147.469 33.232C148.685 33.424 150.125 33.52 151.789 33.52C153.005 33.52 153.869 33.84 154.381 34.48C154.925 35.088 155.197 35.856 155.197 36.784C155.197 37.776 154.861 38.608 154.189 39.28C153.517 39.92 152.557 40.24 151.309 40.24ZM114.781 40.24L115.261 33.52H126.013C129.021 33.52 131.517 33.408 133.501 33.184C135.517 32.96 137.117 32.64 138.301 32.224C139.485 31.776 140.317 31.264 140.797 30.688C141.309 30.112 141.565 29.488 141.565 28.816C141.565 28.208 141.421 27.632 141.133 27.088C140.845 26.512 140.413 26.048 139.837 25.696C139.261 25.344 138.509 25.168 137.581 25.168C136.397 25.168 135.213 25.456 134.029 26.032C132.845 26.576 131.693 27.328 130.573 28.288C129.453 29.216 128.381 30.256 127.357 31.408C126.365 32.56 125.453 33.728 124.621 34.912L117.373 33.904C118.717 31.824 120.173 29.856 121.741 28C123.341 26.112 125.021 24.464 126.781 23.056C128.573 21.616 130.413 20.496 132.301 19.696C134.221 18.864 136.173 18.448 138.157 18.448C140.269 18.448 142.077 18.88 143.581 19.744C145.085 20.608 146.237 21.792 147.037 23.296C147.869 24.8 148.285 26.544 148.285 28.528C148.285 30.608 147.693 32.48 146.509 34.144C145.357 35.808 143.389 37.184 140.605 38.272C139.421 38.72 138.141 39.088 136.765 39.376C135.389 39.664 133.773 39.872 131.917 40C130.061 40.16 127.837 40.24 125.245 40.24H114.781ZM119.773 35.344L118.765 4.864H125.485L126.349 27.904L119.773 35.344ZM151.344 40.24L151.824 33.52C153.296 33.52 154.352 33.376 154.992 33.088C155.632 32.768 156.016 32.192 156.144 31.36C156.272 30.496 156.304 29.248 156.24 27.616L155.376 4.864H162.144L163.104 28.096C163.168 29.952 163.088 31.632 162.864 33.136C162.672 34.608 162.176 35.872 161.376 36.928C160.608 37.984 159.408 38.8 157.776 39.376C156.176 39.952 154.032 40.24 151.344 40.24ZM169.434 40L168.426 4.864H175.146L176.154 40H169.434ZM208.642 40.144C206.85 40.144 205.234 39.84 203.794 39.232C202.386 38.592 201.266 37.648 200.434 36.4C199.634 35.12 199.234 33.536 199.234 31.648C199.234 29.76 199.874 27.664 201.154 25.36C202.434 23.024 204.578 20.688 207.586 18.352L207.106 22.768L202.786 19.408L207.298 13.888C209.73 15.744 211.81 17.552 213.538 19.312C215.298 21.04 216.642 22.816 217.57 24.64C218.498 26.464 218.962 28.4 218.962 30.448C218.962 31.44 218.802 32.512 218.482 33.664C218.162 34.784 217.618 35.84 216.85 36.832C216.082 37.792 215.026 38.592 213.682 39.232C212.37 39.84 210.69 40.144 208.642 40.144ZM209.17 33.52C209.97 33.52 210.61 33.36 211.09 33.04C211.602 32.72 211.986 32.304 212.242 31.792C212.498 31.28 212.626 30.736 212.626 30.16C212.626 29.584 212.498 28.96 212.242 28.288C211.986 27.616 211.49 26.864 210.754 26.032C210.018 25.2 208.93 24.24 207.49 23.152L211.138 22.672C209.826 23.568 208.77 24.48 207.97 25.408C207.17 26.336 206.594 27.232 206.242 28.096C205.922 28.928 205.762 29.696 205.762 30.4C205.762 31.424 206.098 32.208 206.77 32.752C207.442 33.264 208.242 33.52 209.17 33.52ZM213.106 10.288C212.178 10.288 211.378 9.968 210.706 9.328C210.066 8.656 209.746 7.872 209.746 6.976C209.746 6.048 210.066 5.248 210.706 4.576C211.378 3.904 212.178 3.568 213.106 3.568C214.002 3.568 214.77 3.904 215.41 4.576C216.05 5.248 216.37 6.048 216.37 6.976C216.37 7.872 216.05 8.656 215.41 9.328C214.77 9.968 214.002 10.288 213.106 10.288ZM204.802 10.24C203.874 10.24 203.074 9.92 202.402 9.28C201.762 8.608 201.442 7.824 201.442 6.928C201.442 6 201.762 5.2 202.402 4.528C203.074 3.856 203.874 3.52 204.802 3.52C205.698 3.52 206.466 3.856 207.106 4.528C207.746 5.2 208.066 6 208.066 6.928C208.066 7.824 207.746 8.608 207.106 9.28C206.466 9.92 205.698 10.24 204.802 10.24ZM223.267 51.04L221.875 44.32C224.147 44.032 226.131 43.68 227.827 43.264C229.523 42.88 230.947 42.336 232.099 41.632C233.251 40.928 234.115 39.968 234.691 38.752C235.267 37.504 235.555 35.904 235.555 33.952C235.555 33.248 235.491 32.544 235.363 31.84C235.235 31.104 235.043 30.432 234.787 29.824C234.531 29.216 234.195 28.72 233.779 28.336C233.395 27.952 232.931 27.76 232.387 27.76C231.811 27.76 231.299 27.968 230.851 28.384C230.403 28.768 230.051 29.264 229.795 29.872C229.539 30.448 229.411 31.04 229.411 31.648C229.411 32.096 229.523 32.48 229.747 32.8C229.971 33.088 230.307 33.312 230.755 33.472C231.203 33.6 231.763 33.664 232.435 33.664C233.203 33.664 233.987 33.584 234.787 33.424C235.619 33.232 236.371 32.976 237.043 32.656L237.235 37.888C236.467 38.496 235.587 39.04 234.595 39.52C233.603 39.968 232.403 40.192 230.995 40.192C229.843 40.192 228.771 40.064 227.779 39.808C226.787 39.52 225.907 39.088 225.139 38.512C224.403 37.936 223.827 37.2 223.411 36.304C222.995 35.376 222.787 34.272 222.787 32.992C222.787 31.424 223.043 29.904 223.555 28.432C224.067 26.96 224.771 25.648 225.667 24.496C226.595 23.312 227.651 22.384 228.835 21.712C230.051 21.008 231.331 20.656 232.675 20.656C234.275 20.656 235.667 21.056 236.851 21.856C238.067 22.656 239.075 23.712 239.875 25.024C240.675 26.304 241.283 27.696 241.699 29.2C242.115 30.704 242.323 32.144 242.323 33.52C242.323 37.136 241.555 40.208 240.019 42.736C238.483 45.264 236.291 47.216 233.443 48.592C230.595 50 227.203 50.816 223.267 51.04ZM277.078 40.24C274.838 40.24 272.982 40.08 271.51 39.76C270.07 39.408 268.934 38.88 268.102 38.176C267.27 37.44 266.678 36.528 266.326 35.44C265.974 34.352 265.766 33.056 265.702 31.552L264.694 4.864H271.414L272.422 28.336C272.486 29.808 272.646 30.912 272.902 31.648C273.158 32.384 273.638 32.88 274.342 33.136C275.078 33.392 276.15 33.52 277.558 33.52C278.774 33.52 279.638 33.84 280.15 34.48C280.694 35.088 280.966 35.856 280.966 36.784C280.966 37.776 280.63 38.608 279.958 39.28C279.286 39.92 278.326 40.24 277.078 40.24ZM251.254 40.24C250.39 40.24 249.51 40.16 248.614 40C247.75 39.872 247.142 39.776 246.79 39.712L247.702 32.752C249.91 33.04 252.054 33.104 254.134 32.944C256.246 32.752 258.134 32.24 259.798 31.408C261.494 30.544 262.838 29.296 263.83 27.664C264.822 26 265.318 23.856 265.318 21.232L267.91 28.768C267.526 30.944 266.87 32.752 265.942 34.192C265.046 35.6 263.974 36.72 262.726 37.552C261.51 38.352 260.214 38.944 258.838 39.328C257.462 39.712 256.118 39.952 254.806 40.048C253.494 40.176 252.31 40.24 251.254 40.24ZM261.67 33.664C261.19 32.736 260.502 31.648 259.606 30.4C258.71 29.12 257.606 27.712 256.294 26.176C255.014 24.608 253.542 22.96 251.878 21.232C250.214 19.472 248.374 17.664 246.358 15.808L250.534 11.248C253.51 14.064 255.926 16.432 257.782 18.352C259.638 20.272 261.11 21.888 262.198 23.2C263.318 24.48 264.166 25.584 264.742 26.512C265.35 27.44 265.862 28.336 266.278 29.2L261.67 33.664ZM308.501 40.24C307.029 40.24 305.653 40.128 304.373 39.904C303.125 39.68 301.973 39.296 300.917 38.752C299.861 38.176 298.917 37.392 298.085 36.4C297.285 35.408 296.613 34.16 296.069 32.656L299.861 29.632C300.437 30.656 301.141 31.456 301.973 32.032C302.805 32.576 303.797 32.96 304.949 33.184C306.101 33.408 307.445 33.52 308.981 33.52C310.197 33.52 311.061 33.84 311.573 34.48C312.085 35.088 312.341 35.856 312.341 36.784C312.341 37.776 312.005 38.608 311.333 39.28C310.693 39.92 309.749 40.24 308.501 40.24ZM277.109 40.24L277.589 33.52C279.317 33.52 281.029 33.424 282.725 33.232C284.421 33.04 286.069 32.752 287.669 32.368C289.269 31.984 290.789 31.488 292.229 30.88C293.701 30.272 295.077 29.536 296.357 28.672C295.397 28.096 294.357 27.6 293.237 27.184C292.117 26.768 290.917 26.464 289.637 26.272C288.389 26.048 287.061 25.936 285.653 25.936C285.141 25.936 284.597 25.952 284.021 25.984C283.477 26.016 282.917 26.08 282.341 26.176C281.765 26.24 281.189 26.336 280.613 26.464L279.653 19.888C280.581 19.632 281.557 19.456 282.581 19.36C283.637 19.232 284.565 19.168 285.365 19.168C287.093 19.168 288.677 19.36 290.117 19.744C291.589 20.128 292.933 20.608 294.149 21.184C295.397 21.76 296.549 22.336 297.605 22.912C298.693 23.488 299.717 23.968 300.677 24.352C301.669 24.736 302.629 24.928 303.557 24.928H305.333L306.101 31.312C304.725 31.376 303.429 31.648 302.213 32.128C301.029 32.576 299.845 33.152 298.661 33.856C297.509 34.528 296.261 35.232 294.917 35.968C293.605 36.704 292.117 37.392 290.453 38.032C288.789 38.672 286.869 39.2 284.693 39.616C282.517 40.032 279.989 40.24 277.109 40.24ZM308.516 40.24L308.996 33.52C310.468 33.52 311.524 33.376 312.164 33.088C312.804 32.768 313.188 32.192 313.316 31.36C313.444 30.496 313.476 29.248 313.412 27.616L312.548 4.864H319.316L320.276 28.096C320.34 29.952 320.26 31.632 320.036 33.136C319.844 34.608 319.348 35.872 318.548 36.928C317.78 37.984 316.58 38.8 314.948 39.376C313.348 39.952 311.204 40.24 308.516 40.24ZM326.606 40L325.598 4.864H332.318L333.326 40H326.606Z" fill="#020202"/>
</svg>
