<svg width="1276" height="426" viewBox="0 0 1276 426" fill="none" xmlns="http://www.w3.org/2000/svg">
<mask id="path-1-outside-1_413_367" maskUnits="userSpaceOnUse" x="29" y="32" width="361" height="342" fill="black">
<rect fill="white" x="29" y="32" width="361" height="342"/>
<path d="M332.22 200.83C349.533 207.363 362.763 216.347 371.91 227.78C381.057 239.213 385.63 252.443 385.63 267.47V273.35C385.63 304.057 370.767 327.903 341.04 344.89C311.64 361.55 269.663 369.88 215.11 369.88C155.983 369.88 110.903 358.773 79.87 336.56C49.1633 314.02 33.81 281.19 33.81 238.07V233.66H83.3V238.07C83.3 267.797 93.9167 289.683 115.15 303.73C136.71 317.45 170.357 324.31 216.09 324.31C256.923 324.31 287.14 320.063 306.74 311.57C326.34 303.077 336.14 289.847 336.14 271.88V266.49C336.14 251.463 328.79 240.847 314.09 234.64C299.39 228.107 274.4 224.84 239.12 224.84H153.37V181.23H235.69C268.357 181.23 291.877 177.8 306.25 170.94C320.95 164.08 328.3 152.973 328.3 137.62V132.23C328.3 98.91 289.59 82.25 212.17 82.25C169.05 82.25 137.037 89.4366 116.13 103.81C95.2233 118.183 84.77 139.907 84.77 168.98V172.9H35.77V168.98C35.77 126.187 50.96 93.52 81.34 70.98C112.047 48.1133 155.983 36.68 213.15 36.68C265.417 36.68 305.923 44.8466 334.67 61.18C363.417 77.5133 377.79 100.38 377.79 129.78V136.15C377.79 165.223 362.6 186.783 332.22 200.83Z"/>
</mask>
<path d="M332.22 200.83C349.533 207.363 362.763 216.347 371.91 227.78C381.057 239.213 385.63 252.443 385.63 267.47V273.35C385.63 304.057 370.767 327.903 341.04 344.89C311.64 361.55 269.663 369.88 215.11 369.88C155.983 369.88 110.903 358.773 79.87 336.56C49.1633 314.02 33.81 281.19 33.81 238.07V233.66H83.3V238.07C83.3 267.797 93.9167 289.683 115.15 303.73C136.71 317.45 170.357 324.31 216.09 324.31C256.923 324.31 287.14 320.063 306.74 311.57C326.34 303.077 336.14 289.847 336.14 271.88V266.49C336.14 251.463 328.79 240.847 314.09 234.64C299.39 228.107 274.4 224.84 239.12 224.84H153.37V181.23H235.69C268.357 181.23 291.877 177.8 306.25 170.94C320.95 164.08 328.3 152.973 328.3 137.62V132.23C328.3 98.91 289.59 82.25 212.17 82.25C169.05 82.25 137.037 89.4366 116.13 103.81C95.2233 118.183 84.77 139.907 84.77 168.98V172.9H35.77V168.98C35.77 126.187 50.96 93.52 81.34 70.98C112.047 48.1133 155.983 36.68 213.15 36.68C265.417 36.68 305.923 44.8466 334.67 61.18C363.417 77.5133 377.79 100.38 377.79 129.78V136.15C377.79 165.223 362.6 186.783 332.22 200.83Z" fill="white"/>
<path d="M332.22 200.83L330.541 197.199L321.881 201.204L330.808 204.572L332.22 200.83ZM371.91 227.78L375.034 225.281L375.034 225.281L371.91 227.78ZM341.04 344.89L343.012 348.37L343.018 348.367L343.025 348.363L341.04 344.89ZM79.87 336.56L77.5031 339.785L77.5224 339.799L77.5418 339.813L79.87 336.56ZM33.81 233.66V229.66H29.81V233.66H33.81ZM83.3 233.66H87.3V229.66H83.3V233.66ZM115.15 303.73L112.943 307.066L112.973 307.086L113.003 307.105L115.15 303.73ZM306.74 311.57L305.15 307.9L305.15 307.9L306.74 311.57ZM314.09 234.64L312.465 238.295L312.5 238.31L312.534 238.325L314.09 234.64ZM153.37 224.84H149.37V228.84H153.37V224.84ZM153.37 181.23V177.23H149.37V181.23H153.37ZM306.25 170.94L304.558 167.315L304.543 167.323L304.527 167.33L306.25 170.94ZM116.13 103.81L118.396 107.106L118.396 107.106L116.13 103.81ZM84.77 172.9V176.9H88.77V172.9H84.77ZM35.77 172.9H31.77V176.9H35.77V172.9ZM81.34 70.98L83.7234 74.1924L83.7291 74.1881L81.34 70.98ZM330.808 204.572C347.624 210.918 360.192 219.536 368.787 230.279L375.034 225.281C365.334 213.157 351.442 203.808 333.632 197.088L330.808 204.572ZM368.787 230.279C377.35 240.983 381.63 253.326 381.63 267.47H389.63C389.63 251.561 384.764 237.444 375.034 225.281L368.787 230.279ZM381.63 267.47V273.35H389.63V267.47H381.63ZM381.63 273.35C381.63 302.432 367.709 325.043 339.055 341.417L343.025 348.363C373.824 330.763 389.63 305.681 389.63 273.35H381.63ZM339.068 341.41C310.531 357.581 269.353 365.88 215.11 365.88V373.88C269.973 373.88 312.749 365.519 343.012 348.37L339.068 341.41ZM215.11 365.88C156.39 365.88 112.272 354.834 82.1982 333.307L77.5418 339.813C109.535 362.713 155.576 373.88 215.11 373.88V365.88ZM82.2369 333.335C52.7033 311.657 37.81 280.11 37.81 238.07H29.81C29.81 282.27 45.6234 316.383 77.5031 339.785L82.2369 333.335ZM37.81 238.07V233.66H29.81V238.07H37.81ZM33.81 237.66H83.3V229.66H33.81V237.66ZM79.3 233.66V238.07H87.3V233.66H79.3ZM79.3 238.07C79.3 268.878 90.3885 292.145 112.943 307.066L117.357 300.394C97.4449 287.221 87.3 266.715 87.3 238.07H79.3ZM113.003 307.105C135.535 321.443 170.117 328.31 216.09 328.31V320.31C170.597 320.31 137.885 313.457 117.298 300.355L113.003 307.105ZM216.09 328.31C257.062 328.31 287.955 324.069 308.33 315.24L305.15 307.9C286.325 316.057 256.784 320.31 216.09 320.31V328.31ZM308.33 315.24C318.588 310.795 326.579 304.983 332.004 297.658C337.462 290.291 340.14 281.638 340.14 271.88H332.14C332.14 280.089 329.918 287.034 325.576 292.897C321.201 298.802 314.492 303.852 305.15 307.9L308.33 315.24ZM340.14 271.88V266.49H332.14V271.88H340.14ZM340.14 266.49C340.14 258.3 338.127 251.062 333.916 244.981C329.717 238.915 323.53 234.284 315.646 230.955L312.534 238.325C319.35 241.203 324.188 244.983 327.339 249.534C330.478 254.069 332.14 259.653 332.14 266.49H340.14ZM315.715 230.985C300.183 224.082 274.448 220.84 239.12 220.84V228.84C274.352 228.84 298.597 232.132 312.465 238.295L315.715 230.985ZM239.12 220.84H153.37V228.84H239.12V220.84ZM157.37 224.84V181.23H149.37V224.84H157.37ZM153.37 185.23H235.69V177.23H153.37V185.23ZM235.69 185.23C268.455 185.23 292.744 181.818 307.973 174.55L304.527 167.33C291.01 173.782 268.259 177.23 235.69 177.23V185.23ZM307.942 174.565C315.814 170.891 321.961 165.962 326.123 159.672C330.295 153.369 332.3 145.959 332.3 137.62H324.3C324.3 144.635 322.63 150.455 319.452 155.258C316.264 160.074 311.386 164.129 304.558 167.315L307.942 174.565ZM332.3 137.62V132.23H324.3V137.62H332.3ZM332.3 132.23C332.3 123.065 329.617 114.903 324.204 107.914C318.835 100.982 310.949 95.4176 300.849 91.0708C280.736 82.4145 251.045 78.25 212.17 78.25V86.25C250.715 86.25 279.089 90.4155 297.686 98.4192C306.941 102.402 313.571 107.25 317.879 112.813C322.145 118.32 324.3 124.735 324.3 132.23H332.3ZM212.17 78.25C168.747 78.25 135.759 85.4611 113.864 100.514L118.396 107.106C138.315 93.4122 169.353 86.25 212.17 86.25V78.25ZM113.864 100.514C91.7003 115.751 80.77 138.812 80.77 168.98H88.77C88.77 141.001 98.7464 120.615 118.396 107.106L113.864 100.514ZM80.77 168.98V172.9H88.77V168.98H80.77ZM84.77 168.9H35.77V176.9H84.77V168.9ZM39.77 172.9V168.98H31.77V172.9H39.77ZM39.77 168.98C39.77 127.262 54.5043 95.871 83.7234 74.1924L78.9566 67.7676C47.4157 91.1689 31.77 125.111 31.77 168.98H39.77ZM83.7291 74.1881C113.48 52.0335 156.44 40.68 213.15 40.68V32.68C155.526 32.68 110.614 44.1932 78.9509 67.7718L83.7291 74.1881ZM213.15 40.68C265.088 40.68 304.802 48.8103 332.694 64.6578L336.646 57.7022C307.044 40.883 265.745 32.68 213.15 32.68V40.68ZM332.694 64.6578C360.378 80.3873 373.79 102.023 373.79 129.78H381.79C381.79 98.7368 366.455 74.6393 336.646 57.7022L332.694 64.6578ZM373.79 129.78V136.15H381.79V129.78H373.79ZM373.79 136.15C373.79 149.95 370.199 161.784 363.128 171.821C356.032 181.892 345.262 190.393 330.541 197.199L333.899 204.461C349.558 197.22 361.573 187.918 369.667 176.429C377.786 164.906 381.79 151.423 381.79 136.15H373.79Z" fill="#020202" mask="url(#path-1-outside-1_413_367)"/>
<mask id="path-3-outside-2_413_367" maskUnits="userSpaceOnUse" x="952" y="35" width="319" height="336" fill="black">
<rect fill="white" x="952" y="35" width="319" height="336"/>
<path d="M1132.68 166.96C1176.13 168.267 1209.28 176.923 1232.15 192.93C1255.34 208.61 1266.94 230.497 1266.94 258.59V264.96C1266.94 297.953 1253.71 323.27 1227.25 340.91C1200.79 358.223 1162.24 366.88 1111.61 366.88C1062.28 366.553 1024.06 357.897 996.95 340.91C970.163 323.923 956.77 299.913 956.77 268.88V265.45H1005.28V268.88C1005.28 285.213 1014.75 298.117 1033.7 307.59C1052.65 316.737 1078.78 321.31 1112.1 321.31C1147.05 321.31 1173.51 316.737 1191.48 307.59C1209.45 298.117 1218.43 284.233 1218.43 265.94V260.06C1218.43 225.76 1183.48 208.61 1113.57 208.61H1060.65V165.49L1181.68 83.17H962.65V39.56H1259.1V83.17L1132.68 166.96Z"/>
</mask>
<path d="M1132.68 166.96C1176.13 168.267 1209.28 176.923 1232.15 192.93C1255.34 208.61 1266.94 230.497 1266.94 258.59V264.96C1266.94 297.953 1253.71 323.27 1227.25 340.91C1200.79 358.223 1162.24 366.88 1111.61 366.88C1062.28 366.553 1024.06 357.897 996.95 340.91C970.163 323.923 956.77 299.913 956.77 268.88V265.45H1005.28V268.88C1005.28 285.213 1014.75 298.117 1033.7 307.59C1052.65 316.737 1078.78 321.31 1112.1 321.31C1147.05 321.31 1173.51 316.737 1191.48 307.59C1209.45 298.117 1218.43 284.233 1218.43 265.94V260.06C1218.43 225.76 1183.48 208.61 1113.57 208.61H1060.65V165.49L1181.68 83.17H962.65V39.56H1259.1V83.17L1132.68 166.96Z" fill="white"/>
<path d="M1132.68 166.96L1130.47 163.626L1119.98 170.58L1132.56 170.958L1132.68 166.96ZM1232.15 192.93L1229.86 196.207L1229.88 196.226L1229.91 196.244L1232.15 192.93ZM1227.25 340.91L1229.44 344.257L1229.45 344.248L1229.47 344.238L1227.25 340.91ZM1111.61 366.88L1111.58 370.88L1111.6 370.88H1111.61V366.88ZM996.95 340.91L994.808 344.288L994.817 344.294L994.826 344.3L996.95 340.91ZM956.77 265.45V261.45H952.77V265.45H956.77ZM1005.28 265.45H1009.28V261.45H1005.28V265.45ZM1033.7 307.59L1031.91 311.168L1031.94 311.18L1031.96 311.192L1033.7 307.59ZM1191.48 307.59L1193.29 311.155L1193.32 311.142L1193.35 311.128L1191.48 307.59ZM1060.65 208.61H1056.65V212.61H1060.65V208.61ZM1060.65 165.49L1058.4 162.183L1056.65 163.373V165.49H1060.65ZM1181.68 83.17L1183.93 86.4774L1194.67 79.17H1181.68V83.17ZM962.65 83.17H958.65V87.17H962.65V83.17ZM962.65 39.56V35.56H958.65V39.56H962.65ZM1259.1 39.56H1263.1V35.56H1259.1V39.56ZM1259.1 83.17L1261.31 86.5041L1263.1 85.3176V83.17H1259.1ZM1132.56 170.958C1175.63 172.253 1207.89 180.832 1229.86 196.207L1234.44 189.653C1210.67 173.014 1176.63 164.28 1132.8 162.962L1132.56 170.958ZM1229.91 196.244C1252 211.177 1262.94 231.819 1262.94 258.59H1270.94C1270.94 229.174 1258.69 206.043 1234.39 189.616L1229.91 196.244ZM1262.94 258.59V264.96H1270.94V258.59H1262.94ZM1262.94 264.96C1262.94 296.676 1250.33 320.716 1225.03 337.582L1229.47 344.238C1257.09 325.824 1270.94 299.231 1270.94 264.96H1262.94ZM1225.06 337.563C1199.53 354.265 1161.89 362.88 1111.61 362.88V370.88C1162.59 370.88 1202.05 362.182 1229.44 344.257L1225.06 337.563ZM1111.64 362.88C1062.68 362.556 1025.3 353.954 999.074 337.52L994.826 344.3C1022.82 361.839 1061.89 370.551 1111.58 370.88L1111.64 362.88ZM999.092 337.532C973.431 321.259 960.77 298.507 960.77 268.88H952.77C952.77 301.32 966.895 326.587 994.808 344.288L999.092 337.532ZM960.77 268.88V265.45H952.77V268.88H960.77ZM956.77 269.45H1005.28V261.45H956.77V269.45ZM1001.28 265.45V268.88H1009.28V265.45H1001.28ZM1001.28 268.88C1001.28 287.196 1012.08 301.255 1031.91 311.168L1035.49 304.012C1017.42 294.979 1009.28 283.231 1009.28 268.88H1001.28ZM1031.96 311.192C1051.68 320.71 1078.49 325.31 1112.1 325.31V317.31C1079.07 317.31 1053.62 312.764 1035.44 303.988L1031.96 311.192ZM1112.1 325.31C1147.28 325.31 1174.49 320.726 1193.29 311.155L1189.67 304.025C1172.53 312.747 1146.82 317.31 1112.1 317.31V325.31ZM1193.35 311.128C1202.8 306.144 1210.11 299.88 1215.05 292.246C1220.01 284.589 1222.43 275.773 1222.43 265.94H1214.43C1214.43 274.401 1212.36 281.673 1208.33 287.899C1204.29 294.148 1198.13 299.562 1189.61 304.052L1193.35 311.128ZM1222.43 265.94V260.06H1214.43V265.94H1222.43ZM1222.43 260.06C1222.43 250.769 1220.05 242.465 1215.18 235.303C1210.34 228.17 1203.18 222.399 1193.98 217.881C1175.67 208.901 1148.72 204.61 1113.57 204.61V212.61C1148.32 212.61 1173.8 216.894 1190.45 225.064C1198.72 229.121 1204.68 234.069 1208.57 239.798C1212.44 245.499 1214.43 252.201 1214.43 260.06H1222.43ZM1113.57 204.61H1060.65V212.61H1113.57V204.61ZM1064.65 208.61V165.49H1056.65V208.61H1064.65ZM1062.9 168.797L1183.93 86.4774L1179.43 79.8625L1058.4 162.183L1062.9 168.797ZM1181.68 79.17H962.65V87.17H1181.68V79.17ZM966.65 83.17V39.56H958.65V83.17H966.65ZM962.65 43.56H1259.1V35.56H962.65V43.56ZM1255.1 39.56V83.17H1263.1V39.56H1255.1ZM1256.89 79.8358L1130.47 163.626L1134.89 170.294L1261.31 86.5041L1256.89 79.8358Z" fill="#020202" mask="url(#path-3-outside-2_413_367)"/>
<rect x="18" y="30" width="66" height="66" stroke="#A2B1FF" stroke-width="4"/>
<rect x="88" y="30" width="66" height="66" stroke="#A2B1FF" stroke-width="4"/>
<rect x="158" y="30" width="66" height="66" stroke="#A2B1FF" stroke-width="4"/>
<rect x="228" y="30" width="66" height="66" stroke="#A2B1FF" stroke-width="4"/>
<rect x="298" y="30" width="66" height="66" stroke="#A2B1FF" stroke-width="4"/>
<rect x="368" y="30" width="66" height="66" stroke="#A2B1FF" stroke-width="4"/>
<rect x="438" y="30" width="66" height="66" stroke="#A2B1FF" stroke-width="4"/>
<rect x="508" y="30" width="66" height="66" stroke="#A2B1FF" stroke-width="4"/>
<rect x="578" y="30" width="66" height="66" stroke="#A2B1FF" stroke-width="4"/>
<rect x="648" y="30" width="66" height="66" stroke="#A2B1FF" stroke-width="4"/>
<rect x="718" y="30" width="66" height="66" stroke="#A2B1FF" stroke-width="4"/>
<rect x="788" y="30" width="66" height="66" stroke="#A2B1FF" stroke-width="4"/>
<rect x="928" y="30" width="66" height="66" stroke="#A2B1FF" stroke-width="4"/>
<rect x="858" y="30" width="66" height="66" stroke="#A2B1FF" stroke-width="4"/>
<rect x="998" y="30" width="66" height="66" stroke="#A2B1FF" stroke-width="4"/>
<rect x="1068" y="30" width="66" height="66" stroke="#A2B1FF" stroke-width="4"/>
<rect x="1138" y="30" width="66" height="66" stroke="#A2B1FF" stroke-width="4"/>
<rect x="1208" y="30" width="66" height="66" stroke="#A2B1FF" stroke-width="4"/>
<rect x="18" y="100" width="66" height="66" stroke="#A2B1FF" stroke-width="4"/>
<rect x="88" y="100" width="66" height="66" stroke="#A2B1FF" stroke-width="4"/>
<rect x="158" y="100" width="66" height="66" stroke="#A2B1FF" stroke-width="4"/>
<rect x="228" y="100" width="66" height="66" stroke="#A2B1FF" stroke-width="4"/>
<rect x="298" y="100" width="66" height="66" stroke="#A2B1FF" stroke-width="4"/>
<rect x="368" y="100" width="66" height="66" stroke="#A2B1FF" stroke-width="4"/>
<rect x="438" y="100" width="66" height="66" stroke="#A2B1FF" stroke-width="4"/>
<rect x="508" y="100" width="66" height="66" stroke="#A2B1FF" stroke-width="4"/>
<rect x="578" y="100" width="66" height="66" stroke="#A2B1FF" stroke-width="4"/>
<rect x="648" y="100" width="66" height="66" stroke="#A2B1FF" stroke-width="4"/>
<rect x="718" y="100" width="66" height="66" stroke="#A2B1FF" stroke-width="4"/>
<rect x="788" y="100" width="66" height="66" stroke="#A2B1FF" stroke-width="4"/>
<rect x="928" y="100" width="66" height="66" stroke="#A2B1FF" stroke-width="4"/>
<rect x="858" y="100" width="66" height="66" stroke="#A2B1FF" stroke-width="4"/>
<rect x="998" y="100" width="66" height="66" stroke="#A2B1FF" stroke-width="4"/>
<rect x="1068" y="100" width="66" height="66" stroke="#A2B1FF" stroke-width="4"/>
<rect x="1138" y="100" width="66" height="66" stroke="#A2B1FF" stroke-width="4"/>
<rect x="1208" y="100" width="66" height="66" stroke="#A2B1FF" stroke-width="4"/>
<rect x="18" y="170" width="66" height="66" stroke="#A2B1FF" stroke-width="4"/>
<rect x="88" y="170" width="66" height="66" stroke="#A2B1FF" stroke-width="4"/>
<rect x="158" y="170" width="66" height="66" stroke="#A2B1FF" stroke-width="4"/>
<rect x="228" y="170" width="66" height="66" stroke="#A2B1FF" stroke-width="4"/>
<rect x="298" y="170" width="66" height="66" stroke="#A2B1FF" stroke-width="4"/>
<rect x="368" y="170" width="66" height="66" stroke="#A2B1FF" stroke-width="4"/>
<rect x="438" y="170" width="66" height="66" stroke="#A2B1FF" stroke-width="4"/>
<rect x="508" y="170" width="66" height="66" stroke="#A2B1FF" stroke-width="4"/>
<rect x="578" y="170" width="66" height="66" stroke="#A2B1FF" stroke-width="4"/>
<rect x="648" y="170" width="66" height="66" stroke="#A2B1FF" stroke-width="4"/>
<rect x="718" y="170" width="66" height="66" stroke="#A2B1FF" stroke-width="4"/>
<rect x="788" y="170" width="66" height="66" stroke="#A2B1FF" stroke-width="4"/>
<rect x="928" y="170" width="66" height="66" stroke="#A2B1FF" stroke-width="4"/>
<rect x="858" y="170" width="66" height="66" stroke="#A2B1FF" stroke-width="4"/>
<rect x="998" y="170" width="66" height="66" stroke="#A2B1FF" stroke-width="4"/>
<rect x="1068" y="170" width="66" height="66" stroke="#A2B1FF" stroke-width="4"/>
<rect x="1138" y="170" width="66" height="66" stroke="#A2B1FF" stroke-width="4"/>
<rect x="1208" y="170" width="66" height="66" stroke="#A2B1FF" stroke-width="4"/>
<rect x="18" y="240" width="66" height="66" stroke="#A2B1FF" stroke-width="4"/>
<rect x="88" y="240" width="66" height="66" stroke="#A2B1FF" stroke-width="4"/>
<rect x="158" y="240" width="66" height="66" stroke="#A2B1FF" stroke-width="4"/>
<rect x="228" y="240" width="66" height="66" stroke="#A2B1FF" stroke-width="4"/>
<rect x="298" y="240" width="66" height="66" stroke="#A2B1FF" stroke-width="4"/>
<rect x="368" y="240" width="66" height="66" stroke="#A2B1FF" stroke-width="4"/>
<rect x="438" y="240" width="66" height="66" stroke="#A2B1FF" stroke-width="4"/>
<rect x="508" y="240" width="66" height="66" stroke="#A2B1FF" stroke-width="4"/>
<rect x="578" y="240" width="66" height="66" stroke="#A2B1FF" stroke-width="4"/>
<rect x="648" y="240" width="66" height="66" stroke="#A2B1FF" stroke-width="4"/>
<rect x="718" y="240" width="66" height="66" stroke="#A2B1FF" stroke-width="4"/>
<rect x="788" y="240" width="66" height="66" stroke="#A2B1FF" stroke-width="4"/>
<rect x="928" y="240" width="66" height="66" stroke="#A2B1FF" stroke-width="4"/>
<rect x="858" y="240" width="66" height="66" stroke="#A2B1FF" stroke-width="4"/>
<rect x="998" y="240" width="66" height="66" stroke="#A2B1FF" stroke-width="4"/>
<rect x="1068" y="240" width="66" height="66" stroke="#A2B1FF" stroke-width="4"/>
<rect x="1138" y="240" width="66" height="66" stroke="#A2B1FF" stroke-width="4"/>
<rect x="1208" y="240" width="66" height="66" stroke="#A2B1FF" stroke-width="4"/>
<rect x="18" y="310" width="66" height="66" stroke="#A2B1FF" stroke-width="4"/>
<rect x="88" y="310" width="66" height="66" stroke="#A2B1FF" stroke-width="4"/>
<rect x="158" y="310" width="66" height="66" stroke="#A2B1FF" stroke-width="4"/>
<rect x="228" y="310" width="66" height="66" stroke="#A2B1FF" stroke-width="4"/>
<rect x="298" y="310" width="66" height="66" stroke="#A2B1FF" stroke-width="4"/>
<rect x="368" y="310" width="66" height="66" stroke="#A2B1FF" stroke-width="4"/>
<rect x="438" y="310" width="66" height="66" stroke="#A2B1FF" stroke-width="4"/>
<rect x="508" y="310" width="66" height="66" stroke="#A2B1FF" stroke-width="4"/>
<rect x="578" y="310" width="66" height="66" stroke="#A2B1FF" stroke-width="4"/>
<rect x="648" y="310" width="66" height="66" stroke="#A2B1FF" stroke-width="4"/>
<rect x="718" y="310" width="66" height="66" stroke="#A2B1FF" stroke-width="4"/>
<rect x="788" y="310" width="66" height="66" stroke="#A2B1FF" stroke-width="4"/>
<rect x="928" y="310" width="66" height="66" stroke="#A2B1FF" stroke-width="4"/>
<rect x="858" y="310" width="66" height="66" stroke="#A2B1FF" stroke-width="4"/>
<rect x="998" y="310" width="66" height="66" stroke="#A2B1FF" stroke-width="4"/>
<rect x="1068" y="310" width="66" height="66" stroke="#A2B1FF" stroke-width="4"/>
<rect x="1138" y="310" width="66" height="66" stroke="#A2B1FF" stroke-width="4"/>
<rect x="1208" y="310" width="66" height="66" stroke="#A2B1FF" stroke-width="4"/>
</svg>
