<svg width="1284" height="994" viewBox="0 0 1284 994" fill="none" xmlns="http://www.w3.org/2000/svg">
<rect width="1284" height="994" fill="#020202"/>
<path d="M116.36 951.152C109.96 951.152 104.296 950 99.368 947.696C94.504 945.328 90.696 942.032 87.944 937.808C85.256 933.584 83.912 928.72 83.912 923.216V913.808C83.912 908.24 85.256 903.344 87.944 899.12C90.632 894.896 94.408 891.632 99.272 889.328C104.2 887.024 109.896 885.872 116.36 885.872C122.696 885.872 128.296 887.024 133.16 889.328C138.024 891.632 141.768 894.896 144.392 899.12C147.08 903.344 148.424 908.24 148.424 913.808V923.216C148.424 928.784 147.08 933.68 144.392 937.904C141.768 942.128 138.024 945.392 133.16 947.696C128.296 950 122.696 951.152 116.36 951.152ZM116.36 942.224C123.464 942.224 129 940.56 132.968 937.232C136.936 933.904 138.92 929.296 138.92 923.408V913.712C138.92 907.824 136.904 903.216 132.872 899.888C128.84 896.496 123.304 894.8 116.264 894.8C109.16 894.8 103.56 896.496 99.464 899.888C95.432 903.216 93.416 907.824 93.416 913.712V923.408C93.416 929.296 95.432 933.904 99.464 937.232C103.496 940.56 109.128 942.224 116.36 942.224ZM270.133 941.456V950H203.989V941.456H233.653V901.232C230.709 902.96 226.805 903.824 221.941 903.824H203.989V894.896H221.173C228.853 894.896 233.013 892.72 233.653 888.368V887.024H243.156V941.456H270.133ZM381.185 941.456V950H319.841V942.32L348.929 926.384C354.753 923.184 359.073 920.624 361.889 918.704C364.705 916.72 366.625 914.896 367.649 913.232C368.673 911.504 369.185 909.488 369.185 907.184V906.224C369.185 902.512 367.489 899.664 364.097 897.68C360.769 895.696 356.001 894.704 349.793 894.704C343.393 894.704 338.497 895.76 335.105 897.872C331.777 899.984 330.113 903.056 330.113 907.088V909.008H320.513V906.992C320.513 900.144 323.009 894.896 328.001 891.248C333.057 887.6 340.257 885.776 349.601 885.776C358.689 885.776 365.793 887.568 370.913 891.152C376.097 894.736 378.689 899.664 378.689 905.936V906.896C378.689 910.416 377.921 913.552 376.385 916.304C374.913 918.992 372.385 921.712 368.801 924.464C365.281 927.216 360.289 930.32 353.825 933.776L339.713 941.456H381.185ZM469.966 911.888C478.734 912.208 485.422 913.904 490.03 916.976C494.702 920.048 497.038 924.4 497.038 930.032V931.184C497.038 937.648 494.382 942.608 489.07 946.064C483.758 949.456 476.046 951.152 465.934 951.152C456.142 951.152 448.526 949.488 443.086 946.16C437.71 942.768 435.022 938 435.022 931.856V931.088H444.526V931.856C444.526 935.12 446.414 937.68 450.19 939.536C454.03 941.328 459.31 942.224 466.03 942.224C473.134 942.224 478.478 941.328 482.062 939.536C485.71 937.68 487.534 934.96 487.534 931.376V930.224C487.534 926.896 485.742 924.368 482.158 922.64C478.574 920.912 473.326 920.048 466.414 920.048H455.854V911.6L480.718 895.568H436.174V886.928H495.502V895.568L469.966 911.888ZM618.074 935.696H602.426V950H592.922V935.696H549.53V927.056C554.01 919.568 557.69 912.656 560.57 906.32C563.45 899.92 565.818 893.456 567.674 886.928H577.85V888.368C573.946 900.848 568.186 913.744 560.57 927.056H592.922V898.064H602.426V927.056H618.074V935.696ZM701.287 909.104C707.559 909.104 712.999 909.904 717.607 911.504C722.279 913.104 725.831 915.408 728.263 918.416C730.759 921.424 732.007 924.976 732.007 929.072V930.608C732.007 937.136 729.319 942.192 723.943 945.776C718.567 949.36 710.983 951.152 701.191 951.152C691.399 951.152 683.815 949.648 678.439 946.64C673.127 943.632 670.471 939.344 670.471 933.776V933.008H679.975V933.776C679.975 936.4 681.831 938.48 685.543 940.016C689.319 941.488 694.471 942.224 700.999 942.224C707.655 942.224 712.903 941.2 716.743 939.152C720.647 937.04 722.599 934.224 722.599 930.704V929.168C722.599 925.648 720.647 922.896 716.743 920.912C712.839 918.928 707.495 917.936 700.711 917.936C694.695 917.936 689.767 918.704 685.927 920.24C682.087 921.776 680.039 923.76 679.783 926.192H670.471L672.583 886.928H727.879V895.472H681.031L680.071 914.192C685.063 910.8 692.135 909.104 701.287 909.104ZM819.347 910.352C829.139 910.352 836.659 911.984 841.907 915.248C847.155 918.512 849.779 923.216 849.779 929.36V930.704C849.779 934.928 848.531 938.576 846.035 941.648C843.539 944.72 839.923 947.088 835.187 948.752C830.515 950.352 825.011 951.152 818.675 951.152C811.891 951.152 806.003 950.192 801.011 948.272C796.019 946.352 792.179 943.6 789.491 940.016C786.867 936.432 785.555 932.208 785.555 927.344V911.312C785.555 906 786.867 901.424 789.491 897.584C792.115 893.744 795.859 890.832 800.723 888.848C805.651 886.8 811.507 885.776 818.291 885.776C824.435 885.776 829.811 886.576 834.419 888.176C839.027 889.776 842.547 892.08 844.979 895.088C847.475 898.032 848.723 901.52 848.723 905.552V906.32H839.219V905.552C839.219 902.16 837.363 899.504 833.651 897.584C829.939 895.664 824.819 894.704 818.291 894.704C810.867 894.704 805.139 896.144 801.107 899.024C797.075 901.84 795.059 905.872 795.059 911.12V917.168C800.627 912.624 808.723 910.352 819.347 910.352ZM840.275 929.744C840.275 922.704 833.267 919.184 819.251 919.184C813.491 919.184 808.499 919.888 804.275 921.296C800.051 922.64 796.979 924.528 795.059 926.96V927.44C795.059 932.048 797.139 935.664 801.299 938.288C805.459 940.912 811.283 942.224 818.771 942.224C825.491 942.224 830.739 941.264 834.515 939.344C838.355 937.424 840.275 934.672 840.275 931.088V929.744ZM964.192 887.024V895.568C954.4 904.784 946.752 913.936 941.248 923.024C935.744 932.112 932.992 940.336 932.992 947.696V950H922.911V947.696C922.911 940.08 925.504 931.728 930.688 922.64C935.936 913.488 943.264 904.464 952.672 895.568H901.792V887.024H964.192ZM1071.12 917.456C1078.99 920.272 1082.92 925.008 1082.92 931.664V932.72C1082.92 938.864 1080.2 943.472 1074.76 946.544C1069.39 949.616 1061.39 951.152 1050.76 951.152C1040.14 951.152 1032.11 949.616 1026.67 946.544C1021.29 943.472 1018.6 938.864 1018.6 932.72V931.664C1018.6 925.008 1022.51 920.272 1030.32 917.456C1024.36 914.704 1021.39 910.512 1021.39 904.88V903.824C1021.39 900.176 1022.57 897.008 1024.94 894.32C1027.37 891.568 1030.8 889.456 1035.21 887.984C1039.69 886.512 1044.88 885.776 1050.76 885.776C1056.65 885.776 1061.8 886.512 1066.22 887.984C1070.64 889.456 1074.03 891.568 1076.4 894.32C1078.83 897.072 1080.04 900.24 1080.04 903.824V904.88C1080.04 910.512 1077.07 914.704 1071.12 917.456ZM1030.8 904.592C1030.8 907.856 1032.4 910.288 1035.6 911.888C1038.86 913.424 1043.92 914.192 1050.76 914.192C1057.55 914.192 1062.54 913.424 1065.74 911.888C1069 910.288 1070.64 907.856 1070.64 904.592V903.824C1070.64 900.816 1069.07 898.512 1065.93 896.912C1062.8 895.248 1057.74 894.416 1050.76 894.416C1043.72 894.416 1038.64 895.248 1035.5 896.912C1032.36 898.512 1030.8 900.816 1030.8 903.824V904.592ZM1073.32 932.336C1073.32 929.072 1071.66 926.672 1068.33 925.136C1065 923.536 1059.15 922.736 1050.76 922.736C1042.32 922.736 1036.43 923.536 1033.1 925.136C1029.77 926.672 1028.11 929.072 1028.11 932.336V933.104C1028.11 936.368 1029.93 938.768 1033.58 940.304C1037.23 941.776 1042.96 942.512 1050.76 942.512C1058.51 942.512 1064.2 941.776 1067.85 940.304C1071.5 938.768 1073.32 936.368 1073.32 933.104V932.336ZM1165.85 885.872C1172.63 885.872 1178.52 886.832 1183.51 888.752C1188.5 890.672 1192.31 893.424 1194.94 897.008C1197.62 900.592 1198.97 904.816 1198.97 909.68V925.616C1198.97 930.928 1197.66 935.504 1195.03 939.344C1192.41 943.184 1188.63 946.128 1183.7 948.176C1178.84 950.16 1173.02 951.152 1166.23 951.152C1160.09 951.152 1154.71 950.352 1150.1 948.752C1145.5 947.152 1141.94 944.88 1139.45 941.936C1137.02 938.928 1135.8 935.408 1135.8 931.376V930.704H1145.3V931.376C1145.3 934.768 1147.16 937.424 1150.87 939.344C1154.58 941.264 1159.7 942.224 1166.23 942.224C1173.72 942.224 1179.45 940.816 1183.42 938C1187.45 935.184 1189.46 931.12 1189.46 925.808V919.76C1183.9 924.304 1175.8 926.576 1165.18 926.576C1155.38 926.576 1147.86 924.944 1142.62 921.68C1137.37 918.416 1134.74 913.712 1134.74 907.568V906.224C1134.74 902 1135.99 898.384 1138.49 895.376C1140.98 892.304 1144.57 889.968 1149.24 888.368C1153.91 886.704 1159.45 885.872 1165.85 885.872ZM1165.27 917.84C1171.03 917.84 1175.99 917.136 1180.15 915.728C1184.38 914.32 1187.48 912.4 1189.46 909.968V909.488C1189.46 904.88 1187.38 901.296 1183.22 898.736C1179.06 896.112 1173.24 894.8 1165.75 894.8C1159.03 894.8 1153.75 895.76 1149.91 897.68C1146.14 899.536 1144.25 902.256 1144.25 905.84V907.184C1144.25 914.288 1151.26 917.84 1165.27 917.84Z" fill="white"/>
<path d="M81.392 733.328V734H76.16L65.696 724.016H58.688V734H54.08V710.24H58.688V719.984H65.552L75.44 710.24H80.768V710.912L69.776 721.904L81.392 733.328ZM115.675 729.92V734H112.507C110.939 734 109.627 733.696 108.571 733.088C107.515 732.48 106.779 731.616 106.363 730.496C105.083 731.872 103.547 732.896 101.755 733.568C99.9629 734.24 97.8509 734.576 95.4189 734.576C91.9949 734.576 89.3549 733.984 87.4989 732.8C85.6429 731.584 84.7149 729.856 84.7149 727.616C84.7149 725.696 85.4349 724.16 86.8749 723.008C88.3149 721.856 90.4269 721.136 93.2109 720.848L106.027 719.504C105.931 717.712 105.179 716.352 103.771 715.424C102.363 714.496 100.347 714.032 97.7229 714.032C95.1949 714.032 93.1789 714.464 91.6749 715.328C90.1709 716.192 89.4189 717.344 89.4189 718.784V718.976H84.8589V718.784C84.8589 716.992 85.3869 715.408 86.4429 714.032C87.5309 712.624 89.0509 711.552 91.0029 710.816C92.9549 710.048 95.2109 709.664 97.7709 709.664C101.835 709.664 104.987 710.56 107.227 712.352C109.467 714.144 110.587 716.656 110.587 719.888V727.28C110.587 728.112 110.843 728.768 111.355 729.248C111.867 729.696 112.603 729.92 113.563 729.92H115.675ZM95.3229 730.496C97.9149 730.496 100.139 730.096 101.995 729.296C103.851 728.464 105.195 727.296 106.027 725.792V723.248L94.2189 724.496C92.5549 724.656 91.3069 724.992 90.4749 725.504C89.6749 726.016 89.2749 726.72 89.2749 727.616C89.2749 729.536 91.2909 730.496 95.3229 730.496ZM147.298 733.328V734H142.066L131.602 724.016H124.594V734H119.986V710.24H124.594V719.984H131.458L141.346 710.24H146.674V710.912L135.682 721.904L147.298 733.328ZM181.581 729.92V734H178.413C176.845 734 175.533 733.696 174.477 733.088C173.421 732.48 172.685 731.616 172.269 730.496C170.989 731.872 169.453 732.896 167.661 733.568C165.869 734.24 163.757 734.576 161.325 734.576C157.901 734.576 155.261 733.984 153.405 732.8C151.549 731.584 150.621 729.856 150.621 727.616C150.621 725.696 151.341 724.16 152.781 723.008C154.221 721.856 156.333 721.136 159.117 720.848L171.933 719.504C171.837 717.712 171.085 716.352 169.677 715.424C168.269 714.496 166.253 714.032 163.629 714.032C161.101 714.032 159.085 714.464 157.581 715.328C156.077 716.192 155.325 717.344 155.325 718.784V718.976H150.765V718.784C150.765 716.992 151.293 715.408 152.349 714.032C153.437 712.624 154.957 711.552 156.909 710.816C158.861 710.048 161.117 709.664 163.677 709.664C167.741 709.664 170.893 710.56 173.133 712.352C175.373 714.144 176.493 716.656 176.493 719.888V727.28C176.493 728.112 176.749 728.768 177.261 729.248C177.773 729.696 178.509 729.92 179.469 729.92H181.581ZM161.229 730.496C163.821 730.496 166.045 730.096 167.901 729.296C169.757 728.464 171.101 727.296 171.933 725.792V723.248L160.125 724.496C158.461 724.656 157.213 724.992 156.381 725.504C155.581 726.016 155.181 726.72 155.181 727.616C155.181 729.536 157.197 730.496 161.229 730.496ZM212.053 733.952H207.445V726.176H200.341L190.837 734H184.885V733.424L193.717 726.176C190.869 726.048 188.661 725.328 187.093 724.016C185.525 722.672 184.741 720.848 184.741 718.544V718.016C184.741 715.552 185.589 713.648 187.285 712.304C189.013 710.928 191.413 710.24 194.484 710.24H212.053V733.952ZM207.445 722.24V714.272H194.821C191.269 714.272 189.493 715.52 189.493 718.016V718.544C189.493 721.008 191.269 722.24 194.821 722.24H207.445ZM269.76 729.92V740.144H265.2V734H239.424V710.24H244.032V729.92H260.448V710.24H265.008V729.92H269.76ZM279.09 710.24V728.384L296.514 710.24H300.738V734H296.322V715.856L278.898 734H274.674V710.24H279.09ZM334.189 710.24C338.861 710.24 342.477 711.248 345.037 713.264C347.597 715.28 348.877 718.128 348.877 721.808V722.48C348.877 726.096 347.581 728.928 344.989 730.976C342.429 732.992 338.829 734 334.189 734H330.349V742.16H325.741V734H321.901C317.261 734 313.645 732.992 311.053 730.976C308.493 728.928 307.213 726.096 307.213 722.48V721.808C307.213 718.128 308.493 715.28 311.053 713.264C313.613 711.248 317.229 710.24 321.901 710.24H325.741V700.592H330.349V710.24H334.189ZM325.741 729.92V714.272H321.661C318.557 714.272 316.157 714.928 314.461 716.24C312.765 717.552 311.917 719.424 311.917 721.856V722.432C311.917 724.832 312.749 726.688 314.413 728C316.109 729.28 318.525 729.92 321.661 729.92H325.741ZM344.173 721.856C344.173 719.424 343.325 717.552 341.629 716.24C339.933 714.928 337.533 714.272 334.429 714.272H330.349V729.92H334.429C337.565 729.92 339.965 729.28 341.629 728C343.325 726.688 344.173 724.832 344.173 722.432V721.856ZM368.93 709.664C371.778 709.664 374.274 710.16 376.418 711.152C378.562 712.144 380.21 713.552 381.362 715.376C382.514 717.168 383.09 719.28 383.09 721.712V722.48C383.09 724.912 382.514 727.04 381.362 728.864C380.21 730.688 378.562 732.096 376.418 733.088C374.274 734.08 371.778 734.576 368.93 734.576C367.17 734.576 365.522 734.304 363.986 733.76C362.45 733.216 361.106 732.432 359.954 731.408V742.16H355.346V710.24H359.618L359.81 712.976C360.994 711.92 362.37 711.104 363.938 710.528C365.506 709.952 367.17 709.664 368.93 709.664ZM378.338 721.712C378.338 719.28 377.49 717.376 375.794 716C374.13 714.592 371.826 713.888 368.882 713.888C366.994 713.888 365.25 714.224 363.65 714.896C362.082 715.568 360.85 716.48 359.954 717.632V726.56C360.85 727.712 362.082 728.64 363.65 729.344C365.25 730.016 366.994 730.352 368.882 730.352C371.826 730.352 374.13 729.648 375.794 728.24C377.49 726.832 378.338 724.912 378.338 722.48V721.712ZM419.472 729.92V734H416.304C414.736 734 413.424 733.696 412.368 733.088C411.312 732.48 410.576 731.616 410.16 730.496C408.88 731.872 407.344 732.896 405.552 733.568C403.76 734.24 401.648 734.576 399.216 734.576C395.792 734.576 393.152 733.984 391.296 732.8C389.44 731.584 388.512 729.856 388.512 727.616C388.512 725.696 389.232 724.16 390.672 723.008C392.112 721.856 394.224 721.136 397.008 720.848L409.824 719.504C409.728 717.712 408.976 716.352 407.568 715.424C406.16 714.496 404.144 714.032 401.52 714.032C398.992 714.032 396.976 714.464 395.472 715.328C393.968 716.192 393.216 717.344 393.216 718.784V718.976H388.656V718.784C388.656 716.992 389.184 715.408 390.24 714.032C391.328 712.624 392.848 711.552 394.8 710.816C396.752 710.048 399.008 709.664 401.568 709.664C405.632 709.664 408.784 710.56 411.024 712.352C413.264 714.144 414.384 716.656 414.384 719.888V727.28C414.384 728.112 414.64 728.768 415.152 729.248C415.664 729.696 416.4 729.92 417.36 729.92H419.472ZM399.12 730.496C401.712 730.496 403.936 730.096 405.792 729.296C407.648 728.464 408.992 727.296 409.824 725.792V723.248L398.016 724.496C396.352 724.656 395.104 724.992 394.272 725.504C393.472 726.016 393.072 726.72 393.072 727.616C393.072 729.536 395.088 730.496 399.12 730.496ZM447.418 710.24V728.384L464.842 710.24H469.066V734H464.65V715.856L447.226 734H443.002V710.24H447.418ZM489.557 734.576C486.709 734.576 484.213 734.096 482.069 733.136C479.925 732.144 478.277 730.752 477.125 728.96C475.973 727.136 475.397 725.024 475.397 722.624V721.76C475.397 719.296 475.973 717.152 477.125 715.328C478.277 713.504 479.909 712.112 482.021 711.152C484.165 710.16 486.677 709.664 489.557 709.664C492.149 709.664 494.485 710.112 496.565 711.008C498.645 711.872 500.261 713.088 501.413 714.656C502.597 716.192 503.189 717.936 503.189 719.888V720.08H498.437V719.888C498.437 718.736 498.053 717.712 497.285 716.816C496.549 715.888 495.493 715.168 494.117 714.656C492.773 714.144 491.253 713.888 489.557 713.888C486.613 713.888 484.309 714.592 482.645 716C480.981 717.376 480.149 719.312 480.149 721.808V722.576C480.149 725.008 480.981 726.912 482.645 728.288C484.309 729.664 486.613 730.352 489.557 730.352C491.285 730.352 492.821 730.096 494.165 729.584C495.509 729.072 496.549 728.368 497.285 727.472C498.053 726.576 498.437 725.552 498.437 724.4V724.208H503.189V724.4C503.189 726.384 502.613 728.144 501.461 729.68C500.309 731.216 498.693 732.416 496.613 733.28C494.565 734.144 492.213 734.576 489.557 734.576ZM535.201 710.24V734H530.593V714.272H513.985V734H509.377V710.24H535.201ZM555.793 734.576C552.881 734.576 550.353 734.096 548.209 733.136C546.065 732.144 544.417 730.752 543.265 728.96C542.113 727.136 541.537 725.008 541.537 722.576V721.76C541.537 719.296 542.113 717.152 543.265 715.328C544.417 713.504 546.065 712.112 548.209 711.152C550.353 710.16 552.881 709.664 555.793 709.664C558.673 709.664 561.169 710.16 563.281 711.152C565.425 712.112 567.057 713.504 568.177 715.328C569.329 717.152 569.905 719.296 569.905 721.76V722.576C569.905 725.008 569.329 727.136 568.177 728.96C567.057 730.752 565.425 732.144 563.281 733.136C561.169 734.096 558.673 734.576 555.793 734.576ZM555.745 730.352C558.689 730.352 560.993 729.664 562.657 728.288C564.321 726.912 565.153 725.008 565.153 722.576V721.76C565.153 719.296 564.321 717.376 562.657 716C560.993 714.592 558.689 713.888 555.745 713.888C552.737 713.888 550.401 714.576 548.737 715.952C547.105 717.328 546.289 719.264 546.289 721.76V722.576C546.289 725.008 547.121 726.912 548.785 728.288C550.481 729.664 552.801 730.352 555.745 730.352ZM601.815 734H597.207V714.272H582.663L582.471 722.864C582.375 726.672 581.639 729.488 580.263 731.312C578.919 733.104 576.871 734 574.119 734H571.959V729.92H573.111C574.807 729.92 576.023 729.36 576.759 728.24C577.527 727.12 577.943 725.248 578.007 722.624L578.295 710.24H601.815V734ZM627.731 717.392C630.739 717.392 633.075 718.112 634.739 719.552C636.435 720.96 637.283 722.928 637.283 725.456V726.032C637.283 728.496 636.419 730.432 634.691 731.84C632.995 733.248 630.675 733.952 627.731 733.952H609.971V710.24H614.579V717.392H627.731ZM632.531 725.456C632.531 722.8 630.819 721.472 627.395 721.472H614.579V729.92H627.395C629.059 729.92 630.323 729.584 631.187 728.912C632.083 728.24 632.531 727.28 632.531 726.032V725.456ZM665.704 721.904C667.016 722.448 668.024 723.168 668.728 724.064C669.464 724.928 669.832 725.904 669.832 726.992V727.328C669.832 729.696 668.696 731.504 666.424 732.752C664.152 733.968 660.824 734.576 656.44 734.576C646.968 734.576 642.232 731.28 642.232 724.688V724.352H646.792V724.688C646.792 726.672 647.576 728.144 649.144 729.104C650.744 730.032 653.208 730.496 656.536 730.496C662.232 730.496 665.08 729.376 665.08 727.136V726.8C665.08 724.976 663.368 724.064 659.944 724.064H651.976V720.032H659.416C662.776 720.032 664.456 719.088 664.456 717.2V716.864C664.456 715.84 663.736 715.072 662.296 714.56C660.888 714.016 658.792 713.744 656.008 713.744C652.808 713.744 650.472 714.208 649 715.136C647.528 716.064 646.792 717.552 646.792 719.6V719.936H642.232V719.6C642.232 716.336 643.416 713.872 645.784 712.208C648.152 710.512 651.64 709.664 656.248 709.664C660.408 709.664 663.592 710.288 665.8 711.536C668.04 712.752 669.16 714.496 669.16 716.768V717.104C669.16 718.096 668.856 719.008 668.248 719.84C667.64 720.64 666.792 721.328 665.704 721.904ZM703.008 710.24V710.912L689.472 736.64C688.416 738.624 687.184 740.032 685.776 740.864C684.4 741.728 682.512 742.16 680.112 742.16H675.312V738.08H680.112C681.456 738.08 682.464 737.872 683.136 737.456C683.808 737.072 684.448 736.288 685.056 735.104L685.488 734.336L673.104 710.912V710.24H678L688.08 729.824L698.112 710.24H703.008ZM733.577 723.632H710.681C710.841 725.712 711.737 727.36 713.369 728.576C715.001 729.76 717.177 730.352 719.897 730.352C722.425 730.352 724.473 729.936 726.041 729.104C727.641 728.24 728.505 727.104 728.633 725.696H733.577C733.321 728.48 731.977 730.656 729.545 732.224C727.145 733.792 723.929 734.576 719.897 734.576C717.049 734.576 714.569 734.096 712.457 733.136C710.345 732.144 708.713 730.752 707.561 728.96C706.441 727.168 705.881 725.072 705.881 722.672V721.664C705.881 719.232 706.441 717.12 707.561 715.328C708.713 713.504 710.345 712.112 712.457 711.152C714.569 710.16 717.049 709.664 719.897 709.664C724.153 709.664 727.497 710.72 729.929 712.832C732.361 714.912 733.577 717.792 733.577 721.472V723.632ZM719.897 713.888C717.337 713.888 715.257 714.416 713.657 715.472C712.089 716.496 711.129 717.936 710.777 719.792H728.681C728.393 717.936 727.481 716.496 725.945 715.472C724.409 714.416 722.393 713.888 719.897 713.888ZM735.514 714.368V710.24H763.45V714.368H751.882V734H747.273V714.368H735.514ZM779.572 734.576C776.724 734.576 774.228 734.096 772.084 733.136C769.94 732.144 768.292 730.752 767.14 728.96C765.988 727.136 765.412 725.024 765.412 722.624V721.76C765.412 719.296 765.988 717.152 767.14 715.328C768.292 713.504 769.924 712.112 772.036 711.152C774.18 710.16 776.692 709.664 779.572 709.664C782.164 709.664 784.5 710.112 786.58 711.008C788.66 711.872 790.276 713.088 791.428 714.656C792.612 716.192 793.204 717.936 793.204 719.888V720.08H788.452V719.888C788.452 718.736 788.068 717.712 787.3 716.816C786.564 715.888 785.508 715.168 784.132 714.656C782.788 714.144 781.268 713.888 779.572 713.888C776.628 713.888 774.324 714.592 772.66 716C770.996 717.376 770.164 719.312 770.164 721.808V722.576C770.164 725.008 770.996 726.912 772.66 728.288C774.324 729.664 776.628 730.352 779.572 730.352C781.3 730.352 782.836 730.096 784.18 729.584C785.524 729.072 786.564 728.368 787.3 727.472C788.068 726.576 788.452 725.552 788.452 724.4V724.208H793.204V724.4C793.204 726.384 792.628 728.144 791.476 729.68C790.324 731.216 788.708 732.416 786.628 733.28C784.58 734.144 782.228 734.576 779.572 734.576ZM825.553 733.952H820.945V726.176H813.841L804.337 734H798.385V733.424L807.217 726.176C804.369 726.048 802.161 725.328 800.593 724.016C799.025 722.672 798.241 720.848 798.241 718.544V718.016C798.241 715.552 799.089 713.648 800.785 712.304C802.513 710.928 804.913 710.24 807.984 710.24H825.553V733.952ZM820.945 722.24V714.272H808.321C804.769 714.272 802.993 715.52 802.993 718.016V718.544C802.993 721.008 804.769 722.24 808.321 722.24H820.945ZM77.36 793.952C78.672 794.368 79.664 795.008 80.336 795.872C81.04 796.704 81.392 797.728 81.392 798.944V799.424C81.392 801.504 80.576 803.12 78.944 804.272C77.344 805.424 75.072 806 72.128 806H54.08V782.24H71.504C74.448 782.24 76.72 782.8 78.32 783.92C79.952 785.008 80.768 786.576 80.768 788.624V789.104C80.768 791.312 79.632 792.928 77.36 793.952ZM58.688 785.792V792.224H71.312C72.816 792.224 73.968 791.968 74.768 791.456C75.6 790.912 76.016 790.144 76.016 789.152V788.672C76.016 787.744 75.616 787.04 74.816 786.56C74.016 786.048 72.848 785.792 71.312 785.792H58.688ZM76.64 798.848C76.64 797.888 76.24 797.152 75.44 796.64C74.64 796.128 73.488 795.872 71.984 795.872H58.688V802.4H71.984C73.488 802.4 74.64 802.144 75.44 801.632C76.24 801.088 76.64 800.32 76.64 799.328V798.848ZM132.673 782.24C137.345 782.24 140.961 783.248 143.521 785.264C146.081 787.28 147.361 790.128 147.361 793.808V794.48C147.361 798.096 146.065 800.928 143.473 802.976C140.913 804.992 137.313 806 132.673 806H128.833V814.16H124.225V806H120.385C115.745 806 112.129 804.992 109.537 802.976C106.977 800.928 105.697 798.096 105.697 794.48V793.808C105.697 790.128 106.977 787.28 109.537 785.264C112.097 783.248 115.713 782.24 120.385 782.24H124.225V772.592H128.833V782.24H132.673ZM124.225 801.92V786.272H120.145C117.041 786.272 114.641 786.928 112.945 788.24C111.249 789.552 110.401 791.424 110.401 793.856V794.432C110.401 796.832 111.233 798.688 112.897 800C114.593 801.28 117.009 801.92 120.145 801.92H124.225ZM142.657 793.856C142.657 791.424 141.809 789.552 140.113 788.24C138.417 786.928 136.017 786.272 132.913 786.272H128.833V801.92H132.913C136.049 801.92 138.449 801.28 140.113 800C141.809 798.688 142.657 796.832 142.657 794.432V793.856ZM166.262 806.576C163.35 806.576 160.822 806.096 158.678 805.136C156.534 804.144 154.886 802.752 153.734 800.96C152.582 799.136 152.006 797.008 152.006 794.576V793.76C152.006 791.296 152.582 789.152 153.734 787.328C154.886 785.504 156.534 784.112 158.678 783.152C160.822 782.16 163.35 781.664 166.262 781.664C169.142 781.664 171.638 782.16 173.75 783.152C175.894 784.112 177.526 785.504 178.646 787.328C179.798 789.152 180.374 791.296 180.374 793.76V794.576C180.374 797.008 179.798 799.136 178.646 800.96C177.526 802.752 175.894 804.144 173.75 805.136C171.638 806.096 169.142 806.576 166.262 806.576ZM166.214 802.352C169.158 802.352 171.462 801.664 173.126 800.288C174.79 798.912 175.622 797.008 175.622 794.576V793.76C175.622 791.296 174.79 789.376 173.126 788C171.462 786.592 169.158 785.888 166.214 785.888C163.206 785.888 160.87 786.576 159.206 787.952C157.574 789.328 156.758 791.264 156.758 793.76V794.576C156.758 797.008 157.59 798.912 159.254 800.288C160.95 801.664 163.27 802.352 166.214 802.352ZM200.273 781.664C203.121 781.664 205.617 782.16 207.761 783.152C209.905 784.144 211.553 785.552 212.705 787.376C213.857 789.168 214.433 791.28 214.433 793.712V794.48C214.433 796.912 213.857 799.04 212.705 800.864C211.553 802.688 209.905 804.096 207.761 805.088C205.617 806.08 203.121 806.576 200.273 806.576C198.513 806.576 196.865 806.304 195.329 805.76C193.793 805.216 192.449 804.432 191.297 803.408V814.16H186.689V782.24H190.961L191.153 784.976C192.337 783.92 193.713 783.104 195.281 782.528C196.849 781.952 198.513 781.664 200.273 781.664ZM209.681 793.712C209.681 791.28 208.833 789.376 207.137 788C205.473 786.592 203.169 785.888 200.225 785.888C198.337 785.888 196.593 786.224 194.993 786.896C193.425 787.568 192.193 788.48 191.297 789.632V798.56C192.193 799.712 193.425 800.64 194.993 801.344C196.593 802.016 198.337 802.352 200.225 802.352C203.169 802.352 205.473 801.648 207.137 800.24C208.833 798.832 209.681 796.912 209.681 794.48V793.712ZM256.432 782.24V806H252.016V786.992L250.912 788.96L240.64 806H236.56L226.288 788.96L225.184 786.992V806H220.768V782.24H227.296L238.624 801.2L249.904 782.24H256.432ZM292.196 782.24V782.912L278.66 808.64C277.604 810.624 276.372 812.032 274.964 812.864C273.588 813.728 271.7 814.16 269.3 814.16H264.5V810.08H269.3C270.644 810.08 271.652 809.872 272.324 809.456C272.996 809.072 273.636 808.288 274.244 807.104L274.676 806.336L262.292 782.912V782.24H267.188L277.268 801.824L287.3 782.24H292.196ZM322.674 806H318.066V786.272H303.522L303.33 794.864C303.234 798.672 302.498 801.488 301.122 803.312C299.778 805.104 297.73 806 294.978 806H292.818V801.92H293.97C295.666 801.92 296.882 801.36 297.618 800.24C298.386 799.12 298.802 797.248 298.866 794.624L299.154 782.24H322.674V806ZM356.702 795.632H333.806C333.966 797.712 334.862 799.36 336.494 800.576C338.126 801.76 340.302 802.352 343.022 802.352C345.55 802.352 347.598 801.936 349.166 801.104C350.766 800.24 351.63 799.104 351.758 797.696H356.702C356.446 800.48 355.102 802.656 352.67 804.224C350.27 805.792 347.054 806.576 343.022 806.576C340.174 806.576 337.694 806.096 335.582 805.136C333.47 804.144 331.838 802.752 330.686 800.96C329.566 799.168 329.006 797.072 329.006 794.672V793.664C329.006 791.232 329.566 789.12 330.686 787.328C331.838 785.504 333.47 784.112 335.582 783.152C337.694 782.16 340.174 781.664 343.022 781.664C347.278 781.664 350.622 782.72 353.054 784.832C355.486 786.912 356.702 789.792 356.702 793.472V795.632ZM343.022 785.888C340.462 785.888 338.382 786.416 336.782 787.472C335.214 788.496 334.254 789.936 333.902 791.792H351.806C351.518 789.936 350.606 788.496 349.07 787.472C347.534 786.416 345.518 785.888 343.022 785.888ZM408.124 795.632H385.228C385.388 797.712 386.284 799.36 387.916 800.576C389.548 801.76 391.724 802.352 394.444 802.352C396.972 802.352 399.02 801.936 400.588 801.104C402.188 800.24 403.052 799.104 403.18 797.696H408.124C407.868 800.48 406.524 802.656 404.092 804.224C401.692 805.792 398.476 806.576 394.444 806.576C391.596 806.576 389.116 806.096 387.004 805.136C384.892 804.144 383.26 802.752 382.108 800.96C380.988 799.168 380.428 797.072 380.428 794.672V793.664C380.428 791.232 380.988 789.12 382.108 787.328C383.26 785.504 384.892 784.112 387.004 783.152C389.116 782.16 391.596 781.664 394.444 781.664C398.7 781.664 402.044 782.72 404.476 784.832C406.908 786.912 408.124 789.792 408.124 793.472V795.632ZM394.444 785.888C391.884 785.888 389.804 786.416 388.204 787.472C386.636 788.496 385.676 789.936 385.324 791.792H403.228C402.94 789.936 402.028 788.496 400.492 787.472C398.956 786.416 396.94 785.888 394.444 785.888ZM444.215 782.864V787.136H415.703V782.864H444.215ZM444.215 793.376V797.648H415.703V793.376H444.215ZM487.435 781.664C491.307 781.664 494.267 782.704 496.315 784.784C498.363 786.832 499.387 789.808 499.387 793.712V806H494.779V793.712C494.779 791.184 494.123 789.248 492.811 787.904C491.499 786.56 489.627 785.888 487.195 785.888C485.339 785.888 483.611 786.336 482.011 787.232C480.443 788.128 479.243 789.312 478.411 790.784C478.571 791.808 478.651 792.784 478.651 793.712V806H474.091V793.712C474.091 791.216 473.435 789.296 472.123 787.952C470.811 786.576 468.939 785.888 466.507 785.888C464.651 785.888 462.955 786.336 461.419 787.232C459.883 788.096 458.731 789.264 457.963 790.736V806H453.403V782.24H457.675L457.819 785.312C458.971 784.128 460.315 783.232 461.851 782.624C463.419 781.984 465.115 781.664 466.939 781.664C469.307 781.664 471.339 782.08 473.035 782.912C474.731 783.712 476.043 784.896 476.971 786.464C478.219 784.928 479.723 783.744 481.483 782.912C483.275 782.08 485.259 781.664 487.435 781.664ZM519.182 806.576C516.334 806.576 513.838 806.096 511.694 805.136C509.55 804.144 507.902 802.752 506.75 800.96C505.598 799.136 505.022 797.024 505.022 794.624V793.76C505.022 791.296 505.598 789.152 506.75 787.328C507.902 785.504 509.534 784.112 511.646 783.152C513.79 782.16 516.302 781.664 519.182 781.664C521.774 781.664 524.11 782.112 526.19 783.008C528.27 783.872 529.886 785.088 531.038 786.656C532.222 788.192 532.814 789.936 532.814 791.888V792.08H528.062V791.888C528.062 790.736 527.678 789.712 526.91 788.816C526.174 787.888 525.118 787.168 523.742 786.656C522.398 786.144 520.878 785.888 519.182 785.888C516.238 785.888 513.934 786.592 512.27 788C510.606 789.376 509.774 791.312 509.774 793.808V794.576C509.774 797.008 510.606 798.912 512.27 800.288C513.934 801.664 516.238 802.352 519.182 802.352C520.91 802.352 522.446 802.096 523.79 801.584C525.134 801.072 526.174 800.368 526.91 799.472C527.678 798.576 528.062 797.552 528.062 796.4V796.208H532.814V796.4C532.814 798.384 532.238 800.144 531.086 801.68C529.934 803.216 528.318 804.416 526.238 805.28C524.19 806.144 521.838 806.576 519.182 806.576ZM547.546 795.92C547.546 794.064 547.914 792.608 548.65 791.552C549.418 790.464 550.794 789.408 552.778 788.384C554.762 787.36 556.09 786.512 556.762 785.84C557.466 785.136 557.818 784.32 557.818 783.392V782.96C557.818 781.456 557.13 780.288 555.754 779.456C554.41 778.592 552.49 778.16 549.994 778.16C547.37 778.16 545.322 778.672 543.85 779.696C542.378 780.72 541.642 782.144 541.642 783.968V784.976H537.034V783.968C537.034 780.864 538.186 778.416 540.49 776.624C542.794 774.832 545.946 773.936 549.946 773.936C552.346 773.936 554.506 774.32 556.426 775.088C558.346 775.856 559.85 776.928 560.938 778.304C562.026 779.648 562.57 781.168 562.57 782.864V783.536C562.57 785.008 562.106 786.32 561.178 787.472C560.25 788.592 558.73 789.696 556.618 790.784C555.274 791.488 554.266 792.096 553.594 792.608C552.922 793.088 552.458 793.584 552.202 794.096C551.946 794.576 551.818 795.184 551.818 795.92V797.264H547.546V795.92ZM549.706 806.576C548.842 806.576 548.122 806.32 547.546 805.808C547.002 805.264 546.73 804.56 546.73 803.696C546.73 802.832 547.002 802.144 547.546 801.632C548.122 801.088 548.842 800.816 549.706 800.816C550.57 800.816 551.274 801.088 551.818 801.632C552.362 802.144 552.634 802.832 552.634 803.696C552.634 804.56 552.362 805.264 551.818 805.808C551.274 806.32 550.57 806.576 549.706 806.576Z" fill="white"/>
<path d="M84.688 617.872C86.4373 618.597 87.7813 619.557 88.72 620.752C89.7013 621.904 90.192 623.205 90.192 624.656V625.104C90.192 628.261 88.6773 630.672 85.648 632.336C82.6187 633.957 78.1813 634.768 72.336 634.768C59.7067 634.768 53.392 630.373 53.392 621.584V621.136H59.472V621.584C59.472 624.229 60.5173 626.192 62.608 627.472C64.7413 628.709 68.0267 629.328 72.464 629.328C80.0587 629.328 83.856 627.835 83.856 624.848V624.4C83.856 621.968 81.5733 620.752 77.008 620.752H66.384V615.376H76.304C80.784 615.376 83.024 614.117 83.024 611.6V611.152C83.024 609.787 82.064 608.763 80.144 608.08C78.2667 607.355 75.472 606.992 71.76 606.992C67.4933 606.992 64.3787 607.611 62.416 608.848C60.4533 610.085 59.472 612.069 59.472 614.8V615.248H53.392V614.8C53.392 610.448 54.9707 607.163 58.128 604.944C61.2853 602.683 65.936 601.552 72.08 601.552C77.6267 601.552 81.872 602.384 84.816 604.048C87.8027 605.669 89.296 607.995 89.296 611.024V611.472C89.296 612.795 88.8907 614.011 88.08 615.12C87.2693 616.187 86.1387 617.104 84.688 617.872ZM139.254 628.56V634H135.03C132.939 634 131.19 633.595 129.782 632.784C128.374 631.973 127.393 630.821 126.838 629.328C125.131 631.163 123.083 632.528 120.694 633.424C118.305 634.32 115.489 634.768 112.246 634.768C107.681 634.768 104.161 633.979 101.686 632.4C99.2113 630.779 97.974 628.475 97.974 625.488C97.974 622.928 98.934 620.88 100.854 619.344C102.774 617.808 105.59 616.848 109.302 616.464L126.39 614.672C126.262 612.283 125.259 610.469 123.382 609.232C121.505 607.995 118.817 607.376 115.318 607.376C111.947 607.376 109.259 607.952 107.254 609.104C105.249 610.256 104.246 611.792 104.246 613.712V613.968H98.166V613.712C98.166 611.323 98.87 609.211 100.278 607.376C101.729 605.499 103.755 604.069 106.358 603.088C108.961 602.064 111.969 601.552 115.382 601.552C120.801 601.552 125.003 602.747 127.99 605.136C130.977 607.525 132.47 610.875 132.47 615.184V625.04C132.47 626.149 132.811 627.024 133.494 627.664C134.177 628.261 135.158 628.56 136.438 628.56H139.254ZM112.118 629.328C115.574 629.328 118.539 628.795 121.014 627.728C123.489 626.619 125.281 625.061 126.39 623.056V619.664L110.646 621.328C108.427 621.541 106.763 621.989 105.654 622.672C104.587 623.355 104.054 624.293 104.054 625.488C104.054 628.048 106.742 629.328 112.118 629.328ZM187.243 628.56V642.192H181.163V634H147.115V642.192H141.035L140.971 628.56H145.899C148.032 625.36 149.12 621.413 149.163 616.72L149.355 602.32H180.907V628.56H187.243ZM174.826 628.56V607.696H154.987L154.795 616.72C154.752 619.28 154.496 621.52 154.027 623.44C153.557 625.317 152.875 627.024 151.979 628.56H174.826ZM233.817 628.56V634H229.593C227.502 634 225.753 633.595 224.345 632.784C222.937 631.973 221.955 630.821 221.401 629.328C219.694 631.163 217.646 632.528 215.257 633.424C212.867 634.32 210.051 634.768 206.809 634.768C202.243 634.768 198.723 633.979 196.249 632.4C193.774 630.779 192.536 628.475 192.536 625.488C192.536 622.928 193.497 620.88 195.417 619.344C197.337 617.808 200.153 616.848 203.865 616.464L220.953 614.672C220.825 612.283 219.822 610.469 217.945 609.232C216.067 607.995 213.379 607.376 209.881 607.376C206.51 607.376 203.822 607.952 201.817 609.104C199.811 610.256 198.809 611.792 198.809 613.712V613.968H192.729V613.712C192.729 611.323 193.433 609.211 194.841 607.376C196.291 605.499 198.318 604.069 200.921 603.088C203.523 602.064 206.531 601.552 209.945 601.552C215.363 601.552 219.566 602.747 222.553 605.136C225.539 607.525 227.033 610.875 227.033 615.184V625.04C227.033 626.149 227.374 627.024 228.057 627.664C228.739 628.261 229.721 628.56 231.001 628.56H233.817ZM206.681 629.328C210.137 629.328 213.102 628.795 215.577 627.728C218.051 626.619 219.843 625.061 220.953 623.056V619.664L205.208 621.328C202.99 621.541 201.326 621.989 200.217 622.672C199.15 623.355 198.617 624.293 198.617 625.488C198.617 628.048 201.305 629.328 206.681 629.328ZM269.513 602.32V634H263.369V623.056C258.889 623.824 254.58 624.208 250.441 624.208C245.449 624.208 241.673 623.184 239.113 621.136C236.596 619.088 235.337 616.059 235.337 612.048V602.32H241.481V611.472C241.481 616.336 244.681 618.768 251.081 618.768C254.665 618.768 258.761 618.384 263.369 617.616V602.32H269.513ZM319.567 628.56V634H315.343C313.252 634 311.503 633.595 310.095 632.784C308.687 631.973 307.705 630.821 307.151 629.328C305.444 631.163 303.396 632.528 301.007 633.424C298.617 634.32 295.801 634.768 292.559 634.768C287.993 634.768 284.473 633.979 281.999 632.4C279.524 630.779 278.286 628.475 278.286 625.488C278.286 622.928 279.247 620.88 281.167 619.344C283.087 617.808 285.903 616.848 289.615 616.464L306.703 614.672C306.575 612.283 305.572 610.469 303.695 609.232C301.817 607.995 299.129 607.376 295.631 607.376C292.26 607.376 289.572 607.952 287.567 609.104C285.561 610.256 284.559 611.792 284.559 613.712V613.968H278.479V613.712C278.479 611.323 279.183 609.211 280.591 607.376C282.041 605.499 284.068 604.069 286.671 603.088C289.273 602.064 292.281 601.552 295.695 601.552C301.113 601.552 305.316 602.747 308.303 605.136C311.289 607.525 312.783 610.875 312.783 615.184V625.04C312.783 626.149 313.124 627.024 313.807 627.664C314.489 628.261 315.471 628.56 316.751 628.56H319.567ZM292.431 629.328C295.887 629.328 298.852 628.795 301.327 627.728C303.801 626.619 305.593 625.061 306.703 623.056V619.664L290.958 621.328C288.74 621.541 287.076 621.989 285.967 622.672C284.9 623.355 284.367 624.293 284.367 625.488C284.367 628.048 287.055 629.328 292.431 629.328ZM411.612 591.312C414.983 591.312 417.713 592.251 419.804 594.128C421.937 596.005 423.004 598.437 423.004 601.424V602.128C423.004 605.115 421.937 607.547 419.804 609.424C417.713 611.259 414.983 612.176 411.612 612.176C409.393 612.176 407.388 611.749 405.596 610.896C403.847 610.043 402.46 608.848 401.436 607.312C400.455 605.776 399.964 604.048 399.964 602.128V601.36C399.964 599.44 400.455 597.712 401.436 596.176C402.46 594.64 403.847 593.445 405.596 592.592C407.388 591.739 409.393 591.312 411.612 591.312ZM385.82 592.016H392.028V634H385.756L357.596 600.912V634H351.388V592.016H357.66L385.82 625.04V592.016ZM417.948 601.296C417.948 599.717 417.351 598.437 416.156 597.456C414.961 596.432 413.425 595.92 411.548 595.92C409.628 595.92 408.071 596.432 406.876 597.456C405.681 598.437 405.084 599.717 405.084 601.296V602.128C405.084 603.707 405.681 605.008 406.876 606.032C408.113 607.013 409.671 607.504 411.548 607.504C413.425 607.504 414.961 607.013 416.156 606.032C417.351 605.008 417.948 603.707 417.948 602.128V601.296ZM401.116 619.6H421.852V624.72H401.116V619.6ZM446.475 618.96C441.739 618.96 438.134 618.256 435.659 616.848C433.184 615.44 431.947 613.371 431.947 610.64V610.32H437.707V610.64C437.707 611.749 438.475 612.624 440.011 613.264C441.59 613.861 443.766 614.16 446.539 614.16C449.398 614.16 451.552 613.84 453.003 613.2C454.496 612.56 455.243 611.621 455.243 610.384V610C455.243 607.781 452.363 606.672 446.603 606.672H441.419V602.896L451.467 596.816H432.459V591.952H460.363V596.816L450.443 602.832L451.787 602.896C454.944 603.237 457.291 603.984 458.827 605.136C460.363 606.288 461.131 607.909 461.131 610V610.512C461.131 613.243 459.872 615.333 457.355 616.784C454.838 618.235 451.211 618.96 446.475 618.96ZM489.355 592.016H495.499V592.976L456.651 634H450.507V633.104L489.355 592.016ZM482.251 628.56V623.76C484.086 620.901 485.579 618.171 486.731 615.568C487.926 612.965 488.928 610.277 489.739 607.504H495.883V608.4C494.262 613.733 491.979 618.853 489.035 623.76H502.027V612.112H507.915V623.76H514.891V628.56H507.915V634H502.027V628.56H482.251Z" fill="white"/>
<path d="M421.512 486.576C418.6 486.576 416.072 486.096 413.928 485.136C411.784 484.144 410.136 482.752 408.984 480.96C407.832 479.136 407.256 477.008 407.256 474.576V473.76C407.256 471.296 407.832 469.152 408.984 467.328C410.136 465.504 411.784 464.112 413.928 463.152C416.072 462.16 418.6 461.664 421.512 461.664C424.392 461.664 426.888 462.16 429 463.152C431.144 464.112 432.776 465.504 433.896 467.328C435.048 469.152 435.624 471.296 435.624 473.76V474.576C435.624 477.008 435.048 479.136 433.896 480.96C432.776 482.752 431.144 484.144 429 485.136C426.888 486.096 424.392 486.576 421.512 486.576ZM421.464 482.352C424.408 482.352 426.712 481.664 428.376 480.288C430.04 478.912 430.872 477.008 430.872 474.576V473.76C430.872 471.296 430.04 469.376 428.376 468C426.712 466.592 424.408 465.888 421.464 465.888C418.456 465.888 416.12 466.576 414.456 467.952C412.824 469.328 412.008 471.264 412.008 473.76V474.576C412.008 477.008 412.84 478.912 414.504 480.288C416.2 481.664 418.52 482.352 421.464 482.352ZM437.545 466.368V462.24H465.481V466.368H453.913V486H449.305V466.368H437.545ZM493.438 473.952C494.75 474.368 495.742 475.008 496.414 475.872C497.118 476.704 497.47 477.728 497.47 478.944V479.424C497.47 481.504 496.654 483.12 495.022 484.272C493.422 485.424 491.15 486 488.206 486H470.158V462.24H487.582C490.526 462.24 492.798 462.8 494.398 463.92C496.03 465.008 496.846 466.576 496.846 468.624V469.104C496.846 471.312 495.71 472.928 493.438 473.952ZM474.766 465.792V472.224H487.39C488.894 472.224 490.046 471.968 490.846 471.456C491.678 470.912 492.094 470.144 492.094 469.152V468.672C492.094 467.744 491.694 467.04 490.894 466.56C490.094 466.048 488.926 465.792 487.39 465.792H474.766ZM492.718 478.848C492.718 477.888 492.318 477.152 491.518 476.64C490.718 476.128 489.566 475.872 488.062 475.872H474.766V482.4H488.062C489.566 482.4 490.718 482.144 491.518 481.632C492.318 481.088 492.718 480.32 492.718 479.328V478.848ZM530.108 475.632H507.212C507.372 477.712 508.268 479.36 509.9 480.576C511.532 481.76 513.708 482.352 516.428 482.352C518.956 482.352 521.004 481.936 522.572 481.104C524.172 480.24 525.036 479.104 525.164 477.696H530.108C529.852 480.48 528.508 482.656 526.076 484.224C523.676 485.792 520.46 486.576 516.428 486.576C513.58 486.576 511.1 486.096 508.988 485.136C506.876 484.144 505.244 482.752 504.092 480.96C502.972 479.168 502.412 477.072 502.412 474.672V473.664C502.412 471.232 502.972 469.12 504.092 467.328C505.244 465.504 506.876 464.112 508.988 463.152C511.1 462.16 513.58 461.664 516.428 461.664C520.684 461.664 524.028 462.72 526.46 464.832C528.892 466.912 530.108 469.792 530.108 473.472V475.632ZM516.428 465.888C513.868 465.888 511.788 466.416 510.188 467.472C508.62 468.496 507.66 469.936 507.308 471.792H525.212C524.924 469.936 524.012 468.496 522.476 467.472C520.94 466.416 518.924 465.888 516.428 465.888ZM532.045 466.368V462.24H559.981V466.368H548.413V486H543.805V466.368H532.045ZM569.554 486.576C568.69 486.576 567.986 486.304 567.442 485.76C566.898 485.216 566.626 484.528 566.626 483.696C566.626 482.864 566.898 482.176 567.442 481.632C567.986 481.088 568.69 480.816 569.554 480.816C570.418 480.816 571.122 481.088 571.666 481.632C572.21 482.176 572.482 482.864 572.482 483.696C572.482 484.528 572.21 485.216 571.666 485.76C571.122 486.304 570.418 486.576 569.554 486.576ZM569.554 468.72C568.69 468.72 567.986 468.448 567.442 467.904C566.898 467.36 566.626 466.672 566.626 465.84C566.626 465.008 566.898 464.32 567.442 463.776C567.986 463.232 568.69 462.96 569.554 462.96C570.418 462.96 571.122 463.232 571.666 463.776C572.21 464.32 572.482 465.008 572.482 465.84C572.482 466.672 572.21 467.36 571.666 467.904C571.122 468.448 570.418 468.72 569.554 468.72ZM629.43 462.24V462.912L615.894 488.64C614.838 490.624 613.606 492.032 612.198 492.864C610.822 493.728 608.934 494.16 606.534 494.16H601.734V490.08H606.534C607.878 490.08 608.886 489.872 609.558 489.456C610.23 489.072 610.87 488.288 611.478 487.104L611.91 486.336L599.526 462.912V462.24H604.422L614.502 481.824L624.534 462.24H629.43ZM608.31 458.304C607.414 458.304 606.678 458.048 606.102 457.536C605.558 456.992 605.286 456.304 605.286 455.472C605.286 454.64 605.558 453.968 606.102 453.456C606.678 452.944 607.414 452.688 608.31 452.688C609.174 452.688 609.878 452.944 610.422 453.456C610.966 453.968 611.238 454.64 611.238 455.472C611.238 456.304 610.95 456.992 610.374 457.536C609.83 458.048 609.142 458.304 608.31 458.304ZM620.694 458.304C619.83 458.304 619.11 458.048 618.534 457.536C617.99 456.992 617.718 456.304 617.718 455.472C617.718 454.64 617.99 453.968 618.534 453.456C619.078 452.944 619.798 452.688 620.694 452.688C621.558 452.688 622.262 452.944 622.806 453.456C623.382 453.968 623.67 454.64 623.67 455.472C623.67 456.304 623.382 456.992 622.806 457.536C622.262 458.048 621.558 458.304 620.694 458.304ZM665.059 462.864V467.136H636.547V462.864H665.059ZM665.059 473.376V477.648H636.547V473.376H665.059ZM681.206 469.632C679.542 469.632 678.038 469.312 676.694 468.672C675.382 468.032 674.342 467.136 673.574 465.984C672.838 464.832 672.47 463.536 672.47 462.096V461.52C672.47 460.08 672.838 458.784 673.574 457.632C674.342 456.48 675.382 455.584 676.694 454.944C678.038 454.304 679.542 453.984 681.206 453.984C683.734 453.984 685.782 454.688 687.35 456.096C688.95 457.504 689.75 459.328 689.75 461.568V462.096C689.75 464.336 688.95 466.16 687.35 467.568C685.782 468.944 683.734 469.632 681.206 469.632ZM681.158 466.128C682.566 466.128 683.718 465.76 684.614 465.024C685.51 464.256 685.958 463.28 685.958 462.096V461.472C685.958 460.288 685.51 459.328 684.614 458.592C683.718 457.824 682.566 457.44 681.158 457.44C679.718 457.44 678.55 457.824 677.654 458.592C676.758 459.328 676.31 460.288 676.31 461.472V462.096C676.31 463.28 676.758 464.256 677.654 465.024C678.582 465.76 679.75 466.128 681.158 466.128ZM702.628 469.632C700.964 469.632 699.46 469.312 698.116 468.672C696.804 468.032 695.764 467.136 694.996 465.984C694.26 464.832 693.892 463.536 693.892 462.096V461.52C693.892 460.08 694.26 458.784 694.996 457.632C695.764 456.48 696.804 455.584 698.116 454.944C699.46 454.304 700.964 453.984 702.628 453.984C705.156 453.984 707.204 454.688 708.772 456.096C710.372 457.504 711.172 459.328 711.172 461.568V462.096C711.172 464.336 710.372 466.16 708.772 467.568C707.204 468.944 705.156 469.632 702.628 469.632ZM702.58 466.128C703.988 466.128 705.14 465.76 706.036 465.024C706.932 464.256 707.38 463.28 707.38 462.096V461.472C707.38 460.288 706.932 459.328 706.036 458.592C705.14 457.824 703.988 457.44 702.58 457.44C701.14 457.44 699.972 457.824 699.076 458.592C698.18 459.328 697.732 460.288 697.732 461.472V462.096C697.732 463.28 698.18 464.256 699.076 465.024C700.004 465.76 701.172 466.128 702.58 466.128ZM747.57 472.416H734.994V484.032H730.674V472.416H718.098V468.096H730.674V456.48H734.994V468.096H747.57V472.416ZM784.118 462.24V462.912L770.582 488.64C769.526 490.624 768.294 492.032 766.886 492.864C765.51 493.728 763.622 494.16 761.222 494.16H756.422V490.08H761.222C762.566 490.08 763.574 489.872 764.246 489.456C764.918 489.072 765.558 488.288 766.166 487.104L766.598 486.336L754.214 462.912V462.24H759.11L769.19 481.824L779.222 462.24H784.118Z" fill="white"/>
<path d="M440.28 349.728V354H409.608V350.16L424.152 342.192C427.064 340.592 429.224 339.312 430.632 338.352C432.04 337.36 433 336.448 433.512 335.616C434.024 334.752 434.28 333.744 434.28 332.592V332.112C434.28 330.256 433.432 328.832 431.736 327.84C430.072 326.848 427.688 326.352 424.584 326.352C421.384 326.352 418.936 326.88 417.24 327.936C415.576 328.992 414.744 330.528 414.744 332.544V333.504H409.944V332.496C409.944 329.072 411.192 326.448 413.688 324.624C416.216 322.8 419.816 321.888 424.488 321.888C429.032 321.888 432.584 322.784 435.144 324.576C437.736 326.368 439.032 328.832 439.032 331.968V332.448C439.032 334.208 438.648 335.776 437.88 337.152C437.144 338.496 435.88 339.856 434.088 341.232C432.328 342.608 429.832 344.16 426.6 345.888L419.544 349.728H440.28ZM446.876 319.2C450.108 319.264 452.924 319.968 455.324 321.312C457.724 322.624 459.564 324.464 460.844 326.832C462.124 329.168 462.764 331.92 462.764 335.088V341.424C462.764 344.624 462.124 347.408 460.844 349.776C459.596 352.144 457.772 353.968 455.372 355.248C453.004 356.56 450.172 357.248 446.876 357.312V353.232C450.492 353.072 453.276 351.968 455.228 349.92C457.212 347.872 458.204 345.024 458.204 341.376V335.184C458.204 331.536 457.212 328.688 455.228 326.64C453.276 324.56 450.492 323.456 446.876 323.328V319.2ZM511.638 332.16C513.174 333.216 514.342 334.56 515.142 336.192C515.974 337.824 516.39 339.68 516.39 341.76V342.576C516.39 345.008 515.814 347.136 514.662 348.96C513.542 350.752 511.91 352.144 509.766 353.136C507.654 354.096 505.158 354.576 502.278 354.576C500.326 354.576 498.534 354.352 496.902 353.904L495.174 356.496H490.326V355.92L492.822 352.08C491.286 351.056 490.102 349.728 489.27 348.096C488.438 346.464 488.022 344.624 488.022 342.576V341.76C488.022 339.296 488.582 337.152 489.702 335.328C490.854 333.504 492.502 332.112 494.646 331.152C496.79 330.16 499.334 329.664 502.278 329.664C504.166 329.664 505.926 329.888 507.558 330.336L509.238 327.744H514.134V328.32L511.638 332.16ZM492.774 342.528C492.774 345.024 493.638 346.944 495.366 348.288L504.966 334.128C504.006 333.968 503.094 333.888 502.23 333.888C499.254 333.888 496.934 334.592 495.27 336C493.606 337.376 492.774 339.328 492.774 341.856V342.528ZM511.638 341.856C511.638 339.36 510.79 337.392 509.094 335.952L499.494 350.112C500.39 350.272 501.302 350.352 502.23 350.352C505.142 350.352 507.43 349.664 509.094 348.288C510.79 346.88 511.638 344.96 511.638 342.528V341.856ZM539.217 329.904L547.713 332.544L546.177 336.72L536.145 332.592L536.337 338.592H531.633L531.873 332.544L521.745 336.72L520.257 332.544L528.753 329.904L520.257 327.264L521.745 323.088L531.873 327.216L531.633 321.168H536.337L536.145 327.168L546.177 323.088L547.713 327.264L539.217 329.904ZM560.128 337.632C558.464 337.632 556.96 337.312 555.616 336.672C554.304 336.032 553.264 335.136 552.496 333.984C551.76 332.832 551.392 331.536 551.392 330.096V329.52C551.392 328.08 551.76 326.784 552.496 325.632C553.264 324.48 554.304 323.584 555.616 322.944C556.96 322.304 558.464 321.984 560.128 321.984C562.656 321.984 564.704 322.688 566.272 324.096C567.872 325.504 568.672 327.328 568.672 329.568V330.096C568.672 332.336 567.872 334.16 566.272 335.568C564.704 336.944 562.656 337.632 560.128 337.632ZM560.08 334.128C561.488 334.128 562.64 333.76 563.536 333.024C564.432 332.256 564.88 331.28 564.88 330.096V329.472C564.88 328.288 564.432 327.328 563.536 326.592C562.64 325.824 561.488 325.44 560.08 325.44C558.64 325.44 557.472 325.824 556.576 326.592C555.68 327.328 555.232 328.288 555.232 329.472V330.096C555.232 331.28 555.68 332.256 556.576 333.024C557.504 333.76 558.672 334.128 560.08 334.128ZM605.07 340.416H592.494V352.032H588.174V340.416H575.598V336.096H588.174V324.48H592.494V336.096H605.07V340.416ZM629.618 357.312C626.386 357.248 623.57 356.544 621.17 355.2C618.77 353.888 616.93 352.064 615.65 349.728C614.37 347.36 613.73 344.592 613.73 341.424V335.088C613.73 331.888 614.354 329.104 615.602 326.736C616.882 324.368 618.706 322.544 621.074 321.264C623.474 319.952 626.322 319.264 629.618 319.2V323.28C626.002 323.44 623.202 324.544 621.218 326.592C619.266 328.64 618.29 331.488 618.29 335.136V341.328C618.29 344.976 619.266 347.84 621.218 349.92C623.202 351.968 626.002 353.056 629.618 353.184V357.312ZM663.086 330.24V330.912L649.55 356.64C648.494 358.624 647.262 360.032 645.854 360.864C644.478 361.728 642.59 362.16 640.19 362.16H635.39V358.08H640.19C641.534 358.08 642.542 357.872 643.214 357.456C643.886 357.072 644.526 356.288 645.134 355.104L645.566 354.336L633.182 330.912V330.24H638.078L648.158 349.824L658.19 330.24H663.086ZM658.43 319.488V323.424L637.934 327.024V323.088L658.43 319.488ZM682.8 338.64V342.816H666.384V338.64H682.8ZM689.347 319.44L709.843 323.04V327.024L689.347 323.424V319.44ZM707.126 319.2C710.358 319.264 713.174 319.968 715.574 321.312C717.974 322.624 719.814 324.464 721.094 326.832C722.374 329.168 723.014 331.92 723.014 335.088V341.424C723.014 344.624 722.374 347.408 721.094 349.776C719.846 352.144 718.022 353.968 715.622 355.248C713.254 356.56 710.422 357.248 707.126 357.312V353.232C710.742 353.072 713.526 351.968 715.478 349.92C717.462 347.872 718.454 345.024 718.454 341.376V335.184C718.454 331.536 717.462 328.688 715.478 326.64C713.526 324.56 710.742 323.456 707.126 323.328V319.2ZM760.637 330.864V335.136H732.125V330.864H760.637ZM760.637 341.376V345.648H732.125V341.376H760.637ZM776.784 337.632C775.12 337.632 773.616 337.312 772.272 336.672C770.96 336.032 769.92 335.136 769.152 333.984C768.416 332.832 768.048 331.536 768.048 330.096V329.52C768.048 328.08 768.416 326.784 769.152 325.632C769.92 324.48 770.96 323.584 772.272 322.944C773.616 322.304 775.12 321.984 776.784 321.984C779.312 321.984 781.36 322.688 782.928 324.096C784.528 325.504 785.328 327.328 785.328 329.568V330.096C785.328 332.336 784.528 334.16 782.928 335.568C781.36 336.944 779.312 337.632 776.784 337.632ZM776.736 334.128C778.144 334.128 779.296 333.76 780.192 333.024C781.088 332.256 781.536 331.28 781.536 330.096V329.472C781.536 328.288 781.088 327.328 780.192 326.592C779.296 325.824 778.144 325.44 776.736 325.44C775.296 325.44 774.128 325.824 773.232 326.592C772.336 327.328 771.888 328.288 771.888 329.472V330.096C771.888 331.28 772.336 332.256 773.232 333.024C774.16 333.76 775.328 334.128 776.736 334.128ZM798.206 337.632C796.542 337.632 795.038 337.312 793.694 336.672C792.382 336.032 791.342 335.136 790.574 333.984C789.838 332.832 789.47 331.536 789.47 330.096V329.52C789.47 328.08 789.838 326.784 790.574 325.632C791.342 324.48 792.382 323.584 793.694 322.944C795.038 322.304 796.542 321.984 798.206 321.984C800.734 321.984 802.782 322.688 804.35 324.096C805.95 325.504 806.75 327.328 806.75 329.568V330.096C806.75 332.336 805.95 334.16 804.35 335.568C802.782 336.944 800.734 337.632 798.206 337.632ZM798.158 334.128C799.566 334.128 800.718 333.76 801.614 333.024C802.51 332.256 802.958 331.28 802.958 330.096V329.472C802.958 328.288 802.51 327.328 801.614 326.592C800.718 325.824 799.566 325.44 798.158 325.44C796.718 325.44 795.55 325.824 794.654 326.592C793.758 327.328 793.31 328.288 793.31 329.472V330.096C793.31 331.28 793.758 332.256 794.654 333.024C795.582 333.76 796.75 334.128 798.158 334.128ZM843.148 340.416H830.572V352.032H826.252V340.416H813.676V336.096H826.252V324.48H830.572V336.096H843.148V340.416ZM879.696 330.24V330.912L866.16 356.64C865.104 358.624 863.872 360.032 862.464 360.864C861.088 361.728 859.2 362.16 856.8 362.16H852V358.08H856.8C858.144 358.08 859.152 357.872 859.824 357.456C860.496 357.072 861.136 356.288 861.744 355.104L862.176 354.336L849.792 330.912V330.24H854.688L864.768 349.824L874.8 330.24H879.696ZM915.324 330.864V335.136H886.812V330.864H915.324ZM915.324 341.376V345.648H886.812V341.376H915.324ZM952.352 330.24V330.912L938.816 356.64C937.76 358.624 936.528 360.032 935.12 360.864C933.744 361.728 931.856 362.16 929.456 362.16H924.656V358.08H929.456C930.8 358.08 931.808 357.872 932.48 357.456C933.152 357.072 933.792 356.288 934.4 355.104L934.832 354.336L922.448 330.912V330.24H927.344L937.424 349.824L947.456 330.24H952.352ZM931.232 326.304C930.336 326.304 929.6 326.048 929.024 325.536C928.48 324.992 928.208 324.304 928.208 323.472C928.208 322.64 928.48 321.968 929.024 321.456C929.6 320.944 930.336 320.688 931.232 320.688C932.096 320.688 932.8 320.944 933.344 321.456C933.888 321.968 934.16 322.64 934.16 323.472C934.16 324.304 933.872 324.992 933.296 325.536C932.752 326.048 932.064 326.304 931.232 326.304ZM943.616 326.304C942.752 326.304 942.032 326.048 941.456 325.536C940.912 324.992 940.64 324.304 940.64 323.472C940.64 322.64 940.912 321.968 941.456 321.456C942 320.944 942.72 320.688 943.616 320.688C944.48 320.688 945.184 320.944 945.728 321.456C946.304 321.968 946.592 322.64 946.592 323.472C946.592 324.304 946.304 324.992 945.728 325.536C945.184 326.048 944.48 326.304 943.616 326.304Z" fill="white"/>
<path d="M443.16 247.728V252H410.088V247.728H424.92V227.616C423.448 228.48 421.496 228.912 419.064 228.912H410.088V224.448H418.68C422.52 224.448 424.6 223.36 424.92 221.184V220.512H429.672V247.728H443.16ZM446.876 217.2C450.108 217.264 452.924 217.968 455.324 219.312C457.724 220.624 459.564 222.464 460.844 224.832C462.124 227.168 462.764 229.92 462.764 233.088V239.424C462.764 242.624 462.124 245.408 460.844 247.776C459.596 250.144 457.772 251.968 455.372 253.248C453.004 254.56 450.172 255.248 446.876 255.312V251.232C450.492 251.072 453.276 249.968 455.228 247.92C457.212 245.872 458.204 243.024 458.204 239.376V233.184C458.204 229.536 457.212 226.688 455.228 224.64C453.276 222.56 450.492 221.456 446.876 221.328V217.2ZM494.934 228.24V252H490.326V228.24H494.934ZM487.398 224.256C486.502 224.256 485.782 224 485.238 223.488C484.662 222.944 484.374 222.256 484.374 221.424C484.374 220.592 484.662 219.92 485.238 219.408C485.782 218.896 486.502 218.64 487.398 218.64C488.262 218.64 488.966 218.896 489.51 219.408C490.054 219.92 490.326 220.592 490.326 221.424C490.326 222.256 490.038 222.944 489.462 223.488C488.918 224 488.23 224.256 487.398 224.256ZM497.862 224.256C496.998 224.256 496.278 224 495.702 223.488C495.158 222.944 494.886 222.256 494.886 221.424C494.886 220.592 495.158 219.92 495.702 219.408C496.246 218.896 496.966 218.64 497.862 218.64C498.758 218.64 499.478 218.896 500.022 219.408C500.566 219.92 500.838 220.592 500.838 221.424C500.838 222.256 500.55 222.944 499.974 223.488C499.43 224 498.726 224.256 497.862 224.256ZM513.276 227.136C515.324 226.176 516.716 225.36 517.452 224.688C518.22 223.984 518.604 223.2 518.604 222.336V222.048C518.604 221.056 518.092 220.288 517.068 219.744C516.076 219.168 514.668 218.88 512.844 218.88C510.892 218.88 509.388 219.184 508.332 219.792C507.308 220.4 506.796 221.264 506.796 222.384V223.008H502.524V222.384C502.524 220.144 503.42 218.4 505.212 217.152C507.004 215.904 509.532 215.28 512.796 215.28C515.996 215.28 518.508 215.872 520.332 217.056C522.156 218.208 523.068 219.792 523.068 221.808V222.192C523.068 223.696 522.492 225.04 521.34 226.224C520.188 227.376 518.252 228.592 515.532 229.872L510.732 232.128H523.692V235.536H502.38V232.128L513.276 227.136ZM544.894 236.64V240.816H528.478V236.64H544.894ZM574.496 232.128L555.872 248.064H574.496V252H549.728V248.064L568.256 232.224H549.728V228.24H574.496V232.128ZM552.032 217.488L562.256 220.992L572.528 217.488V221.568L562.256 225.024L552.032 221.568V217.488ZM611.053 227.232L587.821 233.616L611.053 240.144V244.272H610.381L582.541 236.352V230.784L610.381 223.152H611.053V227.232ZM582.541 247.008H611.053V251.28H582.541V247.008ZM650.769 247.92V252H647.601C646.033 252 644.721 251.696 643.665 251.088C642.609 250.48 641.873 249.616 641.457 248.496C640.177 249.872 638.641 250.896 636.849 251.568C635.057 252.24 632.945 252.576 630.513 252.576C627.089 252.576 624.449 251.984 622.593 250.8C620.737 249.584 619.809 247.856 619.809 245.616C619.809 243.696 620.529 242.16 621.969 241.008C623.409 239.856 625.521 239.136 628.305 238.848L641.121 237.504C641.025 235.712 640.273 234.352 638.865 233.424C637.457 232.496 635.441 232.032 632.817 232.032C630.289 232.032 628.273 232.464 626.769 233.328C625.265 234.192 624.513 235.344 624.513 236.784V236.976H619.953V236.784C619.953 234.992 620.481 233.408 621.537 232.032C622.625 230.624 624.145 229.552 626.097 228.816C628.049 228.048 630.305 227.664 632.865 227.664C636.929 227.664 640.081 228.56 642.321 230.352C644.561 232.144 645.681 234.656 645.681 237.888V245.28C645.681 246.112 645.937 246.768 646.449 247.248C646.961 247.696 647.697 247.92 648.657 247.92H650.769ZM630.417 248.496C633.009 248.496 635.233 248.096 637.089 247.296C638.945 246.464 640.289 245.296 641.121 243.792V241.248L629.313 242.496C627.649 242.656 626.401 242.992 625.569 243.504C624.769 244.016 624.369 244.72 624.369 245.616C624.369 247.536 626.385 248.496 630.417 248.496ZM633.105 224.832C629.841 224.832 626.385 223.92 622.737 222.096V218.16C626.449 219.952 629.905 220.848 633.105 220.848C636.305 220.848 639.681 219.952 643.233 218.16V222.096C639.777 223.92 636.401 224.832 633.105 224.832ZM681.039 228.24V228.912L667.503 254.64C666.447 256.624 665.215 258.032 663.807 258.864C662.431 259.728 660.543 260.16 658.143 260.16H653.343V256.08H658.143C659.487 256.08 660.495 255.872 661.167 255.456C661.839 255.072 662.479 254.288 663.087 253.104L663.519 252.336L651.135 228.912V228.24H656.031L666.111 247.824L676.143 228.24H681.039ZM676.383 217.488V221.424L655.887 225.024V221.088L676.383 217.488Z" fill="white"/>
<path d="M101.68 421.24V421.912L88.144 447.64C87.088 449.624 85.856 451.032 84.448 451.864C83.072 452.728 81.184 453.16 78.784 453.16H73.984V449.08H78.784C80.128 449.08 81.136 448.872 81.808 448.456C82.48 448.072 83.12 447.288 83.728 446.104L84.16 445.336L71.776 421.912V421.24H76.672L86.752 440.824L96.784 421.24H101.68ZM80.56 417.304C79.664 417.304 78.928 417.048 78.352 416.536C77.808 415.992 77.536 415.304 77.536 414.472C77.536 413.64 77.808 412.968 78.352 412.456C78.928 411.944 79.664 411.688 80.56 411.688C81.424 411.688 82.128 411.944 82.672 412.456C83.216 412.968 83.488 413.64 83.488 414.472C83.488 415.304 83.2 415.992 82.624 416.536C82.08 417.048 81.392 417.304 80.56 417.304ZM92.944 417.304C92.08 417.304 91.36 417.048 90.784 416.536C90.24 415.992 89.968 415.304 89.968 414.472C89.968 413.64 90.24 412.968 90.784 412.456C91.328 411.944 92.048 411.688 92.944 411.688C93.808 411.688 94.512 411.944 95.056 412.456C95.632 412.968 95.92 413.64 95.92 414.472C95.92 415.304 95.632 415.992 95.056 416.536C94.512 417.048 93.808 417.304 92.944 417.304ZM137.309 421.864V426.136H108.797V421.864H137.309ZM137.309 432.376V436.648H108.797V432.376H137.309ZM155.28 434.92C155.28 433.064 155.648 431.608 156.384 430.552C157.152 429.464 158.528 428.408 160.512 427.384C162.496 426.36 163.824 425.512 164.496 424.84C165.2 424.136 165.552 423.32 165.552 422.392V421.96C165.552 420.456 164.864 419.288 163.488 418.456C162.144 417.592 160.224 417.16 157.728 417.16C155.104 417.16 153.056 417.672 151.584 418.696C150.112 419.72 149.376 421.144 149.376 422.968V423.976H144.768V422.968C144.768 419.864 145.92 417.416 148.224 415.624C150.528 413.832 153.68 412.936 157.68 412.936C160.08 412.936 162.24 413.32 164.16 414.088C166.08 414.856 167.584 415.928 168.672 417.304C169.76 418.648 170.304 420.168 170.304 421.864V422.536C170.304 424.008 169.84 425.32 168.912 426.472C167.984 427.592 166.464 428.696 164.352 429.784C163.008 430.488 162 431.096 161.328 431.608C160.656 432.088 160.192 432.584 159.936 433.096C159.68 433.576 159.552 434.184 159.552 434.92V436.264H155.28V434.92ZM157.44 445.576C156.576 445.576 155.856 445.32 155.28 444.808C154.736 444.264 154.464 443.56 154.464 442.696C154.464 441.832 154.736 441.144 155.28 440.632C155.856 440.088 156.576 439.816 157.44 439.816C158.304 439.816 159.008 440.088 159.552 440.632C160.096 441.144 160.368 441.832 160.368 442.696C160.368 443.56 160.096 444.264 159.552 444.808C159.008 445.32 158.304 445.576 157.44 445.576Z" fill="white"/>
<line x1="69.9989" y1="351" x2="355.999" y2="350.847" stroke="white" stroke-width="4"/>
<line x1="358" y1="200" x2="358" y2="501" stroke="white" stroke-width="4"/>
<path d="M106.912 289.112C109.088 289.112 111.024 289.608 112.72 290.6C114.416 291.592 115.728 292.984 116.656 294.776C117.616 296.568 118.096 298.616 118.096 300.92V301.592C118.096 303.896 117.616 305.944 116.656 307.736C115.728 309.528 114.416 310.92 112.72 311.912C111.024 312.904 109.088 313.4 106.912 313.4C104.672 313.4 102.768 312.936 101.2 312.008C99.664 311.048 98.064 309.4 96.4 307.064L94.816 304.808L93.184 307.064C91.52 309.432 89.904 311.08 88.336 312.008C86.8 312.936 84.912 313.4 82.672 313.4C80.496 313.4 78.56 312.904 76.864 311.912C75.168 310.92 73.84 309.528 72.88 307.736C71.952 305.944 71.488 303.896 71.488 301.592V300.92C71.488 298.616 71.952 296.568 72.88 294.776C73.84 292.984 75.168 291.592 76.864 290.6C78.56 289.608 80.496 289.112 82.672 289.112C84.912 289.112 86.8 289.576 88.336 290.504C89.904 291.432 91.52 293.08 93.184 295.448L94.816 297.704L96.4 295.448C98.064 293.112 99.664 291.48 101.2 290.552C102.768 289.592 104.672 289.112 106.912 289.112ZM92.08 301.256L89.488 297.656C88.368 296.088 87.28 294.968 86.224 294.296C85.2 293.624 84.032 293.288 82.72 293.288C80.736 293.288 79.12 293.992 77.872 295.4C76.624 296.808 76 298.648 76 300.92V301.592C76 303.864 76.624 305.704 77.872 307.112C79.12 308.52 80.736 309.224 82.72 309.224C84.064 309.224 85.248 308.888 86.272 308.216C87.296 307.544 88.368 306.424 89.488 304.856L92.08 301.256ZM113.584 300.92C113.584 298.648 112.96 296.808 111.712 295.4C110.464 293.992 108.848 293.288 106.864 293.288C105.552 293.288 104.368 293.624 103.312 294.296C102.288 294.968 101.216 296.088 100.096 297.656L97.504 301.256L100.096 304.856C101.216 306.424 102.288 307.544 103.312 308.216C104.336 308.888 105.52 309.224 106.864 309.224C108.848 309.224 110.464 308.52 111.712 307.112C112.96 305.704 113.584 303.864 113.584 301.592V300.92ZM143.306 298.136L140.09 304.376H153.434V308.648H137.93L134.666 314.984H130.01V314.216L132.842 308.648H124.922V304.376H135.05L138.266 298.136H124.922V293.864H140.426L143.69 287.528H148.346V288.296L145.514 293.864H153.434V298.136H143.306ZM186.621 297.128L167.997 313.064H186.621V317H161.853V313.064L180.381 297.224H161.853V293.24H186.621V297.128ZM164.157 282.488L174.381 285.992L184.653 282.488V286.568L174.381 290.024L164.157 286.568V282.488Z" fill="white"/>
<path d="M105.76 220.92V231.144H101.2V225H75.664V231.144H71.104L71.056 220.92H74.752C76.352 218.52 77.168 215.56 77.2 212.04L77.344 201.24H101.008V220.92H105.76ZM96.448 220.92V205.272H81.568L81.424 212.04C81.392 213.96 81.2 215.64 80.848 217.08C80.496 218.488 79.984 219.768 79.312 220.92H96.448ZM140.691 220.92V225H137.523C135.955 225 134.643 224.696 133.587 224.088C132.531 223.48 131.795 222.616 131.379 221.496C130.099 222.872 128.563 223.896 126.771 224.568C124.979 225.24 122.867 225.576 120.435 225.576C117.011 225.576 114.371 224.984 112.515 223.8C110.659 222.584 109.73 220.856 109.73 218.616C109.73 216.696 110.451 215.16 111.891 214.008C113.331 212.856 115.443 212.136 118.227 211.848L131.043 210.504C130.947 208.712 130.195 207.352 128.787 206.424C127.379 205.496 125.363 205.032 122.739 205.032C120.211 205.032 118.195 205.464 116.691 206.328C115.187 207.192 114.435 208.344 114.435 209.784V209.976H109.875V209.784C109.875 207.992 110.403 206.408 111.459 205.032C112.547 203.624 114.067 202.552 116.019 201.816C117.971 201.048 120.227 200.664 122.787 200.664C126.851 200.664 130.003 201.56 132.243 203.352C134.483 205.144 135.603 207.656 135.603 210.888V218.28C135.603 219.112 135.859 219.768 136.371 220.248C136.883 220.696 137.619 220.92 138.579 220.92H140.691ZM120.339 221.496C122.931 221.496 125.155 221.096 127.011 220.296C128.867 219.464 130.211 218.296 131.043 216.792V214.248L119.234 215.496C117.571 215.656 116.323 215.992 115.491 216.504C114.691 217.016 114.291 217.72 114.291 218.616C114.291 220.536 116.307 221.496 120.339 221.496ZM149.61 201.24V211.032H166.698V201.24H171.306V225H166.698V215.112H149.61V225H145.002V201.24H149.61ZM191.887 225.576C188.975 225.576 186.447 225.096 184.303 224.136C182.159 223.144 180.511 221.752 179.359 219.96C178.207 218.136 177.631 216.008 177.631 213.576V212.76C177.631 210.296 178.207 208.152 179.359 206.328C180.511 204.504 182.159 203.112 184.303 202.152C186.447 201.16 188.975 200.664 191.887 200.664C194.767 200.664 197.263 201.16 199.375 202.152C201.519 203.112 203.151 204.504 204.271 206.328C205.423 208.152 205.999 210.296 205.999 212.76V213.576C205.999 216.008 205.423 218.136 204.271 219.96C203.151 221.752 201.519 223.144 199.375 224.136C197.263 225.096 194.767 225.576 191.887 225.576ZM191.839 221.352C194.783 221.352 197.087 220.664 198.751 219.288C200.415 217.912 201.247 216.008 201.247 213.576V212.76C201.247 210.296 200.415 208.376 198.751 207C197.087 205.592 194.783 204.888 191.839 204.888C188.831 204.888 186.495 205.576 184.831 206.952C183.199 208.328 182.383 210.264 182.383 212.76V213.576C182.383 216.008 183.215 217.912 184.879 219.288C186.575 220.664 188.895 221.352 191.839 221.352ZM217.21 225.576C216.346 225.576 215.642 225.304 215.098 224.76C214.554 224.216 214.282 223.528 214.282 222.696C214.282 221.864 214.554 221.176 215.098 220.632C215.642 220.088 216.346 219.816 217.21 219.816C218.074 219.816 218.778 220.088 219.322 220.632C219.866 221.176 220.138 221.864 220.138 222.696C220.138 223.528 219.866 224.216 219.322 224.76C218.778 225.304 218.074 225.576 217.21 225.576ZM217.21 207.72C216.346 207.72 215.642 207.448 215.098 206.904C214.554 206.36 214.282 205.672 214.282 204.84C214.282 204.008 214.554 203.32 215.098 202.776C215.642 202.232 216.346 201.96 217.21 201.96C218.074 201.96 218.778 202.232 219.322 202.776C219.866 203.32 220.138 204.008 220.138 204.84C220.138 205.672 219.866 206.36 219.322 206.904C218.778 207.448 218.074 207.72 217.21 207.72Z" fill="white"/>
<path d="M1128.21 46.288C1126.78 46.288 1125.54 46.048 1124.46 45.568C1123.39 45.072 1122.57 44.376 1121.99 43.48C1121.42 42.568 1121.13 41.512 1121.13 40.312V39.88C1121.13 38.648 1121.42 37.576 1121.99 36.664C1122.57 35.752 1123.38 35.056 1124.44 34.576C1125.51 34.08 1126.77 33.832 1128.21 33.832C1129.5 33.832 1130.67 34.056 1131.71 34.504C1132.75 34.936 1133.56 35.544 1134.14 36.328C1134.73 37.096 1135.02 37.968 1135.02 38.944V39.04H1132.65V38.944C1132.65 38.368 1132.46 37.856 1132.07 37.408C1131.7 36.944 1131.18 36.584 1130.49 36.328C1129.82 36.072 1129.06 35.944 1128.21 35.944C1126.74 35.944 1125.58 36.296 1124.75 37C1123.92 37.688 1123.5 38.656 1123.5 39.904V40.288C1123.5 41.504 1123.92 42.456 1124.75 43.144C1125.58 43.832 1126.74 44.176 1128.21 44.176C1129.07 44.176 1129.84 44.048 1130.51 43.792C1131.18 43.536 1131.7 43.184 1132.07 42.736C1132.46 42.288 1132.65 41.776 1132.65 41.2V41.104H1135.02V41.2C1135.02 42.192 1134.74 43.072 1134.16 43.84C1133.58 44.608 1132.78 45.208 1131.74 45.64C1130.71 46.072 1129.54 46.288 1128.21 46.288ZM1153.26 43.96V49.072H1150.98V46H1138.21V49.072H1135.93L1135.9 43.96H1137.75C1138.55 42.76 1138.96 41.28 1138.98 39.52L1139.05 34.12H1150.88V43.96H1153.26ZM1148.6 43.96V36.136H1141.16L1141.09 39.52C1141.07 40.48 1140.98 41.32 1140.8 42.04C1140.62 42.744 1140.37 43.384 1140.03 43.96H1148.6ZM1168.19 40.816H1156.74C1156.82 41.856 1157.27 42.68 1158.08 43.288C1158.9 43.88 1159.99 44.176 1161.35 44.176C1162.61 44.176 1163.63 43.968 1164.42 43.552C1165.22 43.12 1165.65 42.552 1165.71 41.848H1168.19C1168.06 43.24 1167.39 44.328 1166.17 45.112C1164.97 45.896 1163.36 46.288 1161.35 46.288C1159.92 46.288 1158.68 46.048 1157.63 45.568C1156.57 45.072 1155.75 44.376 1155.18 43.48C1154.62 42.584 1154.34 41.536 1154.34 40.336V39.832C1154.34 38.616 1154.62 37.56 1155.18 36.664C1155.75 35.752 1156.57 35.056 1157.63 34.576C1158.68 34.08 1159.92 33.832 1161.35 33.832C1163.47 33.832 1165.15 34.36 1166.36 35.416C1167.58 36.456 1168.19 37.896 1168.19 39.736V40.816ZM1161.35 35.944C1160.07 35.944 1159.03 36.208 1158.23 36.736C1157.44 37.248 1156.96 37.968 1156.79 38.896H1165.74C1165.59 37.968 1165.14 37.248 1164.37 36.736C1163.6 36.208 1162.59 35.944 1161.35 35.944ZM1184.15 46H1181.85V36.136H1174.57L1174.48 40.432C1174.43 42.336 1174.06 43.744 1173.37 44.656C1172.7 45.552 1171.68 46 1170.3 46H1169.22V43.96H1169.8C1170.65 43.96 1171.25 43.68 1171.62 43.12C1172.01 42.56 1172.21 41.624 1172.25 40.312L1172.39 34.12H1184.15V46ZM1202.92 43.96V46H1201.34C1200.56 46 1199.9 45.848 1199.37 45.544C1198.84 45.24 1198.48 44.808 1198.27 44.248C1197.63 44.936 1196.86 45.448 1195.96 45.784C1195.07 46.12 1194.01 46.288 1192.8 46.288C1191.08 46.288 1189.76 45.992 1188.84 45.4C1187.91 44.792 1187.44 43.928 1187.44 42.808C1187.44 41.848 1187.8 41.08 1188.52 40.504C1189.24 39.928 1190.3 39.568 1191.69 39.424L1198.1 38.752C1198.05 37.856 1197.68 37.176 1196.97 36.712C1196.27 36.248 1195.26 36.016 1193.95 36.016C1192.68 36.016 1191.68 36.232 1190.92 36.664C1190.17 37.096 1189.8 37.672 1189.8 38.392V38.488H1187.52V38.392C1187.52 37.496 1187.78 36.704 1188.31 36.016C1188.85 35.312 1189.61 34.776 1190.59 34.408C1191.56 34.024 1192.69 33.832 1193.97 33.832C1196 33.832 1197.58 34.28 1198.7 35.176C1199.82 36.072 1200.38 37.328 1200.38 38.944V42.64C1200.38 43.056 1200.51 43.384 1200.76 43.624C1201.02 43.848 1201.39 43.96 1201.87 43.96H1202.92ZM1192.75 44.248C1194.04 44.248 1195.16 44.048 1196.08 43.648C1197.01 43.232 1197.68 42.648 1198.1 41.896V40.624L1192.2 41.248C1191.36 41.328 1190.74 41.496 1190.32 41.752C1189.92 42.008 1189.72 42.36 1189.72 42.808C1189.72 43.768 1190.73 44.248 1192.75 44.248ZM1202.62 36.184V34.12H1216.59V36.184H1210.81V46H1208.5V36.184H1202.62ZM1227.81 37.696C1229.31 37.696 1230.48 38.056 1231.31 38.776C1232.16 39.48 1232.59 40.464 1232.59 41.728V42.016C1232.59 43.248 1232.15 44.216 1231.29 44.92C1230.44 45.624 1229.28 45.976 1227.81 45.976H1218.93V34.12H1221.23V37.696H1227.81ZM1230.21 41.728C1230.21 40.4 1229.35 39.736 1227.64 39.736H1221.23V43.96H1227.64C1228.47 43.96 1229.11 43.792 1229.54 43.456C1229.99 43.12 1230.21 42.64 1230.21 42.016V41.728ZM1133.01 75.952C1133.66 76.224 1134.17 76.584 1134.52 77.032C1134.89 77.464 1135.07 77.952 1135.07 78.496V78.664C1135.07 79.848 1134.5 80.752 1133.37 81.376C1132.23 81.984 1130.57 82.288 1128.38 82.288C1123.64 82.288 1121.27 80.64 1121.27 77.344V77.176H1123.55V77.344C1123.55 78.336 1123.94 79.072 1124.73 79.552C1125.53 80.016 1126.76 80.248 1128.42 80.248C1131.27 80.248 1132.7 79.688 1132.7 78.568V78.4C1132.7 77.488 1131.84 77.032 1130.13 77.032H1126.14V75.016H1129.86C1131.54 75.016 1132.38 74.544 1132.38 73.6V73.432C1132.38 72.92 1132.02 72.536 1131.3 72.28C1130.6 72.008 1129.55 71.872 1128.16 71.872C1126.56 71.872 1125.39 72.104 1124.66 72.568C1123.92 73.032 1123.55 73.776 1123.55 74.8V74.968H1121.27V74.8C1121.27 73.168 1121.86 71.936 1123.05 71.104C1124.23 70.256 1125.98 69.832 1128.28 69.832C1130.36 69.832 1131.95 70.144 1133.06 70.768C1134.18 71.376 1134.74 72.248 1134.74 73.384V73.552C1134.74 74.048 1134.58 74.504 1134.28 74.92C1133.98 75.32 1133.55 75.664 1133.01 75.952ZM1153.47 79.96V82H1151.89C1151.1 82 1150.45 81.848 1149.92 81.544C1149.39 81.24 1149.02 80.808 1148.81 80.248C1148.17 80.936 1147.41 81.448 1146.51 81.784C1145.61 82.12 1144.56 82.288 1143.34 82.288C1141.63 82.288 1140.31 81.992 1139.38 81.4C1138.45 80.792 1137.99 79.928 1137.99 78.808C1137.99 77.848 1138.35 77.08 1139.07 76.504C1139.79 75.928 1140.85 75.568 1142.24 75.424L1148.65 74.752C1148.6 73.856 1148.22 73.176 1147.52 72.712C1146.81 72.248 1145.81 72.016 1144.49 72.016C1143.23 72.016 1142.22 72.232 1141.47 72.664C1140.72 73.096 1140.34 73.672 1140.34 74.392V74.488H1138.06V74.392C1138.06 73.496 1138.33 72.704 1138.85 72.016C1139.4 71.312 1140.16 70.776 1141.13 70.408C1142.11 70.024 1143.24 69.832 1144.52 69.832C1146.55 69.832 1148.13 70.28 1149.25 71.176C1150.37 72.072 1150.93 73.328 1150.93 74.944V78.64C1150.93 79.056 1151.05 79.384 1151.31 79.624C1151.57 79.848 1151.93 79.96 1152.41 79.96H1153.47ZM1143.29 80.248C1144.59 80.248 1145.7 80.048 1146.63 79.648C1147.56 79.232 1148.23 78.648 1148.65 77.896V76.624L1142.74 77.248C1141.91 77.328 1141.29 77.496 1140.87 77.752C1140.47 78.008 1140.27 78.36 1140.27 78.808C1140.27 79.768 1141.28 80.248 1143.29 80.248ZM1171.47 79.96V85.072H1169.19V82H1156.42V85.072H1154.14L1154.11 79.96H1155.96C1156.76 78.76 1157.17 77.28 1157.19 75.52L1157.26 70.12H1169.09V79.96H1171.47ZM1166.81 79.96V72.136H1159.37L1159.3 75.52C1159.28 76.48 1159.19 77.32 1159.01 78.04C1158.83 78.744 1158.58 79.384 1158.24 79.96H1166.81ZM1188.93 79.96V82H1187.35C1186.56 82 1185.91 81.848 1185.38 81.544C1184.85 81.24 1184.48 80.808 1184.28 80.248C1183.64 80.936 1182.87 81.448 1181.97 81.784C1181.08 82.12 1180.02 82.288 1178.8 82.288C1177.09 82.288 1175.77 81.992 1174.84 81.4C1173.92 80.792 1173.45 79.928 1173.45 78.808C1173.45 77.848 1173.81 77.08 1174.53 76.504C1175.25 75.928 1176.31 75.568 1177.7 75.424L1184.11 74.752C1184.06 73.856 1183.68 73.176 1182.98 72.712C1182.28 72.248 1181.27 72.016 1179.96 72.016C1178.69 72.016 1177.68 72.232 1176.93 72.664C1176.18 73.096 1175.8 73.672 1175.8 74.392V74.488H1173.52V74.392C1173.52 73.496 1173.79 72.704 1174.32 72.016C1174.86 71.312 1175.62 70.776 1176.6 70.408C1177.57 70.024 1178.7 69.832 1179.98 69.832C1182.01 69.832 1183.59 70.28 1184.71 71.176C1185.83 72.072 1186.39 73.328 1186.39 74.944V78.64C1186.39 79.056 1186.52 79.384 1186.77 79.624C1187.03 79.848 1187.4 79.96 1187.88 79.96H1188.93ZM1178.76 80.248C1180.05 80.248 1181.16 80.048 1182.09 79.648C1183.02 79.232 1183.69 78.648 1184.11 77.896V76.624L1178.2 77.248C1177.37 77.328 1176.75 77.496 1176.33 77.752C1175.93 78.008 1175.73 78.36 1175.73 78.808C1175.73 79.768 1176.74 80.248 1178.76 80.248ZM1193.39 70.12V75.016H1201.93V70.12H1204.24V82H1201.93V77.056H1193.39V82H1191.09V70.12H1193.39ZM1210.52 70.12V79.192L1219.23 70.12H1221.35V82H1219.14V72.928L1210.43 82H1208.31V70.12H1210.52ZM1238.17 81.976H1235.87V78.088H1232.32L1227.57 82H1224.59V81.712L1229.01 78.088C1227.58 78.024 1226.48 77.664 1225.69 77.008C1224.91 76.336 1224.52 75.424 1224.52 74.272V74.008C1224.52 72.776 1224.94 71.824 1225.79 71.152C1226.65 70.464 1227.85 70.12 1229.39 70.12H1238.17V81.976ZM1235.87 76.12V72.136H1229.56C1227.78 72.136 1226.89 72.76 1226.89 74.008V74.272C1226.89 75.504 1227.78 76.12 1229.56 76.12H1235.87ZM1130.63 108.472C1132.82 108.552 1134.5 108.976 1135.65 109.744C1136.82 110.512 1137.4 111.6 1137.4 113.008V113.296C1137.4 114.912 1136.74 116.152 1135.41 117.016C1134.08 117.864 1132.15 118.288 1129.62 118.288C1127.18 118.288 1125.27 117.872 1123.91 117.04C1122.57 116.192 1121.9 115 1121.9 113.464V113.272H1124.27V113.464C1124.27 114.28 1124.74 114.92 1125.69 115.384C1126.65 115.832 1127.97 116.056 1129.65 116.056C1131.42 116.056 1132.76 115.832 1133.66 115.384C1134.57 114.92 1135.02 114.24 1135.02 113.344V113.056C1135.02 112.224 1134.58 111.592 1133.68 111.16C1132.78 110.728 1131.47 110.512 1129.74 110.512H1127.1V108.4L1133.32 104.392H1122.18V102.232H1137.02V104.392L1130.63 108.472ZM1158.05 114.424H1154.14V118H1151.76V114.424H1140.91V112.264C1142.03 110.392 1142.95 108.664 1143.67 107.08C1144.39 105.48 1144.99 103.864 1145.45 102.232H1147.99V102.592C1147.02 105.712 1145.58 108.936 1143.67 112.264H1151.76V105.016H1154.14V112.264H1158.05V114.424ZM1165.19 114.976V115.336L1163.03 121.432H1160.82L1162.57 114.976H1165.19ZM1187.44 108.472C1189.64 108.552 1191.31 108.976 1192.46 109.744C1193.63 110.512 1194.21 111.6 1194.21 113.008V113.296C1194.21 114.912 1193.55 116.152 1192.22 117.016C1190.89 117.864 1188.96 118.288 1186.44 118.288C1183.99 118.288 1182.08 117.872 1180.72 117.04C1179.38 116.192 1178.71 115 1178.71 113.464V113.272H1181.08V113.464C1181.08 114.28 1181.56 114.92 1182.5 115.384C1183.46 115.832 1184.78 116.056 1186.46 116.056C1188.24 116.056 1189.57 115.832 1190.47 115.384C1191.38 114.92 1191.84 114.24 1191.84 113.344V113.056C1191.84 112.224 1191.39 111.592 1190.49 111.16C1189.6 110.728 1188.28 110.512 1186.56 110.512H1183.92V108.4L1190.13 104.392H1179V102.232H1193.83V104.392L1187.44 108.472ZM1206.46 107.776C1208.03 107.776 1209.39 107.976 1210.54 108.376C1211.71 108.776 1212.6 109.352 1213.21 110.104C1213.83 110.856 1214.14 111.744 1214.14 112.768V113.152C1214.14 114.784 1213.47 116.048 1212.13 116.944C1210.78 117.84 1208.89 118.288 1206.44 118.288C1203.99 118.288 1202.09 117.912 1200.75 117.16C1199.42 116.408 1198.76 115.336 1198.76 113.944V113.752H1201.13V113.944C1201.13 114.6 1201.6 115.12 1202.53 115.504C1203.47 115.872 1204.76 116.056 1206.39 116.056C1208.05 116.056 1209.37 115.8 1210.33 115.288C1211.3 114.76 1211.79 114.056 1211.79 113.176V112.792C1211.79 111.912 1211.3 111.224 1210.33 110.728C1209.35 110.232 1208.01 109.984 1206.32 109.984C1204.81 109.984 1203.58 110.176 1202.62 110.56C1201.66 110.944 1201.15 111.44 1201.09 112.048H1198.76L1199.29 102.232H1213.11V104.368H1201.4L1201.16 109.048C1202.41 108.2 1204.17 107.776 1206.46 107.776Z" fill="white"/>
<path d="M84.688 86.872C86.4373 87.5973 87.7813 88.5573 88.72 89.752C89.7013 90.904 90.192 92.2053 90.192 93.656V94.104C90.192 97.2613 88.6773 99.672 85.648 101.336C82.6187 102.957 78.1813 103.768 72.336 103.768C59.7067 103.768 53.392 99.3733 53.392 90.584V90.136H59.472V90.584C59.472 93.2293 60.5173 95.192 62.608 96.472C64.7413 97.7093 68.0267 98.328 72.464 98.328C80.0587 98.328 83.856 96.8347 83.856 93.848V93.4C83.856 90.968 81.5733 89.752 77.008 89.752H66.384V84.376H76.304C80.784 84.376 83.024 83.1173 83.024 80.6V80.152C83.024 78.7867 82.064 77.7627 80.144 77.08C78.2667 76.3547 75.472 75.992 71.76 75.992C67.4933 75.992 64.3787 76.6107 62.416 77.848C60.4533 79.0853 59.472 81.0693 59.472 83.8V84.248H53.392V83.8C53.392 79.448 54.9707 76.1627 58.128 73.944C61.2853 71.6827 65.936 70.552 72.08 70.552C77.6267 70.552 81.872 71.384 84.816 73.048C87.8027 74.6693 89.296 76.9947 89.296 80.024V80.472C89.296 81.7947 88.8907 83.0107 88.08 84.12C87.2693 85.1867 86.1387 86.104 84.688 86.872ZM139.254 97.56V103H135.03C132.939 103 131.19 102.595 129.782 101.784C128.374 100.973 127.393 99.8213 126.838 98.328C125.131 100.163 123.083 101.528 120.694 102.424C118.305 103.32 115.489 103.768 112.246 103.768C107.681 103.768 104.161 102.979 101.686 101.4C99.2113 99.7787 97.974 97.4747 97.974 94.488C97.974 91.928 98.934 89.88 100.854 88.344C102.774 86.808 105.59 85.848 109.302 85.464L126.39 83.672C126.262 81.2827 125.259 79.4693 123.382 78.232C121.505 76.9947 118.817 76.376 115.318 76.376C111.947 76.376 109.259 76.952 107.254 78.104C105.249 79.256 104.246 80.792 104.246 82.712V82.968H98.166V82.712C98.166 80.3227 98.87 78.2107 100.278 76.376C101.729 74.4987 103.755 73.0693 106.358 72.088C108.961 71.064 111.969 70.552 115.382 70.552C120.801 70.552 125.003 71.7467 127.99 74.136C130.977 76.5253 132.47 79.8747 132.47 84.184V94.04C132.47 95.1493 132.811 96.024 133.494 96.664C134.177 97.2613 135.158 97.56 136.438 97.56H139.254ZM112.118 98.328C115.574 98.328 118.539 97.7947 121.014 96.728C123.489 95.6187 125.281 94.0613 126.39 92.056V88.664L110.646 90.328C108.427 90.5413 106.763 90.9893 105.654 91.672C104.587 92.3547 104.054 93.2933 104.054 94.488C104.054 97.048 106.742 98.328 112.118 98.328ZM187.243 97.56V111.192H181.163V103H147.115V111.192H141.035L140.971 97.56H145.899C148.032 94.36 149.12 90.4133 149.163 85.72L149.355 71.32H180.907V97.56H187.243ZM174.826 97.56V76.696H154.987L154.795 85.72C154.752 88.28 154.496 90.52 154.027 92.44C153.557 94.3173 152.875 96.024 151.979 97.56H174.826ZM233.817 97.56V103H229.593C227.502 103 225.753 102.595 224.345 101.784C222.937 100.973 221.955 99.8213 221.401 98.328C219.694 100.163 217.646 101.528 215.257 102.424C212.867 103.32 210.051 103.768 206.809 103.768C202.243 103.768 198.723 102.979 196.249 101.4C193.774 99.7787 192.536 97.4747 192.536 94.488C192.536 91.928 193.497 89.88 195.417 88.344C197.337 86.808 200.153 85.848 203.865 85.464L220.953 83.672C220.825 81.2827 219.822 79.4693 217.945 78.232C216.067 76.9947 213.379 76.376 209.881 76.376C206.51 76.376 203.822 76.952 201.817 78.104C199.811 79.256 198.809 80.792 198.809 82.712V82.968H192.729V82.712C192.729 80.3227 193.433 78.2107 194.841 76.376C196.291 74.4987 198.318 73.0693 200.921 72.088C203.523 71.064 206.531 70.552 209.945 70.552C215.363 70.552 219.566 71.7467 222.553 74.136C225.539 76.5253 227.033 79.8747 227.033 84.184V94.04C227.033 95.1493 227.374 96.024 228.057 96.664C228.739 97.2613 229.721 97.56 231.001 97.56H233.817ZM206.681 98.328C210.137 98.328 213.102 97.7947 215.577 96.728C218.051 95.6187 219.843 94.0613 220.953 92.056V88.664L205.208 90.328C202.99 90.5413 201.326 90.9893 200.217 91.672C199.15 92.3547 198.617 93.2933 198.617 94.488C198.617 97.048 201.305 98.328 206.681 98.328ZM269.513 71.32V103H263.369V92.056C258.889 92.824 254.58 93.208 250.441 93.208C245.449 93.208 241.673 92.184 239.113 90.136C236.596 88.088 235.337 85.0587 235.337 81.048V71.32H241.481V80.472C241.481 85.336 244.681 87.768 251.081 87.768C254.665 87.768 258.761 87.384 263.369 86.616V71.32H269.513ZM319.567 97.56V103H315.343C313.252 103 311.503 102.595 310.095 101.784C308.687 100.973 307.705 99.8213 307.151 98.328C305.444 100.163 303.396 101.528 301.007 102.424C298.617 103.32 295.801 103.768 292.559 103.768C287.993 103.768 284.473 102.979 281.999 101.4C279.524 99.7787 278.286 97.4747 278.286 94.488C278.286 91.928 279.247 89.88 281.167 88.344C283.087 86.808 285.903 85.848 289.615 85.464L306.703 83.672C306.575 81.2827 305.572 79.4693 303.695 78.232C301.817 76.9947 299.129 76.376 295.631 76.376C292.26 76.376 289.572 76.952 287.567 78.104C285.561 79.256 284.559 80.792 284.559 82.712V82.968H278.479V82.712C278.479 80.3227 279.183 78.2107 280.591 76.376C282.041 74.4987 284.068 73.0693 286.671 72.088C289.273 71.064 292.281 70.552 295.695 70.552C301.113 70.552 305.316 71.7467 308.303 74.136C311.289 76.5253 312.783 79.8747 312.783 84.184V94.04C312.783 95.1493 313.124 96.024 313.807 96.664C314.489 97.2613 315.471 97.56 316.751 97.56H319.567ZM292.431 98.328C295.887 98.328 298.852 97.7947 301.327 96.728C303.801 95.6187 305.593 94.0613 306.703 92.056V88.664L290.958 90.328C288.74 90.5413 287.076 90.9893 285.967 91.672C284.9 92.3547 284.367 93.2933 284.367 94.488C284.367 97.048 287.055 98.328 292.431 98.328ZM411.612 60.312C414.983 60.312 417.713 61.2507 419.804 63.128C421.937 65.0053 423.004 67.4373 423.004 70.424V71.128C423.004 74.1147 421.937 76.5467 419.804 78.424C417.713 80.2587 414.983 81.176 411.612 81.176C409.393 81.176 407.388 80.7493 405.596 79.896C403.847 79.0427 402.46 77.848 401.436 76.312C400.455 74.776 399.964 73.048 399.964 71.128V70.36C399.964 68.44 400.455 66.712 401.436 65.176C402.46 63.64 403.847 62.4453 405.596 61.592C407.388 60.7387 409.393 60.312 411.612 60.312ZM385.82 61.016H392.028V103H385.756L357.596 69.912V103H351.388V61.016H357.66L385.82 94.04V61.016ZM417.948 70.296C417.948 68.7173 417.351 67.4373 416.156 66.456C414.961 65.432 413.425 64.92 411.548 64.92C409.628 64.92 408.071 65.432 406.876 66.456C405.681 67.4373 405.084 68.7173 405.084 70.296V71.128C405.084 72.7067 405.681 74.008 406.876 75.032C408.113 76.0133 409.671 76.504 411.548 76.504C413.425 76.504 414.961 76.0133 416.156 75.032C417.351 74.008 417.948 72.7067 417.948 71.128V70.296ZM401.116 88.6H421.852V93.72H401.116V88.6ZM446.283 82.648V67.672C445.046 68.3973 443.424 68.76 441.419 68.76H433.611V63.832H441.419C443.083 63.832 444.299 63.5973 445.067 63.128C445.878 62.6587 446.283 61.9333 446.283 60.952H452.107V82.648H463.371V87.384H433.611V82.648H446.283ZM492.491 61.016H498.635V61.976L459.787 103H453.643V102.104L492.491 61.016ZM485.387 97.56V92.76C487.222 89.9013 488.715 87.1707 489.867 84.568C491.062 81.9653 492.064 79.2773 492.875 76.504H499.019V77.4C497.398 82.7333 495.115 87.8533 492.171 92.76H505.163V81.112H511.051V92.76H518.027V97.56H511.051V103H505.163V97.56H485.387Z" fill="white"/>
</svg>
