<svg width="515" height="519" viewBox="0 0 515 519" fill="none" xmlns="http://www.w3.org/2000/svg">
<line x1="249" y1="509" x2="274" y2="509" stroke="black" stroke-width="2"/>
<line x1="511" y1="246" x2="511" y2="271" stroke="black" stroke-width="2"/>
<path d="M508.4 289.2C509.979 289.2 511.216 289.493 512.112 290.08C513.019 290.667 513.472 291.477 513.472 292.512V292.768C513.472 293.856 513.029 294.699 512.144 295.296C511.259 295.893 510.011 296.192 508.4 296.192C506.779 296.192 505.525 295.941 504.64 295.44C503.765 294.939 503.328 294.224 503.328 293.296V293.168H504.928V293.296C504.928 293.733 505.232 294.08 505.84 294.336C506.448 294.581 507.285 294.704 508.352 294.704C509.451 294.704 510.315 294.533 510.944 294.192C511.573 293.851 511.888 293.381 511.888 292.784V292.528C511.888 291.952 511.568 291.499 510.928 291.168C510.299 290.837 509.424 290.672 508.304 290.672C507.323 290.672 506.517 290.8 505.888 291.056C505.259 291.301 504.928 291.627 504.896 292.032H503.328L503.68 285.504H512.8V286.928H505.088L504.928 290.016C505.749 289.472 506.907 289.2 508.4 289.2Z" fill="black"/>
<line x1="261.5" y1="10" x2="261.5" y2="510" stroke="black" stroke-width="3"/>
<line x1="10" y1="258.5" x2="510" y2="258.5" stroke="black" stroke-width="3"/>
<line x1="311" y1="246" x2="311" y2="271" stroke="black" stroke-width="2"/>
<line x1="249" y1="209" x2="274" y2="209" stroke="black" stroke-width="2"/>
<line x1="249" y1="159" x2="274" y2="159" stroke="black" stroke-width="2"/>
<line x1="249" y1="109" x2="274" y2="109" stroke="black" stroke-width="2"/>
<line x1="249" y1="59" x2="274" y2="59" stroke="black" stroke-width="2"/>
<line x1="249" y1="9" x2="274" y2="9" stroke="black" stroke-width="2"/>
<line x1="249" y1="459" x2="274" y2="459" stroke="black" stroke-width="2"/>
<line x1="249" y1="409" x2="274" y2="409" stroke="black" stroke-width="2"/>
<line x1="249" y1="359" x2="274" y2="359" stroke="black" stroke-width="2"/>
<line x1="249" y1="309" x2="274" y2="309" stroke="black" stroke-width="2"/>
<line x1="361" y1="246" x2="361" y2="271" stroke="black" stroke-width="2"/>
<line x1="411" y1="246" x2="411" y2="271" stroke="black" stroke-width="2"/>
<line x1="461" y1="246" x2="461" y2="271" stroke="black" stroke-width="2"/>
<line x1="11" y1="247" x2="11" y2="272" stroke="black" stroke-width="2"/>
<line x1="61" y1="247" x2="61" y2="272" stroke="black" stroke-width="2"/>
<line x1="111" y1="247" x2="111" y2="272" stroke="black" stroke-width="2"/>
<line x1="161" y1="247" x2="161" y2="272" stroke="black" stroke-width="2"/>
<line x1="211" y1="247" x2="211" y2="272" stroke="black" stroke-width="2"/>
<path d="M312.064 296H310.496V287.872C309.984 288.16 309.317 288.304 308.496 288.304H306.688V286.816H308.368C309.093 286.816 309.627 286.709 309.968 286.496C310.32 286.283 310.496 285.952 310.496 285.504H312.064V296Z" fill="black"/>
<path d="M236.064 215H234.496V206.872C233.984 207.16 233.317 207.304 232.496 207.304H230.688V205.816H232.368C233.093 205.816 233.627 205.709 233.968 205.496C234.32 205.283 234.496 204.952 234.496 204.504H236.064V215Z" fill="black"/>
<path d="M237.024 163.576V165H227.28V163.72L231.904 161.048C232.811 160.525 233.483 160.104 233.92 159.784C234.357 159.453 234.651 159.149 234.8 158.872C234.96 158.595 235.04 158.264 235.04 157.88V157.72C235.04 157.101 234.779 156.627 234.256 156.296C233.744 155.965 233.003 155.8 232.032 155.8C231.029 155.8 230.267 155.976 229.744 156.328C229.232 156.68 228.976 157.192 228.976 157.864V158.184H227.376V157.848C227.376 156.707 227.776 155.832 228.576 155.224C229.376 154.616 230.517 154.312 232 154.312C233.451 154.312 234.587 154.611 235.408 155.208C236.229 155.805 236.64 156.627 236.64 157.672V157.832C236.64 158.397 236.528 158.893 236.304 159.32C236.08 159.747 235.691 160.179 235.136 160.616C234.592 161.053 233.792 161.576 232.736 162.184L230.304 163.576H237.024Z" fill="black"/>
<path d="M232.912 108.664C234.331 108.707 235.413 108.989 236.16 109.512C236.917 110.024 237.296 110.739 237.296 111.656V111.864C237.296 112.941 236.864 113.768 236 114.344C235.136 114.909 233.877 115.192 232.224 115.192C230.613 115.181 229.365 114.899 228.48 114.344C227.605 113.789 227.168 113.005 227.168 111.992V111.88H228.752V111.992C228.752 112.525 229.061 112.947 229.68 113.256C230.299 113.555 231.152 113.704 232.24 113.704C233.381 113.704 234.245 113.555 234.832 113.256C235.419 112.947 235.712 112.493 235.712 111.896V111.704C235.712 110.584 234.571 110.024 232.288 110.024H230.56V108.616L234.512 105.928H227.36V104.504H237.04V105.928L232.912 108.664Z" fill="black"/>
<path d="M237.296 62.616H234.48V65H232.896V62.616H225.248V61.176C226.059 59.9173 226.72 58.7653 227.232 57.72C227.744 56.664 228.171 55.592 228.512 54.504H230.192V54.744C229.509 56.8133 228.475 58.9573 227.088 61.176H232.896V56.36H234.48V61.176H237.296V62.616Z" fill="black"/>
<path d="M232.4 8.2C233.979 8.2 235.216 8.49333 236.112 9.08C237.019 9.66667 237.472 10.4773 237.472 11.512V11.768C237.472 12.856 237.029 13.6987 236.144 14.296C235.259 14.8933 234.011 15.192 232.4 15.192C230.779 15.192 229.525 14.9413 228.64 14.44C227.765 13.9387 227.328 13.224 227.328 12.296V12.168H228.928V12.296C228.928 12.7333 229.232 13.08 229.84 13.336C230.448 13.5813 231.285 13.704 232.352 13.704C233.451 13.704 234.315 13.5333 234.944 13.192C235.573 12.8507 235.888 12.3813 235.888 11.784V11.528C235.888 10.952 235.568 10.4987 234.928 10.168C234.299 9.83733 233.424 9.672 232.304 9.672C231.323 9.672 230.517 9.8 229.888 10.056C229.259 10.3013 228.928 10.6267 228.896 11.032H227.328L227.68 4.504H236.8V5.928H229.088L228.928 9.016C229.749 8.472 230.907 8.2 232.4 8.2Z" fill="black"/>
<path d="M225.272 509.88V511.272H219.8V509.88H225.272ZM232.478 508.2C234.057 508.2 235.294 508.493 236.19 509.08C237.097 509.667 237.55 510.477 237.55 511.512V511.768C237.55 512.856 237.107 513.699 236.222 514.296C235.337 514.893 234.089 515.192 232.478 515.192C230.857 515.192 229.603 514.941 228.718 514.44C227.843 513.939 227.406 513.224 227.406 512.296V512.168H229.006V512.296C229.006 512.733 229.31 513.08 229.918 513.336C230.526 513.581 231.363 513.704 232.43 513.704C233.529 513.704 234.393 513.533 235.022 513.192C235.651 512.851 235.966 512.381 235.966 511.784V511.528C235.966 510.952 235.646 510.499 235.006 510.168C234.377 509.837 233.502 509.672 232.382 509.672C231.401 509.672 230.595 509.8 229.966 510.056C229.337 510.301 229.006 510.627 228.974 511.032H227.406L227.758 504.504H236.878V505.928H229.166L229.006 509.016C229.827 508.472 230.985 508.2 232.478 508.2Z" fill="black"/>
<path d="M223.272 459.88V461.272H217.8V459.88H223.272ZM237.374 462.616H234.558V465H232.974V462.616H225.326V461.176C226.137 459.917 226.798 458.765 227.31 457.72C227.822 456.664 228.249 455.592 228.59 454.504H230.27V454.744C229.587 456.813 228.553 458.957 227.166 461.176H232.974V456.36H234.558V461.176H237.374V462.616Z" fill="black"/>
<path d="M225.272 409.88V411.272H219.8V409.88H225.272ZM232.99 408.664C234.409 408.707 235.491 408.989 236.238 409.512C236.995 410.024 237.374 410.739 237.374 411.656V411.864C237.374 412.941 236.942 413.768 236.078 414.344C235.214 414.909 233.955 415.192 232.302 415.192C230.691 415.181 229.443 414.899 228.558 414.344C227.683 413.789 227.246 413.005 227.246 411.992V411.88H228.83V411.992C228.83 412.525 229.139 412.947 229.758 413.256C230.377 413.555 231.23 413.704 232.318 413.704C233.459 413.704 234.323 413.555 234.91 413.256C235.497 412.947 235.79 412.493 235.79 411.896V411.704C235.79 410.584 234.649 410.024 232.366 410.024H230.638V408.616L234.59 405.928H227.438V404.504H237.118V405.928L232.99 408.664Z" fill="black"/>
<path d="M225.272 359.88V361.272H219.8V359.88H225.272ZM237.102 363.576V365H227.358V363.72L231.982 361.048C232.889 360.525 233.561 360.104 233.998 359.784C234.435 359.453 234.729 359.149 234.878 358.872C235.038 358.595 235.118 358.264 235.118 357.88V357.72C235.118 357.101 234.857 356.627 234.334 356.296C233.822 355.965 233.081 355.8 232.11 355.8C231.107 355.8 230.345 355.976 229.822 356.328C229.31 356.68 229.054 357.192 229.054 357.864V358.184H227.454V357.848C227.454 356.707 227.854 355.832 228.654 355.224C229.454 354.616 230.595 354.312 232.078 354.312C233.529 354.312 234.665 354.611 235.486 355.208C236.307 355.805 236.718 356.627 236.718 357.672V357.832C236.718 358.397 236.606 358.893 236.382 359.32C236.158 359.747 235.769 360.179 235.214 360.616C234.67 361.053 233.87 361.576 232.814 362.184L230.382 363.576H237.102Z" fill="black"/>
<path d="M230.272 309.88V311.272H224.8V309.88H230.272ZM236.361 315H234.793V306.872C234.281 307.16 233.614 307.304 232.793 307.304H230.985V305.816H232.665C233.39 305.816 233.924 305.709 234.265 305.496C234.617 305.283 234.793 304.952 234.793 304.504H236.361V315Z" fill="black"/>
<path d="M366.024 294.576V296H356.28V294.72L360.904 292.048C361.811 291.525 362.483 291.104 362.92 290.784C363.357 290.453 363.651 290.149 363.8 289.872C363.96 289.595 364.04 289.264 364.04 288.88V288.72C364.04 288.101 363.779 287.627 363.256 287.296C362.744 286.965 362.003 286.8 361.032 286.8C360.029 286.8 359.267 286.976 358.744 287.328C358.232 287.68 357.976 288.192 357.976 288.864V289.184H356.376V288.848C356.376 287.707 356.776 286.832 357.576 286.224C358.376 285.616 359.517 285.312 361 285.312C362.451 285.312 363.587 285.611 364.408 286.208C365.229 286.805 365.64 287.627 365.64 288.672V288.832C365.64 289.397 365.528 289.893 365.304 290.32C365.08 290.747 364.691 291.179 364.136 291.616C363.592 292.053 362.792 292.576 361.736 293.184L359.304 294.576H366.024Z" fill="black"/>
<path d="M410.912 289.664C412.331 289.707 413.413 289.989 414.16 290.512C414.917 291.024 415.296 291.739 415.296 292.656V292.864C415.296 293.941 414.864 294.768 414 295.344C413.136 295.909 411.877 296.192 410.224 296.192C408.613 296.181 407.365 295.899 406.48 295.344C405.605 294.789 405.168 294.005 405.168 292.992V292.88H406.752V292.992C406.752 293.525 407.061 293.947 407.68 294.256C408.299 294.555 409.152 294.704 410.24 294.704C411.381 294.704 412.245 294.555 412.832 294.256C413.419 293.947 413.712 293.493 413.712 292.896V292.704C413.712 291.584 412.571 291.024 410.288 291.024H408.56V289.616L412.512 286.928H405.36V285.504H415.04V286.928L410.912 289.664Z" fill="black"/>
<path d="M468.296 293.616H465.48V296H463.896V293.616H456.248V292.176C457.059 290.917 457.72 289.765 458.232 288.72C458.744 287.664 459.171 286.592 459.512 285.504H461.192V285.744C460.509 287.813 459.475 289.957 458.088 292.176H463.896V287.36H465.48V292.176H468.296V293.616Z" fill="black"/>
<path d="M6.272 291.88V293.272H0.8V291.88H6.272ZM13.4781 290.2C15.0568 290.2 16.2941 290.493 17.1901 291.08C18.0968 291.667 18.5501 292.477 18.5501 293.512V293.768C18.5501 294.856 18.1075 295.699 17.2221 296.296C16.3368 296.893 15.0888 297.192 13.4781 297.192C11.8568 297.192 10.6035 296.941 9.71813 296.44C8.84346 295.939 8.40613 295.224 8.40613 294.296V294.168H10.0061V294.296C10.0061 294.733 10.3101 295.08 10.9181 295.336C11.5261 295.581 12.3635 295.704 13.4301 295.704C14.5288 295.704 15.3928 295.533 16.0221 295.192C16.6515 294.851 16.9661 294.381 16.9661 293.784V293.528C16.9661 292.952 16.6461 292.499 16.0061 292.168C15.3768 291.837 14.5021 291.672 13.3821 291.672C12.4008 291.672 11.5955 291.8 10.9661 292.056C10.3368 292.301 10.0061 292.627 9.97413 293.032H8.40613L8.75813 286.504H17.8781V287.928H10.1661L10.0061 291.016C10.8275 290.472 11.9848 290.2 13.4781 290.2Z" fill="black"/>
<path d="M55.272 291.88V293.272H49.8V291.88H55.272ZM69.3741 294.616H66.5581V297H64.9741V294.616H57.3261V293.176C58.1368 291.917 58.7981 290.765 59.3101 289.72C59.8221 288.664 60.2488 287.592 60.5901 286.504H62.2701V286.744C61.5875 288.813 60.5528 290.957 59.1661 293.176H64.9741V288.36H66.5581V293.176H69.3741V294.616Z" fill="black"/>
<path d="M106.272 291.88V293.272H100.8V291.88H106.272ZM113.99 290.664C115.409 290.707 116.491 290.989 117.238 291.512C117.995 292.024 118.374 292.739 118.374 293.656V293.864C118.374 294.941 117.942 295.768 117.078 296.344C116.214 296.909 114.955 297.192 113.302 297.192C111.691 297.181 110.443 296.899 109.558 296.344C108.683 295.789 108.246 295.005 108.246 293.992V293.88H109.83V293.992C109.83 294.525 110.139 294.947 110.758 295.256C111.377 295.555 112.23 295.704 113.318 295.704C114.459 295.704 115.323 295.555 115.91 295.256C116.497 294.947 116.79 294.493 116.79 293.896V293.704C116.79 292.584 115.649 292.024 113.366 292.024H111.638V290.616L115.59 287.928H108.438V286.504H118.118V287.928L113.99 290.664Z" fill="black"/>
<path d="M156.272 291.88V293.272H150.8V291.88H156.272ZM168.102 295.576V297H158.358V295.72L162.982 293.048C163.889 292.525 164.561 292.104 164.998 291.784C165.435 291.453 165.729 291.149 165.878 290.872C166.038 290.595 166.118 290.264 166.118 289.88V289.72C166.118 289.101 165.857 288.627 165.334 288.296C164.822 287.965 164.081 287.8 163.11 287.8C162.107 287.8 161.345 287.976 160.822 288.328C160.31 288.68 160.054 289.192 160.054 289.864V290.184H158.454V289.848C158.454 288.707 158.854 287.832 159.654 287.224C160.454 286.616 161.595 286.312 163.078 286.312C164.529 286.312 165.665 286.611 166.486 287.208C167.307 287.805 167.718 288.627 167.718 289.672V289.832C167.718 290.397 167.606 290.893 167.382 291.32C167.158 291.747 166.769 292.179 166.214 292.616C165.67 293.053 164.87 293.576 163.814 294.184L161.382 295.576H168.102Z" fill="black"/>
<path d="M208.272 291.88V293.272H202.8V291.88H208.272ZM214.361 297H212.793V288.872C212.281 289.16 211.614 289.304 210.793 289.304H208.985V287.816H210.665C211.39 287.816 211.924 287.709 212.265 287.496C212.617 287.283 212.793 286.952 212.793 286.504H214.361V297Z" fill="black"/>
<path d="M397.073 4.00256L399.195 4.26123C399.14 5.09229 393.381 88.3682 372.776 169.886C360.654 217.841 345.836 255.84 328.735 282.822C307.247 316.725 282.082 333.27 253.934 331.986C225.792 330.705 201.808 312.845 182.647 278.899C167.393 251.878 155.154 214.651 146.273 168.25C131.176 89.3909 131 10.184 131 9.39368H133.131C133.131 10.1816 133.309 89.0676 148.344 167.577C162.158 239.702 191.702 326.276 254.007 329.112C281.483 330.355 306.069 314.158 327.115 280.951C344.04 254.245 358.723 216.564 370.758 168.955C391.282 87.7575 397.018 4.82645 397.073 4.00018V4.00256Z" fill="#3052FF"/>
</svg>
