<svg width="121" height="470" viewBox="0 0 121 470" fill="none" xmlns="http://www.w3.org/2000/svg">
<line x1="37" y1="7.55589e-08" x2="37" y2="470" stroke="#020202" stroke-width="4"/>
<rect y="41" width="35" height="13" fill="#020202"/>
<rect x="4" y="257" width="35" height="13" fill="#020202"/>
<rect y="408" width="35" height="13" fill="#020202"/>
<rect x="15" y="101" width="24" height="6" fill="#020202"/>
<rect x="15" y="153" width="24" height="6" fill="#020202"/>
<rect x="15" y="205" width="24" height="6" fill="#020202"/>
<rect x="15" y="317" width="24" height="6" fill="#020202"/>
<rect x="15" y="369" width="24" height="6" fill="#020202"/>
<path d="M120.504 427.56V433H116.28C114.189 433 112.44 432.595 111.032 431.784C109.624 430.973 108.643 429.821 108.088 428.328C106.381 430.163 104.333 431.528 101.944 432.424C99.5547 433.32 96.7387 433.768 93.496 433.768C88.9307 433.768 85.4107 432.979 82.936 431.4C80.4613 429.779 79.224 427.475 79.224 424.488C79.224 421.928 80.184 419.88 82.104 418.344C84.024 416.808 86.84 415.848 90.552 415.464L107.64 413.672C107.512 411.283 106.509 409.469 104.632 408.232C102.755 406.995 100.067 406.376 96.568 406.376C93.1973 406.376 90.5093 406.952 88.504 408.104C86.4987 409.256 85.496 410.792 85.496 412.712V412.968H79.416V412.712C79.416 410.323 80.12 408.211 81.528 406.376C82.9787 404.499 85.0053 403.069 87.608 402.088C90.2107 401.064 93.2187 400.552 96.632 400.552C102.051 400.552 106.253 401.747 109.24 404.136C112.227 406.525 113.72 409.875 113.72 414.184V424.04C113.72 425.149 114.061 426.024 114.744 426.664C115.427 427.261 116.408 427.56 117.688 427.56H120.504ZM93.368 428.328C96.824 428.328 99.7893 427.795 102.264 426.728C104.739 425.619 106.531 424.061 107.64 422.056V418.664L91.896 420.328C89.6773 420.541 88.0133 420.989 86.904 421.672C85.8373 422.355 85.304 423.293 85.304 424.488C85.304 427.048 87.992 428.328 93.368 428.328Z" fill="#020202"/>
<path d="M118.2 272.752L117.112 278H113.528C111.651 278 110.051 277.595 108.728 276.784C107.448 275.973 106.595 274.885 106.168 273.52C102.285 277.019 97.2293 278.768 91 278.768C86.8613 278.768 83.6187 278.043 81.272 276.592C78.968 275.141 77.816 273.136 77.816 270.576C77.816 269.851 77.9013 269.168 78.072 268.528C78.6693 265.925 80.056 264.005 82.232 262.768C84.4507 261.531 87.3733 260.741 91 260.4L108.408 258.736C108.493 258.224 108.536 257.819 108.536 257.52C108.536 255.515 107.64 253.957 105.848 252.848C104.099 251.739 101.624 251.184 98.424 251.184C95.1387 251.184 92.4293 251.781 90.296 252.976C88.2053 254.128 86.9893 255.707 86.648 257.712L86.584 257.968H80.376V257.712C81.0587 253.957 83.0427 250.992 86.328 248.816C89.6133 246.64 93.7733 245.552 98.808 245.552C103.715 245.552 107.576 246.576 110.392 248.624C113.251 250.672 114.68 253.424 114.68 256.88C114.68 257.648 114.573 258.608 114.36 259.76L112.312 269.168C112.227 269.68 112.184 270.021 112.184 270.192C112.184 271.003 112.461 271.643 113.016 272.112C113.571 272.539 114.381 272.752 115.448 272.752H118.2ZM91.128 273.456C94.5413 273.456 97.592 272.901 100.28 271.792C103.011 270.683 105.144 269.125 106.68 267.12L107.384 263.664L91 265.264C88.7387 265.477 87.032 265.904 85.88 266.544C84.7707 267.184 84.1093 268.101 83.896 269.296C83.8533 269.467 83.832 269.701 83.832 270C83.832 272.304 86.264 273.456 91.128 273.456Z" fill="#020202"/>
<path d="M110.904 55.296C110.605 56.0213 110.456 56.576 110.456 56.96C110.456 57.5573 110.691 58.0267 111.16 58.368C111.629 58.7093 112.312 58.88 113.208 58.88H115.896L113.656 64H110.712C109.048 64 107.619 63.6373 106.424 62.912C105.272 62.144 104.525 61.1413 104.184 59.904C101.88 61.568 99.448 62.8053 96.888 63.616C94.328 64.384 91.512 64.768 88.44 64.768C84.6 64.768 81.5707 64.0853 79.352 62.72C77.176 61.312 76.088 59.4347 76.088 57.088C76.088 55.936 76.3653 54.7413 76.92 53.504C77.688 51.6693 78.8187 50.2613 80.312 49.28C81.8053 48.2987 83.4053 47.616 85.112 47.232C86.8613 46.848 88.9733 46.5493 91.448 46.336L109.304 44.736C109.56 43.968 109.688 43.264 109.688 42.624C109.688 40.8747 108.856 39.5093 107.192 38.528C105.528 37.504 103.203 36.992 100.216 36.992C97.0587 36.992 94.3707 37.5893 92.152 38.784C89.976 39.9787 88.504 41.6213 87.736 43.712L87.672 43.968H81.336L81.4 43.712C82.7653 39.872 85.1547 36.8853 88.568 34.752C91.9813 32.6187 96.12 31.552 100.984 31.552C104.013 31.552 106.659 31.9787 108.92 32.832C111.224 33.6427 112.973 34.816 114.168 36.352C115.405 37.888 116.024 39.6373 116.024 41.6C116.024 43.008 115.661 44.5653 114.936 46.272L110.904 55.296ZM82.488 55.104C82.3173 55.488 82.232 55.9147 82.232 56.384C82.232 57.4507 82.7867 58.2613 83.896 58.816C85.048 59.3707 86.712 59.648 88.888 59.648C92.088 59.648 95.1387 59.1147 98.04 58.048C100.941 56.9813 103.373 55.488 105.336 53.568L107.128 49.6L90.104 51.2C87.7573 51.4133 86.008 51.8187 84.856 52.416C83.704 53.0133 82.9147 53.9093 82.488 55.104Z" fill="#020202"/>
</svg>
