<svg width="86" height="46" viewBox="0 0 86 46" fill="none" xmlns="http://www.w3.org/2000/svg">
<path d="M10.664 3.224H15.896V7.16C15.896 15.992 12.056 23.768 3.608 26.696L0.2 21.656C7.64 19.16 10.664 13.208 10.664 7.16V3.224ZM11.96 3.224H17.144V7.784C17.144 13.112 20.12 18.296 27.08 20.456L23.768 25.4C15.752 22.712 11.96 15.8 11.96 7.784V3.224ZM29.528 0.823999H35.912V27.08H29.528V0.823999ZM34.136 11.096H41.816V16.376H34.136V11.096ZM21.416 28.088C30.632 28.088 36.44 31.304 36.44 36.68C36.44 42.104 30.632 45.272 21.416 45.272C12.152 45.272 6.344 42.104 6.344 36.68C6.344 31.304 12.152 28.088 21.416 28.088ZM21.416 33.032C15.752 33.032 12.68 34.232 12.68 36.68C12.68 39.176 15.752 40.328 21.416 40.328C27.08 40.328 30.104 39.176 30.104 36.68C30.104 34.232 27.08 33.032 21.416 33.032ZM54.9643 25.016H61.3483V36.968H54.9643V25.016ZM68.9323 25.064H75.2683V37.016H68.9323V25.064ZM45.1243 35.24H85.3483V40.424H45.1243V35.24ZM48.1963 4.328H82.0363V9.416H48.1963V4.328ZM48.3883 21.896H81.8923V26.936H48.3883V21.896ZM54.2443 8.552H60.6283V22.616H54.2443V8.552ZM69.6523 8.552H75.9883V22.616H69.6523V8.552Z" fill="#020202"/>
</svg>
