<svg width="1224" height="301" viewBox="0 0 1224 301" fill="none" xmlns="http://www.w3.org/2000/svg">
<path d="M48.144 41.416H63.264V46.552H48.144V41.416ZM47.184 64.024H64.608V69.256H47.184V64.024ZM55.632 32.872C53.184 37.432 48.48 43.096 43.296 46.408C42.72 44.824 41.376 42.568 40.368 41.224C45.6 38.104 50.4 31.864 52.608 26.968H58.224C61.392 32.632 66.24 38.2 71.232 40.744C70.08 42.28 68.88 44.488 68.064 46.264C63.12 43.144 58.176 37.528 55.632 32.872ZM44.688 50.632H67.488V71.272H61.632V55.816H50.256V71.32H44.688V50.632ZM30.432 31.048H41.904V58.6H30.432V53.272H36.432V36.376H30.432V31.048ZM27.072 31.048H32.352V62.584H27.072V31.048ZM93.504 37.672H99.504V64.408C99.504 67.672 98.832 69.256 96.672 70.168C94.56 71.128 91.392 71.272 87.12 71.272C86.88 69.544 85.968 66.904 85.104 65.224C87.984 65.368 91.296 65.32 92.304 65.32C93.168 65.32 93.504 65.08 93.504 64.312V37.672ZM83.136 46.984L89.28 48.616C86.88 54.664 82.944 60.616 79.152 64.36C77.952 63.304 75.36 61.48 73.872 60.616C77.712 57.448 81.216 52.216 83.136 46.984ZM84.912 26.152L91.2 27.88C88.128 35.752 83.28 43.576 78.576 48.472C77.376 47.368 74.592 45.448 73.056 44.584C77.904 40.36 82.368 33.256 84.912 26.152ZM103.488 49.528L108.816 47.128C112.128 51.592 116.208 57.592 118.032 61.624L112.176 64.408C110.64 60.472 106.752 54.184 103.488 49.528ZM82.896 34.168H113.52V39.832H82.896V34.168ZM111.792 34.168H112.8L113.76 33.88L118.32 35.368C116.736 39.688 114.384 44.344 112.128 47.368L107.04 45.304C108.816 42.712 110.736 38.536 111.792 35.08V34.168ZM123.024 29.08H164.784V34.648H123.024V29.08ZM134.304 39.784H153.024V45.208H134.304V39.784ZM131.904 32.152H137.952C137.136 43.336 135.744 57.448 134.544 65.992H128.256C129.696 57.208 131.232 43.096 131.904 32.152ZM121.824 64.792C128.352 64.216 138.528 63.208 147.888 62.2L148.032 67.48C139.248 68.632 129.84 69.736 123.072 70.552L121.824 64.792ZM150.336 39.784H156.24V63.208C156.24 65.224 156.384 65.512 157.392 65.512C157.824 65.512 159.504 65.512 159.984 65.512C161.088 65.512 161.28 64.12 161.472 57.496C162.72 58.504 165.216 59.56 166.752 59.944C166.272 68.344 164.88 71.032 160.56 71.032C159.648 71.032 157.2 71.032 156.336 71.032C151.824 71.032 150.336 69.304 150.336 63.208V39.784ZM136.848 51.256L141.264 48.04C144.144 50.392 147.504 53.8 148.896 56.344L144.192 59.896C142.896 57.352 139.68 53.752 136.848 51.256ZM189.504 37.672H195.504V64.408C195.504 67.672 194.832 69.256 192.672 70.168C190.56 71.128 187.392 71.272 183.12 71.272C182.88 69.544 181.968 66.904 181.104 65.224C183.984 65.368 187.296 65.32 188.304 65.32C189.168 65.32 189.504 65.08 189.504 64.312V37.672ZM179.136 46.984L185.28 48.616C182.88 54.664 178.944 60.616 175.152 64.36C173.952 63.304 171.36 61.48 169.872 60.616C173.712 57.448 177.216 52.216 179.136 46.984ZM180.912 26.152L187.2 27.88C184.128 35.752 179.28 43.576 174.576 48.472C173.376 47.368 170.592 45.448 169.056 44.584C173.904 40.36 178.368 33.256 180.912 26.152ZM199.488 49.528L204.816 47.128C208.128 51.592 212.208 57.592 214.032 61.624L208.176 64.408C206.64 60.472 202.752 54.184 199.488 49.528ZM178.896 34.168H209.52V39.832H178.896V34.168ZM207.792 34.168H208.8L209.76 33.88L214.32 35.368C212.736 39.688 210.384 44.344 208.128 47.368L203.04 45.304C204.816 42.712 206.736 38.536 207.792 35.08V34.168Z" fill="#020202"/>
<path d="M57.576 258.04V259H49.464L42.744 251.272L36.024 259H27.912V258.04L38.04 246.904L28.104 235.96V234.952H36.168L42.744 242.536L49.416 234.952H57.288V235.96L47.4 246.904L57.576 258.04ZM91.1258 252.904V259H87.0458C85.5738 259 84.2938 258.76 83.2058 258.28C82.1498 257.768 81.3498 257.048 80.8058 256.12C78.3738 258.424 74.9178 259.576 70.4378 259.576C67.0458 259.576 64.4058 258.936 62.5178 257.656C60.6298 256.376 59.6858 254.584 59.6858 252.28C59.6858 250.328 60.3898 248.776 61.7978 247.624C63.2058 246.44 65.2538 245.704 67.9418 245.416L79.7978 244.12C79.4138 241.752 77.2698 240.568 73.3658 240.568C71.3178 240.568 69.7178 240.856 68.5658 241.432C67.4458 241.976 66.8858 242.744 66.8858 243.736V243.88H59.8778V243.736C59.8778 241.848 60.4218 240.2 61.5098 238.792C62.6298 237.384 64.2138 236.296 66.2618 235.528C68.3098 234.76 70.6938 234.376 73.4138 234.376C77.6378 234.376 80.9178 235.32 83.2538 237.208C85.6218 239.096 86.8058 241.704 86.8058 245.032V250.984C86.8058 252.264 87.5418 252.904 89.0138 252.904H91.1258ZM70.9178 254.008C72.9658 254.008 74.7738 253.704 76.3418 253.096C77.9418 252.456 79.1098 251.608 79.8458 250.552V248.92L69.7657 250.072C68.7098 250.2 67.9258 250.424 67.4138 250.744C66.9018 251.064 66.6458 251.512 66.6458 252.088C66.6458 253.368 68.0698 254.008 70.9178 254.008ZM122.125 259H115.165V241.096H103.885L103.693 247.384C103.437 255.128 100.413 259 94.6211 259H91.7891V252.808H92.9891C94.3971 252.808 95.4211 252.36 96.0611 251.464C96.7331 250.536 97.0851 249.032 97.1171 246.952L97.4531 234.952H122.125V259ZM153.993 246.76C156.329 247.784 157.497 249.448 157.497 251.752V252.232C157.497 254.408 156.633 256.088 154.905 257.272C153.177 258.424 150.697 259 147.465 259H129.129V234.952H146.745C149.977 234.952 152.473 235.528 154.233 236.68C155.993 237.832 156.873 239.48 156.873 241.624V242.104C156.873 244.184 155.913 245.736 153.993 246.76ZM136.089 240.04V244.456H146.265C147.385 244.456 148.233 244.28 148.809 243.928C149.385 243.576 149.673 243.08 149.673 242.44V241.96C149.673 240.68 148.537 240.04 146.265 240.04H136.089ZM150.345 251.368C150.345 250.728 150.041 250.232 149.433 249.88C148.857 249.528 148.025 249.352 146.937 249.352H136.089V253.912H146.937C149.209 253.912 150.345 253.224 150.345 251.848V251.368ZM193.735 252.904V259H189.655C188.183 259 186.903 258.76 185.815 258.28C184.759 257.768 183.959 257.048 183.415 256.12C180.983 258.424 177.527 259.576 173.047 259.576C169.655 259.576 167.015 258.936 165.127 257.656C163.239 256.376 162.295 254.584 162.295 252.28C162.295 250.328 162.999 248.776 164.407 247.624C165.815 246.44 167.863 245.704 170.551 245.416L182.407 244.12C182.023 241.752 179.879 240.568 175.975 240.568C173.927 240.568 172.327 240.856 171.175 241.432C170.055 241.976 169.495 242.744 169.495 243.736V243.88H162.487V243.736C162.487 241.848 163.031 240.2 164.119 238.792C165.239 237.384 166.823 236.296 168.871 235.528C170.919 234.76 173.303 234.376 176.023 234.376C180.247 234.376 183.527 235.32 185.863 237.208C188.231 239.096 189.415 241.704 189.415 245.032V250.984C189.415 252.264 190.151 252.904 191.623 252.904H193.735ZM173.527 254.008C175.575 254.008 177.383 253.704 178.951 253.096C180.551 252.456 181.719 251.608 182.455 250.552V248.92L172.375 250.072C171.319 250.2 170.535 250.424 170.023 250.744C169.511 251.064 169.255 251.512 169.255 252.088C169.255 253.368 170.679 254.008 173.527 254.008ZM212.351 234.376C215.167 234.376 217.631 234.888 219.743 235.912C221.855 236.904 223.471 238.344 224.591 240.232C225.743 242.088 226.319 244.248 226.319 246.712V247.192C226.319 249.656 225.743 251.832 224.591 253.72C223.439 255.576 221.807 257.016 219.695 258.04C217.615 259.064 215.167 259.576 212.351 259.576C209.279 259.576 206.671 258.792 204.527 257.224V267.16H197.567V234.952H204.047L204.239 237.016C206.511 235.256 209.215 234.376 212.351 234.376ZM219.119 246.712C219.119 244.824 218.463 243.352 217.151 242.296C215.839 241.24 214.015 240.712 211.679 240.712C210.143 240.712 208.735 240.952 207.455 241.432C206.207 241.88 205.231 242.52 204.527 243.352V250.552C205.263 251.384 206.255 252.04 207.503 252.52C208.783 253 210.175 253.24 211.679 253.24C214.015 253.24 215.839 252.712 217.151 251.656C218.463 250.6 219.119 249.112 219.119 247.192V246.712Z" fill="#020202"/>
<path d="M43.608 160.552C45 159.64 45.816 158.584 45.816 157.432C45.816 155.944 44.568 154.84 41.64 154.84C38.184 154.84 36.312 156.232 36.312 158.536C36.312 161.416 39.528 163.144 46.872 165.592L44.04 170.824C34.296 168.04 29.64 164.104 29.64 158.632C29.64 155.944 30.6 153.928 32.28 152.488C30.456 150.904 29.592 149.176 29.592 147.304C29.592 143.416 32.568 141.304 37.944 141.304H43.848V138.52H27V133.144H54.888V138.52H50.472V146.44H38.952C37.032 146.44 36.168 147.112 36.168 148.312C36.168 148.984 36.504 149.608 37.176 150.184C38.616 149.848 40.248 149.656 41.976 149.656C49.368 149.656 52.44 153.16 52.44 157.192C52.44 159.688 51.432 161.752 49.08 163.72L43.608 160.552ZM54.1875 138.52V133.144H90.2835V138.52H85.8675V163H79.1955V147.88H79.1475C76.5075 147.88 74.8275 149.896 74.2035 154.6L67.8195 153.112C68.0115 151.48 68.3955 150.04 68.9235 148.792C68.1555 148.312 67.2435 147.976 66.1875 147.976C63.8835 147.976 62.5875 149.416 62.5875 151.576C62.5875 154.36 64.6515 156.424 70.2195 159.208L66.6675 164.104C59.9475 160.936 55.8675 156.808 55.8675 151.144C55.8675 145.384 59.6595 142.552 65.0355 142.552C67.8195 142.552 69.9795 143.416 71.8035 144.904C73.5795 143.416 75.9315 142.648 78.7635 142.648C78.9075 142.648 79.0515 142.648 79.1955 142.648V138.52H54.1875ZM119.289 138.52H114.873V163H108.201V157.192C106.473 158.152 104.313 158.728 101.769 158.728C95.433 158.728 91.305 155.608 91.305 149.944C91.305 144.424 95.241 141.448 101.673 141.448C103.641 141.448 105.321 141.64 106.713 141.976L106.185 147.208C105.129 146.968 103.977 146.824 102.633 146.824C99.753 146.824 98.025 148.024 98.025 150.136C98.025 152.104 99.561 153.304 102.153 153.304C104.553 153.304 106.857 152.152 108.201 150.328V138.52H89.625V133.144H119.289V138.52ZM138.322 159.784L133.714 164.056C128.53 159.64 124.69 155.848 122.338 152.536C120.802 150.472 120.178 148.936 120.178 147.304C120.178 145.288 121.57 143.992 123.73 143.992C125.362 143.992 126.706 144.664 128.146 145.912C129.682 144.856 130.354 143.464 130.354 141.592C130.354 140.488 130.162 139.432 129.826 138.52H118.594V133.144H140.482V138.52H136.45C136.786 139.624 137.026 140.92 137.026 142.552C137.026 147.256 134.098 150.232 129.394 152.056C132.034 154.648 135.01 157.192 138.322 159.784Z" fill="#020202"/>
<path d="M323.003 67.624C319.131 67.624 316.251 66.68 314.363 64.792C312.475 62.872 311.531 60.04 311.531 56.296C311.531 55.656 311.547 54.888 311.579 53.992C311.643 53.064 311.723 52.248 311.819 51.544H323.339V56.104H318.587V56.776C318.587 58.056 318.747 59.112 319.067 59.944C319.387 60.744 319.867 61.336 320.507 61.72C321.179 62.104 322.011 62.296 323.003 62.296C324.059 62.296 324.955 62.056 325.691 61.576C326.459 61.096 327.051 60.296 327.467 59.176C327.883 58.024 328.091 56.472 328.091 54.52C328.091 52.504 327.851 50.856 327.371 49.576C326.923 48.296 326.187 47.352 325.163 46.744C324.171 46.136 322.843 45.832 321.179 45.832C319.675 45.832 318.171 46.056 316.667 46.504C315.163 46.92 313.883 47.416 312.827 47.992V41.992C313.531 41.608 314.395 41.272 315.419 40.984C316.475 40.696 317.611 40.472 318.827 40.312C320.043 40.152 321.211 40.072 322.331 40.072C324.187 40.072 325.835 40.36 327.275 40.936C328.747 41.48 329.931 42.424 330.827 43.768C332.427 44.632 333.595 45.96 334.331 47.752C335.099 49.544 335.483 51.736 335.483 54.328C335.483 57.08 335.051 59.448 334.187 61.432C333.355 63.416 332.011 64.952 330.155 66.04C328.331 67.096 325.947 67.624 323.003 67.624ZM330.587 45.928L326.651 42.616C327.771 42.232 328.651 41.752 329.291 41.176C329.931 40.568 330.267 39.832 330.299 38.968H336.587C336.587 39.96 336.379 40.92 335.963 41.848C335.579 42.744 334.939 43.544 334.043 44.248C333.179 44.952 332.027 45.512 330.587 45.928ZM348.14 67V49.624C348.14 48.28 347.82 47.304 347.18 46.696C346.572 46.088 345.564 45.784 344.156 45.784C343.1 45.784 342.124 45.928 341.228 46.216C340.364 46.504 339.548 46.856 338.78 47.272V41.512C339.484 41.192 340.476 40.872 341.756 40.552C343.036 40.232 344.54 40.072 346.268 40.072C348.028 40.072 349.58 40.328 350.924 40.84C352.3 41.352 353.372 42.216 354.14 43.432C354.94 44.616 355.34 46.248 355.34 48.328V67H348.14ZM377.016 67V49.912C377.016 48.376 376.6 47.272 375.768 46.6C374.936 45.928 373.656 45.592 371.928 45.592C370.264 45.592 368.632 45.848 367.032 46.36C365.464 46.84 364.104 47.416 362.952 48.088V42.136C363.88 41.688 365.192 41.24 366.888 40.792C368.584 40.312 370.552 40.072 372.792 40.072C374.424 40.072 375.912 40.248 377.256 40.6C378.632 40.92 379.832 41.48 380.856 42.28C381.88 43.048 382.664 44.088 383.208 45.4C383.784 46.68 384.072 48.28 384.072 50.2V67H377.016ZM369.144 67.48C366.392 67.48 364.264 66.824 362.76 65.512C361.288 64.2 360.552 62.36 360.552 59.992C360.552 57.432 361.464 55.384 363.288 53.848C365.144 52.312 368.056 51.384 372.024 51.064L378.168 50.584V55.768L372.84 56.296C370.92 56.488 369.576 56.872 368.808 57.448C368.072 58.024 367.704 58.792 367.704 59.752C367.704 60.712 368.008 61.432 368.616 61.912C369.256 62.392 370.072 62.632 371.064 62.632C371.448 62.632 371.832 62.6 372.216 62.536C372.6 62.44 372.952 62.344 373.272 62.248L373.896 66.76C373.288 66.984 372.568 67.16 371.736 67.288C370.904 67.416 370.04 67.48 369.144 67.48ZM397.782 67.624C396.15 67.624 394.614 67.432 393.174 67.048C391.734 66.696 390.39 66.184 389.142 65.512L391.062 60.28C391.766 60.696 392.614 61.064 393.606 61.384C394.598 61.704 395.574 61.864 396.534 61.864C398.326 61.864 399.75 61.192 400.806 59.848C401.862 58.472 402.39 56.424 402.39 53.704C402.39 51.144 401.862 49.192 400.806 47.848C399.75 46.504 398.102 45.832 395.862 45.832C394.806 45.832 393.718 45.992 392.598 46.312C391.478 46.6 390.55 46.968 389.814 47.416V41.512C390.806 41.064 391.926 40.712 393.174 40.456C394.422 40.2 395.75 40.072 397.158 40.072C400.102 40.072 402.502 40.616 404.358 41.704C406.214 42.792 407.574 44.36 408.438 46.408C409.302 48.424 409.734 50.856 409.734 53.704C409.734 58.248 408.694 61.704 406.614 64.072C404.534 66.44 401.59 67.624 397.782 67.624ZM422.39 67V49.624C422.39 48.28 422.07 47.304 421.43 46.696C420.822 46.088 419.814 45.784 418.406 45.784C417.35 45.784 416.374 45.928 415.478 46.216C414.614 46.504 413.798 46.856 413.03 47.272V41.512C413.734 41.192 414.726 40.872 416.006 40.552C417.286 40.232 418.79 40.072 420.518 40.072C422.278 40.072 423.83 40.328 425.174 40.84C426.55 41.352 427.622 42.216 428.39 43.432C429.19 44.616 429.59 46.248 429.59 48.328V67H422.39ZM445.314 67.624C443.426 67.624 441.522 67.416 439.602 67C437.714 66.584 436.034 65.992 434.562 65.224L436.578 59.512C437.218 59.864 437.986 60.232 438.882 60.616C439.778 61 440.754 61.32 441.81 61.576C442.866 61.832 443.938 61.96 445.026 61.96C446.306 61.96 447.266 61.784 447.906 61.432C448.578 61.048 448.914 60.472 448.914 59.704C448.914 59.128 448.69 58.664 448.242 58.312C447.826 57.928 447.202 57.576 446.37 57.256C445.538 56.904 444.546 56.536 443.394 56.152C441.698 55.544 440.242 54.888 439.026 54.184C437.81 53.48 436.866 52.616 436.194 51.592C435.554 50.568 435.234 49.288 435.234 47.752C435.234 45.992 435.682 44.552 436.578 43.432C437.474 42.312 438.738 41.48 440.37 40.936C442.002 40.36 443.906 40.072 446.082 40.072C447.874 40.072 449.49 40.216 450.93 40.504C452.37 40.792 453.49 41.16 454.29 41.608V47.272C453.746 47.016 453.026 46.76 452.13 46.504C451.266 46.248 450.322 46.04 449.298 45.88C448.306 45.688 447.346 45.592 446.418 45.592C445.106 45.592 444.114 45.768 443.442 46.12C442.77 46.472 442.434 46.968 442.434 47.608C442.434 48.12 442.658 48.552 443.106 48.904C443.586 49.256 444.274 49.592 445.17 49.912C446.066 50.2 447.138 50.568 448.386 51.016C450.05 51.592 451.458 52.232 452.61 52.936C453.762 53.64 454.626 54.504 455.202 55.528C455.81 56.552 456.114 57.816 456.114 59.32C456.114 60.76 455.778 62.12 455.106 63.4C454.466 64.648 453.362 65.672 451.794 66.472C450.226 67.24 448.066 67.624 445.314 67.624ZM445.616 38.104C445.36 37.656 445.152 37.08 444.992 36.376C444.8 35.672 444.704 34.968 444.704 34.264C444.704 33.368 444.88 32.552 445.232 31.816C445.552 31.08 446.144 30.504 447.008 30.088C447.84 29.64 448.992 29.416 450.464 29.416H457.424V34.264H452.816C452.208 34.264 451.744 34.376 451.424 34.6C451.072 34.792 450.896 35.16 450.896 35.704C450.896 35.928 450.928 36.168 450.992 36.424C451.056 36.648 451.152 36.888 451.28 37.144L445.616 38.104Z" fill="#020202"/>
<path d="M321.624 139.72C324.568 139.72 326.904 140.168 328.632 141.064C330.392 141.928 331.656 143.032 332.424 144.376C333.192 145.72 333.576 147.096 333.576 148.504C333.576 151.128 332.744 153.144 331.08 154.552C329.448 155.928 327.128 156.856 324.12 157.336L323.016 155.368C324.616 155.784 326.2 156.296 327.768 156.904C329.336 157.512 330.888 158.232 332.424 159.064C333.992 159.896 335.528 160.84 337.032 161.896L333.672 166.36C332.168 165.272 330.568 164.264 328.872 163.336C327.208 162.408 325.432 161.576 323.544 160.84C321.688 160.072 319.736 159.4 317.688 158.824C315.64 158.248 313.48 157.784 311.208 157.432L312.264 152.392C313.384 152.68 314.472 152.904 315.528 153.064C316.616 153.224 317.704 153.304 318.792 153.304C320.84 153.304 322.472 153.112 323.688 152.728C324.904 152.312 325.784 151.752 326.328 151.048C326.904 150.344 327.192 149.512 327.192 148.552C327.192 147.4 326.744 146.472 325.848 145.768C324.984 145.064 323.752 144.712 322.152 144.712C321.224 144.712 320.472 144.792 319.896 144.952C319.352 145.112 318.952 145.368 318.696 145.72C318.472 146.04 318.36 146.44 318.36 146.92C318.36 147.08 318.392 147.272 318.456 147.496C318.52 147.72 318.584 147.912 318.648 148.072L312.696 148.936C312.504 148.456 312.344 147.912 312.216 147.304C312.088 146.664 312.024 146.072 312.024 145.528C312.024 144.376 312.408 143.368 313.176 142.504C313.944 141.608 315.048 140.92 316.488 140.44C317.928 139.96 319.64 139.72 321.624 139.72ZM315.96 142.456C315.8 141.4 315.32 140.488 314.52 139.72C313.72 138.952 312.568 138.392 311.064 138.04L314.712 135.928L316.92 136.456C318.712 137.192 320.008 138.008 320.808 138.904C321.608 139.8 322.072 140.936 322.2 142.312L315.96 142.456ZM336.984 133.144V138.424H308.52V133.144H336.984ZM351.588 133.144V138.424H346.98V163H340.644V141.688C340.26 140.696 339.716 139.912 339.012 139.336C338.308 138.728 337.396 138.424 336.276 138.424H336.036V133.144H336.996C337.732 133.144 338.42 133.336 339.06 133.72C339.7 134.104 340.292 134.92 340.836 136.168C340.804 136.008 340.756 135.64 340.692 135.064C340.66 134.488 340.644 133.992 340.644 133.576V129.976H345.828L346.932 133.144H351.588ZM388.822 133.144V138.424H384.214V163H377.878V147.88L379.174 150.616C378.662 149.688 378.054 148.888 377.35 148.216C376.646 147.544 375.846 147.208 374.95 147.208C374.63 147.208 374.262 147.288 373.846 147.448C373.462 147.608 373.126 147.912 372.838 148.36C372.582 148.808 372.454 149.464 372.454 150.328C372.454 150.616 372.47 150.888 372.502 151.144C372.534 151.368 372.566 151.608 372.598 151.864L367.174 152.2C367.014 151.144 366.694 150.232 366.214 149.464C365.766 148.664 365.19 148.056 364.486 147.64C363.782 147.224 362.934 147.016 361.942 147.016C361.366 147.016 360.854 147.128 360.406 147.352C359.958 147.544 359.606 147.832 359.35 148.216C359.126 148.6 359.014 149.048 359.014 149.56C359.014 150.712 359.462 151.608 360.358 152.248C361.286 152.888 362.406 153.416 363.718 153.832L361.894 159.208C359.974 158.664 358.31 157.944 356.902 157.048C355.494 156.12 354.406 155.016 353.638 153.736C352.87 152.456 352.486 150.984 352.486 149.32C352.486 147.72 352.87 146.344 353.638 145.192C354.438 144.04 355.494 143.16 356.806 142.552C358.118 141.912 359.558 141.592 361.126 141.592C363.014 141.592 364.598 141.912 365.878 142.552C367.158 143.16 368.486 144.168 369.862 145.576L368.998 145.24C369.35 144.12 369.974 143.272 370.87 142.696C371.766 142.12 372.71 141.832 373.702 141.832C374.822 141.832 375.814 142.056 376.678 142.504C377.574 142.952 378.406 143.56 379.174 144.328L378.118 145.096C378.054 144.392 377.99 143.688 377.926 142.984C377.894 142.28 377.878 141.576 377.878 140.872V138.424H350.614V133.144H388.822ZM409.575 161.608C407.335 161.608 405.191 161.304 403.143 160.696C401.127 160.088 399.239 159.064 397.479 157.624C395.751 156.184 394.183 154.232 392.775 151.768C391.367 149.304 390.151 146.2 389.127 142.456L395.127 140.776C396.247 144.648 397.463 147.704 398.775 149.944C400.119 152.152 401.639 153.736 403.335 154.696C405.031 155.624 406.951 156.088 409.095 156.088C410.631 156.088 411.927 155.864 412.983 155.416C414.071 154.968 414.903 154.312 415.479 153.448C416.055 152.584 416.343 151.544 416.343 150.328C416.343 149.496 416.247 148.76 416.055 148.12C415.863 147.48 415.591 146.904 415.239 146.392C414.919 145.88 414.551 145.448 414.135 145.096L419.127 141.064C420.343 142.696 421.223 144.328 421.767 145.96C422.343 147.592 422.631 149.32 422.631 151.144C422.631 153.128 422.135 154.92 421.143 156.52C420.183 158.088 418.727 159.336 416.775 160.264C414.855 161.16 412.455 161.608 409.575 161.608ZM407.895 150.712C405.719 150.712 403.991 150.2 402.711 149.176C401.463 148.12 400.839 146.696 400.839 144.904C400.839 144.136 400.935 143.4 401.127 142.696C401.319 141.992 401.559 141.352 401.847 140.776L407.511 142.168C407.383 142.456 407.271 142.728 407.175 142.984C407.111 143.208 407.079 143.464 407.079 143.752C407.079 144.36 407.255 144.792 407.607 145.048C407.959 145.304 408.407 145.432 408.951 145.432C409.559 145.432 410.103 145.336 410.583 145.144C411.095 144.92 411.607 144.568 412.119 144.088C412.631 143.576 413.191 142.872 413.799 141.976L419.127 141.064L419.367 144.088C418.311 145.496 417.207 146.696 416.055 147.688C414.903 148.68 413.655 149.432 412.311 149.944C410.999 150.456 409.527 150.712 407.895 150.712ZM424.839 133.144V138.424H387.879V133.144H424.839ZM439.431 133.144V138.424H434.823V163H428.487V141.688C428.103 140.696 427.559 139.912 426.855 139.336C426.151 138.728 425.239 138.424 424.119 138.424H423.879V133.144H424.839C425.575 133.144 426.263 133.336 426.903 133.72C427.543 134.104 428.135 134.92 428.679 136.168C428.647 136.008 428.599 135.64 428.535 135.064C428.503 134.488 428.487 133.992 428.487 133.576V129.976H433.671L434.775 133.144H439.431ZM469.946 133.144V138.424H465.338V163H459.002C457.818 161.272 456.362 159.752 454.634 158.44C452.906 157.128 450.986 156.04 448.874 155.176C446.762 154.28 444.506 153.64 442.105 153.256L439.706 147.592C442.65 145.96 445.866 144.392 449.354 142.888C452.874 141.352 456.33 140.136 459.722 139.24L459.146 140.824V138.424H438.457V133.144H469.946ZM459.002 143.848L459.674 144.76C458.266 145.176 456.89 145.656 455.546 146.2C454.202 146.712 452.858 147.256 451.514 147.832C450.202 148.408 448.858 149.032 447.482 149.704C448.474 149.896 449.514 150.2 450.602 150.616C451.722 151.032 452.842 151.544 453.962 152.152C455.114 152.76 456.202 153.48 457.226 154.312C458.25 155.112 459.178 156.008 460.01 157L459.146 157.384C459.114 156.648 459.082 155.912 459.05 155.176C459.018 154.44 459.002 153.72 459.002 153.016V143.848ZM463.177 158.056C462.186 156.072 460.762 154.312 458.906 152.776C457.082 151.208 454.986 149.928 452.618 148.936C450.282 147.912 447.834 147.224 445.273 146.872L447.962 144.856C449.914 145.208 451.802 145.704 453.626 146.344C455.482 146.952 457.21 147.816 458.81 148.936C460.41 150.024 461.786 151.48 462.938 153.304L463.177 158.056Z" fill="#020202"/>
<path d="M333.144 233.416H348.264V238.552H333.144V233.416ZM332.184 256.024H349.608V261.256H332.184V256.024ZM340.632 224.872C338.184 229.432 333.48 235.096 328.296 238.408C327.72 236.824 326.376 234.568 325.368 233.224C330.6 230.104 335.4 223.864 337.608 218.968H343.224C346.392 224.632 351.24 230.2 356.232 232.744C355.08 234.28 353.88 236.488 353.064 238.264C348.12 235.144 343.176 229.528 340.632 224.872ZM329.688 242.632H352.488V263.272H346.632V247.816H335.256V263.32H329.688V242.632ZM315.432 223.048H326.904V250.6H315.432V245.272H321.432V228.376H315.432V223.048ZM312.072 223.048H317.352V254.584H312.072V223.048ZM378.072 222.472H383.592V262.888H378.072V222.472ZM362.52 230.824H396.504V235.48H367.848V263.32H362.52V230.824ZM394.248 230.824H399.72V257.896C399.72 260.392 399.192 261.688 397.56 262.456C395.88 263.272 393.528 263.32 390.216 263.32C389.976 261.976 389.208 259.912 388.536 258.664C390.552 258.76 392.712 258.76 393.384 258.712C394.008 258.664 394.248 258.472 394.248 257.848V230.824ZM368.616 224.968L373.8 226.792C370.968 230.104 366.36 233.224 362.424 235.144C361.464 234.136 359.4 232.264 358.152 231.4C362.136 229.912 366.264 227.512 368.616 224.968ZM387.528 227.32L391.704 224.152C395.832 225.976 400.872 228.808 403.704 230.776L399.48 234.328C396.744 232.216 391.656 229.144 387.528 227.32ZM373.752 236.056L377.064 236.824C375.624 240.712 373.224 244.6 370.776 247.144C370.2 246.616 368.76 245.608 367.944 245.176C370.392 242.824 372.504 239.464 373.752 236.056ZM368.328 240.088L370.296 237.544C372.936 238.84 376.104 240.904 377.736 242.392L375.672 245.272C374.04 243.64 370.92 241.432 368.328 240.088ZM373.8 247L377.256 247.816C375.768 252.232 373.224 256.456 370.536 259.192C369.864 258.616 368.424 257.56 367.608 257.08C370.296 254.584 372.504 250.84 373.8 247ZM368.28 251.08L370.248 248.488C372.984 250.072 376.296 252.472 377.976 254.056L375.912 256.936C374.184 255.208 370.92 252.664 368.28 251.08ZM389.496 236.056L392.808 236.872C391.32 240.76 388.92 244.696 386.472 247.192C385.896 246.664 384.456 245.704 383.64 245.224C386.088 242.92 388.248 239.512 389.496 236.056ZM383.88 239.896L385.896 237.4C388.68 238.744 391.944 241 393.624 242.584L391.56 245.416C389.88 243.736 386.568 241.336 383.88 239.896ZM389.688 246.952L393.096 247.768C391.56 251.992 388.968 256.12 386.184 258.76C385.56 258.232 384.168 257.176 383.304 256.696C386.04 254.296 388.392 250.648 389.688 246.952ZM383.976 251.032L385.944 248.344C388.824 249.688 392.232 251.896 394.056 253.384L392.04 256.36C390.168 254.728 386.712 252.424 383.976 251.032ZM359.784 220.984H402.36V226.12H359.784V220.984ZM408.024 221.08H449.784V226.648H408.024V221.08ZM419.304 231.784H438.024V237.208H419.304V231.784ZM416.904 224.152H422.952C422.136 235.336 420.744 249.448 419.544 257.992H413.256C414.696 249.208 416.232 235.096 416.904 224.152ZM406.824 256.792C413.352 256.216 423.528 255.208 432.888 254.2L433.032 259.48C424.248 260.632 414.84 261.736 408.072 262.552L406.824 256.792ZM435.336 231.784H441.24V255.208C441.24 257.224 441.384 257.512 442.392 257.512C442.824 257.512 444.504 257.512 444.984 257.512C446.088 257.512 446.28 256.12 446.472 249.496C447.72 250.504 450.216 251.56 451.752 251.944C451.272 260.344 449.88 263.032 445.56 263.032C444.648 263.032 442.2 263.032 441.336 263.032C436.824 263.032 435.336 261.304 435.336 255.208V231.784ZM421.848 243.256L426.264 240.04C429.144 242.392 432.504 245.8 433.896 248.344L429.192 251.896C427.896 249.352 424.68 245.752 421.848 243.256ZM474.072 222.472H479.592V262.888H474.072V222.472ZM458.52 230.824H492.504V235.48H463.848V263.32H458.52V230.824ZM490.248 230.824H495.72V257.896C495.72 260.392 495.192 261.688 493.56 262.456C491.88 263.272 489.528 263.32 486.216 263.32C485.976 261.976 485.208 259.912 484.536 258.664C486.552 258.76 488.712 258.76 489.384 258.712C490.008 258.664 490.248 258.472 490.248 257.848V230.824ZM464.616 224.968L469.8 226.792C466.968 230.104 462.36 233.224 458.424 235.144C457.464 234.136 455.4 232.264 454.152 231.4C458.136 229.912 462.264 227.512 464.616 224.968ZM483.528 227.32L487.704 224.152C491.832 225.976 496.872 228.808 499.704 230.776L495.48 234.328C492.744 232.216 487.656 229.144 483.528 227.32ZM469.752 236.056L473.064 236.824C471.624 240.712 469.224 244.6 466.776 247.144C466.2 246.616 464.76 245.608 463.944 245.176C466.392 242.824 468.504 239.464 469.752 236.056ZM464.328 240.088L466.296 237.544C468.936 238.84 472.104 240.904 473.736 242.392L471.672 245.272C470.04 243.64 466.92 241.432 464.328 240.088ZM469.8 247L473.256 247.816C471.768 252.232 469.224 256.456 466.536 259.192C465.864 258.616 464.424 257.56 463.608 257.08C466.296 254.584 468.504 250.84 469.8 247ZM464.28 251.08L466.248 248.488C468.984 250.072 472.296 252.472 473.976 254.056L471.912 256.936C470.184 255.208 466.92 252.664 464.28 251.08ZM485.496 236.056L488.808 236.872C487.32 240.76 484.92 244.696 482.472 247.192C481.896 246.664 480.456 245.704 479.64 245.224C482.088 242.92 484.248 239.512 485.496 236.056ZM479.88 239.896L481.896 237.4C484.68 238.744 487.944 241 489.624 242.584L487.56 245.416C485.88 243.736 482.568 241.336 479.88 239.896ZM485.688 246.952L489.096 247.768C487.56 251.992 484.968 256.12 482.184 258.76C481.56 258.232 480.168 257.176 479.304 256.696C482.04 254.296 484.392 250.648 485.688 246.952ZM479.976 251.032L481.944 248.344C484.824 249.688 488.232 251.896 490.056 253.384L488.04 256.36C486.168 254.728 482.712 252.424 479.976 251.032ZM455.784 220.984H498.36V226.12H455.784V220.984Z" fill="#020202"/>
<path d="M873.288 138.376C877.448 138.376 880.6 139.464 882.744 141.64C884.888 143.784 885.96 146.952 885.96 151.144V163H879V151.144C879 149.064 878.424 147.48 877.272 146.392C876.152 145.272 874.504 144.712 872.328 144.712C870.824 144.712 869.464 145.064 868.248 145.768C867.032 146.472 866.104 147.416 865.464 148.6V163H858.504V129.592H865.464V141.016C867.608 139.256 870.216 138.376 873.288 138.376ZM923.157 156.904V163H919.077C917.605 163 916.325 162.76 915.237 162.28C914.181 161.768 913.381 161.048 912.837 160.12C910.405 162.424 906.949 163.576 902.469 163.576C899.077 163.576 896.437 162.936 894.549 161.656C892.661 160.376 891.717 158.584 891.717 156.28C891.717 154.328 892.421 152.776 893.829 151.624C895.237 150.44 897.285 149.704 899.973 149.416L911.829 148.12C911.445 145.752 909.301 144.568 905.397 144.568C903.349 144.568 901.749 144.856 900.597 145.432C899.477 145.976 898.917 146.744 898.917 147.736V147.88H891.909V147.736C891.909 145.848 892.453 144.2 893.541 142.792C894.661 141.384 896.245 140.296 898.293 139.528C900.341 138.76 902.725 138.376 905.445 138.376C909.669 138.376 912.949 139.32 915.285 141.208C917.653 143.096 918.837 145.704 918.837 149.032V154.984C918.837 156.264 919.573 156.904 921.045 156.904H923.157ZM902.949 158.008C904.997 158.008 906.805 157.704 908.373 157.096C909.973 156.456 911.141 155.608 911.877 154.552V152.92L901.797 154.072C900.741 154.2 899.957 154.424 899.445 154.744C898.933 155.064 898.677 155.512 898.677 156.088C898.677 157.368 900.101 158.008 902.949 158.008ZM934.956 163C932.396 163 930.412 162.392 929.004 161.176C927.596 159.928 926.892 158.2 926.892 155.992V129.592H933.804V154.744C933.804 155.48 933.996 156.024 934.38 156.376C934.764 156.728 935.388 156.904 936.252 156.904H938.316V163H934.956ZM970.466 138.952V139.96L959.186 163H950.162L938.834 139.96V138.952H946.13L954.674 156.712L963.17 138.952H970.466ZM1004.53 156.904V163H1000.45C998.98 163 997.7 162.76 996.612 162.28C995.556 161.768 994.756 161.048 994.212 160.12C991.78 162.424 988.324 163.576 983.844 163.576C980.452 163.576 977.812 162.936 975.924 161.656C974.036 160.376 973.092 158.584 973.092 156.28C973.092 154.328 973.796 152.776 975.204 151.624C976.612 150.44 978.66 149.704 981.348 149.416L993.204 148.12C992.82 145.752 990.676 144.568 986.772 144.568C984.724 144.568 983.124 144.856 981.972 145.432C980.852 145.976 980.292 146.744 980.292 147.736V147.88H973.284V147.736C973.284 145.848 973.828 144.2 974.916 142.792C976.036 141.384 977.62 140.296 979.668 139.528C981.716 138.76 984.1 138.376 986.82 138.376C991.044 138.376 994.324 139.32 996.66 141.208C999.028 143.096 1000.21 145.704 1000.21 149.032V154.984C1000.21 156.264 1000.95 156.904 1002.42 156.904H1004.53ZM984.324 158.008C986.372 158.008 988.18 157.704 989.748 157.096C991.348 156.456 992.516 155.608 993.252 154.552V152.92L983.172 154.072C982.116 154.2 981.332 154.424 980.82 154.744C980.308 155.064 980.052 155.512 980.052 156.088C980.052 157.368 981.476 158.008 984.324 158.008ZM1026.89 138.952V145.096H1021.52C1018.51 145.096 1016.4 145.848 1015.18 147.352V163H1008.27V138.952H1014.75L1014.94 141.16C1016.96 139.688 1019.45 138.952 1022.43 138.952H1026.89Z" fill="#020202"/>
<path d="M881.688 259.24C879.416 259.24 877.448 258.952 875.784 258.376C874.152 257.768 872.888 256.808 871.992 255.496C871.096 254.152 870.584 252.36 870.456 250.12L869.592 230.776H876.36L877.176 247.768C877.24 249.08 877.448 250.088 877.8 250.792C878.184 251.464 878.728 251.928 879.432 252.184C880.136 252.408 881.048 252.52 882.168 252.52C883.384 252.52 884.248 252.84 884.76 253.48C885.272 254.088 885.528 254.856 885.528 255.784C885.528 256.776 885.192 257.608 884.52 258.28C883.88 258.92 882.936 259.24 881.688 259.24ZM872.904 254.776C870.76 255.256 868.696 255.48 866.712 255.448C864.728 255.384 862.952 255.032 861.384 254.392C859.816 253.72 858.568 252.76 857.64 251.512C856.744 250.264 856.296 248.68 856.296 246.76C856.296 245.064 856.664 243.528 857.4 242.152C858.168 240.744 859.224 239.512 860.568 238.456C861.944 237.4 863.544 236.504 865.368 235.768C867.192 235.032 869.176 234.472 871.32 234.088L871.992 240.904C870.616 240.968 869.368 241.16 868.248 241.48C867.16 241.768 866.216 242.152 865.416 242.632C864.648 243.112 864.056 243.656 863.64 244.264C863.224 244.84 863.016 245.464 863.016 246.136C863.016 246.68 863.208 247.128 863.592 247.48C863.976 247.832 864.488 248.12 865.128 248.344C865.768 248.536 866.504 248.648 867.336 248.68C868.168 248.712 869.016 248.664 869.88 248.536C870.776 248.408 871.656 248.2 872.52 247.912L872.904 254.776ZM873.048 225.832C872.12 225.832 871.32 225.512 870.648 224.872C870.008 224.2 869.688 223.416 869.688 222.52C869.688 221.592 870.008 220.792 870.648 220.12C871.32 219.448 872.12 219.112 873.048 219.112C873.944 219.112 874.712 219.448 875.352 220.12C875.992 220.792 876.312 221.592 876.312 222.52C876.312 223.416 875.992 224.2 875.352 224.872C874.712 225.512 873.944 225.832 873.048 225.832ZM864.744 225.784C863.816 225.784 863.016 225.464 862.344 224.824C861.704 224.152 861.384 223.368 861.384 222.472C861.384 221.544 861.704 220.744 862.344 220.072C863.016 219.4 863.816 219.064 864.744 219.064C865.64 219.064 866.408 219.4 867.048 220.072C867.688 220.744 868.008 221.544 868.008 222.472C868.008 223.368 867.688 224.152 867.048 224.824C866.408 225.464 865.64 225.784 864.744 225.784ZM881.672 259.24L882.152 252.52C883.304 252.52 884.296 252.408 885.128 252.184C885.96 251.96 886.664 251.512 887.24 250.84C887.816 250.136 888.296 249.112 888.68 247.768C889.096 246.424 889.464 244.632 889.784 242.392L896.072 243.448C896.008 243.928 895.912 244.488 895.784 245.128C895.688 245.768 895.592 246.424 895.496 247.096C895.432 247.736 895.4 248.344 895.4 248.92C895.4 249.496 895.512 250.008 895.736 250.456C895.96 250.904 896.312 251.288 896.792 251.608C897.304 251.896 897.96 252.12 898.76 252.28C899.592 252.44 900.6 252.52 901.784 252.52C903 252.52 903.864 252.84 904.376 253.48C904.888 254.088 905.144 254.856 905.144 255.784C905.144 256.776 904.808 257.608 904.136 258.28C903.496 258.92 902.552 259.24 901.304 259.24C899.864 259.24 898.552 259.128 897.368 258.904C896.216 258.68 895.208 258.312 894.344 257.8C893.512 257.256 892.824 256.552 892.28 255.688C891.768 254.792 891.448 253.704 891.32 252.424H893.624C893.048 253.96 892.312 255.192 891.416 256.12C890.552 257.016 889.576 257.688 888.488 258.136C887.4 258.584 886.264 258.872 885.08 259C883.928 259.16 882.792 259.24 881.672 259.24ZM895.064 270.376C894.136 270.376 893.336 270.04 892.664 269.368C892.024 268.728 891.704 267.96 891.704 267.064C891.704 266.136 892.024 265.336 892.664 264.664C893.336 263.992 894.136 263.656 895.064 263.656C895.96 263.656 896.728 263.992 897.368 264.664C898.008 265.336 898.328 266.136 898.328 267.064C898.328 267.96 898.008 268.728 897.368 269.368C896.728 270.04 895.96 270.376 895.064 270.376ZM886.76 270.376C885.832 270.376 885.032 270.04 884.36 269.368C883.72 268.728 883.4 267.96 883.4 267.064C883.4 266.136 883.72 265.336 884.36 264.664C885.032 263.992 885.832 263.656 886.76 263.656C887.656 263.656 888.424 263.992 889.064 264.664C889.704 265.336 890.024 266.136 890.024 267.064C890.024 267.96 889.704 268.728 889.064 269.368C888.424 270.04 887.656 270.376 886.76 270.376ZM901.312 259.24L901.793 252.52C903.009 252.52 903.969 252.408 904.673 252.184C905.409 251.96 905.985 251.512 906.401 250.84C906.849 250.136 907.217 249.112 907.505 247.768C907.825 246.424 908.145 244.632 908.465 242.392L914.753 243.448C914.689 243.928 914.593 244.488 914.465 245.128C914.369 245.768 914.273 246.424 914.177 247.096C914.113 247.736 914.081 248.344 914.081 248.92C914.081 249.688 914.241 250.344 914.561 250.888C914.913 251.4 915.521 251.8 916.385 252.088C917.281 252.376 918.561 252.52 920.225 252.52C921.441 252.52 922.305 252.84 922.817 253.48C923.329 254.088 923.585 254.856 923.585 255.784C923.585 256.776 923.249 257.608 922.577 258.28C921.937 258.92 920.993 259.24 919.745 259.24C917.537 259.24 915.745 259.032 914.369 258.616C912.993 258.2 911.969 257.496 911.297 256.504C910.625 255.512 910.193 254.152 910.001 252.424H912.305C911.729 253.96 911.057 255.192 910.289 256.12C909.521 257.016 908.657 257.688 907.697 258.136C906.737 258.584 905.713 258.872 904.625 259C903.569 259.16 902.465 259.24 901.312 259.24ZM911.105 237.496C910.113 237.496 909.265 237.16 908.561 236.488C907.889 235.816 907.553 234.984 907.553 233.992C907.553 233 907.889 232.152 908.561 231.448C909.265 230.744 910.113 230.392 911.105 230.392C912.065 230.392 912.881 230.744 913.553 231.448C914.257 232.152 914.609 233 914.609 233.992C914.609 234.984 914.257 235.816 913.553 236.488C912.881 237.16 912.065 237.496 911.105 237.496ZM919.734 259.24L920.214 252.52C921.366 252.52 922.358 252.408 923.19 252.184C924.022 251.96 924.726 251.512 925.302 250.84C925.878 250.136 926.358 249.112 926.742 247.768C927.158 246.424 927.526 244.632 927.846 242.392L934.134 243.448C934.07 243.928 933.974 244.488 933.846 245.128C933.75 245.768 933.654 246.424 933.558 247.096C933.494 247.736 933.462 248.344 933.462 248.92C933.462 249.496 933.574 250.008 933.798 250.456C934.022 250.904 934.374 251.288 934.854 251.608C935.366 251.896 936.022 252.12 936.822 252.28C937.654 252.44 938.662 252.52 939.846 252.52C941.062 252.52 941.926 252.84 942.438 253.48C942.95 254.088 943.206 254.856 943.206 255.784C943.206 256.776 942.87 257.608 942.198 258.28C941.558 258.92 940.614 259.24 939.366 259.24C937.926 259.24 936.614 259.128 935.43 258.904C934.278 258.68 933.27 258.312 932.406 257.8C931.574 257.256 930.886 256.552 930.342 255.688C929.83 254.792 929.51 253.704 929.382 252.424H931.686C931.11 253.96 930.374 255.192 929.478 256.12C928.614 257.016 927.638 257.688 926.55 258.136C925.462 258.584 924.326 258.872 923.142 259C921.99 259.16 920.854 259.24 919.734 259.24ZM933.126 270.376C932.198 270.376 931.398 270.04 930.726 269.368C930.086 268.728 929.766 267.96 929.766 267.064C929.766 266.136 930.086 265.336 930.726 264.664C931.398 263.992 932.198 263.656 933.126 263.656C934.022 263.656 934.79 263.992 935.43 264.664C936.07 265.336 936.39 266.136 936.39 267.064C936.39 267.96 936.07 268.728 935.43 269.368C934.79 270.04 934.022 270.376 933.126 270.376ZM924.822 270.376C923.894 270.376 923.094 270.04 922.422 269.368C921.782 268.728 921.462 267.96 921.462 267.064C921.462 266.136 921.782 265.336 922.422 264.664C923.094 263.992 923.894 263.656 924.822 263.656C925.718 263.656 926.486 263.992 927.126 264.664C927.766 265.336 928.086 266.136 928.086 267.064C928.086 267.96 927.766 268.728 927.126 269.368C926.486 270.04 925.718 270.376 924.822 270.376ZM970.767 259.24C969.295 259.24 967.919 259.128 966.639 258.904C965.391 258.68 964.239 258.296 963.183 257.752C962.127 257.176 961.183 256.392 960.351 255.4C959.551 254.408 958.879 253.16 958.335 251.656L962.127 248.632C962.703 249.656 963.407 250.456 964.239 251.032C965.071 251.576 966.063 251.96 967.215 252.184C968.367 252.408 969.711 252.52 971.247 252.52C972.463 252.52 973.327 252.84 973.839 253.48C974.351 254.088 974.607 254.856 974.607 255.784C974.607 256.776 974.271 257.608 973.599 258.28C972.959 258.92 972.015 259.24 970.767 259.24ZM939.375 259.24L939.855 252.52C941.583 252.52 943.295 252.424 944.991 252.232C946.687 252.04 948.335 251.752 949.935 251.368C951.535 250.984 953.055 250.488 954.495 249.88C955.967 249.272 957.343 248.536 958.623 247.672C957.663 247.096 956.623 246.6 955.503 246.184C954.383 245.768 953.183 245.464 951.903 245.272C950.655 245.048 949.327 244.936 947.919 244.936C947.407 244.936 946.863 244.952 946.287 244.984C945.743 245.016 945.183 245.08 944.607 245.176C944.031 245.24 943.455 245.336 942.879 245.464L941.919 238.888C942.847 238.632 943.823 238.456 944.847 238.36C945.903 238.232 946.831 238.168 947.631 238.168C949.359 238.168 950.943 238.36 952.383 238.744C953.855 239.128 955.199 239.608 956.415 240.184C957.663 240.76 958.815 241.336 959.871 241.912C960.959 242.488 961.983 242.968 962.943 243.352C963.935 243.736 964.895 243.928 965.823 243.928H967.599L968.367 250.312C966.991 250.376 965.695 250.648 964.479 251.128C963.295 251.576 962.111 252.152 960.927 252.856C959.775 253.528 958.527 254.232 957.183 254.968C955.871 255.704 954.383 256.392 952.719 257.032C951.055 257.672 949.135 258.2 946.959 258.616C944.783 259.032 942.255 259.24 939.375 259.24ZM1007.31 259.24C1005.68 259.24 1004.11 259.096 1002.61 258.808C1001.1 258.488 999.741 258.072 998.525 257.56C997.341 257.048 996.365 256.472 995.597 255.832L999.917 251.176C1001.07 251.656 1002.25 252.008 1003.47 252.232C1004.69 252.424 1006.13 252.52 1007.79 252.52C1009.01 252.52 1009.87 252.84 1010.38 253.48C1010.93 254.088 1011.2 254.856 1011.2 255.784C1011.2 256.776 1010.86 257.608 1010.19 258.28C1009.52 258.92 1008.56 259.24 1007.31 259.24ZM970.781 259.24L971.261 252.52H982.013C985.021 252.52 987.517 252.408 989.501 252.184C991.517 251.96 993.117 251.64 994.301 251.224C995.485 250.776 996.317 250.264 996.797 249.688C997.309 249.112 997.565 248.488 997.565 247.816C997.565 247.208 997.421 246.632 997.133 246.088C996.845 245.512 996.413 245.048 995.837 244.696C995.261 244.344 994.509 244.168 993.581 244.168C992.397 244.168 991.213 244.456 990.029 245.032C988.845 245.576 987.693 246.328 986.573 247.288C985.453 248.216 984.381 249.256 983.357 250.408C982.365 251.56 981.453 252.728 980.621 253.912L973.373 252.904C974.717 250.824 976.173 248.856 977.741 247C979.341 245.112 981.021 243.464 982.781 242.056C984.573 240.616 986.413 239.496 988.301 238.696C990.221 237.864 992.173 237.448 994.157 237.448C996.269 237.448 998.077 237.88 999.581 238.744C1001.09 239.608 1002.24 240.792 1003.04 242.296C1003.87 243.8 1004.29 245.544 1004.29 247.528C1004.29 249.608 1003.69 251.48 1002.51 253.144C1001.36 254.808 999.389 256.184 996.605 257.272C995.421 257.72 994.141 258.088 992.765 258.376C991.389 258.664 989.773 258.872 987.917 259C986.061 259.16 983.837 259.24 981.245 259.24H970.781ZM975.773 254.344L974.765 223.864H981.485L982.349 246.904L975.773 254.344ZM1007.34 259.24L1007.82 252.52C1009.3 252.52 1010.35 252.376 1010.99 252.088C1011.63 251.768 1012.02 251.192 1012.14 250.36C1012.27 249.496 1012.3 248.248 1012.24 246.616L1011.38 223.864H1018.14L1019.1 247.096C1019.17 248.952 1019.09 250.632 1018.86 252.136C1018.67 253.608 1018.18 254.872 1017.38 255.928C1016.61 256.984 1015.41 257.8 1013.78 258.376C1012.18 258.952 1010.03 259.24 1007.34 259.24ZM1025.43 259L1024.43 223.864H1031.15L1032.15 259H1025.43ZM1064.64 259.144C1062.85 259.144 1061.23 258.84 1059.79 258.232C1058.39 257.592 1057.27 256.648 1056.43 255.4C1055.63 254.12 1055.23 252.536 1055.23 250.648C1055.23 248.76 1055.87 246.664 1057.15 244.36C1058.43 242.024 1060.58 239.688 1063.59 237.352L1063.11 241.768L1058.79 238.408L1063.3 232.888C1065.73 234.744 1067.81 236.552 1069.54 238.312C1071.3 240.04 1072.64 241.816 1073.57 243.64C1074.5 245.464 1074.96 247.4 1074.96 249.448C1074.96 250.44 1074.8 251.512 1074.48 252.664C1074.16 253.784 1073.62 254.84 1072.85 255.832C1072.08 256.792 1071.03 257.592 1069.68 258.232C1068.37 258.84 1066.69 259.144 1064.64 259.144ZM1065.17 252.52C1065.97 252.52 1066.61 252.36 1067.09 252.04C1067.6 251.72 1067.99 251.304 1068.24 250.792C1068.5 250.28 1068.63 249.736 1068.63 249.16C1068.63 248.584 1068.5 247.96 1068.24 247.288C1067.99 246.616 1067.49 245.864 1066.75 245.032C1066.02 244.2 1064.93 243.24 1063.49 242.152L1067.14 241.672C1065.83 242.568 1064.77 243.48 1063.97 244.408C1063.17 245.336 1062.59 246.232 1062.24 247.096C1061.92 247.928 1061.76 248.696 1061.76 249.4C1061.76 250.424 1062.1 251.208 1062.77 251.752C1063.44 252.264 1064.24 252.52 1065.17 252.52ZM1069.11 229.288C1068.18 229.288 1067.38 228.968 1066.71 228.328C1066.07 227.656 1065.75 226.872 1065.75 225.976C1065.75 225.048 1066.07 224.248 1066.71 223.576C1067.38 222.904 1068.18 222.568 1069.11 222.568C1070 222.568 1070.77 222.904 1071.41 223.576C1072.05 224.248 1072.37 225.048 1072.37 225.976C1072.37 226.872 1072.05 227.656 1071.41 228.328C1070.77 228.968 1070 229.288 1069.11 229.288ZM1060.8 229.24C1059.87 229.24 1059.07 228.92 1058.4 228.28C1057.76 227.608 1057.44 226.824 1057.44 225.928C1057.44 225 1057.76 224.2 1058.4 223.528C1059.07 222.856 1059.87 222.52 1060.8 222.52C1061.7 222.52 1062.47 222.856 1063.11 223.528C1063.75 224.2 1064.07 225 1064.07 225.928C1064.07 226.824 1063.75 227.608 1063.11 228.28C1062.47 228.92 1061.7 229.24 1060.8 229.24ZM1079.27 270.04L1077.88 263.32C1080.15 263.032 1082.13 262.68 1083.83 262.264C1085.52 261.88 1086.95 261.336 1088.1 260.632C1089.25 259.928 1090.12 258.968 1090.69 257.752C1091.27 256.504 1091.56 254.904 1091.56 252.952C1091.56 252.248 1091.49 251.544 1091.36 250.84C1091.24 250.104 1091.04 249.432 1090.79 248.824C1090.53 248.216 1090.2 247.72 1089.78 247.336C1089.4 246.952 1088.93 246.76 1088.39 246.76C1087.81 246.76 1087.3 246.968 1086.85 247.384C1086.4 247.768 1086.05 248.264 1085.8 248.872C1085.54 249.448 1085.41 250.04 1085.41 250.648C1085.41 251.096 1085.52 251.48 1085.75 251.8C1085.97 252.088 1086.31 252.312 1086.76 252.472C1087.2 252.6 1087.76 252.664 1088.44 252.664C1089.2 252.664 1089.99 252.584 1090.79 252.424C1091.62 252.232 1092.37 251.976 1093.04 251.656L1093.24 256.888C1092.47 257.496 1091.59 258.04 1090.6 258.52C1089.6 258.968 1088.4 259.192 1087 259.192C1085.84 259.192 1084.77 259.064 1083.78 258.808C1082.79 258.52 1081.91 258.088 1081.14 257.512C1080.4 256.936 1079.83 256.2 1079.41 255.304C1079 254.376 1078.79 253.272 1078.79 251.992C1078.79 250.424 1079.04 248.904 1079.56 247.432C1080.07 245.96 1080.77 244.648 1081.67 243.496C1082.6 242.312 1083.65 241.384 1084.84 240.712C1086.05 240.008 1087.33 239.656 1088.68 239.656C1090.28 239.656 1091.67 240.056 1092.85 240.856C1094.07 241.656 1095.08 242.712 1095.88 244.024C1096.68 245.304 1097.28 246.696 1097.7 248.2C1098.12 249.704 1098.32 251.144 1098.32 252.52C1098.32 256.136 1097.56 259.208 1096.02 261.736C1094.48 264.264 1092.29 266.216 1089.44 267.592C1086.6 269 1083.2 269.816 1079.27 270.04ZM1133.08 259.24C1130.84 259.24 1128.98 259.08 1127.51 258.76C1126.07 258.408 1124.93 257.88 1124.1 257.176C1123.27 256.44 1122.68 255.528 1122.33 254.44C1121.97 253.352 1121.77 252.056 1121.7 250.552L1120.69 223.864H1127.41L1128.42 247.336C1128.49 248.808 1128.65 249.912 1128.9 250.648C1129.16 251.384 1129.64 251.88 1130.34 252.136C1131.08 252.392 1132.15 252.52 1133.56 252.52C1134.77 252.52 1135.64 252.84 1136.15 253.48C1136.69 254.088 1136.97 254.856 1136.97 255.784C1136.97 256.776 1136.63 257.608 1135.96 258.28C1135.29 258.92 1134.33 259.24 1133.08 259.24ZM1107.25 259.24C1106.39 259.24 1105.51 259.16 1104.61 259C1103.75 258.872 1103.14 258.776 1102.79 258.712L1103.7 251.752C1105.91 252.04 1108.05 252.104 1110.13 251.944C1112.25 251.752 1114.13 251.24 1115.8 250.408C1117.49 249.544 1118.84 248.296 1119.83 246.664C1120.82 245 1121.32 242.856 1121.32 240.232L1123.91 247.768C1123.53 249.944 1122.87 251.752 1121.94 253.192C1121.05 254.6 1119.97 255.72 1118.73 256.552C1117.51 257.352 1116.21 257.944 1114.84 258.328C1113.46 258.712 1112.12 258.952 1110.81 259.048C1109.49 259.176 1108.31 259.24 1107.25 259.24ZM1117.67 252.664C1117.19 251.736 1116.5 250.648 1115.61 249.4C1114.71 248.12 1113.61 246.712 1112.29 245.176C1111.01 243.608 1109.54 241.96 1107.88 240.232C1106.21 238.472 1104.37 236.664 1102.36 234.808L1106.53 230.248C1109.51 233.064 1111.93 235.432 1113.78 237.352C1115.64 239.272 1117.11 240.888 1118.2 242.2C1119.32 243.48 1120.17 244.584 1120.74 245.512C1121.35 246.44 1121.86 247.336 1122.28 248.2L1117.67 252.664ZM1164.5 259.24C1163.03 259.24 1161.65 259.128 1160.37 258.904C1159.13 258.68 1157.97 258.296 1156.92 257.752C1155.86 257.176 1154.92 256.392 1154.09 255.4C1153.29 254.408 1152.61 253.16 1152.07 251.656L1155.86 248.632C1156.44 249.656 1157.14 250.456 1157.97 251.032C1158.81 251.576 1159.8 251.96 1160.95 252.184C1162.1 252.408 1163.45 252.52 1164.98 252.52C1166.2 252.52 1167.06 252.84 1167.57 253.48C1168.09 254.088 1168.34 254.856 1168.34 255.784C1168.34 256.776 1168.01 257.608 1167.33 258.28C1166.69 258.92 1165.75 259.24 1164.5 259.24ZM1133.11 259.24L1133.59 252.52C1135.32 252.52 1137.03 252.424 1138.73 252.232C1140.42 252.04 1142.07 251.752 1143.67 251.368C1145.27 250.984 1146.79 250.488 1148.23 249.88C1149.7 249.272 1151.08 248.536 1152.36 247.672C1151.4 247.096 1150.36 246.6 1149.24 246.184C1148.12 245.768 1146.92 245.464 1145.64 245.272C1144.39 245.048 1143.06 244.936 1141.65 244.936C1141.14 244.936 1140.6 244.952 1140.02 244.984C1139.48 245.016 1138.92 245.08 1138.34 245.176C1137.77 245.24 1137.19 245.336 1136.61 245.464L1135.65 238.888C1136.58 238.632 1137.56 238.456 1138.58 238.36C1139.64 238.232 1140.57 238.168 1141.37 238.168C1143.09 238.168 1144.68 238.36 1146.12 238.744C1147.59 239.128 1148.93 239.608 1150.15 240.184C1151.4 240.76 1152.55 241.336 1153.61 241.912C1154.69 242.488 1155.72 242.968 1156.68 243.352C1157.67 243.736 1158.63 243.928 1159.56 243.928H1161.33L1162.1 250.312C1160.73 250.376 1159.43 250.648 1158.21 251.128C1157.03 251.576 1155.85 252.152 1154.66 252.856C1153.51 253.528 1152.26 254.232 1150.92 254.968C1149.61 255.704 1148.12 256.392 1146.45 257.032C1144.79 257.672 1142.87 258.2 1140.69 258.616C1138.52 259.032 1135.99 259.24 1133.11 259.24ZM1164.52 259.24L1165 252.52C1166.47 252.52 1167.52 252.376 1168.16 252.088C1168.8 251.768 1169.19 251.192 1169.32 250.36C1169.44 249.496 1169.48 248.248 1169.41 246.616L1168.55 223.864H1175.32L1176.28 247.096C1176.34 248.952 1176.26 250.632 1176.04 252.136C1175.84 253.608 1175.35 254.872 1174.55 255.928C1173.78 256.984 1172.58 257.8 1170.95 258.376C1169.35 258.952 1167.2 259.24 1164.52 259.24ZM1182.61 259L1181.6 223.864H1188.32L1189.33 259H1182.61Z" fill="#020202"/>
<path d="M878.812 50.1484V67H872.461V50.1016C872.461 47.6797 871.938 45.9922 870.891 45.0391C869.859 44.0703 868.117 43.5859 865.664 43.5859H855.914V37.9141H866.039C869.117 37.9141 871.586 38.3281 873.445 39.1562C875.32 39.9688 876.68 41.2734 877.523 43.0703C878.383 44.8516 878.812 47.2109 878.812 50.1484ZM911.695 61.3281V67H884.578V61.3281H902.25V50.9688C902.25 48.2344 901.734 46.3203 900.703 45.2266C899.688 44.1328 897.945 43.5859 895.477 43.5859H885.68V37.9141H895.57C900.133 37.9141 903.438 38.8672 905.484 40.7734C907.547 42.6797 908.578 45.8047 908.578 50.1484V61.3281H911.695ZM916.945 61.5859C920.758 60.3359 923.836 58.7578 926.18 56.8516C927.805 55.5547 929.047 54.1406 929.906 52.6094C930.766 51.0625 931.195 49.4453 931.195 47.7578C931.195 44.9766 929.453 43.5859 925.969 43.5859H914.062V27.9766H920.531V37.9141H927.023C934.055 37.9141 937.57 40.9844 937.57 47.125C937.57 50.0625 936.875 52.8125 935.484 55.375C934.109 57.9219 932.141 60.1953 929.578 62.1953C926.203 64.8203 921.992 66.8828 916.945 68.3828V61.5859ZM964.289 50.9219C964.289 48.2969 963.789 46.4219 962.789 45.2969C961.789 44.1562 960.039 43.5859 957.539 43.5859H951.281V67H944.953V37.9141H957.539C962.164 37.9141 965.5 38.875 967.547 40.7969C969.609 42.7031 970.641 45.8203 970.641 50.1484V67H964.289V50.9219Z" fill="#020202"/>
<path d="M592.664 125.224H597.896V129.16C597.896 137.992 594.056 145.768 585.608 148.696L582.2 143.656C589.64 141.16 592.664 135.208 592.664 129.16V125.224ZM593.96 125.224H599.144V129.784C599.144 135.112 602.12 140.296 609.08 142.456L605.768 147.4C597.752 144.712 593.96 137.8 593.96 129.784V125.224ZM611.528 122.824H617.912V149.08H611.528V122.824ZM616.136 133.096H623.816V138.376H616.136V133.096ZM603.416 150.088C612.632 150.088 618.44 153.304 618.44 158.68C618.44 164.104 612.632 167.272 603.416 167.272C594.152 167.272 588.344 164.104 588.344 158.68C588.344 153.304 594.152 150.088 603.416 150.088ZM603.416 155.032C597.752 155.032 594.68 156.232 594.68 158.68C594.68 161.176 597.752 162.328 603.416 162.328C609.08 162.328 612.104 161.176 612.104 158.68C612.104 156.232 609.08 155.032 603.416 155.032ZM636.964 147.016H643.348V158.968H636.964V147.016ZM650.932 147.064H657.268V159.016H650.932V147.064ZM627.124 157.24H667.348V162.424H627.124V157.24ZM630.196 126.328H664.036V131.416H630.196V126.328ZM630.388 143.896H663.892V148.936H630.388V143.896ZM636.244 130.552H642.628V144.616H636.244V130.552ZM651.652 130.552H657.988V144.616H651.652V130.552Z" fill="#020202"/>
<path d="M599.288 42.376C603.448 42.376 606.6 43.464 608.744 45.64C610.888 47.784 611.96 50.952 611.96 55.144V67H605V55.144C605 53.064 604.424 51.48 603.272 50.392C602.152 49.272 600.504 48.712 598.328 48.712C596.824 48.712 595.464 49.064 594.248 49.768C593.032 50.472 592.104 51.416 591.464 52.6V67H584.504V33.592H591.464V45.016C593.608 43.256 596.216 42.376 599.288 42.376ZM649.157 60.904V67H645.077C643.605 67 642.325 66.76 641.237 66.28C640.181 65.768 639.381 65.048 638.837 64.12C636.405 66.424 632.949 67.576 628.469 67.576C625.077 67.576 622.437 66.936 620.549 65.656C618.661 64.376 617.717 62.584 617.717 60.28C617.717 58.328 618.421 56.776 619.829 55.624C621.237 54.44 623.285 53.704 625.973 53.416L637.829 52.12C637.445 49.752 635.301 48.568 631.397 48.568C629.349 48.568 627.749 48.856 626.597 49.432C625.477 49.976 624.917 50.744 624.917 51.736V51.88H617.909V51.736C617.909 49.848 618.453 48.2 619.541 46.792C620.661 45.384 622.245 44.296 624.293 43.528C626.341 42.76 628.725 42.376 631.445 42.376C635.669 42.376 638.949 43.32 641.285 45.208C643.653 47.096 644.837 49.704 644.837 53.032V58.984C644.837 60.264 645.573 60.904 647.045 60.904H649.157ZM628.949 62.008C630.997 62.008 632.805 61.704 634.373 61.096C635.973 60.456 637.141 59.608 637.877 58.552V56.92L627.797 58.072C626.741 58.2 625.957 58.424 625.445 58.744C624.933 59.064 624.677 59.512 624.677 60.088C624.677 61.368 626.101 62.008 628.949 62.008ZM680.108 42.952V67H673.628L673.436 64.696C671.324 66.552 668.62 67.512 665.324 67.576C661.196 67.608 658.044 66.552 655.868 64.408C653.724 62.232 652.652 59.032 652.652 54.808V42.952H659.612V54.808C659.612 56.888 660.172 58.488 661.292 59.608C662.444 60.696 664.108 61.24 666.284 61.24C667.788 61.24 669.148 60.904 670.364 60.232C671.58 59.528 672.508 58.584 673.148 57.4V42.952H680.108ZM705.641 42.952V49.096H700.265C697.257 49.096 695.145 49.848 693.929 51.352V67H687.017V42.952H693.497L693.689 45.16C695.705 43.688 698.201 42.952 701.177 42.952H705.641ZM736.921 42.952V67H730.441L730.249 64.696C728.137 66.552 725.433 67.512 722.137 67.576C718.009 67.608 714.857 66.552 712.681 64.408C710.537 62.232 709.465 59.032 709.465 54.808V42.952H716.425V54.808C716.425 56.888 716.985 58.488 718.105 59.608C719.257 60.696 720.921 61.24 723.097 61.24C724.601 61.24 725.961 60.904 727.177 60.232C728.393 59.528 729.321 58.584 729.961 57.4V42.952H736.921ZM773.798 60.904V67H769.718C768.246 67 766.966 66.76 765.878 66.28C764.822 65.768 764.022 65.048 763.478 64.12C761.046 66.424 757.59 67.576 753.11 67.576C749.718 67.576 747.078 66.936 745.19 65.656C743.302 64.376 742.358 62.584 742.358 60.28C742.358 58.328 743.062 56.776 744.47 55.624C745.878 54.44 747.926 53.704 750.614 53.416L762.47 52.12C762.086 49.752 759.942 48.568 756.038 48.568C753.99 48.568 752.39 48.856 751.238 49.432C750.118 49.976 749.558 50.744 749.558 51.736V51.88H742.55V51.736C742.55 49.848 743.094 48.2 744.182 46.792C745.302 45.384 746.886 44.296 748.934 43.528C750.982 42.76 753.366 42.376 756.086 42.376C760.31 42.376 763.59 43.32 765.926 45.208C768.294 47.096 769.478 49.704 769.478 53.032V58.984C769.478 60.264 770.214 60.904 771.686 60.904H773.798ZM753.59 62.008C755.638 62.008 757.446 61.704 759.014 61.096C760.614 60.456 761.782 59.608 762.518 58.552V56.92L752.438 58.072C751.382 58.2 750.598 58.424 750.086 58.744C749.574 59.064 749.318 59.512 749.318 60.088C749.318 61.368 750.742 62.008 753.59 62.008Z" fill="#020202"/>
<path d="M591.8 234.952H617.912V240.28H591.8V234.952ZM591.8 245.224H617.912V250.552H591.8V245.224ZM591.8 255.544H617.912V260.872H591.8V255.544ZM587.864 224.488H622.76V263.176H616.616V230.008H593.72V263.272H587.864V224.488ZM601.496 218.2L608.456 218.92C607.304 222.136 605.912 225.304 604.856 227.416L599.576 226.456C600.344 224.056 601.16 220.696 601.496 218.2ZM631.784 249.304H654.2V253.384H631.784V249.304ZM630.68 226.456H654.68V230.632H630.68V226.456ZM640.232 223.048H645.416V257.464H640.232V223.048ZM630.44 256.936C636.392 256.504 645.56 255.832 654.2 255.064L654.248 259.432C646.088 260.296 637.352 261.16 631.112 261.736L630.44 256.936ZM636.536 241.624V243.832H649.208V241.624H636.536ZM636.536 236.104V238.264H649.208V236.104H636.536ZM631.928 232.504H653.96V247.432H631.928V232.504ZM651.608 218.488L654.152 222.808C648.008 224.056 639.272 224.776 632.072 224.92C631.88 223.768 631.352 221.944 630.824 220.84C637.976 220.504 646.328 219.64 651.608 218.488ZM654.68 229.096H671.288V234.376H654.68V229.096ZM668.984 229.096H674.504C674.504 229.096 674.456 230.968 674.456 231.64C674.024 251.416 673.64 258.424 672.056 260.584C671 262.216 669.896 262.744 668.312 263.032C666.824 263.32 664.568 263.32 662.312 263.224C662.168 261.64 661.544 259.288 660.632 257.752C662.696 257.944 664.52 257.944 665.48 257.944C666.2 257.944 666.68 257.8 667.112 257.128C668.216 255.688 668.6 248.92 668.984 230.344V229.096ZM659.288 219.064H664.808C664.76 239.56 664.712 254.968 653.624 263.704C652.808 262.312 650.936 260.344 649.64 259.384C659.768 251.656 659.24 238.216 659.288 219.064ZM680.312 222.184H721.592V227.416H680.312V222.184ZM679.16 251.704H723.032V256.888H679.16V251.704ZM697.832 218.248H703.784V263.368H697.832V218.248ZM689.48 241.528V244.504H712.184V241.528H689.48ZM689.48 234.328V237.256H712.184V234.328H689.48ZM683.96 229.72H717.992V249.112H683.96V229.72Z" fill="#020202"/>
<rect x="2" y="2" width="1220" height="297" stroke="#020202" stroke-width="4"/>
<line x1="3" y1="193" x2="1224" y2="193" stroke="#020202" stroke-width="4"/>
<line x1="3" y1="97" x2="1224" y2="97" stroke="#020202" stroke-width="4"/>
<line x1="271" y1="2" x2="271" y2="301" stroke="#020202" stroke-width="4"/>
<line x1="543" y1="8.80115e-08" x2="543" y2="297" stroke="#020202" stroke-width="4"/>
<line x1="817" y1="8.80115e-08" x2="817" y2="297" stroke="#020202" stroke-width="4"/>
</svg>
