<svg width="237" height="77" viewBox="0 0 237 77" fill="none" xmlns="http://www.w3.org/2000/svg">
<circle cx="30" cy="50" r="10" fill="#A2B1FF"/>
<circle cx="185" cy="50" r="27" fill="#A2B1FF"/>
<path d="M108 51L118 56.7735V45.2265L108 51ZM158 50L117 50V52L158 52V50Z" fill="#020202"/>
<path d="M90 51L80 45.2265V56.7735L90 51ZM40 52H81V50H40V52Z" fill="#020202"/>
<path d="M12.39 19.395C13.43 19.395 14.24 19.655 14.82 20.175C15.41 20.685 15.705 21.385 15.705 22.275C15.705 22.555 15.665 22.88 15.585 23.25L14.76 27H13.305L14.175 23.145C14.235 22.885 14.265 22.65 14.265 22.44C14.265 21.88 14.09 21.45 13.74 21.15C13.4 20.84 12.915 20.685 12.285 20.685C11.695 20.685 11.125 20.83 10.575 21.12C10.025 21.4 9.575 21.79 9.225 22.29C9.225 22.61 9.19 22.93 9.12 23.25L8.295 27H6.84L7.695 23.145C7.755 22.885 7.785 22.645 7.785 22.425C7.785 21.875 7.615 21.45 7.275 21.15C6.935 20.84 6.45 20.685 5.82 20.685C5.25 20.685 4.71 20.82 4.2 21.09C3.69 21.35 3.26 21.71 2.91 22.17L1.83 27H0.36L2.025 19.575H3.315L3.21 20.49C4.05 19.76 5.01 19.395 6.09 19.395C6.78 19.395 7.365 19.525 7.845 19.785C8.335 20.045 8.7 20.415 8.94 20.895C9.38 20.405 9.89 20.035 10.47 19.785C11.06 19.525 11.7 19.395 12.39 19.395ZM19.806 27.375L20.571 23.895C20.281 24.045 19.911 24.12 19.461 24.12H17.571L17.826 22.965H19.656C20.046 22.965 20.341 22.91 20.541 22.8C20.751 22.69 20.881 22.52 20.931 22.29H22.326L21.201 27.375H23.826L23.571 28.485H16.596L16.851 27.375H19.806Z" fill="#020202"/>
<path d="M82.205 13.16L81.92 14.465H74.96L74.27 17.555H80.915L80.63 18.86H73.985L73.055 23H71.54L73.73 13.16H82.205ZM84.7415 23.375L85.5065 19.895C85.2165 20.045 84.8465 20.12 84.3965 20.12H82.5065L82.7615 18.965H84.5915C84.9815 18.965 85.2765 18.91 85.4765 18.8C85.6865 18.69 85.8165 18.52 85.8665 18.29H87.2615L86.1365 23.375H88.7615L88.5065 24.485H81.5315L81.7865 23.375H84.7415Z" fill="#020202"/>
<path d="M224.39 15.395C225.43 15.395 226.24 15.655 226.82 16.175C227.41 16.685 227.705 17.385 227.705 18.275C227.705 18.555 227.665 18.88 227.585 19.25L226.76 23H225.305L226.175 19.145C226.235 18.885 226.265 18.65 226.265 18.44C226.265 17.88 226.09 17.45 225.74 17.15C225.4 16.84 224.915 16.685 224.285 16.685C223.695 16.685 223.125 16.83 222.575 17.12C222.025 17.4 221.575 17.79 221.225 18.29C221.225 18.61 221.19 18.93 221.12 19.25L220.295 23H218.84L219.695 19.145C219.755 18.885 219.785 18.645 219.785 18.425C219.785 17.875 219.615 17.45 219.275 17.15C218.935 16.84 218.45 16.685 217.82 16.685C217.25 16.685 216.71 16.82 216.2 17.09C215.69 17.35 215.26 17.71 214.91 18.17L213.83 23H212.36L214.025 15.575H215.315L215.21 16.49C216.05 15.76 217.01 15.395 218.09 15.395C218.78 15.395 219.365 15.525 219.845 15.785C220.335 16.045 220.7 16.415 220.94 16.895C221.38 16.405 221.89 16.035 222.47 15.785C223.06 15.525 223.7 15.395 224.39 15.395ZM232.571 21.785C233.231 21.515 233.686 21.285 233.936 21.095C234.186 20.895 234.326 20.67 234.356 20.42L234.371 20.33C234.421 20 234.301 19.74 234.011 19.55C233.721 19.36 233.301 19.265 232.751 19.265C231.581 19.265 230.906 19.64 230.726 20.39L230.681 20.585H229.316L229.361 20.39C229.531 19.66 229.906 19.11 230.486 18.74C231.066 18.36 231.831 18.17 232.781 18.17C233.701 18.17 234.426 18.345 234.956 18.695C235.496 19.045 235.766 19.505 235.766 20.075C235.766 20.135 235.756 20.235 235.736 20.375L235.721 20.495C235.651 20.925 235.426 21.3 235.046 21.62C234.666 21.94 234.021 22.29 233.111 22.67L231.221 23.45H235.286L235.061 24.5H228.386L228.626 23.435L232.571 21.785Z" fill="#020202"/>
<path d="M125.205 13.16L124.92 14.465H117.96L117.27 17.555H123.915L123.63 18.86H116.985L116.055 23H114.54L116.73 13.16H125.205ZM128.507 21.785C129.167 21.515 129.622 21.285 129.872 21.095C130.122 20.895 130.262 20.67 130.292 20.42L130.307 20.33C130.357 20 130.237 19.74 129.947 19.55C129.657 19.36 129.237 19.265 128.687 19.265C127.517 19.265 126.842 19.64 126.662 20.39L126.617 20.585H125.252L125.297 20.39C125.467 19.66 125.842 19.11 126.422 18.74C127.002 18.36 127.767 18.17 128.717 18.17C129.637 18.17 130.362 18.345 130.892 18.695C131.432 19.045 131.702 19.505 131.702 20.075C131.702 20.135 131.692 20.235 131.672 20.375L131.657 20.495C131.587 20.925 131.362 21.3 130.982 21.62C130.602 21.94 129.957 22.29 129.047 22.67L127.157 23.45H131.222L130.997 24.5H124.322L124.562 23.435L128.507 21.785Z" fill="#020202"/>
<path d="M82.866 7.061V7.269L79.499 10.623H78.251V10.402L80.955 7.711H74.949V6.606H80.942L78.251 3.915V3.707H79.499L82.866 7.061Z" fill="#020202"/>
<path d="M124.866 7.061V7.269L121.499 10.623H120.251V10.402L122.955 7.711H116.949V6.606H122.942L120.251 3.915V3.707H121.499L124.866 7.061Z" fill="#020202"/>
</svg>
