<svg width="1231" height="401" viewBox="0 0 1231 401" fill="none" xmlns="http://www.w3.org/2000/svg">
<rect x="929" y="158" width="300" height="240" stroke="#020202" stroke-width="4"/>
<rect x="457" y="331" width="472" height="68" stroke="#020202" stroke-width="4"/>
<rect x="457" y="159" width="472" height="172" stroke="#020202" stroke-width="4"/>
<rect x="457" y="49" width="772" height="110" stroke="#020202" stroke-width="4"/>
<path d="M605.264 197.168C609.787 197.168 613.328 198.341 615.888 200.688C618.491 202.992 619.792 206.128 619.792 210.096C619.792 211.376 619.621 212.827 619.28 214.448L615.888 230H606.416L610.064 213.936C610.277 212.997 610.384 212.208 610.384 211.568C610.384 209.605 609.744 208.091 608.464 207.024C607.184 205.957 605.371 205.424 603.024 205.424C600.976 205.424 599.056 205.872 597.264 206.768C595.472 207.664 594 208.923 592.848 210.544L588.496 230H579.088L589.008 185.456H598.416L595.088 200.304C598.16 198.213 601.552 197.168 605.264 197.168ZM667.084 222.064L665.42 230H660.876C659.127 230 657.569 229.68 656.204 229.04C654.881 228.4 653.879 227.504 653.196 226.352C649.527 229.296 644.748 230.768 638.86 230.768C634.721 230.768 631.479 230.021 629.132 228.528C626.828 226.992 625.676 224.88 625.676 222.192C625.676 221.381 625.761 220.635 625.932 219.952C626.529 217.392 627.895 215.493 630.028 214.256C632.204 212.976 635.063 212.165 638.604 211.824L654.604 210.224C654.689 208.603 654.049 207.365 652.684 206.512C651.319 205.616 649.313 205.168 646.668 205.168C644.108 205.168 642.017 205.573 640.396 206.384C638.775 207.195 637.857 208.283 637.644 209.648L637.58 209.84H628.108L628.172 209.648C628.812 205.765 630.817 202.715 634.188 200.496C637.601 198.277 641.953 197.168 647.244 197.168C650.7 197.168 653.687 197.659 656.204 198.64C658.721 199.579 660.641 200.944 661.964 202.736C663.329 204.528 664.012 206.597 664.012 208.944C664.012 209.755 663.905 210.736 663.692 211.888L662.028 219.504C661.985 219.675 661.964 219.909 661.964 220.208C661.964 221.445 662.775 222.064 664.396 222.064H667.084ZM634.828 221.296C634.828 222.832 636.556 223.6 640.012 223.6C642.657 223.6 645.132 223.173 647.436 222.32C649.783 221.467 651.596 220.336 652.876 218.928L653.388 216.56L639.436 218.032C637.815 218.203 636.641 218.544 635.916 219.056C635.191 219.568 634.828 220.315 634.828 221.296ZM681.665 230C678.763 230 676.502 229.317 674.881 227.952C673.259 226.544 672.449 224.624 672.449 222.192C672.449 221.296 672.534 220.443 672.705 219.632L680.129 185.456H689.537L681.985 219.184C681.899 219.611 681.857 219.931 681.857 220.144C681.857 221.424 682.731 222.064 684.481 222.064H687.233L685.505 230H681.665ZM735.283 197.936L734.963 199.28L713.075 230H700.851L692.595 199.28L692.915 197.936H702.131L708.083 221.68L724.722 197.936H735.283ZM775.584 222.064L773.92 230H769.376C767.627 230 766.069 229.68 764.704 229.04C763.381 228.4 762.379 227.504 761.696 226.352C758.027 229.296 753.248 230.768 747.36 230.768C743.221 230.768 739.979 230.021 737.632 228.528C735.328 226.992 734.176 224.88 734.176 222.192C734.176 221.381 734.261 220.635 734.432 219.952C735.029 217.392 736.395 215.493 738.528 214.256C740.704 212.976 743.563 212.165 747.104 211.824L763.104 210.224C763.189 208.603 762.549 207.365 761.184 206.512C759.819 205.616 757.813 205.168 755.168 205.168C752.608 205.168 750.517 205.573 748.896 206.384C747.275 207.195 746.357 208.283 746.144 209.648L746.08 209.84H736.608L736.672 209.648C737.312 205.765 739.317 202.715 742.688 200.496C746.101 198.277 750.453 197.168 755.744 197.168C759.2 197.168 762.187 197.659 764.704 198.64C767.221 199.579 769.141 200.944 770.464 202.736C771.829 204.528 772.512 206.597 772.512 208.944C772.512 209.755 772.405 210.736 772.192 211.888L770.528 219.504C770.485 219.675 770.464 219.909 770.464 220.208C770.464 221.445 771.275 222.064 772.896 222.064H775.584ZM743.328 221.296C743.328 222.832 745.056 223.6 748.512 223.6C751.157 223.6 753.632 223.173 755.936 222.32C758.283 221.467 760.096 220.336 761.376 218.928L761.888 216.56L747.936 218.032C746.315 218.203 745.141 218.544 744.416 219.056C743.691 219.568 743.328 220.315 743.328 221.296ZM810.773 197.936L809.045 205.872H802.197C798.143 205.872 795.007 206.939 792.789 209.072L788.117 230H778.645L785.812 197.936H794.197L793.941 200.688C796.799 198.853 800.149 197.936 803.989 197.936H810.773Z" fill="#020202"/>
<path d="M515.56 91.552C520.125 91.552 523.667 92.6613 526.184 94.88C528.744 97.0987 530.024 100.149 530.024 104.032C530.024 105.397 529.875 106.763 529.576 108.128L526.12 124H519.912L523.56 107.744C523.773 106.891 523.88 105.931 523.88 104.864C523.88 102.347 523.069 100.427 521.448 99.104C519.827 97.7387 517.523 97.056 514.536 97.056C512.019 97.056 509.629 97.632 507.368 98.784C505.107 99.8933 503.229 101.451 501.736 103.456L497.128 124H490.92L500.84 79.456H507.048L503.4 95.904C507.027 93.0027 511.08 91.552 515.56 91.552ZM577.7 118.752L576.612 124H573.028C571.151 124 569.551 123.595 568.228 122.784C566.948 121.973 566.095 120.885 565.668 119.52C561.785 123.019 556.729 124.768 550.5 124.768C546.361 124.768 543.119 124.043 540.772 122.592C538.468 121.141 537.316 119.136 537.316 116.576C537.316 115.851 537.401 115.168 537.572 114.528C538.169 111.925 539.556 110.005 541.732 108.768C543.951 107.531 546.873 106.741 550.5 106.4L567.908 104.736C567.993 104.224 568.036 103.819 568.036 103.52C568.036 101.515 567.14 99.9573 565.348 98.848C563.599 97.7387 561.124 97.184 557.924 97.184C554.639 97.184 551.929 97.7813 549.796 98.976C547.705 100.128 546.489 101.707 546.148 103.712L546.084 103.968H539.876V103.712C540.559 99.9573 542.543 96.992 545.828 94.816C549.113 92.64 553.273 91.552 558.308 91.552C563.215 91.552 567.076 92.576 569.892 94.624C572.751 96.672 574.18 99.424 574.18 102.88C574.18 103.648 574.073 104.608 573.86 105.76L571.812 115.168C571.727 115.68 571.684 116.021 571.684 116.192C571.684 117.003 571.961 117.643 572.516 118.112C573.071 118.539 573.881 118.752 574.948 118.752H577.7ZM550.628 119.456C554.041 119.456 557.092 118.901 559.78 117.792C562.511 116.683 564.644 115.125 566.18 113.12L566.884 109.664L550.5 111.264C548.239 111.477 546.532 111.904 545.38 112.544C544.271 113.184 543.609 114.101 543.396 115.296C543.353 115.467 543.332 115.701 543.332 116C543.332 118.304 545.764 119.456 550.628 119.456ZM592.857 124C590.254 124 588.249 123.403 586.841 122.208C585.433 121.013 584.729 119.349 584.729 117.216C584.729 116.533 584.835 115.701 585.049 114.72L592.729 79.456H598.937L591.129 114.592C591.001 115.104 590.937 115.573 590.937 116C590.937 116.939 591.235 117.643 591.833 118.112C592.43 118.539 593.347 118.752 594.585 118.752H597.337L596.185 124H592.857ZM644.939 92.32L644.747 93.216L621.963 124H613.899L604.811 93.216L605.003 92.32H611.019L618.571 118.816L638.027 92.32H644.939ZM686.2 118.752L685.112 124H681.528C679.651 124 678.051 123.595 676.728 122.784C675.448 121.973 674.595 120.885 674.168 119.52C670.285 123.019 665.229 124.768 659 124.768C654.861 124.768 651.619 124.043 649.272 122.592C646.968 121.141 645.816 119.136 645.816 116.576C645.816 115.851 645.901 115.168 646.072 114.528C646.669 111.925 648.056 110.005 650.232 108.768C652.451 107.531 655.373 106.741 659 106.4L676.408 104.736C676.493 104.224 676.536 103.819 676.536 103.52C676.536 101.515 675.64 99.9573 673.848 98.848C672.099 97.7387 669.624 97.184 666.424 97.184C663.139 97.184 660.429 97.7813 658.296 98.976C656.205 100.128 654.989 101.707 654.648 103.712L654.584 103.968H648.376V103.712C649.059 99.9573 651.043 96.992 654.328 94.816C657.613 92.64 661.773 91.552 666.808 91.552C671.715 91.552 675.576 92.576 678.392 94.624C681.251 96.672 682.68 99.424 682.68 102.88C682.68 103.648 682.573 104.608 682.36 105.76L680.312 115.168C680.227 115.68 680.184 116.021 680.184 116.192C680.184 117.003 680.461 117.643 681.016 118.112C681.571 118.539 682.381 118.752 683.448 118.752H686.2ZM659.128 119.456C662.541 119.456 665.592 118.901 668.28 117.792C671.011 116.683 673.144 115.125 674.68 113.12L675.384 109.664L659 111.264C656.739 111.477 655.032 111.904 653.88 112.544C652.771 113.184 652.109 114.101 651.896 115.296C651.853 115.467 651.832 115.701 651.832 116C651.832 118.304 654.264 119.456 659.128 119.456ZM721.837 92.32L720.685 97.568H713.901C711.554 97.568 709.399 97.9733 707.437 98.784C705.474 99.552 703.789 100.683 702.381 102.176L697.517 124H691.309L698.349 92.32H703.917L703.405 95.84C706.519 93.4933 710.381 92.32 714.989 92.32H721.837Z" fill="#020202"/>
<path d="M516.072 268.168C519.229 268.168 522.003 268.765 524.392 269.96C526.781 271.155 528.616 272.84 529.896 275.016C531.219 277.149 531.88 279.603 531.88 282.376C531.88 283.485 531.795 284.531 531.624 285.512L531.496 286.28C530.685 291.101 528.573 294.899 525.16 297.672C521.789 300.403 517.48 301.768 512.232 301.768C509.629 301.768 507.283 301.405 505.192 300.68C503.101 299.912 501.352 298.824 499.944 297.416L498.792 301H490.088L500.008 256.456H509.416L506.152 271.048C509.096 269.128 512.403 268.168 516.072 268.168ZM522.216 284.936C522.344 284.339 522.408 283.763 522.408 283.208C522.408 281.117 521.64 279.475 520.104 278.28C518.611 277.043 516.52 276.424 513.832 276.424C511.869 276.424 510.035 276.765 508.328 277.448C506.664 278.088 505.277 279.005 504.168 280.2L502.056 289.48C502.867 290.717 504.104 291.699 505.768 292.424C507.475 293.149 509.373 293.512 511.464 293.512C514.365 293.512 516.733 292.851 518.568 291.528C520.403 290.163 521.555 288.221 522.024 285.704L522.216 284.936ZM567.398 268.936L565.67 276.872H558.822C554.768 276.872 551.632 277.939 549.414 280.072L544.742 301H535.27L542.438 268.936H550.822L550.566 271.688C553.424 269.853 556.774 268.936 560.614 268.936H567.398ZM586.348 268.168C589.932 268.168 593.068 268.744 595.756 269.896C598.444 271.048 600.513 272.669 601.964 274.76C603.457 276.808 604.204 279.155 604.204 281.8C604.204 282.653 604.097 283.656 603.884 284.808L603.372 287.688H575.084C575.127 289.651 575.937 291.208 577.516 292.36C579.137 293.512 581.335 294.088 584.108 294.088C586.412 294.088 588.332 293.768 589.868 293.128C591.447 292.445 592.471 291.507 592.94 290.312H602.86C601.751 294.067 599.596 296.925 596.396 298.888C593.196 300.808 589.079 301.768 584.044 301.768C580.417 301.768 577.239 301.171 574.508 299.976C571.777 298.781 569.665 297.117 568.172 294.984C566.721 292.808 565.996 290.312 565.996 287.496C565.996 286.387 566.124 285.256 566.38 284.104L566.636 282.888C567.489 278.195 569.623 274.568 573.036 272.008C576.492 269.448 580.929 268.168 586.348 268.168ZM586.028 275.784C581.079 275.784 577.9 277.533 576.492 281.032H594.796C594.54 279.411 593.644 278.131 592.108 277.192C590.572 276.253 588.545 275.784 586.028 275.784ZM623.91 268.936L616.742 301H607.27L614.438 268.936H623.91ZM620.966 265.224C619.387 265.224 618.064 264.755 616.998 263.816C615.931 262.877 615.398 261.64 615.398 260.104C615.398 258.355 615.974 256.968 617.126 255.944C618.32 254.877 619.75 254.344 621.414 254.344C622.992 254.344 624.315 254.813 625.382 255.752C626.448 256.648 626.982 257.843 626.982 259.336C626.982 261.171 626.384 262.621 625.19 263.688C624.038 264.712 622.63 265.224 620.966 265.224ZM643.246 289.48C643.161 289.992 643.118 290.333 643.118 290.504C643.118 291.315 643.395 291.955 643.95 292.424C644.547 292.851 645.358 293.064 646.382 293.064H653.742L652.014 301H644.206C641.006 301 638.446 300.189 636.526 298.568C634.606 296.904 633.646 294.728 633.646 292.04C633.646 291.315 633.753 290.461 633.966 289.48L636.718 276.872H626.094L627.758 268.936H636.27C637.166 268.936 637.827 268.765 638.254 268.424C638.723 268.083 639.043 267.464 639.214 266.568L640.558 260.424H649.774L647.854 268.936H661.102L659.374 276.872H646.062L643.246 289.48ZM676.909 301.768C671.191 301.768 666.711 300.915 663.469 299.208C660.269 297.501 658.669 295.112 658.669 292.04C658.669 291.528 658.69 291.123 658.733 290.824L658.797 290.504H667.821L667.757 290.824C667.586 292.061 668.269 292.979 669.805 293.576C671.341 294.131 673.879 294.408 677.421 294.408C680.45 294.408 682.711 294.195 684.205 293.768C685.741 293.341 686.594 292.659 686.765 291.72L686.893 291.4C687.021 290.717 686.722 290.205 685.997 289.864C685.271 289.48 683.97 289.181 682.093 288.968L674.285 288.136C670.402 287.709 667.458 286.813 665.453 285.448C663.49 284.083 662.509 282.269 662.509 280.008C662.509 279.411 662.573 278.835 662.701 278.28L662.829 277.64C663.383 274.568 665.261 272.221 668.461 270.6C671.661 268.979 676.034 268.168 681.581 268.168C687.085 268.168 691.351 269.021 694.381 270.728C697.41 272.392 698.925 274.739 698.925 277.768C698.925 278.365 698.903 278.813 698.861 279.112L698.797 279.496H689.837L689.901 279.112C690.285 276.723 687.255 275.528 680.813 275.528C675.181 275.528 672.194 276.317 671.853 277.896L671.789 278.28C671.618 278.963 671.853 279.496 672.493 279.88C673.175 280.264 674.285 280.541 675.821 280.712L683.757 281.608C692.077 282.504 696.237 285.277 696.237 289.928C696.237 290.611 696.194 291.144 696.109 291.528L695.981 292.168C695.383 295.283 693.442 297.672 690.157 299.336C686.914 300.957 682.498 301.768 676.909 301.768ZM721.867 301.768C718.155 301.768 714.912 301.171 712.139 299.976C709.366 298.739 707.232 297.032 705.739 294.856C704.246 292.68 703.499 290.163 703.499 287.304C703.499 286.152 703.627 284.936 703.883 283.656L704.075 282.824C704.971 278.131 707.104 274.525 710.475 272.008C713.888 269.448 718.304 268.168 723.723 268.168C727.179 268.168 730.272 268.723 733.003 269.832C735.776 270.941 737.931 272.477 739.467 274.44C741.046 276.403 741.835 278.6 741.835 281.032C741.835 281.672 741.771 282.312 741.643 282.952L741.579 283.208H732.043L732.107 282.952C732.15 282.739 732.171 282.419 732.171 281.992C732.171 280.328 731.382 278.984 729.803 277.96C728.224 276.936 726.155 276.424 723.595 276.424C720.694 276.424 718.347 277.085 716.555 278.408C714.806 279.688 713.718 281.565 713.291 284.04L713.099 284.808C712.971 285.448 712.907 286.067 712.907 286.664C712.907 288.797 713.718 290.483 715.339 291.72C716.96 292.957 719.243 293.576 722.187 293.576C724.662 293.576 726.688 293.085 728.267 292.104C729.846 291.123 730.763 289.779 731.019 288.072L731.083 287.816H740.811V288.072C740.128 292.339 738.102 295.688 734.731 298.12C731.36 300.552 727.072 301.768 721.867 301.768ZM771.014 268.168C775.537 268.168 779.078 269.341 781.638 271.688C784.241 273.992 785.542 277.128 785.542 281.096C785.542 282.376 785.371 283.827 785.03 285.448L781.638 301H772.166L775.814 284.936C776.027 283.997 776.134 283.208 776.134 282.568C776.134 280.605 775.494 279.091 774.214 278.024C772.934 276.957 771.121 276.424 768.774 276.424C766.726 276.424 764.806 276.872 763.014 277.768C761.222 278.664 759.75 279.923 758.598 281.544L754.246 301H744.838L754.758 256.456H764.166L760.838 271.304C763.91 269.213 767.302 268.168 771.014 268.168ZM822.21 268.936L820.482 276.872H813.634C809.581 276.872 806.445 277.939 804.226 280.072L799.554 301H790.082L797.25 268.936H805.634L805.378 271.688C808.237 269.853 811.586 268.936 815.426 268.936H822.21ZM836.972 268.936L829.804 301H820.332L827.5 268.936H836.972ZM834.028 265.224C832.449 265.224 831.127 264.755 830.06 263.816C828.993 262.877 828.46 261.64 828.46 260.104C828.46 258.355 829.036 256.968 830.188 255.944C831.383 254.877 832.812 254.344 834.476 254.344C836.055 254.344 837.377 254.813 838.444 255.752C839.511 256.648 840.044 257.843 840.044 259.336C840.044 261.171 839.447 262.621 838.252 263.688C837.1 264.712 835.692 265.224 834.028 265.224ZM860.149 268.936H873.397L871.733 276.872H858.421L852.981 301H843.573L849.013 276.872H839.157L840.821 268.936H850.805L851.253 266.824C852.874 259.912 857.205 256.456 864.245 256.456H873.653L871.989 264.2H864.501C862.367 264.2 861.045 265.245 860.533 267.336L860.149 268.936ZM881.371 289.48C881.286 289.992 881.243 290.333 881.243 290.504C881.243 291.315 881.52 291.955 882.075 292.424C882.672 292.851 883.483 293.064 884.507 293.064H891.867L890.139 301H882.331C879.131 301 876.571 300.189 874.651 298.568C872.731 296.904 871.771 294.728 871.771 292.04C871.771 291.315 871.878 290.461 872.091 289.48L874.843 276.872H864.219L865.883 268.936H874.395C875.291 268.936 875.952 268.765 876.379 268.424C876.848 268.083 877.168 267.464 877.339 266.568L878.683 260.424H887.899L885.979 268.936H899.227L897.499 276.872H884.187L881.371 289.48Z" fill="#020202"/>
<rect x="29" y="294" width="115" height="35" stroke="#020202" stroke-width="4"/>
<rect x="144" y="294" width="151" height="35" stroke="#020202" stroke-width="4"/>
<rect x="294" y="294" width="99" height="35" stroke="#020202" stroke-width="4"/>
<rect x="393" y="294" width="64" height="35" stroke="#020202" stroke-width="4"/>
<rect x="29" y="258" width="115" height="35" stroke="#020202" stroke-width="4"/>
<rect x="144" y="258" width="151" height="35" stroke="#020202" stroke-width="4"/>
<rect x="294" y="258" width="99" height="35" stroke="#020202" stroke-width="4"/>
<rect x="393" y="258" width="64" height="35" stroke="#020202" stroke-width="4"/>
<rect x="29" y="223" width="115" height="35" stroke="#020202" stroke-width="4"/>
<rect x="144" y="223" width="151" height="35" stroke="#020202" stroke-width="4"/>
<rect x="294" y="223" width="99" height="35" stroke="#020202" stroke-width="4"/>
<rect x="393" y="223" width="64" height="35" stroke="#020202" stroke-width="4"/>
<rect x="29" y="188" width="115" height="35" stroke="#020202" stroke-width="4"/>
<rect x="144" y="188" width="151" height="35" stroke="#020202" stroke-width="4"/>
<rect x="294" y="188" width="99" height="35" stroke="#020202" stroke-width="4"/>
<rect x="393" y="188" width="64" height="35" stroke="#020202" stroke-width="4"/>
<path d="M55.152 200.504C55.8133 200.504 56.3947 200.621 56.896 200.856C57.3973 201.08 57.7867 201.395 58.064 201.8C58.3413 202.205 58.48 202.669 58.48 203.192C58.48 203.384 58.4533 203.613 58.4 203.88L58.352 204.072C58.16 204.979 57.712 205.677 57.008 206.168C56.3147 206.648 55.3547 206.888 54.128 206.888H49.12L48.192 211H46.576L48.912 200.504H55.152ZM54.256 205.496C54.9707 205.496 55.5413 205.363 55.968 205.096C56.3947 204.819 56.6613 204.419 56.768 203.896L56.816 203.704C56.848 203.555 56.864 203.421 56.864 203.304C56.864 202.877 56.6987 202.536 56.368 202.28C56.0373 202.024 55.5733 201.896 54.976 201.896H50.224L49.424 205.496H54.256ZM67.4969 209.688L67.2249 211H66.3289C65.8595 211 65.4595 210.899 65.1289 210.696C64.8089 210.493 64.5955 210.221 64.4889 209.88C63.5182 210.755 62.2542 211.192 60.6969 211.192C59.6622 211.192 58.8515 211.011 58.2649 210.648C57.6889 210.285 57.4009 209.784 57.4009 209.144C57.4009 208.963 57.4222 208.792 57.4649 208.632C57.6142 207.981 57.9609 207.501 58.5049 207.192C59.0595 206.883 59.7902 206.685 60.6969 206.6L65.0489 206.184C65.0702 206.056 65.0809 205.955 65.0809 205.88C65.0809 205.379 64.8569 204.989 64.4089 204.712C63.9715 204.435 63.3529 204.296 62.5529 204.296C61.7315 204.296 61.0542 204.445 60.5209 204.744C59.9982 205.032 59.6942 205.427 59.6089 205.928L59.5929 205.992H58.0409V205.928C58.2115 204.989 58.7075 204.248 59.5289 203.704C60.3502 203.16 61.3902 202.888 62.6489 202.888C63.8755 202.888 64.8409 203.144 65.5449 203.656C66.2595 204.168 66.6169 204.856 66.6169 205.72C66.6169 205.912 66.5902 206.152 66.5369 206.44L66.0249 208.792C66.0035 208.92 65.9929 209.005 65.9929 209.048C65.9929 209.251 66.0622 209.411 66.2009 209.528C66.3395 209.635 66.5422 209.688 66.8089 209.688H67.4969ZM60.7289 209.864C61.5822 209.864 62.3449 209.725 63.0169 209.448C63.6995 209.171 64.2329 208.781 64.6169 208.28L64.7929 207.416L60.6969 207.816C60.1315 207.869 59.7049 207.976 59.4169 208.136C59.1395 208.296 58.9742 208.525 58.9209 208.824C58.9102 208.867 58.9049 208.925 58.9049 209C58.9049 209.576 59.5129 209.864 60.7289 209.864ZM72.502 202.888C73.334 202.888 74.0593 202.984 74.678 203.176C75.3073 203.368 75.7873 203.64 76.118 203.992C76.4593 204.344 76.63 204.744 76.63 205.192C76.63 205.32 76.614 205.459 76.582 205.608L76.55 205.736C76.4327 206.408 75.9793 206.883 75.19 207.16C75.4887 207.331 75.718 207.539 75.878 207.784C76.038 208.019 76.118 208.28 76.118 208.568C76.118 208.728 76.1073 208.845 76.086 208.92L76.054 209.048C75.7767 210.477 74.342 211.192 71.75 211.192C70.2887 211.192 69.1687 210.947 68.39 210.456C67.6113 209.955 67.222 209.245 67.222 208.328C67.222 208.093 67.2433 207.875 67.286 207.672L67.302 207.576H68.854L68.838 207.672C68.806 207.843 68.79 208.008 68.79 208.168C68.79 208.733 69.03 209.16 69.51 209.448C70.0007 209.725 70.7527 209.864 71.766 209.864C72.6513 209.864 73.318 209.784 73.766 209.624C74.2247 209.453 74.4913 209.187 74.566 208.824L74.582 208.712C74.6033 208.605 74.614 208.525 74.614 208.472C74.614 208.216 74.486 208.019 74.23 207.88C73.974 207.741 73.6113 207.672 73.142 207.672H70.486L70.774 206.36H73.318C73.894 206.36 74.3153 206.301 74.582 206.184C74.8487 206.067 75.0033 205.875 75.046 205.608L75.078 205.48C75.0887 205.437 75.094 205.384 75.094 205.32C75.094 204.979 74.854 204.707 74.374 204.504C73.894 204.301 73.2327 204.2 72.39 204.2C71.3767 204.2 70.614 204.349 70.102 204.648C69.6007 204.936 69.2913 205.405 69.174 206.056L69.158 206.152H67.574V206.056C67.9473 203.944 69.59 202.888 72.502 202.888ZM82.3995 202.888C83.2102 202.888 83.9248 203.037 84.5435 203.336C85.1622 203.624 85.6368 204.035 85.9675 204.568C86.3088 205.091 86.4795 205.688 86.4795 206.36C86.4795 206.584 86.4528 206.845 86.3995 207.144L86.3355 207.448C86.1222 208.611 85.5835 209.528 84.7195 210.2C83.8662 210.861 82.7728 211.192 81.4395 211.192C80.7568 211.192 80.1328 211.08 79.5675 210.856C79.0022 210.621 78.5382 210.296 78.1755 209.88L77.3115 213.72H75.7595L78.1275 203.08H79.5035L79.3915 203.96C80.2448 203.245 81.2475 202.888 82.3995 202.888ZM84.8635 207.016C84.8955 206.835 84.9115 206.659 84.9115 206.488C84.9115 205.816 84.6662 205.277 84.1755 204.872C83.6955 204.467 83.0342 204.264 82.1915 204.264C81.5835 204.264 81.0128 204.376 80.4795 204.6C79.9462 204.824 79.4982 205.149 79.1355 205.576L78.5115 208.376C78.7248 208.803 79.0982 209.149 79.6315 209.416C80.1648 209.683 80.7622 209.816 81.4235 209.816C82.3408 209.816 83.0928 209.603 83.6795 209.176C84.2662 208.739 84.6342 208.125 84.7835 207.336L84.8635 207.016ZM96.4469 209.688L96.1749 211H95.2789C94.8095 211 94.4095 210.899 94.0789 210.696C93.7589 210.493 93.5455 210.221 93.4389 209.88C92.4682 210.755 91.2042 211.192 89.6469 211.192C88.6122 211.192 87.8015 211.011 87.2149 210.648C86.6389 210.285 86.3509 209.784 86.3509 209.144C86.3509 208.963 86.3722 208.792 86.4149 208.632C86.5642 207.981 86.9109 207.501 87.4549 207.192C88.0095 206.883 88.7402 206.685 89.6469 206.6L93.9989 206.184C94.0202 206.056 94.0309 205.955 94.0309 205.88C94.0309 205.379 93.8069 204.989 93.3589 204.712C92.9215 204.435 92.3029 204.296 91.5029 204.296C90.6815 204.296 90.0042 204.445 89.4709 204.744C88.9482 205.032 88.6442 205.427 88.5589 205.928L88.5429 205.992H86.9909V205.928C87.1615 204.989 87.6575 204.248 88.4789 203.704C89.3002 203.16 90.3402 202.888 91.5989 202.888C92.8255 202.888 93.7909 203.144 94.4949 203.656C95.2095 204.168 95.5669 204.856 95.5669 205.72C95.5669 205.912 95.5402 206.152 95.4869 206.44L94.9749 208.792C94.9535 208.92 94.9429 209.005 94.9429 209.048C94.9429 209.251 95.0122 209.411 95.1509 209.528C95.2895 209.635 95.4922 209.688 95.7589 209.688H96.4469ZM89.6789 209.864C90.5322 209.864 91.2949 209.725 91.9669 209.448C92.6495 209.171 93.1829 208.781 93.5669 208.28L93.7429 207.416L89.6469 207.816C89.0815 207.869 88.6549 207.976 88.3669 208.136C88.0895 208.296 87.9242 208.525 87.8709 208.824C87.8602 208.867 87.8549 208.925 87.8549 209C87.8549 209.576 88.4629 209.864 89.6789 209.864ZM106.671 199.864L106.639 200.056C106.543 200.632 106.341 201.053 106.031 201.32C105.722 201.576 105.242 201.725 104.591 201.768L101.727 201.992C100.746 202.077 100.005 202.307 99.5034 202.68C99.002 203.053 98.6394 203.661 98.4154 204.504C99.3434 203.789 100.463 203.432 101.775 203.432C102.565 203.432 103.258 203.571 103.855 203.848C104.453 204.125 104.917 204.515 105.247 205.016C105.578 205.507 105.743 206.067 105.743 206.696C105.743 206.995 105.706 207.288 105.631 207.576L105.551 207.944C105.338 208.968 104.826 209.768 104.015 210.344C103.215 210.909 102.191 211.192 100.943 211.192C99.5674 211.192 98.4954 210.851 97.7274 210.168C96.9594 209.475 96.5754 208.525 96.5754 207.32C96.5754 206.819 96.634 206.333 96.7514 205.864L96.9914 204.792C97.258 203.427 97.7647 202.419 98.5114 201.768C99.2687 201.107 100.362 200.723 101.791 200.616L104.367 200.424C104.559 200.413 104.703 200.376 104.799 200.312C104.906 200.237 104.975 200.136 105.007 200.008L105.039 199.864H106.671ZM104.095 207.448C104.149 207.256 104.175 207.048 104.175 206.824C104.175 206.205 103.935 205.715 103.455 205.352C102.975 204.979 102.314 204.792 101.471 204.792C100.842 204.792 100.245 204.899 99.6794 205.112C99.1247 205.315 98.6394 205.608 98.2234 205.992L98.1434 206.408C98.0687 206.717 98.0314 207.027 98.0314 207.336C98.0314 208.115 98.2874 208.728 98.7994 209.176C99.3114 209.613 100.031 209.832 100.959 209.832C101.802 209.832 102.479 209.661 102.991 209.32C103.514 208.968 103.85 208.461 103.999 207.8L104.095 207.448ZM110.273 211.192C109.388 211.192 108.604 211.043 107.921 210.744C107.249 210.445 106.726 210.029 106.353 209.496C105.99 208.952 105.809 208.333 105.809 207.64C105.809 207.373 105.841 207.096 105.905 206.808L105.953 206.536C106.177 205.373 106.705 204.477 107.537 203.848C108.369 203.208 109.446 202.888 110.769 202.888C111.654 202.888 112.428 203.037 113.089 203.336C113.761 203.635 114.278 204.056 114.641 204.6C115.014 205.133 115.201 205.747 115.201 206.44C115.201 206.717 115.169 207 115.105 207.288L115.057 207.56C114.844 208.712 114.321 209.608 113.489 210.248C112.657 210.877 111.585 211.192 110.273 211.192ZM110.273 209.816C111.158 209.816 111.878 209.608 112.433 209.192C112.988 208.776 113.34 208.195 113.489 207.448L113.553 207.176C113.596 206.995 113.617 206.787 113.617 206.552C113.617 205.859 113.361 205.304 112.849 204.888C112.337 204.472 111.638 204.264 110.753 204.264C109.846 204.264 109.116 204.472 108.561 204.888C108.017 205.293 107.67 205.88 107.521 206.648L107.457 206.936C107.414 207.117 107.393 207.32 107.393 207.544C107.393 208.227 107.654 208.776 108.177 209.192C108.7 209.608 109.398 209.816 110.273 209.816ZM114.881 204.408L115.153 203.08H124.465L124.177 204.408H120.369L118.881 211H117.313L118.801 204.408H114.881ZM122.37 211.192C122.114 211.192 121.89 211.112 121.698 210.952C121.517 210.792 121.426 210.579 121.426 210.312C121.426 209.992 121.522 209.741 121.714 209.56C121.917 209.368 122.162 209.272 122.45 209.272C122.717 209.272 122.941 209.352 123.122 209.512C123.303 209.672 123.394 209.891 123.394 210.168C123.394 210.477 123.293 210.728 123.09 210.92C122.898 211.101 122.658 211.192 122.37 211.192Z" fill="#020202"/>
<path d="M57.768 236.504L55.432 247H53.816L55.848 237.896H49.224L47.192 247H45.576L47.912 236.504H57.768ZM62.6932 238.888C63.5039 238.888 64.2186 239.037 64.8372 239.336C65.4559 239.624 65.9306 240.035 66.2613 240.568C66.6026 241.091 66.7733 241.688 66.7733 242.36C66.7733 242.584 66.7466 242.845 66.6932 243.144L66.6293 243.448C66.4159 244.611 65.8773 245.528 65.0133 246.2C64.1599 246.861 63.0666 247.192 61.7332 247.192C61.0506 247.192 60.4266 247.08 59.8612 246.856C59.2959 246.621 58.8319 246.296 58.4692 245.88L57.6052 249.72H56.0532L58.4212 239.08H59.7972L59.6852 239.96C60.5386 239.245 61.5412 238.888 62.6932 238.888ZM65.1573 243.016C65.1892 242.835 65.2052 242.659 65.2052 242.488C65.2052 241.816 64.9599 241.277 64.4692 240.872C63.9892 240.467 63.3279 240.264 62.4852 240.264C61.8772 240.264 61.3066 240.376 60.7732 240.6C60.2399 240.824 59.7919 241.149 59.4292 241.576L58.8052 244.376C59.0186 244.803 59.3919 245.149 59.9252 245.416C60.4586 245.683 61.0559 245.816 61.7172 245.816C62.6346 245.816 63.3866 245.603 63.9732 245.176C64.5599 244.739 64.9279 244.125 65.0773 243.336L65.1573 243.016ZM71.1886 247.192C70.3033 247.192 69.5193 247.043 68.8366 246.744C68.1646 246.445 67.642 246.029 67.2686 245.496C66.906 244.952 66.7246 244.333 66.7246 243.64C66.7246 243.373 66.7566 243.096 66.8206 242.808L66.8686 242.536C67.0926 241.373 67.6206 240.477 68.4526 239.848C69.2846 239.208 70.362 238.888 71.6846 238.888C72.57 238.888 73.3433 239.037 74.0046 239.336C74.6766 239.635 75.194 240.056 75.5566 240.6C75.93 241.133 76.1166 241.747 76.1166 242.44C76.1166 242.717 76.0846 243 76.0206 243.288L75.9726 243.56C75.7593 244.712 75.2366 245.608 74.4046 246.248C73.5726 246.877 72.5006 247.192 71.1886 247.192ZM71.1886 245.816C72.074 245.816 72.794 245.608 73.3486 245.192C73.9033 244.776 74.2553 244.195 74.4046 243.448L74.4686 243.176C74.5113 242.995 74.5326 242.787 74.5326 242.552C74.5326 241.859 74.2766 241.304 73.7646 240.888C73.2526 240.472 72.554 240.264 71.6686 240.264C70.762 240.264 70.0313 240.472 69.4766 240.888C68.9326 241.293 68.586 241.88 68.4366 242.648L68.3726 242.936C68.33 243.117 68.3086 243.32 68.3086 243.544C68.3086 244.227 68.57 244.776 69.0926 245.192C69.6153 245.608 70.314 245.816 71.1886 245.816ZM83.1018 239.08C83.9658 239.08 84.6378 239.251 85.1178 239.592C85.6084 239.933 85.8538 240.397 85.8538 240.984C85.8538 241.144 85.8378 241.304 85.8058 241.464L85.7738 241.624C85.6458 242.328 85.1604 242.819 84.3178 243.096C84.6484 243.256 84.8991 243.464 85.0698 243.72C85.2404 243.976 85.3258 244.259 85.3258 244.568C85.3258 244.717 85.3151 244.835 85.2938 244.92L85.2618 245.08C85.1551 245.699 84.8298 246.173 84.2858 246.504C83.7524 246.835 83.0378 247 82.1418 247H75.7738L77.5338 239.08H83.1018ZM84.3178 241.336C84.3391 241.208 84.3498 241.123 84.3498 241.08C84.3498 240.803 84.2271 240.595 83.9818 240.456C83.7471 240.307 83.4004 240.232 82.9418 240.232H78.8298L78.3498 242.424H82.6858C83.1551 242.424 83.5231 242.344 83.7898 242.184C84.0671 242.024 84.2324 241.795 84.2858 241.496L84.3178 241.336ZM83.7418 244.776C83.7631 244.648 83.7738 244.552 83.7738 244.488C83.7738 244.211 83.6511 243.997 83.4058 243.848C83.1711 243.688 82.8244 243.608 82.3658 243.608H78.0778L77.5818 245.848H82.1418C82.6004 245.848 82.9631 245.768 83.2298 245.608C83.4964 245.448 83.6564 245.224 83.7098 244.936L83.7418 244.776ZM90.7811 238.888C91.6345 238.888 92.3865 239.032 93.0371 239.32C93.6878 239.597 94.1891 239.992 94.5411 240.504C94.9038 241.005 95.0851 241.581 95.0851 242.232C95.0851 242.435 95.0585 242.669 95.0051 242.936L94.9091 243.544H87.3571C87.3145 244.216 87.5545 244.765 88.0771 245.192C88.6105 245.608 89.3251 245.816 90.2211 245.816C90.9891 245.816 91.6238 245.688 92.1251 245.432C92.6265 245.165 92.9465 244.797 93.0851 244.328H94.7491C94.4825 245.267 93.9651 245.981 93.1971 246.472C92.4291 246.952 91.4425 247.192 90.2371 247.192C89.3518 247.192 88.5785 247.043 87.9171 246.744C87.2558 246.445 86.7438 246.029 86.3811 245.496C86.0185 244.963 85.8371 244.349 85.8371 243.656C85.8371 243.379 85.8691 243.096 85.9331 242.808L85.9971 242.488C86.2211 241.336 86.7438 240.451 87.5651 239.832C88.3971 239.203 89.4691 238.888 90.7811 238.888ZM90.7171 240.264C89.0318 240.264 88.0025 240.931 87.6291 242.264H93.5331C93.5225 241.667 93.2611 241.187 92.7491 240.824C92.2478 240.451 91.5705 240.264 90.7171 240.264ZM100.7 238.888C101.51 238.888 102.225 239.037 102.844 239.336C103.462 239.624 103.937 240.035 104.268 240.568C104.609 241.091 104.78 241.688 104.78 242.36C104.78 242.584 104.753 242.845 104.7 243.144L104.636 243.448C104.422 244.611 103.884 245.528 103.02 246.2C102.166 246.861 101.073 247.192 99.7395 247.192C99.0568 247.192 98.4328 247.08 97.8675 246.856C97.3022 246.621 96.8382 246.296 96.4755 245.88L95.6115 249.72H94.0595L96.4275 239.08H97.8035L97.6915 239.96C98.5448 239.245 99.5475 238.888 100.7 238.888ZM103.164 243.016C103.196 242.835 103.212 242.659 103.212 242.488C103.212 241.816 102.966 241.277 102.476 240.872C101.996 240.467 101.334 240.264 100.492 240.264C99.8835 240.264 99.3128 240.376 98.7795 240.6C98.2462 240.824 97.7982 241.149 97.4355 241.576L96.8115 244.376C97.0248 244.803 97.3982 245.149 97.9315 245.416C98.4648 245.683 99.0622 245.816 99.7235 245.816C100.641 245.816 101.393 245.603 101.98 245.176C102.566 244.739 102.934 244.125 103.084 243.336L103.164 243.016ZM107.723 239.08L106.459 244.936L113.451 239.08H114.875L113.115 247H111.579L112.843 241.16L105.851 247H104.427L106.187 239.08H107.723ZM122.921 247H121.369L122.841 240.392H117.993L117.129 243.624C116.905 244.445 116.649 245.101 116.361 245.592C116.084 246.072 115.732 246.429 115.305 246.664C114.889 246.888 114.366 247 113.737 247H112.953L113.257 245.64H113.705C114.249 245.64 114.665 245.475 114.953 245.144C115.252 244.803 115.508 244.221 115.721 243.4L116.825 239.08H124.681L122.921 247Z" fill="#020202"/>
<path d="M52.344 272.896L52.648 271.504H63.304L63.016 272.896H58.536L56.504 282H54.888L56.92 272.896H52.344ZM60.0075 282.192C59.7515 282.192 59.5275 282.112 59.3355 281.952C59.1542 281.792 59.0635 281.579 59.0635 281.312C59.0635 280.992 59.1595 280.741 59.3515 280.56C59.5542 280.368 59.7995 280.272 60.0875 280.272C60.3542 280.272 60.5782 280.352 60.7595 280.512C60.9408 280.672 61.0315 280.891 61.0315 281.168C61.0315 281.477 60.9302 281.728 60.7275 281.92C60.5355 282.101 60.2955 282.192 60.0075 282.192ZM77.7415 274.304L73.2615 278.112L76.2855 281.776L76.2215 282H74.6535L71.8375 278.656H69.4055L68.6695 282H67.1175L68.8775 274.08H70.4295L69.7095 277.344H72.0615L75.9175 274.08H77.7895L77.7415 274.304ZM80.6449 282.192C79.7595 282.192 78.9755 282.043 78.2929 281.744C77.6209 281.445 77.0982 281.029 76.7249 280.496C76.3622 279.952 76.1809 279.333 76.1809 278.64C76.1809 278.373 76.2129 278.096 76.2769 277.808L76.3249 277.536C76.5489 276.373 77.0769 275.477 77.9089 274.848C78.7409 274.208 79.8182 273.888 81.1409 273.888C82.0262 273.888 82.7995 274.037 83.4609 274.336C84.1329 274.635 84.6502 275.056 85.0129 275.6C85.3862 276.133 85.5729 276.747 85.5729 277.44C85.5729 277.717 85.5409 278 85.4769 278.288L85.4289 278.56C85.2155 279.712 84.6929 280.608 83.8609 281.248C83.0289 281.877 81.9569 282.192 80.6449 282.192ZM80.6449 280.816C81.5302 280.816 82.2502 280.608 82.8049 280.192C83.3595 279.776 83.7115 279.195 83.8609 278.448L83.9249 278.176C83.9675 277.995 83.9889 277.787 83.9889 277.552C83.9889 276.859 83.7329 276.304 83.2209 275.888C82.7089 275.472 82.0102 275.264 81.1249 275.264C80.2182 275.264 79.4875 275.472 78.9329 275.888C78.3889 276.293 78.0422 276.88 77.8929 277.648L77.8289 277.936C77.7862 278.117 77.7649 278.32 77.7649 278.544C77.7649 279.227 78.0262 279.776 78.5489 280.192C79.0715 280.608 79.7702 280.816 80.6449 280.816ZM88.526 274.08L87.806 277.36H93.486L94.222 274.08H95.774L94.014 282H92.446L93.198 278.688H87.518L86.766 282H85.214L86.974 274.08H88.526ZM94.9656 275.408L95.2376 274.08H104.55L104.262 275.408H100.454L98.9656 282H97.3976L98.8856 275.408H94.9656ZM108.781 273.888C109.591 273.888 110.306 274.037 110.925 274.336C111.543 274.624 112.018 275.035 112.349 275.568C112.69 276.091 112.861 276.688 112.861 277.36C112.861 277.584 112.834 277.845 112.781 278.144L112.717 278.448C112.503 279.611 111.965 280.528 111.101 281.2C110.247 281.861 109.154 282.192 107.821 282.192C107.138 282.192 106.514 282.08 105.949 281.856C105.383 281.621 104.919 281.296 104.557 280.88L103.693 284.72H102.141L104.509 274.08H105.885L105.773 274.96C106.626 274.245 107.629 273.888 108.781 273.888ZM111.245 278.016C111.277 277.835 111.293 277.659 111.293 277.488C111.293 276.816 111.047 276.277 110.557 275.872C110.077 275.467 109.415 275.264 108.573 275.264C107.965 275.264 107.394 275.376 106.861 275.6C106.327 275.824 105.879 276.149 105.517 276.576L104.893 279.376C105.106 279.803 105.479 280.149 106.013 280.416C106.546 280.683 107.143 280.816 107.805 280.816C108.722 280.816 109.474 280.603 110.061 280.176C110.647 279.739 111.015 279.125 111.165 278.336L111.245 278.016ZM113.479 282.192C113.223 282.192 112.999 282.112 112.807 281.952C112.626 281.792 112.535 281.579 112.535 281.312C112.535 280.992 112.631 280.741 112.823 280.56C113.026 280.368 113.271 280.272 113.559 280.272C113.826 280.272 114.05 280.352 114.231 280.512C114.413 280.672 114.503 280.891 114.503 281.168C114.503 281.477 114.402 281.728 114.199 281.92C114.007 282.101 113.767 282.192 113.479 282.192Z" fill="#020202"/>
<path d="M54.528 306.504L53.52 311.048H60.464L61.472 306.504H63.104L60.768 317H59.136L60.16 312.44H53.216L52.192 317H50.576L52.912 306.504H54.528ZM63.4294 317.192C63.1734 317.192 62.9494 317.112 62.7574 316.952C62.576 316.792 62.4854 316.579 62.4854 316.312C62.4854 315.992 62.5814 315.741 62.7734 315.56C62.976 315.368 63.2214 315.272 63.5094 315.272C63.776 315.272 64 315.352 64.1814 315.512C64.3627 315.672 64.4534 315.891 64.4534 316.168C64.4534 316.477 64.352 316.728 64.1494 316.92C63.9574 317.101 63.7174 317.192 63.4294 317.192ZM81.1634 309.304L76.6834 313.112L79.7074 316.776L79.6434 317H78.0754L75.2594 313.656H72.8274L72.0914 317H70.5394L72.2994 309.08H73.8514L73.1314 312.344H75.4834L79.3394 309.08H81.2114L81.1634 309.304ZM84.0668 317.192C83.1814 317.192 82.3974 317.043 81.7148 316.744C81.0428 316.445 80.5201 316.029 80.1468 315.496C79.7841 314.952 79.6028 314.333 79.6028 313.64C79.6028 313.373 79.6348 313.096 79.6988 312.808L79.7468 312.536C79.9708 311.373 80.4988 310.477 81.3308 309.848C82.1628 309.208 83.2401 308.888 84.5628 308.888C85.4481 308.888 86.2214 309.037 86.8828 309.336C87.5548 309.635 88.0721 310.056 88.4348 310.6C88.8081 311.133 88.9948 311.747 88.9948 312.44C88.9948 312.717 88.9628 313 88.8988 313.288L88.8508 313.56C88.6374 314.712 88.1148 315.608 87.2828 316.248C86.4508 316.877 85.3788 317.192 84.0668 317.192ZM84.0668 315.816C84.9521 315.816 85.6721 315.608 86.2268 315.192C86.7814 314.776 87.1334 314.195 87.2828 313.448L87.3468 313.176C87.3894 312.995 87.4108 312.787 87.4108 312.552C87.4108 311.859 87.1548 311.304 86.6428 310.888C86.1308 310.472 85.4321 310.264 84.5468 310.264C83.6401 310.264 82.9094 310.472 82.3548 310.888C81.8108 311.293 81.4641 311.88 81.3148 312.648L81.2508 312.936C81.2081 313.117 81.1868 313.32 81.1868 313.544C81.1868 314.227 81.4481 314.776 81.9708 315.192C82.4934 315.608 83.1921 315.816 84.0668 315.816ZM91.9479 309.08L91.2279 312.36H96.9079L97.6439 309.08H99.1959L97.4359 317H95.8679L96.6199 313.688H90.9399L90.1879 317H88.6359L90.3959 309.08H91.9479ZM98.3875 310.408L98.6595 309.08H107.972L107.684 310.408H103.876L102.388 317H100.82L102.308 310.408H98.3875ZM112.203 308.888C113.013 308.888 113.728 309.037 114.347 309.336C114.965 309.624 115.44 310.035 115.771 310.568C116.112 311.091 116.283 311.688 116.283 312.36C116.283 312.584 116.256 312.845 116.203 313.144L116.139 313.448C115.925 314.611 115.387 315.528 114.523 316.2C113.669 316.861 112.576 317.192 111.243 317.192C110.56 317.192 109.936 317.08 109.371 316.856C108.805 316.621 108.341 316.296 107.979 315.88L107.115 319.72H105.563L107.931 309.08H109.307L109.195 309.96C110.048 309.245 111.051 308.888 112.203 308.888ZM114.667 313.016C114.699 312.835 114.715 312.659 114.715 312.488C114.715 311.816 114.469 311.277 113.979 310.872C113.499 310.467 112.837 310.264 111.995 310.264C111.387 310.264 110.816 310.376 110.283 310.6C109.749 310.824 109.301 311.149 108.939 311.576L108.315 314.376C108.528 314.803 108.901 315.149 109.435 315.416C109.968 315.683 110.565 315.816 111.227 315.816C112.144 315.816 112.896 315.603 113.483 315.176C114.069 314.739 114.437 314.125 114.587 313.336L114.667 313.016ZM116.901 317.192C116.645 317.192 116.421 317.112 116.229 316.952C116.048 316.792 115.957 316.579 115.957 316.312C115.957 315.992 116.053 315.741 116.245 315.56C116.448 315.368 116.693 315.272 116.981 315.272C117.248 315.272 117.472 315.352 117.653 315.512C117.835 315.672 117.925 315.891 117.925 316.168C117.925 316.477 117.824 316.728 117.621 316.92C117.429 317.101 117.189 317.192 116.901 317.192Z" fill="#020202"/>
<path d="M83.376 376.504L83.328 376.744L76.896 384.984C76.4693 385.528 76.0853 385.944 75.744 386.232C75.4133 386.509 75.056 386.707 74.672 386.824C74.2987 386.941 73.84 387 73.296 387H71.344L71.648 385.608H73.44C73.856 385.608 74.1867 385.549 74.432 385.432C74.6773 385.315 74.944 385.08 75.232 384.728L72.064 376.744L72.112 376.504H73.68L76.352 383.336L81.6 376.504H83.376ZM80.8719 380.408L81.1439 379.08H90.4559L90.1679 380.408H86.3599L84.8719 387H83.3039L84.7919 380.408H80.8719ZM93.6061 378.888C94.4595 378.888 95.2115 379.032 95.8621 379.32C96.5128 379.597 97.0141 379.992 97.3661 380.504C97.7288 381.005 97.9101 381.581 97.9101 382.232C97.9101 382.435 97.8835 382.669 97.8301 382.936L97.7341 383.544H90.1821C90.1395 384.216 90.3795 384.765 90.9021 385.192C91.4355 385.608 92.1501 385.816 93.0461 385.816C93.8141 385.816 94.4488 385.688 94.9501 385.432C95.4515 385.165 95.7715 384.797 95.9101 384.328H97.5741C97.3075 385.267 96.7901 385.981 96.0221 386.472C95.2541 386.952 94.2675 387.192 93.0621 387.192C92.1768 387.192 91.4035 387.043 90.7421 386.744C90.0808 386.445 89.5688 386.029 89.2061 385.496C88.8435 384.963 88.6621 384.349 88.6621 383.656C88.6621 383.379 88.6941 383.096 88.7581 382.808L88.8221 382.488C89.0461 381.336 89.5688 380.451 90.3901 379.832C91.2221 379.203 92.2941 378.888 93.6061 378.888ZM93.5421 380.264C91.8568 380.264 90.8275 380.931 90.4541 382.264H96.3581C96.3475 381.667 96.0861 381.187 95.5741 380.824C95.0728 380.451 94.3955 380.264 93.5421 380.264ZM98.4638 387.192C98.2078 387.192 97.9838 387.112 97.7918 386.952C97.6104 386.792 97.5198 386.579 97.5198 386.312C97.5198 385.992 97.6158 385.741 97.8078 385.56C98.0104 385.368 98.2558 385.272 98.5438 385.272C98.8104 385.272 99.0344 385.352 99.2158 385.512C99.3971 385.672 99.4878 385.891 99.4878 386.168C99.4878 386.477 99.3864 386.728 99.1838 386.92C98.9918 387.101 98.7518 387.192 98.4638 387.192Z" fill="#020202"/>
<path d="M169.2 202.6L169.664 200.504H180.288L179.824 202.6H175.808L173.92 211H171.472L173.36 202.6H169.2ZM189.477 202.984L189.397 203.32L183.301 211.816C182.8 212.52 182.288 213.011 181.765 213.288C181.242 213.576 180.554 213.72 179.701 213.72H177.477L177.909 211.736H179.893C180.17 211.736 180.4 211.693 180.581 211.608C180.762 211.533 180.944 211.4 181.125 211.208L178.805 203.32L178.885 202.984H181.221L182.805 208.808L186.821 202.984H189.477ZM195.673 202.792C196.473 202.792 197.177 202.947 197.785 203.256C198.393 203.555 198.862 203.976 199.193 204.52C199.524 205.053 199.689 205.661 199.689 206.344C199.689 206.621 199.668 206.872 199.625 207.096L199.577 207.32C199.364 208.525 198.83 209.475 197.977 210.168C197.124 210.851 196.036 211.192 194.713 211.192C194.105 211.192 193.55 211.107 193.049 210.936C192.548 210.755 192.121 210.504 191.769 210.184L190.985 213.72H188.633L191.017 202.984H193.097L193.049 203.64C193.828 203.075 194.702 202.792 195.673 202.792ZM197.273 206.936C197.294 206.851 197.305 206.723 197.305 206.552C197.305 206.029 197.113 205.619 196.729 205.32C196.356 205.011 195.833 204.856 195.161 204.856C194.692 204.856 194.244 204.936 193.817 205.096C193.39 205.256 193.033 205.48 192.745 205.768L192.233 208.136C192.436 208.435 192.745 208.675 193.161 208.856C193.577 209.037 194.046 209.128 194.569 209.128C195.294 209.128 195.886 208.957 196.345 208.616C196.814 208.275 197.102 207.795 197.209 207.176L197.273 206.936ZM206.025 202.792C206.921 202.792 207.705 202.936 208.377 203.224C209.049 203.512 209.566 203.917 209.929 204.44C210.302 204.952 210.489 205.539 210.489 206.2C210.489 206.413 210.462 206.664 210.409 206.952L210.281 207.672H203.209C203.219 208.163 203.422 208.552 203.817 208.84C204.222 209.128 204.771 209.272 205.465 209.272C206.041 209.272 206.521 209.192 206.905 209.032C207.299 208.861 207.555 208.627 207.673 208.328H210.153C209.875 209.267 209.337 209.981 208.536 210.472C207.737 210.952 206.707 211.192 205.449 211.192C204.542 211.192 203.747 211.043 203.065 210.744C202.382 210.445 201.854 210.029 201.481 209.496C201.118 208.952 200.937 208.328 200.937 207.624C200.937 207.347 200.969 207.064 201.033 206.776L201.097 206.472C201.31 205.299 201.843 204.392 202.697 203.752C203.561 203.112 204.67 202.792 206.025 202.792ZM205.945 204.696C204.707 204.696 203.913 205.133 203.561 206.008H208.137C208.073 205.603 207.849 205.283 207.465 205.048C207.081 204.813 206.574 204.696 205.945 204.696ZM225.399 211H222.967L224.567 203.848L219.623 211H217.143L215.399 203.816L213.799 211H211.383L213.719 200.504H216.887L218.823 208.296L224.183 200.504H227.735L225.399 211ZM238.412 209.016L237.996 211H236.86C236.422 211 236.033 210.92 235.692 210.76C235.361 210.6 235.11 210.376 234.94 210.088C234.022 210.824 232.828 211.192 231.356 211.192C230.321 211.192 229.51 211.005 228.924 210.632C228.348 210.248 228.06 209.72 228.06 209.048C228.06 208.845 228.081 208.659 228.124 208.488C228.273 207.848 228.614 207.373 229.148 207.064C229.692 206.744 230.406 206.541 231.292 206.456L235.292 206.056C235.313 205.651 235.153 205.341 234.812 205.128C234.47 204.904 233.969 204.792 233.308 204.792C232.668 204.792 232.145 204.893 231.74 205.096C231.334 205.299 231.105 205.571 231.052 205.912L231.036 205.96H228.668L228.684 205.912C228.844 204.941 229.345 204.179 230.188 203.624C231.041 203.069 232.129 202.792 233.452 202.792C234.316 202.792 235.062 202.915 235.692 203.16C236.321 203.395 236.801 203.736 237.132 204.184C237.473 204.632 237.644 205.149 237.644 205.736C237.644 205.939 237.617 206.184 237.564 206.472L237.148 208.376C237.137 208.419 237.132 208.477 237.132 208.552C237.132 208.861 237.334 209.016 237.74 209.016H238.412ZM230.348 208.824C230.348 209.208 230.78 209.4 231.644 209.4C232.305 209.4 232.924 209.293 233.5 209.08C234.086 208.867 234.54 208.584 234.86 208.232L234.988 207.64L231.5 208.008C231.094 208.051 230.801 208.136 230.62 208.264C230.438 208.392 230.348 208.579 230.348 208.824ZM242.968 208.12C242.946 208.248 242.936 208.333 242.936 208.376C242.936 208.579 243.005 208.739 243.144 208.856C243.293 208.963 243.496 209.016 243.752 209.016H245.592L245.16 211H243.208C242.408 211 241.768 210.797 241.288 210.392C240.808 209.976 240.568 209.432 240.568 208.76C240.568 208.579 240.594 208.365 240.648 208.12L241.336 204.968H238.68L239.096 202.984H241.224C241.448 202.984 241.613 202.941 241.72 202.856C241.837 202.771 241.917 202.616 241.96 202.392L242.296 200.856H244.6L244.12 202.984H247.432L247 204.968H243.672L242.968 208.12ZM252.071 202.792C252.967 202.792 253.751 202.936 254.423 203.224C255.095 203.512 255.613 203.917 255.975 204.44C256.349 204.952 256.535 205.539 256.535 206.2C256.535 206.413 256.509 206.664 256.455 206.952L256.327 207.672H249.255C249.266 208.163 249.469 208.552 249.863 208.84C250.269 209.128 250.818 209.272 251.511 209.272C252.087 209.272 252.567 209.192 252.951 209.032C253.346 208.861 253.602 208.627 253.719 208.328H256.199C255.922 209.267 255.383 209.981 254.583 210.472C253.783 210.952 252.754 211.192 251.495 211.192C250.589 211.192 249.794 211.043 249.111 210.744C248.429 210.445 247.901 210.029 247.527 209.496C247.165 208.952 246.983 208.328 246.983 207.624C246.983 207.347 247.015 207.064 247.079 206.776L247.143 206.472C247.357 205.299 247.89 204.392 248.743 203.752C249.607 203.112 250.717 202.792 252.071 202.792ZM251.991 204.696C250.754 204.696 249.959 205.133 249.607 206.008H254.183C254.119 205.603 253.895 205.283 253.511 205.048C253.127 204.813 252.621 204.696 251.991 204.696ZM262.118 211.192C260.688 211.192 259.568 210.979 258.758 210.552C257.958 210.125 257.558 209.528 257.558 208.76C257.558 208.632 257.563 208.531 257.574 208.456L257.59 208.376H259.846L259.83 208.456C259.787 208.765 259.958 208.995 260.342 209.144C260.726 209.283 261.36 209.352 262.246 209.352C263.003 209.352 263.568 209.299 263.942 209.192C264.326 209.085 264.539 208.915 264.582 208.68L264.614 208.6C264.646 208.429 264.571 208.301 264.39 208.216C264.208 208.12 263.883 208.045 263.414 207.992L261.462 207.784C260.491 207.677 259.755 207.453 259.254 207.112C258.763 206.771 258.518 206.317 258.518 205.752C258.518 205.603 258.534 205.459 258.566 205.32L258.598 205.16C258.736 204.392 259.206 203.805 260.006 203.4C260.806 202.995 261.899 202.792 263.286 202.792C264.662 202.792 265.728 203.005 266.486 203.432C267.243 203.848 267.622 204.435 267.622 205.192C267.622 205.341 267.616 205.453 267.606 205.528L267.59 205.624H265.35L265.366 205.528C265.462 204.931 264.704 204.632 263.094 204.632C261.686 204.632 260.939 204.829 260.854 205.224L260.838 205.32C260.795 205.491 260.854 205.624 261.014 205.72C261.184 205.816 261.462 205.885 261.846 205.928L263.83 206.152C265.91 206.376 266.95 207.069 266.95 208.232C266.95 208.403 266.939 208.536 266.918 208.632L266.886 208.792C266.736 209.571 266.251 210.168 265.43 210.584C264.619 210.989 263.515 211.192 262.118 211.192Z" fill="#020202"/>
<rect x="29" y="329" width="115" height="35" stroke="#020202" stroke-width="4"/>
<rect x="144" y="329" width="151" height="35" stroke="#020202" stroke-width="4"/>
<rect x="294" y="329" width="99" height="35" stroke="#020202" stroke-width="4"/>
<rect x="393" y="329" width="64" height="35" stroke="#020202" stroke-width="4"/>
<rect x="29" y="364" width="115" height="35" stroke="#020202" stroke-width="4"/>
<rect x="294" y="364" width="99" height="35" stroke="#020202" stroke-width="4"/>
<rect x="393" y="364" width="64" height="35" stroke="#020202" stroke-width="4"/>
<rect x="29" y="153" width="115" height="35" stroke="#020202" stroke-width="4"/>
<rect x="144" y="153" width="151" height="35" stroke="#020202" stroke-width="4"/>
<rect x="294" y="153" width="99" height="35" stroke="#020202" stroke-width="4"/>
<rect x="393" y="153" width="64" height="35" stroke="#020202" stroke-width="4"/>
<rect x="29" y="118" width="115" height="35" stroke="#020202" stroke-width="4"/>
<rect x="144" y="118" width="151" height="35" stroke="#020202" stroke-width="4"/>
<rect x="294" y="118" width="99" height="35" stroke="#020202" stroke-width="4"/>
<rect x="393" y="118" width="64" height="35" stroke="#020202" stroke-width="4"/>
<rect x="294" y="83" width="99" height="35" stroke="#020202" stroke-width="4"/>
<rect x="393" y="83" width="64" height="35" stroke="#020202" stroke-width="4"/>
<rect x="294" y="49" width="99" height="35" stroke="#020202" stroke-width="4"/>
<rect x="393" y="49" width="64" height="35" stroke="#020202" stroke-width="4"/>
<rect x="144" y="364" width="151" height="35" stroke="#020202" stroke-width="4"/>
<rect x="29" y="49" width="1200" height="350" stroke="#020202" stroke-width="4"/>
<rect x="29" y="83" width="115" height="35" stroke="#020202" stroke-width="4"/>
<rect x="144" y="83" width="151" height="35" stroke="#020202" stroke-width="4"/>
<rect x="29" y="49" width="115" height="35" stroke="#020202" stroke-width="4"/>
<rect x="144" y="49" width="151" height="35" stroke="#020202" stroke-width="4"/>
<line x1="86" y1="48" x2="86" y2="188" stroke="#020202" stroke-width="4"/>
<line x1="29" y1="48" x2="29" y2="-8.74228e-08" stroke="#020202" stroke-width="4"/>
<line x1="1.74846e-07" y1="49" x2="31" y2="49" stroke="#020202" stroke-width="4"/>
</svg>
