<svg width="1300" height="499" viewBox="0 0 1300 499" fill="none" xmlns="http://www.w3.org/2000/svg">
<path d="M99 58L119 69.547V46.453L99 58ZM1299 58L1279 46.453V69.547L1299 58ZM117 60H1281V56H117V60Z" fill="#020202"/>
<path d="M58 498L69.547 478L46.453 478L58 498ZM58 150L46.453 170L69.547 170L58 150ZM60 480L60 168L56 168L56 480L60 480Z" fill="#020202"/>
<path d="M9.328 340.424L12.616 346.496C12.84 345.008 13.296 343.864 13.984 343.064C14.656 342.248 15.512 341.84 16.552 341.84C16.888 341.84 17.192 341.872 17.464 341.936L17.752 341.984C20.776 342.56 22.288 345.28 22.288 350.144C22.272 352.592 21.872 354.488 21.088 355.832C20.288 357.16 19.176 357.824 17.752 357.824C17.416 357.824 17.112 357.792 16.84 357.728L16.72 357.704V354.104L16.84 354.128C17.032 354.16 17.168 354.176 17.248 354.176C17.872 354.176 18.352 353.824 18.688 353.12C19.008 352.416 19.168 351.392 19.168 350.048C19.168 348.64 19.016 347.56 18.712 346.808C18.408 346.056 17.944 345.616 17.32 345.488L17.032 345.416C16.968 345.4 16.88 345.392 16.768 345.392C15.728 345.392 15.208 346.712 15.208 349.352V352.28L12.448 351.68L9.328 346.136V355.76L6.256 355.088L6.256 339.752L9.328 340.424ZM9.4 333.223L12.472 334.063C11.912 332.863 11.632 331.383 11.632 329.623C11.632 328.183 11.824 326.927 12.208 325.855C12.592 324.783 13.136 323.959 13.84 323.383C14.528 322.807 15.328 322.519 16.24 322.519C16.592 322.519 16.904 322.551 17.176 322.615L17.44 322.687C19.04 322.991 20.248 323.847 21.064 325.255C21.88 326.663 22.288 328.591 22.288 331.039C22.288 333.471 21.928 335.367 21.208 336.727C20.488 338.087 19.496 338.767 18.232 338.767C17.992 338.767 17.752 338.743 17.512 338.695L17.344 338.647V335.023L17.512 335.071C18.024 335.183 18.432 334.871 18.736 334.135C19.024 333.383 19.168 332.303 19.168 330.895C19.168 328.063 18.488 326.503 17.128 326.215L16.864 326.167C16.704 326.135 16.592 326.119 16.528 326.119C15.952 326.119 15.504 326.487 15.184 327.223C14.848 327.959 14.68 328.983 14.68 330.295C14.68 331.543 14.8 332.567 15.04 333.367C15.28 334.151 15.616 334.623 16.048 334.783V338.359L6.256 335.671L6.256 321.127L9.4 321.799V333.223ZM22.288 311.364C22.288 312.932 22.024 314.316 21.496 315.516C20.952 316.716 20.208 317.644 19.264 318.3C18.304 318.956 17.216 319.284 16 319.284C15.52 319.284 14.984 319.22 14.392 319.092L12.568 318.684C11.208 318.412 10.032 317.876 9.04 317.076C8.048 316.26 7.288 315.228 6.76 313.98C6.232 312.732 5.968 311.332 5.968 309.78C5.968 308.212 6.24 306.836 6.784 305.652C7.312 304.452 8.056 303.524 9.016 302.868C9.976 302.212 11.072 301.884 12.304 301.884C12.768 301.884 13.296 301.948 13.888 302.076L15.712 302.484C17.76 302.9 19.368 303.9 20.536 305.484C21.704 307.052 22.288 309.012 22.288 311.364ZM19.024 311.268C19.024 309.812 18.72 308.644 18.112 307.764C17.488 306.868 16.584 306.284 15.4 306.012L13.504 305.58C13.136 305.5 12.816 305.46 12.544 305.46C11.52 305.46 10.712 305.86 10.12 306.66C9.528 307.444 9.232 308.532 9.232 309.924C9.232 311.364 9.552 312.532 10.192 313.428C10.816 314.324 11.72 314.908 12.904 315.18L14.8 315.612C15.2 315.692 15.536 315.732 15.808 315.732C16.816 315.732 17.608 315.34 18.184 314.556C18.744 313.772 19.024 312.676 19.024 311.268Z" fill="#020202"/>
<rect x="998" y="256" width="300" height="240" stroke="#020202" stroke-width="4"/>
<rect x="526" y="429" width="472" height="68" stroke="#020202" stroke-width="4"/>
<rect x="526" y="257" width="472" height="172" stroke="#020202" stroke-width="4"/>
<rect x="526" y="147" width="772" height="110" stroke="#020202" stroke-width="4"/>
<path d="M674.264 295.168C678.787 295.168 682.328 296.341 684.888 298.688C687.491 300.992 688.792 304.128 688.792 308.096C688.792 309.376 688.621 310.827 688.28 312.448L684.888 328H675.416L679.064 311.936C679.277 310.997 679.384 310.208 679.384 309.568C679.384 307.605 678.744 306.091 677.464 305.024C676.184 303.957 674.371 303.424 672.024 303.424C669.976 303.424 668.056 303.872 666.264 304.768C664.472 305.664 663 306.923 661.848 308.544L657.496 328H648.088L658.008 283.456H667.416L664.088 298.304C667.16 296.213 670.552 295.168 674.264 295.168ZM736.084 320.064L734.42 328H729.876C728.127 328 726.569 327.68 725.204 327.04C723.881 326.4 722.879 325.504 722.196 324.352C718.527 327.296 713.748 328.768 707.86 328.768C703.721 328.768 700.479 328.021 698.132 326.528C695.828 324.992 694.676 322.88 694.676 320.192C694.676 319.381 694.761 318.635 694.932 317.952C695.529 315.392 696.895 313.493 699.028 312.256C701.204 310.976 704.063 310.165 707.604 309.824L723.604 308.224C723.689 306.603 723.049 305.365 721.684 304.512C720.319 303.616 718.313 303.168 715.668 303.168C713.108 303.168 711.017 303.573 709.396 304.384C707.775 305.195 706.857 306.283 706.644 307.648L706.58 307.84H697.108L697.172 307.648C697.812 303.765 699.817 300.715 703.188 298.496C706.601 296.277 710.953 295.168 716.244 295.168C719.7 295.168 722.687 295.659 725.204 296.64C727.721 297.579 729.641 298.944 730.964 300.736C732.329 302.528 733.012 304.597 733.012 306.944C733.012 307.755 732.905 308.736 732.692 309.888L731.028 317.504C730.985 317.675 730.964 317.909 730.964 318.208C730.964 319.445 731.775 320.064 733.396 320.064H736.084ZM703.828 319.296C703.828 320.832 705.556 321.6 709.012 321.6C711.657 321.6 714.132 321.173 716.436 320.32C718.783 319.467 720.596 318.336 721.876 316.928L722.388 314.56L708.436 316.032C706.815 316.203 705.641 316.544 704.916 317.056C704.191 317.568 703.828 318.315 703.828 319.296ZM750.665 328C747.763 328 745.502 327.317 743.881 325.952C742.259 324.544 741.449 322.624 741.449 320.192C741.449 319.296 741.534 318.443 741.705 317.632L749.129 283.456H758.537L750.985 317.184C750.899 317.611 750.857 317.931 750.857 318.144C750.857 319.424 751.731 320.064 753.481 320.064H756.233L754.505 328H750.665ZM804.283 295.936L803.963 297.28L782.075 328H769.851L761.595 297.28L761.915 295.936H771.131L777.083 319.68L793.722 295.936H804.283ZM844.584 320.064L842.92 328H838.376C836.627 328 835.069 327.68 833.704 327.04C832.381 326.4 831.379 325.504 830.696 324.352C827.027 327.296 822.248 328.768 816.36 328.768C812.221 328.768 808.979 328.021 806.632 326.528C804.328 324.992 803.176 322.88 803.176 320.192C803.176 319.381 803.261 318.635 803.432 317.952C804.029 315.392 805.395 313.493 807.528 312.256C809.704 310.976 812.563 310.165 816.104 309.824L832.104 308.224C832.189 306.603 831.549 305.365 830.184 304.512C828.819 303.616 826.813 303.168 824.168 303.168C821.608 303.168 819.517 303.573 817.896 304.384C816.275 305.195 815.357 306.283 815.144 307.648L815.08 307.84H805.608L805.672 307.648C806.312 303.765 808.317 300.715 811.688 298.496C815.101 296.277 819.453 295.168 824.744 295.168C828.2 295.168 831.187 295.659 833.704 296.64C836.221 297.579 838.141 298.944 839.464 300.736C840.829 302.528 841.512 304.597 841.512 306.944C841.512 307.755 841.405 308.736 841.192 309.888L839.528 317.504C839.485 317.675 839.464 317.909 839.464 318.208C839.464 319.445 840.275 320.064 841.896 320.064H844.584ZM812.328 319.296C812.328 320.832 814.056 321.6 817.512 321.6C820.157 321.6 822.632 321.173 824.936 320.32C827.283 319.467 829.096 318.336 830.376 316.928L830.888 314.56L816.936 316.032C815.315 316.203 814.141 316.544 813.416 317.056C812.691 317.568 812.328 318.315 812.328 319.296ZM879.773 295.936L878.045 303.872H871.197C867.143 303.872 864.007 304.939 861.789 307.072L857.117 328H847.645L854.812 295.936H863.197L862.941 298.688C865.799 296.853 869.149 295.936 872.989 295.936H879.773Z" fill="#020202"/>
<path d="M584.56 189.552C589.125 189.552 592.667 190.661 595.184 192.88C597.744 195.099 599.024 198.149 599.024 202.032C599.024 203.397 598.875 204.763 598.576 206.128L595.12 222H588.912L592.56 205.744C592.773 204.891 592.88 203.931 592.88 202.864C592.88 200.347 592.069 198.427 590.448 197.104C588.827 195.739 586.523 195.056 583.536 195.056C581.019 195.056 578.629 195.632 576.368 196.784C574.107 197.893 572.229 199.451 570.736 201.456L566.128 222H559.92L569.84 177.456H576.048L572.4 193.904C576.027 191.003 580.08 189.552 584.56 189.552ZM646.7 216.752L645.612 222H642.028C640.151 222 638.551 221.595 637.228 220.784C635.948 219.973 635.095 218.885 634.668 217.52C630.785 221.019 625.729 222.768 619.5 222.768C615.361 222.768 612.119 222.043 609.772 220.592C607.468 219.141 606.316 217.136 606.316 214.576C606.316 213.851 606.401 213.168 606.572 212.528C607.169 209.925 608.556 208.005 610.732 206.768C612.951 205.531 615.873 204.741 619.5 204.4L636.908 202.736C636.993 202.224 637.036 201.819 637.036 201.52C637.036 199.515 636.14 197.957 634.348 196.848C632.599 195.739 630.124 195.184 626.924 195.184C623.639 195.184 620.929 195.781 618.796 196.976C616.705 198.128 615.489 199.707 615.148 201.712L615.084 201.968H608.876V201.712C609.559 197.957 611.543 194.992 614.828 192.816C618.113 190.64 622.273 189.552 627.308 189.552C632.215 189.552 636.076 190.576 638.892 192.624C641.751 194.672 643.18 197.424 643.18 200.88C643.18 201.648 643.073 202.608 642.86 203.76L640.812 213.168C640.727 213.68 640.684 214.021 640.684 214.192C640.684 215.003 640.961 215.643 641.516 216.112C642.071 216.539 642.881 216.752 643.948 216.752H646.7ZM619.628 217.456C623.041 217.456 626.092 216.901 628.78 215.792C631.511 214.683 633.644 213.125 635.18 211.12L635.884 207.664L619.5 209.264C617.239 209.477 615.532 209.904 614.38 210.544C613.271 211.184 612.609 212.101 612.396 213.296C612.353 213.467 612.332 213.701 612.332 214C612.332 216.304 614.764 217.456 619.628 217.456ZM661.857 222C659.254 222 657.249 221.403 655.841 220.208C654.433 219.013 653.729 217.349 653.729 215.216C653.729 214.533 653.835 213.701 654.049 212.72L661.729 177.456H667.937L660.129 212.592C660.001 213.104 659.937 213.573 659.937 214C659.937 214.939 660.235 215.643 660.833 216.112C661.43 216.539 662.347 216.752 663.585 216.752H666.337L665.185 222H661.857ZM713.939 190.32L713.747 191.216L690.963 222H682.899L673.811 191.216L674.003 190.32H680.019L687.571 216.816L707.027 190.32H713.939ZM755.2 216.752L754.112 222H750.528C748.651 222 747.051 221.595 745.728 220.784C744.448 219.973 743.595 218.885 743.168 217.52C739.285 221.019 734.229 222.768 728 222.768C723.861 222.768 720.619 222.043 718.272 220.592C715.968 219.141 714.816 217.136 714.816 214.576C714.816 213.851 714.901 213.168 715.072 212.528C715.669 209.925 717.056 208.005 719.232 206.768C721.451 205.531 724.373 204.741 728 204.4L745.408 202.736C745.493 202.224 745.536 201.819 745.536 201.52C745.536 199.515 744.64 197.957 742.848 196.848C741.099 195.739 738.624 195.184 735.424 195.184C732.139 195.184 729.429 195.781 727.296 196.976C725.205 198.128 723.989 199.707 723.648 201.712L723.584 201.968H717.376V201.712C718.059 197.957 720.043 194.992 723.328 192.816C726.613 190.64 730.773 189.552 735.808 189.552C740.715 189.552 744.576 190.576 747.392 192.624C750.251 194.672 751.68 197.424 751.68 200.88C751.68 201.648 751.573 202.608 751.36 203.76L749.312 213.168C749.227 213.68 749.184 214.021 749.184 214.192C749.184 215.003 749.461 215.643 750.016 216.112C750.571 216.539 751.381 216.752 752.448 216.752H755.2ZM728.128 217.456C731.541 217.456 734.592 216.901 737.28 215.792C740.011 214.683 742.144 213.125 743.68 211.12L744.384 207.664L728 209.264C725.739 209.477 724.032 209.904 722.88 210.544C721.771 211.184 721.109 212.101 720.896 213.296C720.853 213.467 720.832 213.701 720.832 214C720.832 216.304 723.264 217.456 728.128 217.456ZM790.837 190.32L789.685 195.568H782.901C780.554 195.568 778.399 195.973 776.437 196.784C774.474 197.552 772.789 198.683 771.381 200.176L766.517 222H760.309L767.349 190.32H772.917L772.405 193.84C775.519 191.493 779.381 190.32 783.989 190.32H790.837Z" fill="#020202"/>
<path d="M585.072 366.168C588.229 366.168 591.003 366.765 593.392 367.96C595.781 369.155 597.616 370.84 598.896 373.016C600.219 375.149 600.88 377.603 600.88 380.376C600.88 381.485 600.795 382.531 600.624 383.512L600.496 384.28C599.685 389.101 597.573 392.899 594.16 395.672C590.789 398.403 586.48 399.768 581.232 399.768C578.629 399.768 576.283 399.405 574.192 398.68C572.101 397.912 570.352 396.824 568.944 395.416L567.792 399H559.088L569.008 354.456H578.416L575.152 369.048C578.096 367.128 581.403 366.168 585.072 366.168ZM591.216 382.936C591.344 382.339 591.408 381.763 591.408 381.208C591.408 379.117 590.64 377.475 589.104 376.28C587.611 375.043 585.52 374.424 582.832 374.424C580.869 374.424 579.035 374.765 577.328 375.448C575.664 376.088 574.277 377.005 573.168 378.2L571.056 387.48C571.867 388.717 573.104 389.699 574.768 390.424C576.475 391.149 578.373 391.512 580.464 391.512C583.365 391.512 585.733 390.851 587.568 389.528C589.403 388.163 590.555 386.221 591.024 383.704L591.216 382.936ZM636.398 366.936L634.67 374.872H627.822C623.768 374.872 620.632 375.939 618.414 378.072L613.742 399H604.27L611.438 366.936H619.822L619.566 369.688C622.424 367.853 625.774 366.936 629.614 366.936H636.398ZM655.348 366.168C658.932 366.168 662.068 366.744 664.756 367.896C667.444 369.048 669.513 370.669 670.964 372.76C672.457 374.808 673.204 377.155 673.204 379.8C673.204 380.653 673.097 381.656 672.884 382.808L672.372 385.688H644.084C644.127 387.651 644.937 389.208 646.516 390.36C648.137 391.512 650.335 392.088 653.108 392.088C655.412 392.088 657.332 391.768 658.868 391.128C660.447 390.445 661.471 389.507 661.94 388.312H671.86C670.751 392.067 668.596 394.925 665.396 396.888C662.196 398.808 658.079 399.768 653.044 399.768C649.417 399.768 646.239 399.171 643.508 397.976C640.777 396.781 638.665 395.117 637.172 392.984C635.721 390.808 634.996 388.312 634.996 385.496C634.996 384.387 635.124 383.256 635.38 382.104L635.636 380.888C636.489 376.195 638.623 372.568 642.036 370.008C645.492 367.448 649.929 366.168 655.348 366.168ZM655.028 373.784C650.079 373.784 646.9 375.533 645.492 379.032H663.796C663.54 377.411 662.644 376.131 661.108 375.192C659.572 374.253 657.545 373.784 655.028 373.784ZM692.91 366.936L685.742 399H676.27L683.438 366.936H692.91ZM689.966 363.224C688.387 363.224 687.064 362.755 685.998 361.816C684.931 360.877 684.398 359.64 684.398 358.104C684.398 356.355 684.974 354.968 686.126 353.944C687.32 352.877 688.75 352.344 690.414 352.344C691.992 352.344 693.315 352.813 694.382 353.752C695.448 354.648 695.982 355.843 695.982 357.336C695.982 359.171 695.384 360.621 694.19 361.688C693.038 362.712 691.63 363.224 689.966 363.224ZM712.246 387.48C712.161 387.992 712.118 388.333 712.118 388.504C712.118 389.315 712.395 389.955 712.95 390.424C713.547 390.851 714.358 391.064 715.382 391.064H722.742L721.014 399H713.206C710.006 399 707.446 398.189 705.526 396.568C703.606 394.904 702.646 392.728 702.646 390.04C702.646 389.315 702.753 388.461 702.966 387.48L705.718 374.872H695.094L696.758 366.936H705.27C706.166 366.936 706.827 366.765 707.254 366.424C707.723 366.083 708.043 365.464 708.214 364.568L709.558 358.424H718.774L716.854 366.936H730.102L728.374 374.872H715.062L712.246 387.48ZM745.909 399.768C740.191 399.768 735.711 398.915 732.469 397.208C729.269 395.501 727.669 393.112 727.669 390.04C727.669 389.528 727.69 389.123 727.733 388.824L727.797 388.504H736.821L736.757 388.824C736.586 390.061 737.269 390.979 738.805 391.576C740.341 392.131 742.879 392.408 746.421 392.408C749.45 392.408 751.711 392.195 753.205 391.768C754.741 391.341 755.594 390.659 755.765 389.72L755.893 389.4C756.021 388.717 755.722 388.205 754.997 387.864C754.271 387.48 752.97 387.181 751.093 386.968L743.285 386.136C739.402 385.709 736.458 384.813 734.453 383.448C732.49 382.083 731.509 380.269 731.509 378.008C731.509 377.411 731.573 376.835 731.701 376.28L731.829 375.64C732.383 372.568 734.261 370.221 737.461 368.6C740.661 366.979 745.034 366.168 750.581 366.168C756.085 366.168 760.351 367.021 763.381 368.728C766.41 370.392 767.925 372.739 767.925 375.768C767.925 376.365 767.903 376.813 767.861 377.112L767.797 377.496H758.837L758.901 377.112C759.285 374.723 756.255 373.528 749.813 373.528C744.181 373.528 741.194 374.317 740.853 375.896L740.789 376.28C740.618 376.963 740.853 377.496 741.493 377.88C742.175 378.264 743.285 378.541 744.821 378.712L752.757 379.608C761.077 380.504 765.237 383.277 765.237 387.928C765.237 388.611 765.194 389.144 765.109 389.528L764.981 390.168C764.383 393.283 762.442 395.672 759.157 397.336C755.914 398.957 751.498 399.768 745.909 399.768ZM790.867 399.768C787.155 399.768 783.912 399.171 781.139 397.976C778.366 396.739 776.232 395.032 774.739 392.856C773.246 390.68 772.499 388.163 772.499 385.304C772.499 384.152 772.627 382.936 772.883 381.656L773.075 380.824C773.971 376.131 776.104 372.525 779.475 370.008C782.888 367.448 787.304 366.168 792.723 366.168C796.179 366.168 799.272 366.723 802.003 367.832C804.776 368.941 806.931 370.477 808.467 372.44C810.046 374.403 810.835 376.6 810.835 379.032C810.835 379.672 810.771 380.312 810.643 380.952L810.579 381.208H801.043L801.107 380.952C801.15 380.739 801.171 380.419 801.171 379.992C801.171 378.328 800.382 376.984 798.803 375.96C797.224 374.936 795.155 374.424 792.595 374.424C789.694 374.424 787.347 375.085 785.555 376.408C783.806 377.688 782.718 379.565 782.291 382.04L782.099 382.808C781.971 383.448 781.907 384.067 781.907 384.664C781.907 386.797 782.718 388.483 784.339 389.72C785.96 390.957 788.243 391.576 791.187 391.576C793.662 391.576 795.688 391.085 797.267 390.104C798.846 389.123 799.763 387.779 800.019 386.072L800.083 385.816H809.811V386.072C809.128 390.339 807.102 393.688 803.731 396.12C800.36 398.552 796.072 399.768 790.867 399.768ZM840.014 366.168C844.537 366.168 848.078 367.341 850.638 369.688C853.241 371.992 854.542 375.128 854.542 379.096C854.542 380.376 854.371 381.827 854.03 383.448L850.638 399H841.166L844.814 382.936C845.027 381.997 845.134 381.208 845.134 380.568C845.134 378.605 844.494 377.091 843.214 376.024C841.934 374.957 840.121 374.424 837.774 374.424C835.726 374.424 833.806 374.872 832.014 375.768C830.222 376.664 828.75 377.923 827.598 379.544L823.246 399H813.838L823.758 354.456H833.166L829.838 369.304C832.91 367.213 836.302 366.168 840.014 366.168ZM891.21 366.936L889.482 374.872H882.634C878.581 374.872 875.445 375.939 873.226 378.072L868.554 399H859.082L866.25 366.936H874.634L874.378 369.688C877.237 367.853 880.586 366.936 884.426 366.936H891.21ZM905.972 366.936L898.804 399H889.332L896.5 366.936H905.972ZM903.028 363.224C901.449 363.224 900.127 362.755 899.06 361.816C897.993 360.877 897.46 359.64 897.46 358.104C897.46 356.355 898.036 354.968 899.188 353.944C900.383 352.877 901.812 352.344 903.476 352.344C905.055 352.344 906.377 352.813 907.444 353.752C908.511 354.648 909.044 355.843 909.044 357.336C909.044 359.171 908.447 360.621 907.252 361.688C906.1 362.712 904.692 363.224 903.028 363.224ZM929.149 366.936H942.397L940.733 374.872H927.421L921.981 399H912.573L918.013 374.872H908.157L909.821 366.936H919.805L920.253 364.824C921.874 357.912 926.205 354.456 933.245 354.456H942.653L940.989 362.2H933.501C931.367 362.2 930.045 363.245 929.533 365.336L929.149 366.936ZM950.371 387.48C950.286 387.992 950.243 388.333 950.243 388.504C950.243 389.315 950.52 389.955 951.075 390.424C951.672 390.851 952.483 391.064 953.507 391.064H960.867L959.139 399H951.331C948.131 399 945.571 398.189 943.651 396.568C941.731 394.904 940.771 392.728 940.771 390.04C940.771 389.315 940.878 388.461 941.091 387.48L943.843 374.872H933.219L934.883 366.936H943.395C944.291 366.936 944.952 366.765 945.379 366.424C945.848 366.083 946.168 365.464 946.339 364.568L947.683 358.424H956.899L954.979 366.936H968.227L966.499 374.872H953.187L950.371 387.48Z" fill="#020202"/>
<rect x="98" y="392" width="115" height="35" stroke="#020202" stroke-width="4"/>
<rect x="213" y="392" width="151" height="35" stroke="#020202" stroke-width="4"/>
<rect x="363" y="392" width="99" height="35" stroke="#020202" stroke-width="4"/>
<rect x="462" y="392" width="64" height="35" stroke="#020202" stroke-width="4"/>
<rect x="98" y="356" width="115" height="35" stroke="#020202" stroke-width="4"/>
<rect x="213" y="356" width="151" height="35" stroke="#020202" stroke-width="4"/>
<rect x="363" y="356" width="99" height="35" stroke="#020202" stroke-width="4"/>
<rect x="462" y="356" width="64" height="35" stroke="#020202" stroke-width="4"/>
<rect x="98" y="321" width="115" height="35" stroke="#020202" stroke-width="4"/>
<rect x="213" y="321" width="151" height="35" stroke="#020202" stroke-width="4"/>
<rect x="363" y="321" width="99" height="35" stroke="#020202" stroke-width="4"/>
<rect x="462" y="321" width="64" height="35" stroke="#020202" stroke-width="4"/>
<rect x="98" y="286" width="115" height="35" stroke="#020202" stroke-width="4"/>
<rect x="213" y="286" width="151" height="35" stroke="#020202" stroke-width="4"/>
<rect x="363" y="286" width="99" height="35" stroke="#020202" stroke-width="4"/>
<rect x="462" y="286" width="64" height="35" stroke="#020202" stroke-width="4"/>
<path d="M124.152 298.504C124.813 298.504 125.395 298.621 125.896 298.856C126.397 299.08 126.787 299.395 127.064 299.8C127.341 300.205 127.48 300.669 127.48 301.192C127.48 301.384 127.453 301.613 127.4 301.88L127.352 302.072C127.16 302.979 126.712 303.677 126.008 304.168C125.315 304.648 124.355 304.888 123.128 304.888H118.12L117.192 309H115.576L117.912 298.504H124.152ZM123.256 303.496C123.971 303.496 124.541 303.363 124.968 303.096C125.395 302.819 125.661 302.419 125.768 301.896L125.816 301.704C125.848 301.555 125.864 301.421 125.864 301.304C125.864 300.877 125.699 300.536 125.368 300.28C125.037 300.024 124.573 299.896 123.976 299.896H119.224L118.424 303.496H123.256ZM136.497 307.688L136.225 309H135.329C134.86 309 134.46 308.899 134.129 308.696C133.809 308.493 133.596 308.221 133.489 307.88C132.518 308.755 131.254 309.192 129.697 309.192C128.662 309.192 127.852 309.011 127.265 308.648C126.689 308.285 126.401 307.784 126.401 307.144C126.401 306.963 126.422 306.792 126.465 306.632C126.614 305.981 126.961 305.501 127.505 305.192C128.06 304.883 128.79 304.685 129.697 304.6L134.049 304.184C134.07 304.056 134.081 303.955 134.081 303.88C134.081 303.379 133.857 302.989 133.409 302.712C132.972 302.435 132.353 302.296 131.553 302.296C130.732 302.296 130.054 302.445 129.521 302.744C128.998 303.032 128.694 303.427 128.609 303.928L128.593 303.992H127.041V303.928C127.212 302.989 127.708 302.248 128.529 301.704C129.35 301.16 130.39 300.888 131.649 300.888C132.876 300.888 133.841 301.144 134.545 301.656C135.26 302.168 135.617 302.856 135.617 303.72C135.617 303.912 135.59 304.152 135.537 304.44L135.025 306.792C135.004 306.92 134.993 307.005 134.993 307.048C134.993 307.251 135.062 307.411 135.201 307.528C135.34 307.635 135.542 307.688 135.809 307.688H136.497ZM129.729 307.864C130.582 307.864 131.345 307.725 132.017 307.448C132.7 307.171 133.233 306.781 133.617 306.28L133.793 305.416L129.697 305.816C129.132 305.869 128.705 305.976 128.417 306.136C128.14 306.296 127.974 306.525 127.921 306.824C127.91 306.867 127.905 306.925 127.905 307C127.905 307.576 128.513 307.864 129.729 307.864ZM141.502 300.888C142.334 300.888 143.059 300.984 143.678 301.176C144.307 301.368 144.787 301.64 145.118 301.992C145.459 302.344 145.63 302.744 145.63 303.192C145.63 303.32 145.614 303.459 145.582 303.608L145.55 303.736C145.433 304.408 144.979 304.883 144.19 305.16C144.489 305.331 144.718 305.539 144.878 305.784C145.038 306.019 145.118 306.28 145.118 306.568C145.118 306.728 145.107 306.845 145.086 306.92L145.054 307.048C144.777 308.477 143.342 309.192 140.75 309.192C139.289 309.192 138.169 308.947 137.39 308.456C136.611 307.955 136.222 307.245 136.222 306.328C136.222 306.093 136.243 305.875 136.286 305.672L136.302 305.576H137.854L137.838 305.672C137.806 305.843 137.79 306.008 137.79 306.168C137.79 306.733 138.03 307.16 138.51 307.448C139.001 307.725 139.753 307.864 140.766 307.864C141.651 307.864 142.318 307.784 142.766 307.624C143.225 307.453 143.491 307.187 143.566 306.824L143.582 306.712C143.603 306.605 143.614 306.525 143.614 306.472C143.614 306.216 143.486 306.019 143.23 305.88C142.974 305.741 142.611 305.672 142.142 305.672H139.486L139.774 304.36H142.318C142.894 304.36 143.315 304.301 143.582 304.184C143.849 304.067 144.003 303.875 144.046 303.608L144.078 303.48C144.089 303.437 144.094 303.384 144.094 303.32C144.094 302.979 143.854 302.707 143.374 302.504C142.894 302.301 142.233 302.2 141.39 302.2C140.377 302.2 139.614 302.349 139.102 302.648C138.601 302.936 138.291 303.405 138.174 304.056L138.158 304.152H136.574V304.056C136.947 301.944 138.59 300.888 141.502 300.888ZM151.4 300.888C152.21 300.888 152.925 301.037 153.544 301.336C154.162 301.624 154.637 302.035 154.968 302.568C155.309 303.091 155.48 303.688 155.48 304.36C155.48 304.584 155.453 304.845 155.4 305.144L155.336 305.448C155.122 306.611 154.584 307.528 153.72 308.2C152.866 308.861 151.773 309.192 150.44 309.192C149.757 309.192 149.133 309.08 148.568 308.856C148.002 308.621 147.538 308.296 147.176 307.88L146.312 311.72H144.76L147.128 301.08H148.504L148.392 301.96C149.245 301.245 150.248 300.888 151.4 300.888ZM153.864 305.016C153.896 304.835 153.912 304.659 153.912 304.488C153.912 303.816 153.666 303.277 153.176 302.872C152.696 302.467 152.034 302.264 151.192 302.264C150.584 302.264 150.013 302.376 149.48 302.6C148.946 302.824 148.498 303.149 148.136 303.576L147.512 306.376C147.725 306.803 148.098 307.149 148.632 307.416C149.165 307.683 149.762 307.816 150.424 307.816C151.341 307.816 152.093 307.603 152.68 307.176C153.266 306.739 153.634 306.125 153.784 305.336L153.864 305.016ZM165.447 307.688L165.175 309H164.279C163.81 309 163.41 308.899 163.079 308.696C162.759 308.493 162.546 308.221 162.439 307.88C161.468 308.755 160.204 309.192 158.647 309.192C157.612 309.192 156.802 309.011 156.215 308.648C155.639 308.285 155.351 307.784 155.351 307.144C155.351 306.963 155.372 306.792 155.415 306.632C155.564 305.981 155.911 305.501 156.455 305.192C157.01 304.883 157.74 304.685 158.647 304.6L162.999 304.184C163.02 304.056 163.031 303.955 163.031 303.88C163.031 303.379 162.807 302.989 162.359 302.712C161.922 302.435 161.303 302.296 160.503 302.296C159.682 302.296 159.004 302.445 158.471 302.744C157.948 303.032 157.644 303.427 157.559 303.928L157.543 303.992H155.991V303.928C156.162 302.989 156.658 302.248 157.479 301.704C158.3 301.16 159.34 300.888 160.599 300.888C161.826 300.888 162.791 301.144 163.495 301.656C164.21 302.168 164.567 302.856 164.567 303.72C164.567 303.912 164.54 304.152 164.487 304.44L163.975 306.792C163.954 306.92 163.943 307.005 163.943 307.048C163.943 307.251 164.012 307.411 164.151 307.528C164.29 307.635 164.492 307.688 164.759 307.688H165.447ZM158.679 307.864C159.532 307.864 160.295 307.725 160.967 307.448C161.65 307.171 162.183 306.781 162.567 306.28L162.743 305.416L158.647 305.816C158.082 305.869 157.655 305.976 157.367 306.136C157.09 306.296 156.924 306.525 156.871 306.824C156.86 306.867 156.855 306.925 156.855 307C156.855 307.576 157.463 307.864 158.679 307.864ZM175.671 297.864L175.639 298.056C175.543 298.632 175.341 299.053 175.031 299.32C174.722 299.576 174.242 299.725 173.591 299.768L170.727 299.992C169.746 300.077 169.005 300.307 168.503 300.68C168.002 301.053 167.639 301.661 167.415 302.504C168.343 301.789 169.463 301.432 170.775 301.432C171.565 301.432 172.258 301.571 172.855 301.848C173.453 302.125 173.917 302.515 174.247 303.016C174.578 303.507 174.743 304.067 174.743 304.696C174.743 304.995 174.706 305.288 174.631 305.576L174.551 305.944C174.338 306.968 173.826 307.768 173.015 308.344C172.215 308.909 171.191 309.192 169.943 309.192C168.567 309.192 167.495 308.851 166.727 308.168C165.959 307.475 165.575 306.525 165.575 305.32C165.575 304.819 165.634 304.333 165.751 303.864L165.991 302.792C166.258 301.427 166.765 300.419 167.511 299.768C168.269 299.107 169.362 298.723 170.791 298.616L173.367 298.424C173.559 298.413 173.703 298.376 173.799 298.312C173.906 298.237 173.975 298.136 174.007 298.008L174.039 297.864H175.671ZM173.095 305.448C173.149 305.256 173.175 305.048 173.175 304.824C173.175 304.205 172.935 303.715 172.455 303.352C171.975 302.979 171.314 302.792 170.471 302.792C169.842 302.792 169.245 302.899 168.679 303.112C168.125 303.315 167.639 303.608 167.223 303.992L167.143 304.408C167.069 304.717 167.031 305.027 167.031 305.336C167.031 306.115 167.287 306.728 167.799 307.176C168.311 307.613 169.031 307.832 169.959 307.832C170.802 307.832 171.479 307.661 171.991 307.32C172.514 306.968 172.85 306.461 172.999 305.8L173.095 305.448ZM179.273 309.192C178.388 309.192 177.604 309.043 176.921 308.744C176.249 308.445 175.726 308.029 175.353 307.496C174.99 306.952 174.809 306.333 174.809 305.64C174.809 305.373 174.841 305.096 174.905 304.808L174.953 304.536C175.177 303.373 175.705 302.477 176.537 301.848C177.369 301.208 178.446 300.888 179.769 300.888C180.654 300.888 181.428 301.037 182.089 301.336C182.761 301.635 183.278 302.056 183.641 302.6C184.014 303.133 184.201 303.747 184.201 304.44C184.201 304.717 184.169 305 184.105 305.288L184.057 305.56C183.844 306.712 183.321 307.608 182.489 308.248C181.657 308.877 180.585 309.192 179.273 309.192ZM179.273 307.816C180.158 307.816 180.878 307.608 181.433 307.192C181.988 306.776 182.34 306.195 182.489 305.448L182.553 305.176C182.596 304.995 182.617 304.787 182.617 304.552C182.617 303.859 182.361 303.304 181.849 302.888C181.337 302.472 180.638 302.264 179.753 302.264C178.846 302.264 178.116 302.472 177.561 302.888C177.017 303.293 176.67 303.88 176.521 304.648L176.457 304.936C176.414 305.117 176.393 305.32 176.393 305.544C176.393 306.227 176.654 306.776 177.177 307.192C177.7 307.608 178.398 307.816 179.273 307.816ZM183.881 302.408L184.153 301.08H193.465L193.177 302.408H189.369L187.881 309H186.313L187.801 302.408H183.881ZM191.37 309.192C191.114 309.192 190.89 309.112 190.698 308.952C190.517 308.792 190.426 308.579 190.426 308.312C190.426 307.992 190.522 307.741 190.714 307.56C190.917 307.368 191.162 307.272 191.45 307.272C191.717 307.272 191.941 307.352 192.122 307.512C192.303 307.672 192.394 307.891 192.394 308.168C192.394 308.477 192.293 308.728 192.09 308.92C191.898 309.101 191.658 309.192 191.37 309.192Z" fill="#020202"/>
<path d="M126.768 334.504L124.432 345H122.816L124.848 335.896H118.224L116.192 345H114.576L116.912 334.504H126.768ZM131.693 336.888C132.504 336.888 133.219 337.037 133.837 337.336C134.456 337.624 134.931 338.035 135.261 338.568C135.603 339.091 135.773 339.688 135.773 340.36C135.773 340.584 135.747 340.845 135.693 341.144L135.629 341.448C135.416 342.611 134.877 343.528 134.013 344.2C133.16 344.861 132.067 345.192 130.733 345.192C130.051 345.192 129.427 345.08 128.861 344.856C128.296 344.621 127.832 344.296 127.469 343.88L126.605 347.72H125.053L127.421 337.08H128.797L128.685 337.96C129.539 337.245 130.541 336.888 131.693 336.888ZM134.157 341.016C134.189 340.835 134.205 340.659 134.205 340.488C134.205 339.816 133.96 339.277 133.469 338.872C132.989 338.467 132.328 338.264 131.485 338.264C130.877 338.264 130.307 338.376 129.773 338.6C129.24 338.824 128.792 339.149 128.429 339.576L127.805 342.376C128.019 342.803 128.392 343.149 128.925 343.416C129.459 343.683 130.056 343.816 130.717 343.816C131.635 343.816 132.387 343.603 132.973 343.176C133.56 342.739 133.928 342.125 134.077 341.336L134.157 341.016ZM140.189 345.192C139.303 345.192 138.519 345.043 137.837 344.744C137.165 344.445 136.642 344.029 136.269 343.496C135.906 342.952 135.725 342.333 135.725 341.64C135.725 341.373 135.757 341.096 135.821 340.808L135.869 340.536C136.093 339.373 136.621 338.477 137.453 337.848C138.285 337.208 139.362 336.888 140.685 336.888C141.57 336.888 142.343 337.037 143.005 337.336C143.677 337.635 144.194 338.056 144.557 338.6C144.93 339.133 145.117 339.747 145.117 340.44C145.117 340.717 145.085 341 145.021 341.288L144.973 341.56C144.759 342.712 144.237 343.608 143.405 344.248C142.573 344.877 141.501 345.192 140.189 345.192ZM140.189 343.816C141.074 343.816 141.794 343.608 142.349 343.192C142.903 342.776 143.255 342.195 143.405 341.448L143.469 341.176C143.511 340.995 143.533 340.787 143.533 340.552C143.533 339.859 143.277 339.304 142.765 338.888C142.253 338.472 141.554 338.264 140.669 338.264C139.762 338.264 139.031 338.472 138.477 338.888C137.933 339.293 137.586 339.88 137.437 340.648L137.373 340.936C137.33 341.117 137.309 341.32 137.309 341.544C137.309 342.227 137.57 342.776 138.093 343.192C138.615 343.608 139.314 343.816 140.189 343.816ZM152.102 337.08C152.966 337.08 153.638 337.251 154.118 337.592C154.608 337.933 154.854 338.397 154.854 338.984C154.854 339.144 154.838 339.304 154.806 339.464L154.774 339.624C154.646 340.328 154.16 340.819 153.318 341.096C153.648 341.256 153.899 341.464 154.07 341.72C154.24 341.976 154.326 342.259 154.326 342.568C154.326 342.717 154.315 342.835 154.294 342.92L154.262 343.08C154.155 343.699 153.83 344.173 153.286 344.504C152.752 344.835 152.038 345 151.142 345H144.774L146.534 337.08H152.102ZM153.318 339.336C153.339 339.208 153.35 339.123 153.35 339.08C153.35 338.803 153.227 338.595 152.982 338.456C152.747 338.307 152.4 338.232 151.942 338.232H147.83L147.35 340.424H151.686C152.155 340.424 152.523 340.344 152.79 340.184C153.067 340.024 153.232 339.795 153.286 339.496L153.318 339.336ZM152.742 342.776C152.763 342.648 152.774 342.552 152.774 342.488C152.774 342.211 152.651 341.997 152.406 341.848C152.171 341.688 151.824 341.608 151.366 341.608H147.078L146.582 343.848H151.142C151.6 343.848 151.963 343.768 152.23 343.608C152.496 343.448 152.656 343.224 152.71 342.936L152.742 342.776ZM159.781 336.888C160.634 336.888 161.386 337.032 162.037 337.32C162.688 337.597 163.189 337.992 163.541 338.504C163.904 339.005 164.085 339.581 164.085 340.232C164.085 340.435 164.058 340.669 164.005 340.936L163.909 341.544H156.357C156.314 342.216 156.554 342.765 157.077 343.192C157.61 343.608 158.325 343.816 159.221 343.816C159.989 343.816 160.624 343.688 161.125 343.432C161.626 343.165 161.946 342.797 162.085 342.328H163.749C163.482 343.267 162.965 343.981 162.197 344.472C161.429 344.952 160.442 345.192 159.237 345.192C158.352 345.192 157.578 345.043 156.917 344.744C156.256 344.445 155.744 344.029 155.381 343.496C155.018 342.963 154.837 342.349 154.837 341.656C154.837 341.379 154.869 341.096 154.933 340.808L154.997 340.488C155.221 339.336 155.744 338.451 156.565 337.832C157.397 337.203 158.469 336.888 159.781 336.888ZM159.717 338.264C158.032 338.264 157.002 338.931 156.629 340.264H162.533C162.522 339.667 162.261 339.187 161.749 338.824C161.248 338.451 160.57 338.264 159.717 338.264ZM169.7 336.888C170.51 336.888 171.225 337.037 171.844 337.336C172.462 337.624 172.937 338.035 173.268 338.568C173.609 339.091 173.78 339.688 173.78 340.36C173.78 340.584 173.753 340.845 173.7 341.144L173.636 341.448C173.422 342.611 172.884 343.528 172.02 344.2C171.166 344.861 170.073 345.192 168.74 345.192C168.057 345.192 167.433 345.08 166.868 344.856C166.302 344.621 165.838 344.296 165.476 343.88L164.612 347.72H163.059L165.428 337.08H166.804L166.692 337.96C167.545 337.245 168.548 336.888 169.7 336.888ZM172.164 341.016C172.196 340.835 172.212 340.659 172.212 340.488C172.212 339.816 171.966 339.277 171.476 338.872C170.996 338.467 170.334 338.264 169.492 338.264C168.884 338.264 168.313 338.376 167.78 338.6C167.246 338.824 166.798 339.149 166.436 339.576L165.812 342.376C166.025 342.803 166.398 343.149 166.932 343.416C167.465 343.683 168.062 343.816 168.724 343.816C169.641 343.816 170.393 343.603 170.98 343.176C171.566 342.739 171.934 342.125 172.084 341.336L172.164 341.016ZM176.723 337.08L175.459 342.936L182.451 337.08H183.875L182.115 345H180.579L181.843 339.16L174.851 345H173.427L175.187 337.08H176.723ZM191.921 345H190.369L191.841 338.392H186.993L186.129 341.624C185.905 342.445 185.649 343.101 185.361 343.592C185.084 344.072 184.732 344.429 184.305 344.664C183.889 344.888 183.366 345 182.737 345H181.953L182.257 343.64H182.705C183.249 343.64 183.665 343.475 183.953 343.144C184.252 342.803 184.508 342.221 184.721 341.4L185.825 337.08H193.681L191.921 345Z" fill="#020202"/>
<path d="M121.344 370.896L121.648 369.504H132.304L132.016 370.896H127.536L125.504 380H123.888L125.92 370.896H121.344ZM129.008 380.192C128.752 380.192 128.528 380.112 128.336 379.952C128.154 379.792 128.064 379.579 128.064 379.312C128.064 378.992 128.16 378.741 128.352 378.56C128.554 378.368 128.8 378.272 129.088 378.272C129.354 378.272 129.578 378.352 129.76 378.512C129.941 378.672 130.032 378.891 130.032 379.168C130.032 379.477 129.93 379.728 129.728 379.92C129.536 380.101 129.296 380.192 129.008 380.192ZM146.741 372.304L142.262 376.112L145.286 379.776L145.222 380H143.654L140.838 376.656H138.405L137.669 380H136.117L137.877 372.08H139.43L138.709 375.344H141.062L144.918 372.08H146.79L146.741 372.304ZM149.645 380.192C148.76 380.192 147.976 380.043 147.293 379.744C146.621 379.445 146.098 379.029 145.725 378.496C145.362 377.952 145.181 377.333 145.181 376.64C145.181 376.373 145.213 376.096 145.277 375.808L145.325 375.536C145.549 374.373 146.077 373.477 146.909 372.848C147.741 372.208 148.818 371.888 150.141 371.888C151.026 371.888 151.8 372.037 152.461 372.336C153.133 372.635 153.65 373.056 154.013 373.6C154.386 374.133 154.573 374.747 154.573 375.44C154.573 375.717 154.541 376 154.477 376.288L154.429 376.56C154.216 377.712 153.693 378.608 152.861 379.248C152.029 379.877 150.957 380.192 149.645 380.192ZM149.645 378.816C150.53 378.816 151.25 378.608 151.805 378.192C152.36 377.776 152.712 377.195 152.861 376.448L152.925 376.176C152.968 375.995 152.989 375.787 152.989 375.552C152.989 374.859 152.733 374.304 152.221 373.888C151.709 373.472 151.01 373.264 150.125 373.264C149.218 373.264 148.488 373.472 147.933 373.888C147.389 374.293 147.042 374.88 146.893 375.648L146.829 375.936C146.786 376.117 146.765 376.32 146.765 376.544C146.765 377.227 147.026 377.776 147.549 378.192C148.072 378.608 148.77 378.816 149.645 378.816ZM157.526 372.08L156.806 375.36H162.486L163.222 372.08H164.774L163.014 380H161.446L162.198 376.688H156.518L155.766 380H154.214L155.974 372.08H157.526ZM163.966 373.408L164.238 372.08H173.55L173.262 373.408H169.454L167.966 380H166.398L167.886 373.408H163.966ZM177.781 371.888C178.591 371.888 179.306 372.037 179.925 372.336C180.543 372.624 181.018 373.035 181.349 373.568C181.69 374.091 181.861 374.688 181.861 375.36C181.861 375.584 181.834 375.845 181.781 376.144L181.717 376.448C181.503 377.611 180.965 378.528 180.101 379.2C179.247 379.861 178.154 380.192 176.821 380.192C176.138 380.192 175.514 380.08 174.949 379.856C174.383 379.621 173.919 379.296 173.557 378.88L172.693 382.72H171.141L173.509 372.08H174.885L174.773 372.96C175.626 372.245 176.629 371.888 177.781 371.888ZM180.245 376.016C180.277 375.835 180.293 375.659 180.293 375.488C180.293 374.816 180.047 374.277 179.557 373.872C179.077 373.467 178.415 373.264 177.573 373.264C176.965 373.264 176.394 373.376 175.861 373.6C175.327 373.824 174.879 374.149 174.517 374.576L173.893 377.376C174.106 377.803 174.479 378.149 175.013 378.416C175.546 378.683 176.143 378.816 176.805 378.816C177.722 378.816 178.474 378.603 179.061 378.176C179.647 377.739 180.015 377.125 180.165 376.336L180.245 376.016ZM182.479 380.192C182.223 380.192 181.999 380.112 181.807 379.952C181.626 379.792 181.535 379.579 181.535 379.312C181.535 378.992 181.631 378.741 181.823 378.56C182.026 378.368 182.271 378.272 182.559 378.272C182.826 378.272 183.05 378.352 183.231 378.512C183.413 378.672 183.503 378.891 183.503 379.168C183.503 379.477 183.402 379.728 183.199 379.92C183.007 380.101 182.767 380.192 182.479 380.192Z" fill="#020202"/>
<path d="M123.528 404.504L122.52 409.048H129.464L130.472 404.504H132.104L129.768 415H128.136L129.16 410.44H122.216L121.192 415H119.576L121.912 404.504H123.528ZM132.429 415.192C132.173 415.192 131.949 415.112 131.757 414.952C131.576 414.792 131.485 414.579 131.485 414.312C131.485 413.992 131.581 413.741 131.773 413.56C131.976 413.368 132.221 413.272 132.509 413.272C132.776 413.272 133 413.352 133.181 413.512C133.363 413.672 133.453 413.891 133.453 414.168C133.453 414.477 133.352 414.728 133.149 414.92C132.957 415.101 132.717 415.192 132.429 415.192ZM150.163 407.304L145.683 411.112L148.707 414.776L148.643 415H147.075L144.259 411.656H141.827L141.091 415H139.539L141.299 407.08H142.851L142.131 410.344H144.483L148.339 407.08H150.211L150.163 407.304ZM153.067 415.192C152.181 415.192 151.397 415.043 150.715 414.744C150.043 414.445 149.52 414.029 149.147 413.496C148.784 412.952 148.603 412.333 148.603 411.64C148.603 411.373 148.635 411.096 148.699 410.808L148.747 410.536C148.971 409.373 149.499 408.477 150.331 407.848C151.163 407.208 152.24 406.888 153.563 406.888C154.448 406.888 155.221 407.037 155.883 407.336C156.555 407.635 157.072 408.056 157.435 408.6C157.808 409.133 157.995 409.747 157.995 410.44C157.995 410.717 157.963 411 157.899 411.288L157.851 411.56C157.637 412.712 157.115 413.608 156.283 414.248C155.451 414.877 154.379 415.192 153.067 415.192ZM153.067 413.816C153.952 413.816 154.672 413.608 155.227 413.192C155.781 412.776 156.133 412.195 156.283 411.448L156.347 411.176C156.389 410.995 156.411 410.787 156.411 410.552C156.411 409.859 156.155 409.304 155.643 408.888C155.131 408.472 154.432 408.264 153.547 408.264C152.64 408.264 151.909 408.472 151.355 408.888C150.811 409.293 150.464 409.88 150.315 410.648L150.251 410.936C150.208 411.117 150.187 411.32 150.187 411.544C150.187 412.227 150.448 412.776 150.971 413.192C151.493 413.608 152.192 413.816 153.067 413.816ZM160.948 407.08L160.228 410.36H165.908L166.644 407.08H168.196L166.436 415H164.868L165.62 411.688H159.94L159.188 415H157.636L159.396 407.08H160.948ZM167.388 408.408L167.66 407.08H176.972L176.684 408.408H172.876L171.388 415H169.82L171.308 408.408H167.388ZM181.203 406.888C182.013 406.888 182.728 407.037 183.347 407.336C183.965 407.624 184.44 408.035 184.771 408.568C185.112 409.091 185.283 409.688 185.283 410.36C185.283 410.584 185.256 410.845 185.203 411.144L185.139 411.448C184.925 412.611 184.387 413.528 183.523 414.2C182.669 414.861 181.576 415.192 180.243 415.192C179.56 415.192 178.936 415.08 178.371 414.856C177.805 414.621 177.341 414.296 176.979 413.88L176.115 417.72H174.563L176.931 407.08H178.307L178.195 407.96C179.048 407.245 180.051 406.888 181.203 406.888ZM183.667 411.016C183.699 410.835 183.715 410.659 183.715 410.488C183.715 409.816 183.469 409.277 182.979 408.872C182.499 408.467 181.837 408.264 180.995 408.264C180.387 408.264 179.816 408.376 179.283 408.6C178.749 408.824 178.301 409.149 177.939 409.576L177.315 412.376C177.528 412.803 177.901 413.149 178.435 413.416C178.968 413.683 179.565 413.816 180.227 413.816C181.144 413.816 181.896 413.603 182.483 413.176C183.069 412.739 183.437 412.125 183.587 411.336L183.667 411.016ZM185.901 415.192C185.645 415.192 185.421 415.112 185.229 414.952C185.048 414.792 184.957 414.579 184.957 414.312C184.957 413.992 185.053 413.741 185.245 413.56C185.448 413.368 185.693 413.272 185.981 413.272C186.248 413.272 186.472 413.352 186.653 413.512C186.835 413.672 186.925 413.891 186.925 414.168C186.925 414.477 186.824 414.728 186.621 414.92C186.429 415.101 186.189 415.192 185.901 415.192Z" fill="#020202"/>
<path d="M152.376 474.504L152.328 474.744L145.896 482.984C145.469 483.528 145.085 483.944 144.744 484.232C144.413 484.509 144.056 484.707 143.672 484.824C143.299 484.941 142.84 485 142.296 485H140.344L140.648 483.608H142.44C142.856 483.608 143.187 483.549 143.432 483.432C143.677 483.315 143.944 483.08 144.232 482.728L141.064 474.744L141.112 474.504H142.68L145.352 481.336L150.6 474.504H152.376ZM149.872 478.408L150.144 477.08H159.456L159.168 478.408H155.36L153.872 485H152.304L153.792 478.408H149.872ZM164.983 477.08C165.847 477.08 166.519 477.251 166.999 477.592C167.49 477.933 167.735 478.397 167.735 478.984C167.735 479.144 167.719 479.304 167.687 479.464L167.655 479.624C167.527 480.328 167.042 480.819 166.199 481.096C166.53 481.256 166.78 481.464 166.951 481.72C167.122 481.976 167.207 482.259 167.207 482.568C167.207 482.717 167.196 482.835 167.175 482.92L167.143 483.08C167.036 483.699 166.711 484.173 166.167 484.504C165.634 484.835 164.919 485 164.023 485H157.655L159.415 477.08H164.983ZM166.199 479.336C166.22 479.208 166.231 479.123 166.231 479.08C166.231 478.803 166.108 478.595 165.863 478.456C165.628 478.307 165.282 478.232 164.823 478.232H160.711L160.231 480.424H164.567C165.036 480.424 165.404 480.344 165.671 480.184C165.948 480.024 166.114 479.795 166.167 479.496L166.199 479.336ZM165.623 482.776C165.644 482.648 165.655 482.552 165.655 482.488C165.655 482.211 165.532 481.997 165.287 481.848C165.052 481.688 164.706 481.608 164.247 481.608H159.959L159.463 483.848H164.023C164.482 483.848 164.844 483.768 165.111 483.608C165.378 483.448 165.538 483.224 165.591 482.936L165.623 482.776ZM168.854 485.192C168.598 485.192 168.374 485.112 168.182 484.952C168.001 484.792 167.91 484.579 167.91 484.312C167.91 483.992 168.006 483.741 168.198 483.56C168.401 483.368 168.646 483.272 168.934 483.272C169.201 483.272 169.425 483.352 169.606 483.512C169.788 483.672 169.878 483.891 169.878 484.168C169.878 484.477 169.777 484.728 169.574 484.92C169.382 485.101 169.142 485.192 168.854 485.192Z" fill="#020202"/>
<path d="M238.2 300.6L238.664 298.504H249.288L248.824 300.6H244.808L242.92 309H240.472L242.36 300.6H238.2ZM258.477 300.984L258.397 301.32L252.301 309.816C251.8 310.52 251.288 311.011 250.765 311.288C250.242 311.576 249.554 311.72 248.701 311.72H246.477L246.909 309.736H248.893C249.17 309.736 249.4 309.693 249.581 309.608C249.762 309.533 249.944 309.4 250.125 309.208L247.805 301.32L247.885 300.984H250.221L251.805 306.808L255.821 300.984H258.477ZM264.673 300.792C265.473 300.792 266.177 300.947 266.785 301.256C267.393 301.555 267.862 301.976 268.193 302.52C268.524 303.053 268.689 303.661 268.689 304.344C268.689 304.621 268.668 304.872 268.625 305.096L268.577 305.32C268.364 306.525 267.83 307.475 266.977 308.168C266.124 308.851 265.036 309.192 263.713 309.192C263.105 309.192 262.55 309.107 262.049 308.936C261.548 308.755 261.121 308.504 260.769 308.184L259.985 311.72H257.633L260.017 300.984H262.097L262.049 301.64C262.828 301.075 263.702 300.792 264.673 300.792ZM266.273 304.936C266.294 304.851 266.305 304.723 266.305 304.552C266.305 304.029 266.113 303.619 265.729 303.32C265.356 303.011 264.833 302.856 264.161 302.856C263.692 302.856 263.244 302.936 262.817 303.096C262.39 303.256 262.033 303.48 261.745 303.768L261.233 306.136C261.436 306.435 261.745 306.675 262.161 306.856C262.577 307.037 263.046 307.128 263.569 307.128C264.294 307.128 264.886 306.957 265.345 306.616C265.814 306.275 266.102 305.795 266.209 305.176L266.273 304.936ZM275.025 300.792C275.921 300.792 276.705 300.936 277.377 301.224C278.049 301.512 278.566 301.917 278.929 302.44C279.302 302.952 279.489 303.539 279.489 304.2C279.489 304.413 279.462 304.664 279.409 304.952L279.281 305.672H272.209C272.219 306.163 272.422 306.552 272.817 306.84C273.222 307.128 273.771 307.272 274.465 307.272C275.041 307.272 275.521 307.192 275.905 307.032C276.299 306.861 276.555 306.627 276.673 306.328H279.153C278.875 307.267 278.337 307.981 277.536 308.472C276.737 308.952 275.707 309.192 274.449 309.192C273.542 309.192 272.747 309.043 272.065 308.744C271.382 308.445 270.854 308.029 270.481 307.496C270.118 306.952 269.937 306.328 269.937 305.624C269.937 305.347 269.969 305.064 270.033 304.776L270.097 304.472C270.31 303.299 270.843 302.392 271.697 301.752C272.561 301.112 273.67 300.792 275.025 300.792ZM274.945 302.696C273.707 302.696 272.913 303.133 272.561 304.008H277.137C277.073 303.603 276.849 303.283 276.465 303.048C276.081 302.813 275.574 302.696 274.945 302.696ZM294.399 309H291.967L293.567 301.848L288.623 309H286.143L284.399 301.816L282.799 309H280.383L282.719 298.504H285.887L287.823 306.296L293.183 298.504H296.735L294.399 309ZM307.412 307.016L306.996 309H305.86C305.422 309 305.033 308.92 304.692 308.76C304.361 308.6 304.11 308.376 303.94 308.088C303.022 308.824 301.828 309.192 300.356 309.192C299.321 309.192 298.51 309.005 297.924 308.632C297.348 308.248 297.06 307.72 297.06 307.048C297.06 306.845 297.081 306.659 297.124 306.488C297.273 305.848 297.614 305.373 298.148 305.064C298.692 304.744 299.406 304.541 300.292 304.456L304.292 304.056C304.313 303.651 304.153 303.341 303.812 303.128C303.47 302.904 302.969 302.792 302.308 302.792C301.668 302.792 301.145 302.893 300.74 303.096C300.334 303.299 300.105 303.571 300.052 303.912L300.036 303.96H297.668L297.684 303.912C297.844 302.941 298.345 302.179 299.188 301.624C300.041 301.069 301.129 300.792 302.452 300.792C303.316 300.792 304.062 300.915 304.692 301.16C305.321 301.395 305.801 301.736 306.132 302.184C306.473 302.632 306.644 303.149 306.644 303.736C306.644 303.939 306.617 304.184 306.564 304.472L306.148 306.376C306.137 306.419 306.132 306.477 306.132 306.552C306.132 306.861 306.334 307.016 306.74 307.016H307.412ZM299.348 306.824C299.348 307.208 299.78 307.4 300.644 307.4C301.305 307.4 301.924 307.293 302.5 307.08C303.086 306.867 303.54 306.584 303.86 306.232L303.988 305.64L300.5 306.008C300.094 306.051 299.801 306.136 299.62 306.264C299.438 306.392 299.348 306.579 299.348 306.824ZM311.968 306.12C311.946 306.248 311.936 306.333 311.936 306.376C311.936 306.579 312.005 306.739 312.144 306.856C312.293 306.963 312.496 307.016 312.752 307.016H314.592L314.16 309H312.208C311.408 309 310.768 308.797 310.288 308.392C309.808 307.976 309.568 307.432 309.568 306.76C309.568 306.579 309.594 306.365 309.648 306.12L310.336 302.968H307.68L308.096 300.984H310.224C310.448 300.984 310.613 300.941 310.72 300.856C310.837 300.771 310.917 300.616 310.96 300.392L311.296 298.856H313.6L313.12 300.984H316.432L316 302.968H312.672L311.968 306.12ZM321.071 300.792C321.967 300.792 322.751 300.936 323.423 301.224C324.095 301.512 324.613 301.917 324.975 302.44C325.349 302.952 325.535 303.539 325.535 304.2C325.535 304.413 325.509 304.664 325.455 304.952L325.327 305.672H318.255C318.266 306.163 318.469 306.552 318.863 306.84C319.269 307.128 319.818 307.272 320.511 307.272C321.087 307.272 321.567 307.192 321.951 307.032C322.346 306.861 322.602 306.627 322.719 306.328H325.199C324.922 307.267 324.383 307.981 323.583 308.472C322.783 308.952 321.754 309.192 320.495 309.192C319.589 309.192 318.794 309.043 318.111 308.744C317.429 308.445 316.901 308.029 316.527 307.496C316.165 306.952 315.983 306.328 315.983 305.624C315.983 305.347 316.015 305.064 316.079 304.776L316.143 304.472C316.357 303.299 316.89 302.392 317.743 301.752C318.607 301.112 319.717 300.792 321.071 300.792ZM320.991 302.696C319.754 302.696 318.959 303.133 318.607 304.008H323.183C323.119 303.603 322.895 303.283 322.511 303.048C322.127 302.813 321.621 302.696 320.991 302.696ZM331.118 309.192C329.688 309.192 328.568 308.979 327.758 308.552C326.958 308.125 326.558 307.528 326.558 306.76C326.558 306.632 326.563 306.531 326.574 306.456L326.59 306.376H328.846L328.83 306.456C328.787 306.765 328.958 306.995 329.342 307.144C329.726 307.283 330.36 307.352 331.246 307.352C332.003 307.352 332.568 307.299 332.942 307.192C333.326 307.085 333.539 306.915 333.582 306.68L333.614 306.6C333.646 306.429 333.571 306.301 333.39 306.216C333.208 306.12 332.883 306.045 332.414 305.992L330.462 305.784C329.491 305.677 328.755 305.453 328.254 305.112C327.763 304.771 327.518 304.317 327.518 303.752C327.518 303.603 327.534 303.459 327.566 303.32L327.598 303.16C327.736 302.392 328.206 301.805 329.006 301.4C329.806 300.995 330.899 300.792 332.286 300.792C333.662 300.792 334.728 301.005 335.486 301.432C336.243 301.848 336.622 302.435 336.622 303.192C336.622 303.341 336.616 303.453 336.606 303.528L336.59 303.624H334.35L334.366 303.528C334.462 302.931 333.704 302.632 332.094 302.632C330.686 302.632 329.939 302.829 329.854 303.224L329.838 303.32C329.795 303.491 329.854 303.624 330.014 303.72C330.184 303.816 330.462 303.885 330.846 303.928L332.83 304.152C334.91 304.376 335.95 305.069 335.95 306.232C335.95 306.403 335.939 306.536 335.918 306.632L335.886 306.792C335.736 307.571 335.251 308.168 334.43 308.584C333.619 308.989 332.515 309.192 331.118 309.192Z" fill="#020202"/>
<rect x="98" y="427" width="115" height="35" stroke="#020202" stroke-width="4"/>
<rect x="213" y="427" width="151" height="35" stroke="#020202" stroke-width="4"/>
<rect x="363" y="427" width="99" height="35" stroke="#020202" stroke-width="4"/>
<rect x="462" y="427" width="64" height="35" stroke="#020202" stroke-width="4"/>
<rect x="98" y="462" width="115" height="35" stroke="#020202" stroke-width="4"/>
<rect x="363" y="462" width="99" height="35" stroke="#020202" stroke-width="4"/>
<rect x="462" y="462" width="64" height="35" stroke="#020202" stroke-width="4"/>
<rect x="98" y="251" width="115" height="35" stroke="#020202" stroke-width="4"/>
<rect x="213" y="251" width="151" height="35" stroke="#020202" stroke-width="4"/>
<rect x="363" y="251" width="99" height="35" stroke="#020202" stroke-width="4"/>
<rect x="462" y="251" width="64" height="35" stroke="#020202" stroke-width="4"/>
<rect x="98" y="216" width="115" height="35" stroke="#020202" stroke-width="4"/>
<rect x="213" y="216" width="151" height="35" stroke="#020202" stroke-width="4"/>
<rect x="363" y="216" width="99" height="35" stroke="#020202" stroke-width="4"/>
<rect x="462" y="216" width="64" height="35" stroke="#020202" stroke-width="4"/>
<rect x="363" y="181" width="99" height="35" stroke="#020202" stroke-width="4"/>
<rect x="462" y="181" width="64" height="35" stroke="#020202" stroke-width="4"/>
<rect x="363" y="147" width="99" height="35" stroke="#020202" stroke-width="4"/>
<rect x="462" y="147" width="64" height="35" stroke="#020202" stroke-width="4"/>
<rect x="213" y="462" width="151" height="35" stroke="#020202" stroke-width="4"/>
<rect x="98" y="147" width="1200" height="350" stroke="#020202" stroke-width="4"/>
<rect x="98" y="181" width="115" height="35" stroke="#020202" stroke-width="4"/>
<rect x="213" y="181" width="151" height="35" stroke="#020202" stroke-width="4"/>
<rect x="98" y="147" width="115" height="35" stroke="#020202" stroke-width="4"/>
<rect x="213" y="147" width="151" height="35" stroke="#020202" stroke-width="4"/>
<line x1="155" y1="146" x2="155" y2="286" stroke="#020202" stroke-width="4"/>
<line x1="98" y1="146" x2="98" y2="98" stroke="#020202" stroke-width="4"/>
<line x1="69" y1="147" x2="100" y2="147" stroke="#020202" stroke-width="4"/>
<path d="M672.376 22H668.728L671.224 10.84C670.504 11.064 669.728 11.176 668.896 11.176H666.232L666.928 7.912H669.4C670.264 7.912 670.92 7.784 671.368 7.528C671.816 7.256 672.104 6.832 672.232 6.256H675.88L672.376 22ZM687.053 5.968C688.445 5.968 689.653 6.16 690.677 6.544C691.717 6.928 692.517 7.472 693.077 8.176C693.637 8.88 693.917 9.696 693.917 10.624C693.917 10.88 693.893 11.144 693.845 11.416L693.797 11.68C693.637 12.72 693.117 13.664 692.237 14.512C691.373 15.344 689.949 16.248 687.965 17.224L684.245 19.048H692.597L691.949 22H676.781L677.429 19.168L686.333 14.728C687.389 14.2 688.173 13.776 688.685 13.456C689.213 13.12 689.581 12.808 689.789 12.52C690.013 12.232 690.157 11.888 690.221 11.488L690.269 11.272C690.285 11.192 690.293 11.088 690.293 10.96C690.293 10.352 690.005 9.88 689.429 9.544C688.853 9.208 688.029 9.04 686.957 9.04C685.773 9.04 684.829 9.256 684.125 9.688C683.421 10.104 682.981 10.712 682.805 11.512L682.685 11.992H679.085L679.205 11.488C679.605 9.632 680.453 8.248 681.749 7.336C683.045 6.424 684.813 5.968 687.053 5.968ZM704.019 22.288C702.451 22.288 701.067 22.024 699.867 21.496C698.667 20.952 697.739 20.208 697.083 19.264C696.427 18.304 696.099 17.216 696.099 16C696.099 15.52 696.163 14.984 696.291 14.392L696.699 12.568C696.971 11.208 697.507 10.032 698.307 9.04C699.123 8.048 700.155 7.288 701.403 6.76C702.651 6.232 704.051 5.968 705.603 5.968C707.171 5.968 708.547 6.24 709.731 6.784C710.931 7.312 711.859 8.056 712.515 9.016C713.171 9.976 713.499 11.072 713.499 12.304C713.499 12.768 713.435 13.296 713.307 13.888L712.899 15.712C712.483 17.76 711.483 19.368 709.899 20.536C708.331 21.704 706.371 22.288 704.019 22.288ZM704.115 19.024C705.571 19.024 706.739 18.72 707.619 18.112C708.515 17.488 709.099 16.584 709.371 15.4L709.803 13.504C709.883 13.136 709.923 12.816 709.923 12.544C709.923 11.52 709.523 10.712 708.723 10.12C707.939 9.528 706.851 9.232 705.459 9.232C704.019 9.232 702.851 9.552 701.955 10.192C701.059 10.816 700.475 11.72 700.203 12.904L699.771 14.8C699.691 15.2 699.651 15.536 699.651 15.808C699.651 16.816 700.043 17.608 700.827 18.184C701.611 18.744 702.707 19.024 704.115 19.024ZM723.636 22.288C722.068 22.288 720.684 22.024 719.484 21.496C718.284 20.952 717.356 20.208 716.7 19.264C716.044 18.304 715.716 17.216 715.716 16C715.716 15.52 715.78 14.984 715.908 14.392L716.316 12.568C716.588 11.208 717.124 10.032 717.924 9.04C718.74 8.048 719.772 7.288 721.02 6.76C722.268 6.232 723.668 5.968 725.22 5.968C726.788 5.968 728.164 6.24 729.348 6.784C730.548 7.312 731.476 8.056 732.132 9.016C732.788 9.976 733.116 11.072 733.116 12.304C733.116 12.768 733.052 13.296 732.924 13.888L732.516 15.712C732.1 17.76 731.1 19.368 729.516 20.536C727.948 21.704 725.988 22.288 723.636 22.288ZM723.732 19.024C725.188 19.024 726.356 18.72 727.236 18.112C728.132 17.488 728.716 16.584 728.988 15.4L729.42 13.504C729.5 13.136 729.54 12.816 729.54 12.544C729.54 11.52 729.14 10.712 728.34 10.12C727.556 9.528 726.468 9.232 725.076 9.232C723.636 9.232 722.468 9.552 721.572 10.192C720.676 10.816 720.092 11.72 719.82 12.904L719.388 14.8C719.308 15.2 719.268 15.536 719.268 15.808C719.268 16.816 719.66 17.608 720.444 18.184C721.228 18.744 722.324 19.024 723.732 19.024Z" fill="#020202"/>
</svg>
