<svg width="147" height="39" viewBox="0 0 147 39" fill="none" xmlns="http://www.w3.org/2000/svg">
<path d="M12.0026 38.624C8.13056 38.624 5.25056 37.68 3.36256 35.792C1.47456 33.872 0.530563 31.04 0.530563 27.296C0.530563 26.656 0.546563 25.888 0.578563 24.992C0.642563 24.064 0.722563 23.248 0.818563 22.544H12.3386V27.104H7.58656V27.776C7.58656 29.056 7.74656 30.112 8.06656 30.944C8.38656 31.744 8.86656 32.336 9.50656 32.72C10.1786 33.104 11.0106 33.296 12.0026 33.296C13.0586 33.296 13.9546 33.056 14.6906 32.576C15.4586 32.096 16.0506 31.296 16.4666 30.176C16.8826 29.024 17.0906 27.472 17.0906 25.52C17.0906 23.504 16.8506 21.856 16.3706 20.576C15.9226 19.296 15.1866 18.352 14.1626 17.744C13.1706 17.136 11.8426 16.832 10.1786 16.832C8.67456 16.832 7.17056 17.056 5.66656 17.504C4.16256 17.92 2.88256 18.416 1.82656 18.992V12.992C2.53056 12.608 3.39456 12.272 4.41856 11.984C5.47456 11.696 6.61056 11.472 7.82656 11.312C9.04256 11.152 10.2106 11.072 11.3306 11.072C13.1866 11.072 14.8346 11.36 16.2746 11.936C17.7466 12.48 18.9306 13.424 19.8266 14.768C21.4266 15.632 22.5946 16.96 23.3306 18.752C24.0986 20.544 24.4826 22.736 24.4826 25.328C24.4826 28.08 24.0506 30.448 23.1866 32.432C22.3546 34.416 21.0106 35.952 19.1546 37.04C17.3306 38.096 14.9466 38.624 12.0026 38.624ZM19.5866 16.928L15.6506 13.616C16.7706 13.232 17.6506 12.752 18.2906 12.176C18.9306 11.568 19.2666 10.832 19.2986 9.968H25.5866C25.5866 10.96 25.3786 11.92 24.9626 12.848C24.5786 13.744 23.9386 14.544 23.0426 15.248C22.1786 15.952 21.0266 16.512 19.5866 16.928ZM37.1403 38V20.624C37.1403 19.28 36.8203 18.304 36.1803 17.696C35.5723 17.088 34.5643 16.784 33.1563 16.784C32.1003 16.784 31.1243 16.928 30.2283 17.216C29.3643 17.504 28.5483 17.856 27.7803 18.272V12.512C28.4843 12.192 29.4763 11.872 30.7563 11.552C32.0363 11.232 33.5403 11.072 35.2683 11.072C37.0283 11.072 38.5803 11.328 39.9243 11.84C41.3003 12.352 42.3723 13.216 43.1403 14.432C43.9403 15.616 44.3403 17.248 44.3403 19.328V38H37.1403ZM66.0157 38V20.912C66.0157 19.376 65.5997 18.272 64.7677 17.6C63.9357 16.928 62.6557 16.592 60.9277 16.592C59.2637 16.592 57.6317 16.848 56.0317 17.36C54.4637 17.84 53.1037 18.416 51.9517 19.088V13.136C52.8797 12.688 54.1917 12.24 55.8877 11.792C57.5837 11.312 59.5517 11.072 61.7917 11.072C63.4237 11.072 64.9117 11.248 66.2557 11.6C67.6317 11.92 68.8317 12.48 69.8557 13.28C70.8797 14.048 71.6637 15.088 72.2077 16.4C72.7837 17.68 73.0717 19.28 73.0717 21.2V38H66.0157ZM58.1437 38.48C55.3917 38.48 53.2637 37.824 51.7597 36.512C50.2877 35.2 49.5517 33.36 49.5517 30.992C49.5517 28.432 50.4637 26.384 52.2877 24.848C54.1437 23.312 57.0557 22.384 61.0237 22.064L67.1677 21.584V26.768L61.8397 27.296C59.9197 27.488 58.5757 27.872 57.8077 28.448C57.0717 29.024 56.7037 29.792 56.7037 30.752C56.7037 31.712 57.0077 32.432 57.6157 32.912C58.2557 33.392 59.0717 33.632 60.0637 33.632C60.4477 33.632 60.8317 33.6 61.2157 33.536C61.5997 33.44 61.9517 33.344 62.2717 33.248L62.8957 37.76C62.2877 37.984 61.5677 38.16 60.7357 38.288C59.9037 38.416 59.0397 38.48 58.1437 38.48ZM86.7821 38.624C85.1501 38.624 83.6141 38.432 82.1741 38.048C80.7341 37.696 79.3901 37.184 78.1421 36.512L80.0621 31.28C80.7661 31.696 81.6141 32.064 82.6061 32.384C83.5981 32.704 84.5741 32.864 85.5341 32.864C87.3261 32.864 88.7501 32.192 89.8061 30.848C90.8621 29.472 91.3901 27.424 91.3901 24.704C91.3901 22.144 90.8621 20.192 89.8061 18.848C88.7501 17.504 87.1021 16.832 84.8621 16.832C83.8061 16.832 82.7181 16.992 81.5981 17.312C80.4781 17.6 79.5501 17.968 78.8141 18.416V12.512C79.8061 12.064 80.9261 11.712 82.1741 11.456C83.4221 11.2 84.7501 11.072 86.1581 11.072C89.1021 11.072 91.5021 11.616 93.3581 12.704C95.2141 13.792 96.5741 15.36 97.4381 17.408C98.3021 19.424 98.7341 21.856 98.7341 24.704C98.7341 29.248 97.6941 32.704 95.6141 35.072C93.5341 37.44 90.5901 38.624 86.7821 38.624ZM111.39 38V20.624C111.39 19.28 111.07 18.304 110.43 17.696C109.822 17.088 108.814 16.784 107.406 16.784C106.35 16.784 105.374 16.928 104.478 17.216C103.614 17.504 102.798 17.856 102.03 18.272V12.512C102.734 12.192 103.726 11.872 105.006 11.552C106.286 11.232 107.79 11.072 109.518 11.072C111.278 11.072 112.83 11.328 114.174 11.84C115.55 12.352 116.622 13.216 117.39 14.432C118.19 15.616 118.59 17.248 118.59 19.328V38H111.39ZM134.314 38.624C132.426 38.624 130.522 38.416 128.602 38C126.714 37.584 125.034 36.992 123.562 36.224L125.578 30.512C126.218 30.864 126.986 31.232 127.882 31.616C128.778 32 129.754 32.32 130.81 32.576C131.866 32.832 132.938 32.96 134.026 32.96C135.306 32.96 136.266 32.784 136.906 32.432C137.578 32.048 137.914 31.472 137.914 30.704C137.914 30.128 137.69 29.664 137.242 29.312C136.826 28.928 136.202 28.576 135.37 28.256C134.538 27.904 133.546 27.536 132.394 27.152C130.698 26.544 129.242 25.888 128.026 25.184C126.81 24.48 125.866 23.616 125.194 22.592C124.554 21.568 124.234 20.288 124.234 18.752C124.234 16.992 124.682 15.552 125.578 14.432C126.474 13.312 127.738 12.48 129.37 11.936C131.002 11.36 132.906 11.072 135.082 11.072C136.874 11.072 138.49 11.216 139.93 11.504C141.37 11.792 142.49 12.16 143.29 12.608V18.272C142.746 18.016 142.026 17.76 141.13 17.504C140.266 17.248 139.322 17.04 138.298 16.88C137.306 16.688 136.346 16.592 135.418 16.592C134.106 16.592 133.114 16.768 132.442 17.12C131.77 17.472 131.434 17.968 131.434 18.608C131.434 19.12 131.658 19.552 132.106 19.904C132.586 20.256 133.274 20.592 134.17 20.912C135.066 21.2 136.138 21.568 137.386 22.016C139.05 22.592 140.458 23.232 141.61 23.936C142.762 24.64 143.626 25.504 144.202 26.528C144.81 27.552 145.114 28.816 145.114 30.32C145.114 31.76 144.778 33.12 144.106 34.4C143.466 35.648 142.362 36.672 140.794 37.472C139.226 38.24 137.066 38.624 134.314 38.624ZM134.616 9.104C134.36 8.656 134.152 8.08 133.992 7.376C133.8 6.672 133.704 5.968 133.704 5.264C133.704 4.368 133.88 3.552 134.232 2.816C134.552 2.08 135.144 1.504 136.008 1.088C136.84 0.639997 137.992 0.415998 139.464 0.415998H146.424V5.264H141.816C141.208 5.264 140.744 5.376 140.424 5.6C140.072 5.792 139.896 6.16 139.896 6.704C139.896 6.928 139.928 7.168 139.992 7.424C140.056 7.648 140.152 7.888 140.28 8.144L134.616 9.104Z" fill="#020202"/>
</svg>
