<svg width="228" height="508" viewBox="0 0 228 508" fill="none" xmlns="http://www.w3.org/2000/svg">
<rect y="294" width="45" height="26" fill="#020202"/>
<rect y="260" width="53" height="26" fill="#020202"/>
<rect y="227" width="60" height="26" fill="#020202"/>
<rect y="193" width="68" height="26" fill="#020202"/>
<rect y="159" width="77" height="26" fill="#020202"/>
<rect y="126" width="88" height="26" fill="#020202"/>
<rect y="92" width="96" height="26" fill="#020202"/>
<rect y="59" width="107" height="26" fill="#020202"/>
<rect y="25" width="115" height="26" fill="#020202"/>
<rect y="327" width="38" height="26" fill="#020202"/>
<rect y="361" width="30" height="26" fill="#020202"/>
<rect y="395" width="23" height="26" fill="#020202"/>
<rect y="428" width="15" height="26" fill="#020202"/>
<rect y="462" width="11" height="26" fill="#020202"/>
<path d="M217.824 487.36V488H215.072C213.024 488 211.424 487.488 210.272 486.464C209.12 485.397 208.544 483.925 208.544 482.048V481.088C206.709 483.52 204.235 485.397 201.12 486.72C198.005 488 194.485 488.64 190.56 488.64C181.856 488.64 177.504 486.059 177.504 480.896C177.504 478.379 178.464 476.459 180.384 475.136C182.304 473.813 185.333 472.939 189.472 472.512L208.544 470.592V468.864C208.544 465.024 207.221 462.08 204.576 460.032C201.973 457.941 198.24 456.896 193.376 456.896C190.475 456.896 187.872 457.365 185.568 458.304C183.307 459.2 181.515 460.459 180.192 462.08C178.912 463.701 178.272 465.536 178.272 467.584V468.224H177.632V467.584C177.632 465.408 178.293 463.467 179.616 461.76C180.981 460.011 182.859 458.667 185.248 457.728C187.637 456.747 190.347 456.256 193.376 456.256C198.411 456.256 202.293 457.365 205.024 459.584C207.797 461.76 209.184 464.853 209.184 468.864V482.048C209.184 483.712 209.696 485.013 210.72 485.952C211.744 486.891 213.173 487.36 215.008 487.36H217.824ZM190.56 488C194.485 488 198.027 487.296 201.184 485.888C204.341 484.48 206.795 482.517 208.544 480V471.232L189.472 473.152C185.589 473.536 182.731 474.368 180.896 475.648C179.061 476.885 178.144 478.635 178.144 480.896C178.144 485.632 182.283 488 190.56 488Z" fill="#020202"/>
<path d="M217.504 224.56V230H213.28C211.189 230 209.44 229.595 208.032 228.784C206.624 227.973 205.643 226.821 205.088 225.328C203.381 227.163 201.333 228.528 198.944 229.424C196.555 230.32 193.739 230.768 190.496 230.768C185.931 230.768 182.411 229.979 179.936 228.4C177.461 226.779 176.224 224.475 176.224 221.488C176.224 218.928 177.184 216.88 179.104 215.344C181.024 213.808 183.84 212.848 187.552 212.464L204.64 210.672C204.512 208.283 203.509 206.469 201.632 205.232C199.755 203.995 197.067 203.376 193.568 203.376C190.197 203.376 187.509 203.952 185.504 205.104C183.499 206.256 182.496 207.792 182.496 209.712V209.968H176.416V209.712C176.416 207.323 177.12 205.211 178.528 203.376C179.979 201.499 182.005 200.069 184.608 199.088C187.211 198.064 190.219 197.552 193.632 197.552C199.051 197.552 203.253 198.747 206.24 201.136C209.227 203.525 210.72 206.875 210.72 211.184V221.04C210.72 222.149 211.061 223.024 211.744 223.664C212.427 224.261 213.408 224.56 214.688 224.56H217.504ZM190.368 225.328C193.824 225.328 196.789 224.795 199.264 223.728C201.739 222.619 203.531 221.061 204.64 219.056V215.664L188.896 217.328C186.677 217.541 185.013 217.989 183.904 218.672C182.837 219.355 182.304 220.293 182.304 221.488C182.304 224.048 184.992 225.328 190.368 225.328Z" fill="#020202"/>
<path d="M217.632 311.84V316H213.728C211.637 316 209.909 315.552 208.544 314.656C207.179 313.76 206.283 312.501 205.856 310.88C202.272 314.763 197.152 316.704 190.496 316.704C185.973 316.704 182.517 315.957 180.128 314.464C177.739 312.928 176.544 310.731 176.544 307.872C176.544 302.752 180.384 299.787 188.064 298.976L205.6 297.12V297.056C205.6 294.155 204.576 291.957 202.528 290.464C200.48 288.971 197.472 288.224 193.504 288.224C189.877 288.224 186.955 288.907 184.736 290.272C182.517 291.637 181.408 293.429 181.408 295.648V296.032H176.736V295.648C176.736 293.344 177.44 291.296 178.848 289.504C180.256 287.669 182.219 286.261 184.736 285.28C187.296 284.256 190.24 283.744 193.568 283.744C198.859 283.744 202.976 284.917 205.92 287.264C208.864 289.611 210.336 292.896 210.336 297.12V307.808C210.336 309.088 210.72 310.091 211.488 310.816C212.256 311.499 213.365 311.84 214.816 311.84H217.632ZM190.432 312.544C193.973 312.544 197.067 311.968 199.712 310.816C202.357 309.621 204.32 307.957 205.6 305.824V301.024L189.024 302.752C186.379 303.051 184.416 303.627 183.136 304.48C181.899 305.291 181.28 306.421 181.28 307.872C181.28 310.987 184.331 312.544 190.432 312.544Z" fill="#020202"/>
<path d="M217.696 399.312V402H214.304C212.128 402 210.379 401.488 209.056 400.464C207.776 399.397 207.051 397.947 206.88 396.112C203.211 400.507 197.771 402.704 190.56 402.704C186.08 402.704 182.688 402 180.384 400.592C178.08 399.184 176.928 397.093 176.928 394.32C176.928 391.803 177.888 389.84 179.808 388.432C181.728 386.981 184.672 386.043 188.64 385.616L206.88 383.76V382.992C206.88 379.707 205.728 377.189 203.424 375.44C201.12 373.691 197.792 372.816 193.44 372.816C190.837 372.816 188.512 373.2 186.464 373.968C184.459 374.693 182.88 375.739 181.728 377.104C180.619 378.427 180.064 379.941 180.064 381.648V382.096H177.12V381.648C177.12 379.387 177.803 377.36 179.168 375.568C180.576 373.776 182.517 372.389 184.992 371.408C187.467 370.427 190.304 369.936 193.504 369.936C198.667 369.936 202.677 371.088 205.536 373.392C208.395 375.653 209.824 378.853 209.824 382.992V394.768C209.824 396.219 210.251 397.349 211.104 398.16C212 398.928 213.259 399.312 214.88 399.312H217.696ZM190.496 400.016C194.208 400.016 197.493 399.376 200.352 398.096C203.253 396.816 205.429 395.024 206.88 392.72V386.256L189.216 388.112C186.016 388.453 183.669 389.115 182.176 390.096C180.683 391.077 179.936 392.485 179.936 394.32C179.936 398.117 183.456 400.016 190.496 400.016Z" fill="#020202"/>
<path d="M217.184 47.12V58H210.208C206.581 58 203.872 56.9333 202.08 54.8C200.416 56.08 198.411 57.0827 196.064 57.808C193.717 58.4907 191.179 58.832 188.448 58.832C184.181 58.832 180.832 57.9573 178.4 56.208C175.968 54.4587 174.752 52.0267 174.752 48.912C174.752 43.7067 178.293 40.6773 185.376 39.824L199.904 38.16C199.392 36.0267 197.365 34.96 193.824 34.96C189.728 34.96 187.68 35.8133 187.68 37.52V37.712H175.008V37.52C175.008 34.9173 175.776 32.6773 177.312 30.8C178.848 28.88 181.045 27.408 183.904 26.384C186.763 25.3173 190.112 24.784 193.952 24.784C199.797 24.784 204.341 26.0853 207.584 28.688C210.869 31.2907 212.512 34.9173 212.512 39.568V45.584C212.512 46.1387 212.64 46.544 212.896 46.8C213.195 47.0133 213.685 47.12 214.368 47.12H217.184ZM187.104 48.144C187.104 49.4667 188.277 50.128 190.624 50.128C192.373 50.128 194.123 49.8507 195.872 49.296C197.621 48.6987 199.008 47.9733 200.032 47.12V45.008L189.216 46.288C187.808 46.4587 187.104 47.0773 187.104 48.144Z" fill="#020202"/>
<path d="M217.376 135.872V144H211.936C209.973 144 208.267 143.68 206.816 143.04C205.408 142.357 204.341 141.397 203.616 140.16C200.373 143.232 195.765 144.768 189.792 144.768C185.269 144.768 181.749 143.915 179.232 142.208C176.715 140.501 175.456 138.112 175.456 135.04C175.456 132.437 176.395 130.368 178.272 128.832C180.149 127.253 182.88 126.272 186.464 125.888L202.272 124.16C201.76 121.003 198.901 119.424 193.696 119.424C190.965 119.424 188.832 119.808 187.296 120.576C185.803 121.301 185.056 122.325 185.056 123.648V123.84H175.712V123.648C175.712 121.131 176.437 118.933 177.888 117.056C179.381 115.179 181.493 113.728 184.224 112.704C186.955 111.68 190.133 111.168 193.76 111.168C199.392 111.168 203.765 112.427 206.88 114.944C210.037 117.461 211.616 120.939 211.616 125.376V133.312C211.616 135.019 212.597 135.872 214.56 135.872H217.376ZM190.432 137.344C193.163 137.344 195.573 136.939 197.664 136.128C199.797 135.275 201.355 134.144 202.336 132.736V130.56L188.896 132.096C187.488 132.267 186.443 132.565 185.76 132.992C185.077 133.419 184.736 134.016 184.736 134.784C184.736 136.491 186.635 137.344 190.432 137.344Z" fill="#020202"/>
</svg>
